<svg width="300" height="200" viewBox="0 0 300 200" fill="none" xmlns="http://www.w3.org/2000/svg">
<path d="M83.1447 161.8C83.1447 160.933 83.2914 160.087 83.5847 159.26C83.8914 158.42 84.3314 157.66 84.9047 156.98C85.478 156.287 86.1847 155.74 87.0247 155.34C87.8647 154.927 88.818 154.72 89.8847 154.72C91.1514 154.72 92.2314 155.013 93.1247 155.6C94.0314 156.173 94.698 156.913 95.1247 157.82L94.0247 158.5C93.718 157.873 93.3314 157.38 92.8647 157.02C92.398 156.647 91.898 156.38 91.3647 156.22C90.8447 156.06 90.3247 155.98 89.8047 155.98C88.9514 155.98 88.198 156.153 87.5447 156.5C86.8914 156.833 86.338 157.287 85.8847 157.86C85.4447 158.42 85.1114 159.053 84.8847 159.76C84.658 160.453 84.5447 161.16 84.5447 161.88C84.5447 162.667 84.678 163.42 84.9447 164.14C85.2114 164.86 85.5847 165.5 86.0647 166.06C86.5447 166.607 87.1047 167.047 87.7447 167.38C88.398 167.7 89.1047 167.86 89.8647 167.86C90.398 167.86 90.9447 167.767 91.5047 167.58C92.0647 167.393 92.5847 167.107 93.0647 166.72C93.558 166.333 93.9514 165.833 94.2447 165.22L95.4047 165.82C95.1114 166.527 94.658 167.127 94.0447 167.62C93.4314 168.113 92.7447 168.487 91.9847 168.74C91.238 168.993 90.5047 169.12 89.7847 169.12C88.8114 169.12 87.918 168.913 87.1047 168.5C86.2914 168.073 85.5847 167.513 84.9847 166.82C84.398 166.113 83.9447 165.327 83.6247 164.46C83.3047 163.58 83.1447 162.693 83.1447 161.8ZM117.336 167.76V169H107.796V154.8H117.156V156.04H109.196V161.16H116.136V162.34H109.196V167.76H117.336ZM110.676 152.6V150.72H111.836V152.6H110.676ZM113.656 152.6V150.72H114.816V152.6H113.656ZM134.883 169.12C134.083 169.12 133.31 168.993 132.563 168.74C131.83 168.473 131.163 168.093 130.563 167.6C129.976 167.107 129.51 166.513 129.163 165.82L130.343 165.22C130.663 165.807 131.063 166.3 131.543 166.7C132.023 167.087 132.55 167.38 133.123 167.58C133.696 167.767 134.27 167.86 134.843 167.86C135.616 167.86 136.33 167.7 136.983 167.38C137.65 167.06 138.23 166.62 138.723 166.06C139.216 165.5 139.59 164.86 139.843 164.14C140.11 163.42 140.23 162.673 140.203 161.9L140.823 162.32H133.503V161.16H140.783L140.203 161.56C140.19 160.88 140.056 160.207 139.803 159.54C139.563 158.86 139.216 158.26 138.763 157.74C138.31 157.207 137.756 156.78 137.103 156.46C136.45 156.14 135.71 155.98 134.883 155.98C134.31 155.98 133.75 156.067 133.203 156.24C132.67 156.413 132.176 156.687 131.723 157.06C131.27 157.433 130.89 157.92 130.583 158.52L129.423 157.82C129.916 156.913 130.61 156.173 131.503 155.6C132.41 155.013 133.523 154.72 134.843 154.72C135.923 154.72 136.883 154.927 137.723 155.34C138.576 155.74 139.29 156.287 139.863 156.98C140.45 157.66 140.896 158.42 141.203 159.26C141.51 160.1 141.663 160.96 141.663 161.84C141.663 162.76 141.496 163.66 141.163 164.54C140.843 165.407 140.383 166.187 139.783 166.88C139.183 167.56 138.463 168.107 137.623 168.52C136.796 168.92 135.883 169.12 134.883 169.12ZM154.36 169V154.8H155.74V167.08L164.54 154.8H165.84V169H164.46V156.94L155.76 169H154.36ZM178.455 171.72V167.76H179.055C179.429 167.76 179.755 167.607 180.035 167.3C180.329 166.993 180.575 166.5 180.775 165.82C180.989 165.127 181.155 164.2 181.275 163.04C181.409 161.88 181.502 160.44 181.555 158.72L181.655 154.8H190.155V167.76H191.855V171.72H190.615V169H179.695V171.72H178.455ZM181.055 167.76H188.755V156.04H182.935L182.855 158.88C182.815 160.68 182.722 162.187 182.575 163.4C182.442 164.6 182.249 165.553 181.995 166.26C181.742 166.953 181.429 167.453 181.055 167.76ZM210.176 169.1C209.176 169.1 208.269 168.9 207.456 168.5C206.642 168.1 205.942 167.56 205.356 166.88C204.769 166.187 204.316 165.413 203.996 164.56C203.676 163.693 203.516 162.807 203.516 161.9C203.516 160.953 203.682 160.053 204.016 159.2C204.349 158.333 204.816 157.567 205.416 156.9C206.029 156.22 206.742 155.687 207.556 155.3C208.369 154.9 209.249 154.7 210.196 154.7C211.196 154.7 212.102 154.907 212.916 155.32C213.729 155.733 214.422 156.287 214.996 156.98C215.582 157.673 216.036 158.447 216.356 159.3C216.676 160.153 216.836 161.027 216.836 161.92C216.836 162.867 216.669 163.773 216.336 164.64C216.002 165.493 215.536 166.26 214.936 166.94C214.336 167.607 213.629 168.133 212.816 168.52C212.002 168.907 211.122 169.1 210.176 169.1ZM204.916 161.9C204.916 162.673 205.042 163.42 205.296 164.14C205.549 164.847 205.909 165.48 206.376 166.04C206.842 166.587 207.396 167.027 208.036 167.36C208.689 167.68 209.402 167.84 210.176 167.84C210.989 167.84 211.716 167.673 212.356 167.34C213.009 166.993 213.562 166.54 214.016 165.98C214.482 165.407 214.836 164.767 215.076 164.06C215.316 163.353 215.436 162.633 215.436 161.9C215.436 161.127 215.309 160.387 215.056 159.68C214.802 158.973 214.436 158.34 213.956 157.78C213.489 157.22 212.936 156.78 212.296 156.46C211.656 156.14 210.949 155.98 210.176 155.98C209.376 155.98 208.649 156.147 207.996 156.48C207.356 156.813 206.802 157.267 206.336 157.84C205.882 158.4 205.529 159.033 205.276 159.74C205.036 160.447 204.916 161.167 204.916 161.9Z" fill="white"/>
<path d="M90.8425 191.12C90.3865 191.12 89.9665 191.036 89.5825 190.868C89.2065 190.692 88.8745 190.452 88.5865 190.148C88.3065 189.844 88.0865 189.496 87.9265 189.104C87.7745 188.712 87.6985 188.296 87.6985 187.856C87.6985 187.264 87.8305 186.724 88.0945 186.236C88.3585 185.748 88.7265 185.36 89.1985 185.072C89.6705 184.784 90.2145 184.64 90.8305 184.64C91.4145 184.64 91.9305 184.776 92.3785 185.048C92.8265 185.312 93.1585 185.672 93.3745 186.128L92.5825 186.38C92.4065 186.06 92.1585 185.812 91.8385 185.636C91.5265 185.452 91.1785 185.36 90.7945 185.36C90.3785 185.36 89.9985 185.468 89.6545 185.684C89.3105 185.9 89.0345 186.196 88.8265 186.572C88.6265 186.948 88.5265 187.376 88.5265 187.856C88.5265 188.328 88.6305 188.756 88.8385 189.14C89.0465 189.524 89.3225 189.832 89.6665 190.064C90.0105 190.288 90.3905 190.4 90.8065 190.4C91.0785 190.4 91.3385 190.352 91.5865 190.256C91.8425 190.16 92.0625 190.032 92.2465 189.872C92.4385 189.704 92.5665 189.524 92.6305 189.332L93.4345 189.572C93.3225 189.868 93.1345 190.136 92.8705 190.376C92.6145 190.608 92.3105 190.792 91.9585 190.928C91.6145 191.056 91.2425 191.12 90.8425 191.12ZM113.747 190.256V191H109.679V190.256H111.383V185.12C111.319 185.216 111.211 185.32 111.059 185.432C110.907 185.544 110.731 185.648 110.531 185.744C110.339 185.84 110.147 185.92 109.955 185.984C109.763 186.048 109.587 186.08 109.427 186.08V185.288C109.611 185.288 109.811 185.236 110.027 185.132C110.243 185.028 110.451 184.908 110.651 184.772C110.851 184.636 111.019 184.508 111.155 184.388C111.291 184.268 111.367 184.188 111.383 184.148H112.223V190.256H113.747ZM124.953 184.76H120.357V184.004H126.249L121.941 192.524H121.005L124.953 184.76ZM139.008 187.484C139.008 188.188 138.876 188.816 138.612 189.368C138.356 189.912 138 190.34 137.544 190.652C137.088 190.964 136.572 191.12 135.996 191.12C135.42 191.12 134.904 190.964 134.448 190.652C134 190.34 133.644 189.912 133.38 189.368C133.116 188.816 132.984 188.188 132.984 187.484C132.984 186.78 133.116 186.156 133.38 185.612C133.644 185.06 134 184.628 134.448 184.316C134.904 183.996 135.42 183.836 135.996 183.836C136.572 183.836 137.088 183.996 137.544 184.316C138 184.628 138.356 185.06 138.612 185.612C138.876 186.156 139.008 186.78 139.008 187.484ZM138.18 187.484C138.18 186.916 138.088 186.416 137.904 185.984C137.72 185.552 137.464 185.216 137.136 184.976C136.808 184.728 136.428 184.604 135.996 184.604C135.564 184.604 135.184 184.728 134.856 184.976C134.528 185.216 134.268 185.552 134.076 185.984C133.892 186.416 133.8 186.916 133.8 187.484C133.8 188.052 133.892 188.552 134.076 188.984C134.268 189.416 134.528 189.752 134.856 189.992C135.184 190.232 135.564 190.352 135.996 190.352C136.428 190.352 136.808 190.232 137.136 189.992C137.464 189.744 137.72 189.408 137.904 188.984C138.088 188.552 138.18 188.052 138.18 187.484ZM148.816 192.788C148.216 192.788 147.672 192.636 147.184 192.332C146.696 192.036 146.332 191.644 146.092 191.156L146.632 190.748C146.856 191.14 147.16 191.456 147.544 191.696C147.936 191.936 148.364 192.056 148.828 192.056C149.228 192.056 149.584 191.968 149.896 191.792C150.216 191.616 150.468 191.372 150.652 191.06C150.844 190.748 150.94 190.388 150.94 189.98C150.94 189.588 150.848 189.244 150.664 188.948C150.488 188.644 150.244 188.408 149.932 188.24C149.628 188.072 149.284 187.988 148.9 187.988C148.532 187.988 148.18 188.072 147.844 188.24C147.508 188.4 147.236 188.636 147.028 188.948H146.272L147.22 184.148H151.336V184.904H147.832L147.244 187.964C147.452 187.74 147.708 187.568 148.012 187.448C148.316 187.32 148.644 187.256 148.996 187.256C149.516 187.256 149.984 187.372 150.4 187.604C150.824 187.836 151.16 188.156 151.408 188.564C151.656 188.972 151.78 189.44 151.78 189.968C151.78 190.528 151.644 191.02 151.372 191.444C151.108 191.868 150.752 192.196 150.304 192.428C149.856 192.668 149.36 192.788 148.816 192.788ZM168.158 191V184.748H171.89V185.48H168.974V191H168.158ZM181.697 191.12C181.249 191.12 180.833 191.036 180.449 190.868C180.073 190.692 179.745 190.456 179.465 190.16C179.193 189.856 178.981 189.512 178.829 189.128C178.677 188.736 178.601 188.324 178.601 187.892C178.601 187.444 178.677 187.028 178.829 186.644C178.981 186.252 179.197 185.908 179.477 185.612C179.757 185.308 180.085 185.072 180.461 184.904C180.845 184.728 181.261 184.64 181.709 184.64C182.157 184.64 182.569 184.728 182.945 184.904C183.321 185.072 183.649 185.308 183.929 185.612C184.209 185.908 184.425 186.252 184.577 186.644C184.729 187.028 184.805 187.444 184.805 187.892C184.805 188.324 184.729 188.736 184.577 189.128C184.425 189.512 184.209 189.856 183.929 190.16C183.657 190.456 183.329 190.692 182.945 190.868C182.569 191.036 182.153 191.12 181.697 191.12ZM179.429 187.904C179.429 188.368 179.529 188.792 179.729 189.176C179.937 189.552 180.213 189.852 180.557 190.076C180.901 190.292 181.281 190.4 181.697 190.4C182.113 190.4 182.493 190.288 182.837 190.064C183.181 189.84 183.457 189.536 183.665 189.152C183.873 188.76 183.977 188.336 183.977 187.88C183.977 187.416 183.873 186.992 183.665 186.608C183.457 186.224 183.181 185.92 182.837 185.696C182.493 185.472 182.113 185.36 181.697 185.36C181.281 185.36 180.901 185.476 180.557 185.708C180.221 185.94 179.949 186.248 179.741 186.632C179.533 187.008 179.429 187.432 179.429 187.904ZM191.474 192.452V190.268H191.582C191.766 190.268 191.934 190.212 192.086 190.1C192.238 189.988 192.374 189.792 192.494 189.512C192.614 189.232 192.71 188.848 192.782 188.36C192.854 187.864 192.902 187.24 192.926 186.488L192.986 184.748H197.054V190.268H197.894V192.452H197.162V191H192.194V192.452H191.474ZM192.818 190.268H196.238V185.48H193.718L193.682 186.56C193.658 187.304 193.606 187.928 193.526 188.432C193.454 188.928 193.358 189.324 193.238 189.62C193.126 189.908 192.986 190.124 192.818 190.268ZM204.626 189.2C204.626 188.808 204.738 188.472 204.962 188.192C205.186 187.904 205.494 187.684 205.886 187.532C206.286 187.372 206.746 187.292 207.266 187.292C207.57 187.292 207.886 187.316 208.214 187.364C208.542 187.412 208.834 187.484 209.09 187.58V187.052C209.09 186.524 208.934 186.104 208.622 185.792C208.31 185.48 207.878 185.324 207.326 185.324C206.99 185.324 206.658 185.388 206.33 185.516C206.01 185.636 205.674 185.816 205.322 186.056L205.01 185.48C205.418 185.2 205.818 184.992 206.21 184.856C206.602 184.712 207.002 184.64 207.41 184.64C208.178 184.64 208.786 184.86 209.234 185.3C209.682 185.74 209.906 186.348 209.906 187.124V190.016C209.906 190.128 209.93 190.212 209.978 190.268C210.026 190.316 210.102 190.344 210.206 190.352V191C210.118 191.008 210.042 191.016 209.978 191.024C209.914 191.032 209.866 191.032 209.834 191.024C209.634 191.016 209.482 190.952 209.378 190.832C209.274 190.712 209.218 190.584 209.21 190.448L209.198 189.992C208.918 190.352 208.554 190.632 208.106 190.832C207.658 191.024 207.202 191.12 206.738 191.12C206.338 191.12 205.974 191.036 205.646 190.868C205.326 190.692 205.074 190.46 204.89 190.172C204.714 189.876 204.626 189.552 204.626 189.2ZM208.814 189.68C208.902 189.568 208.97 189.46 209.018 189.356C209.066 189.252 209.09 189.16 209.09 189.08V188.168C208.818 188.064 208.534 187.984 208.238 187.928C207.95 187.872 207.658 187.844 207.362 187.844C206.778 187.844 206.306 187.96 205.946 188.192C205.586 188.424 205.406 188.74 205.406 189.14C205.406 189.372 205.466 189.592 205.586 189.8C205.706 190 205.882 190.168 206.114 190.304C206.346 190.432 206.618 190.496 206.93 190.496C207.322 190.496 207.686 190.42 208.022 190.268C208.366 190.116 208.63 189.92 208.814 189.68Z" fill="white"/>
<path d="M148.72 16.1938C130.306 21.0769 121.219 28.0245 132.976 28.223C135.926 28.3024 138.556 28.3024 138.755 28.223C138.995 28.1833 142.741 26.8732 147.125 25.3646C151.629 23.7766 155.894 22.7444 156.89 22.9826C158.325 23.3399 158.883 22.9429 159.481 21.3548C160.756 18.0597 160.477 15.4395 158.883 15.4395C158.126 15.4395 156.771 15.241 155.894 15.0425C155.017 14.844 151.789 15.3601 148.72 16.1938Z" fill="white"/>
<path d="M145.85 39.4582C145.81 40.014 145.81 41.205 145.89 42.1578C146.009 43.5076 144.654 44.6589 139.473 47.7159C129.509 53.5518 113.885 68.9159 114.363 72.3698C114.841 75.6649 118.03 74.4739 122.653 69.3129C131.223 59.6657 136.523 55.1795 143.658 51.5271C147.085 49.7406 147.444 50.7331 144.295 53.3136C135.886 60.3803 125.403 70.226 119.903 76.2207C112.091 84.7563 98.5401 98.3735 95.3515 100.835L93 102.701L94.6341 107.663C95.5508 110.403 96.6668 112.745 97.1052 112.904C98.3009 113.301 102.884 109.172 102.884 107.743C102.884 102.383 124.965 76.0619 136.922 67.1293C140.071 64.787 143.459 62.008 144.455 60.9758C149.716 55.378 148.281 61.5316 142.741 68.1615C140.111 71.3376 137.958 74.196 137.958 74.5533C137.958 75.0694 131.781 82.6125 128.592 85.9473C128.034 86.5428 127.596 87.7735 127.556 88.7263C127.556 89.6791 127.077 91.7833 126.48 93.3713C125.762 95.3563 125.603 98.2147 125.961 102.344C126.36 107.266 126.24 108.577 125.284 109.093C124.287 109.648 124.248 110.284 125.045 112.904C125.563 114.651 126.001 117.271 126.001 118.74C126.001 122.035 132.777 131.484 136.643 133.588C139.433 135.096 153.742 135.533 156.691 134.223C157.568 133.826 158.564 133.469 158.923 133.429C159.242 133.389 159.8 132.953 160.119 132.476C160.437 131.96 161.474 131.325 162.43 131.047C166.974 129.618 180.764 113.102 179.688 110.323C179.449 109.688 179.569 109.132 180.007 109.132C180.685 109.132 182.159 105.162 183.116 100.875C186.663 84.2402 179.25 69.3526 166.017 66.6529C161.593 65.7398 165.938 61.1346 173.869 58.3953C182.638 55.2986 179.329 49.423 168.249 48.4305C167.572 48.3511 166.615 48.0732 166.097 47.7556C165.619 47.438 164.184 48.0335 162.948 49.0657C154.14 56.3705 150.952 54.3855 159.162 46.7234C166.535 39.9346 164.702 37.2747 155.057 40.7286L150.673 42.3166L149.397 40.3713C148.042 38.3466 145.969 37.7908 145.85 39.4582ZM157.329 64.4694C157.568 66.0971 158.006 68.4394 158.325 69.6305C158.763 71.3376 158.604 71.814 157.568 71.814C156.81 71.814 155.336 72.4095 154.26 73.0844C153.184 73.799 152.307 74.1166 152.307 73.8387C152.307 73.5211 151.231 74.0769 149.915 74.99C146.607 77.3323 147.962 72.5683 151.47 69.432C151.709 69.1938 152.785 67.169 153.821 64.9061C155.973 60.2215 156.731 60.1421 157.329 64.4694ZM162.909 82.7316C166.655 89.1233 166.217 101.073 162.072 107.028C158.803 111.673 159.003 113.261 162.51 110.323C164.383 108.775 165.061 108.497 165.061 109.41C165.061 110.085 164.662 110.879 164.224 111.157C163.746 111.435 163.068 112.507 162.669 113.499C161.912 115.524 155.814 119.454 153.144 119.653C151.071 119.812 150.991 121.836 153.104 122.392C155.774 123.107 153.941 124.298 151.031 123.742C148.879 123.345 148.321 123.504 148.321 124.536C148.321 127.434 142.542 125.012 139.274 120.725C137.161 117.985 136.563 114.968 136.205 105.718C136.125 103.376 139.234 99.3263 140.549 100.12C140.948 100.359 141.944 102.066 142.741 103.852C144.335 107.425 148.6 112.308 150.154 112.308C156.412 112.229 158.445 110.204 156.372 106.155C156.013 105.4 155.216 103.693 154.618 102.383C153.343 99.6042 150.394 95.3166 147.683 92.3391L145.77 90.1952L147.843 87.4559C153.303 80.3496 160.238 78.166 162.909 82.7316ZM174.148 86.9795C174.387 88.369 174.587 91.6642 174.507 94.3241L174.387 99.2072L173.829 93.2522C173.51 89.957 172.992 86.6619 172.673 85.9076C172.315 85.1136 172.394 84.5181 172.833 84.5181C173.271 84.5181 173.869 85.6297 174.148 86.9795Z" fill="white"/>
<path d="M257.301 60.5991L256.659 61.2674L257.515 62.2299C258.183 63.0051 258.343 63.4329 258.343 64.3953C258.343 65.3042 258.236 65.625 257.889 65.732C256.9 66.0528 256.044 66.534 255.135 67.229C254.039 68.1112 253.638 68.1647 253.398 67.4429C253.264 67.0419 252.997 66.9082 252.328 66.9082C251.553 66.9082 251.259 67.1221 250.323 68.2716C249.735 69.0202 249.254 69.9024 249.254 70.1965C249.254 70.8915 250.697 72.5223 251.286 72.5223C251.499 72.5223 252.034 72.3351 252.462 72.1213C253.077 71.8005 253.264 71.5064 253.264 70.9183C253.264 70.4905 253.371 69.8489 253.531 69.4747C253.745 68.8865 253.959 68.7796 254.895 68.7796C255.884 68.7796 257.274 68.3518 258.343 67.6835C258.557 67.5498 259.038 67.3092 259.413 67.1756C259.787 67.0152 260.295 66.7746 260.535 66.6409C261.043 66.3468 265.909 66.2666 266.176 66.534C266.256 66.6409 266.096 67.0152 265.829 67.3894C264.893 68.539 265.107 68.8063 266.925 68.7261C268.128 68.6726 268.609 68.539 268.796 68.2182C269.197 67.4429 269.063 66.935 268.342 66.2934C267.941 65.9726 267.406 65.4913 267.165 65.224C266.845 64.8765 266.363 64.7695 265.374 64.7963C263.476 64.8765 263.182 64.6091 264.198 63.6735C265.214 62.7645 265.214 62.6309 264.332 61.5882C263.69 60.813 263.637 60.7862 262.995 61.1872C262.594 61.4813 262.353 61.8823 262.353 62.3368C262.353 63.1388 260.936 65.0369 260.322 65.0369C259.867 65.0369 259.787 63.4061 260.215 62.6309C260.402 62.3101 260.348 61.8288 260.108 61.107C259.814 60.2248 259.653 60.0912 258.851 60.011C258.156 59.9575 257.782 60.0912 257.301 60.5991Z" fill="white"/>
<path d="M232.492 60.6526C232.011 60.8664 232.064 61.8288 232.545 62.3635C233.107 63.0051 232.626 65.1705 231.717 66.1597C231.022 66.8548 230.941 67.7102 231.53 67.8974C231.717 67.9776 232.171 67.7102 232.519 67.3092C233.16 66.6142 233.187 66.6142 233.936 67.0954C234.337 67.3627 234.844 67.7102 235.032 67.8974C235.459 68.3251 236.021 68.3251 236.689 67.9776C237.919 67.3092 236.074 65.5715 234.684 66.1062C234.283 66.2666 233.855 66.3736 233.722 66.3736C233.294 66.3736 233.454 65.1171 233.989 64.4755C234.47 63.8873 234.55 63.8606 235.459 64.1814C237.197 64.823 238.293 63.4329 236.796 62.4705C236.154 62.0427 236.101 62.0427 235.326 62.6041C234.417 63.2725 234.23 63.0586 234.337 61.5348C234.417 60.706 234.363 60.6258 233.615 60.5724C233.187 60.5456 232.652 60.5724 232.492 60.6526Z" fill="white"/>
<path d="M198.941 61.3744C198.353 61.8556 198.193 62.2031 198.193 63.0319C198.193 63.62 198.38 64.2616 198.647 64.5557C198.995 64.9567 199.048 65.2507 198.834 66.0528C198.594 67.0152 198.567 67.0419 197.15 67.1221C196.054 67.1756 195.626 67.0954 195.466 66.8013C195.065 66.1062 194.37 66.3201 193.675 67.3092C192.873 68.4855 193.033 69.8489 194.076 70.9717C194.878 71.8005 195.653 71.9074 196.402 71.3193C196.99 70.8915 197.658 71.0787 197.658 71.6935C197.658 71.9341 196.482 73.2441 195.065 74.5808C192.338 77.1739 192.204 77.468 193.434 78.2433C194.022 78.5908 195.519 77.4413 196.776 75.7036C197.284 74.9818 197.845 74.3936 197.979 74.3936C198.166 74.3936 198.193 75.2758 198.086 76.9868C197.899 79.9275 198.059 80.4354 199.102 80.1681C199.717 80.0077 199.797 79.8473 199.85 78.7245C199.877 78.0294 199.877 76.9066 199.823 76.2382C199.797 75.4095 199.904 74.9016 200.171 74.661C200.679 74.26 200.706 73.752 200.278 72.9768C199.797 72.0945 199.743 70.4905 200.198 70.1163C200.412 69.9291 200.599 69.5816 200.599 69.3142C200.599 69.0469 200.759 68.6994 200.973 68.539C201.187 68.3518 201.427 67.8974 201.534 67.4964C201.668 66.935 201.561 66.6676 201.107 66.2934C200.519 65.8122 200.519 65.7854 200.946 64.5557C201.508 62.9784 201.508 62.4972 200.946 61.5348C200.385 60.5991 199.904 60.5724 198.941 61.3744Z" fill="white"/>
<path d="M227.787 61.508C227.279 62.0694 227.199 62.7111 227.6 63.4329C227.867 63.9408 227.787 64.2349 226.557 66.9082C226.316 67.4162 226.049 67.8974 225.915 67.9241C225.621 68.0578 224.926 69.4747 224.926 69.9826C224.926 70.2232 225.167 70.3836 225.541 70.3836C225.996 70.3836 226.343 70.0895 226.744 69.341L227.332 68.2716L228.482 68.94C229.872 69.7153 229.899 69.7153 230.086 68.9934C230.3 68.2449 229.364 67.1756 228.482 67.1756C228.134 67.1756 227.867 67.0152 227.867 66.8013C227.867 66.3736 228.99 65.5715 229.551 65.5715C229.765 65.5715 230.139 65.2775 230.353 64.9299C230.754 64.3151 230.754 64.2349 230.059 63.5398C229.605 63.0586 229.337 62.4705 229.337 61.9625C229.337 60.9734 228.482 60.7328 227.787 61.508Z" fill="white"/>
<path d="M253.825 63.1923C253.317 63.6735 253.237 63.9675 253.371 64.7428C253.505 65.6518 254.119 66.3736 254.708 66.3736C254.868 66.3736 255.242 66.026 255.536 65.5983C255.83 65.1438 256.285 64.7428 256.579 64.6626C257.06 64.5289 257.007 64.422 256.071 63.5665C254.814 62.4705 254.627 62.4437 253.825 63.1923Z" fill="white"/>
<path d="M223.75 64.6359C222.868 65.7854 222.868 67.2558 223.723 67.3894C224.338 67.4696 226.236 66.1597 226.263 65.6517C226.263 65.0636 225.327 63.7002 224.9 63.7002C224.659 63.7002 224.124 64.1279 223.75 64.6359Z" fill="white"/>
<path d="M209.287 64.8497C209.1 65.3042 208.993 66.026 209.073 66.427C209.18 67.0419 208.966 67.3894 207.576 68.7528C206.667 69.6618 205.758 70.7846 205.544 71.2925C205.331 71.8005 204.662 72.6025 204.074 73.1104C203.486 73.6184 203.005 74.1798 203.005 74.3134C203.005 74.4738 202.818 74.7412 202.604 74.9283C202.39 75.1154 202.203 75.463 202.203 75.7303C202.203 75.9976 202.39 76.3452 202.604 76.5323C202.818 76.7195 203.005 77.0937 203.005 77.3878C203.005 77.6551 203.192 78.1898 203.433 78.5373C203.78 79.0453 204.101 79.2057 204.849 79.2057C205.384 79.2057 206.052 79.0185 206.32 78.8047C206.667 78.5373 207.496 78.4037 208.833 78.4037C210.57 78.4037 210.971 78.3235 211.747 77.7086C212.682 77.0135 212.923 76.0778 212.228 75.8372C212.014 75.7303 211.827 75.3293 211.827 74.9016C211.827 74.0194 210.731 72.7896 209.956 72.7896C209.26 72.7896 208.886 73.5916 209.047 74.7144C209.207 75.5699 209.127 75.7036 208.218 76.2115C207.122 76.8799 205.999 76.9868 205.785 76.4254C205.598 75.9709 206.186 74.8214 207.148 73.7253C207.603 73.1906 207.79 72.7629 207.683 72.3886C207.148 70.4905 207.122 70.544 208.859 69.6351C209.768 69.1538 210.731 68.7796 210.998 68.7796C211.613 68.7796 213.03 66.8013 212.736 66.3201C212.201 65.4379 210.597 63.9675 210.143 63.9675C209.849 63.9675 209.528 64.2883 209.287 64.8497Z" fill="white"/>
<path d="M203.406 66.6409C202.871 67.229 202.711 69.9291 203.219 70.4371C204.047 71.2658 205.411 69.4479 205.411 67.4964C205.411 66.0528 204.341 65.5983 203.406 66.6409Z" fill="white"/>
<path d="M259.145 68.6994C258.263 69.0736 258.236 69.1271 258.744 69.4747C259.012 69.6885 259.332 69.8489 259.466 69.8489C259.947 69.8489 259.626 70.8915 259.012 71.2925C258.129 71.8807 253.531 76.2917 253.531 76.5591C253.531 76.666 253.718 76.9601 253.959 77.1739C254.52 77.7621 257.862 77.7621 258.343 77.2007C258.798 76.6393 259.065 76.6927 259.252 77.3878C259.359 77.8423 259.199 78.1898 258.718 78.6175C258.129 79.1522 257.782 79.2324 255.804 79.2591C253.718 79.2859 253.505 79.3393 253.13 79.9007C252.756 80.4889 252.756 80.5958 253.184 81.0236C253.451 81.2909 254.039 81.6652 254.467 81.8256C255.162 82.1196 255.51 82.0662 257.007 81.478C258.584 80.8364 258.958 80.783 261.017 80.9434C263.075 81.1038 263.369 81.077 264.038 80.5424C265.214 79.6067 264.973 79.2859 262.754 78.8047C261.658 78.5641 260.749 78.2433 260.749 78.1096C260.749 77.5215 261.872 75.7036 262.46 75.3293C263.637 74.554 263.53 73.2174 262.353 73.859C261.899 74.0996 261.765 74.0461 261.578 73.4847C261.418 73.1372 261.177 72.7629 261.043 72.6559C260.429 72.3084 260.803 71.7203 262.033 71.1054C263.583 70.3301 263.797 69.6083 262.674 68.8063C261.738 68.1647 260.482 68.1112 259.145 68.6994ZM258.905 73.5916C259.038 73.5916 259.145 73.9392 259.145 74.3669C259.145 74.9283 258.985 75.1689 258.557 75.3026C257.515 75.5699 256.739 75.4897 256.739 75.0887C256.739 74.5006 257.889 73.3243 258.29 73.458C258.504 73.5382 258.771 73.5916 258.905 73.5916Z" fill="white"/>
<path d="M233.214 68.6994C232.839 68.7528 232.198 68.9667 231.743 69.1806C231.316 69.3677 230.754 69.6083 230.54 69.6885C230.326 69.7687 229.952 69.9559 229.738 70.0628C229.524 70.1965 228.856 70.5173 228.268 70.7579C227.68 71.0252 226.851 71.3995 226.45 71.6133C225.461 72.0945 224.766 72.0945 224.552 71.5866C224.365 71.0519 223.803 71.0787 222.734 71.7203C221.852 72.2282 220.649 73.5916 220.649 74.0728C220.649 74.2065 220.916 74.554 221.264 74.8748C222.199 75.757 223.376 75.6501 224.632 74.5273C225.194 74.0194 225.728 73.5916 225.835 73.5916C226.076 73.5916 231.663 71.0252 233.829 69.9291C235.032 69.2875 238.293 69.9291 238.293 70.7846C238.293 70.9183 237.919 71.2925 237.491 71.5866C236.609 72.1747 236.448 72.8966 237.117 73.1639C238.24 73.5916 240.191 73.1906 240.753 72.3886C241.367 71.5866 240.218 69.3142 239.229 69.3142C238.908 69.3142 238.534 69.1806 238.347 68.9934C238.026 68.6726 234.657 68.4855 233.214 68.6994Z" fill="white"/>
<path d="M255.75 70.0895C255.189 70.5707 255.055 71.0252 255.109 72.1747C255.135 72.6827 255.296 72.7896 256.044 72.7896C256.739 72.7896 256.98 72.6559 257.114 72.1747C257.381 71.1589 257.301 70.4905 256.819 70.0361C256.392 69.6618 256.285 69.6618 255.75 70.0895Z" fill="white"/>
<path d="M231.663 71.8807C231.369 72.0945 231.075 72.5223 231.022 72.8698C230.968 73.3243 230.727 73.4847 230.006 73.5382C228.722 73.6718 227.6 74.5006 227.787 75.2224C228.027 76.1313 229.043 76.6393 230.006 76.2917C230.995 75.9709 231.155 76.1848 231.022 77.8957C230.941 79.072 230.941 79.072 229.819 79.1522C228.375 79.2591 228.348 79.7136 229.712 80.783L230.754 81.6117L231.717 81.0503C232.839 80.4087 233.107 79.4463 232.813 77.1739C232.652 75.864 232.706 75.6234 233.187 75.1689C233.855 74.554 233.909 74.0461 233.374 73.6184C233.16 73.4312 232.893 72.9233 232.813 72.4955C232.599 71.5064 232.358 71.3727 231.663 71.8807Z" fill="white"/>
<path d="M264.492 75.5164C263.85 76.2115 263.85 76.2382 264.519 77.0403C265.214 77.8957 267.005 78.0027 267.112 77.2007C267.192 76.666 265.829 74.9283 265.321 74.9283C265.16 74.9283 264.813 75.1956 264.492 75.5164Z" fill="white"/>
<path d="M235.513 77.3611C235.139 78.0829 235.139 78.2967 235.486 79.0987C235.78 79.8473 235.994 80.0077 236.636 80.0077C237.411 80.0077 238.293 79.3126 238.293 78.6977C238.293 78.3235 237.491 77.0135 237.09 76.7462C236.529 76.3184 235.914 76.5591 235.513 77.3611Z" fill="white"/>
<path d="M224.418 78.2433L223.83 78.8581L224.392 79.8205C224.926 80.7028 224.98 80.7295 225.782 80.4354C226.236 80.275 226.824 79.8205 227.038 79.4195C227.279 78.9918 227.546 78.671 227.68 78.671C227.787 78.671 227.867 78.4304 227.867 78.1363C227.867 77.6819 227.68 77.6017 226.45 77.6017C225.301 77.6017 224.9 77.7353 224.418 78.2433Z" fill="white"/>
<path d="M94.5425 65.0102C94.5425 65.1706 94.7831 65.5448 95.0772 65.8389C95.8258 66.5874 96.2 66.5072 96.0931 65.625C96.0396 65.0636 95.8525 64.8765 95.2911 64.823C94.8633 64.7696 94.5425 64.8498 94.5425 65.0102Z" fill="white"/>
<path d="M75.3211 70.4638C75.1607 70.8381 74.9201 71.2123 74.7864 71.3193C74.626 71.3995 74.4924 71.7203 74.4924 72.0144C74.4924 72.6827 75.2944 72.6827 76.1231 72.0144C76.6578 71.5866 76.7112 71.3995 76.4974 70.7579C76.1498 69.7687 75.6152 69.6618 75.3211 70.4638Z" fill="white"/>
<path d="M72.6745 63.4863C72.2735 63.8873 72.2735 64.5824 72.6477 64.9567C73.1022 65.4112 71.9259 66.1062 71.0705 65.8656C70.0813 65.5716 69.6803 65.7587 69.6803 66.5072C69.6803 66.9884 69.9744 67.2558 70.8833 67.7102C71.5517 68.031 72.0863 68.3786 72.0863 68.4588C72.0329 69.2073 70.0011 70.3836 68.7446 70.3836C68.0228 70.3836 67.702 71.2123 68.1832 71.8807C68.504 72.3084 69.2526 72.2282 70.8299 71.5866C71.4982 71.3193 71.418 72.3084 70.7229 72.95C69.7338 73.8322 68.6912 75.3026 68.504 76.0511C68.0763 77.9225 70.8299 75.8105 71.9527 73.458C72.5408 72.1748 72.8883 72.5223 72.8883 74.3669V75.9175L73.9844 76.1046C74.5726 76.2115 75.829 76.2115 76.7647 76.1046C78.4222 75.9442 78.4489 75.9175 78.6093 75.062C78.9569 73.3243 78.0212 72.7362 76.9518 73.9926C75.7488 75.356 73.3695 74.6342 73.7706 73.0302C73.8508 72.7362 73.7973 72.1213 73.6636 71.6401C73.423 70.8113 73.4765 70.7311 74.9468 69.3677C75.8023 68.6192 76.5776 67.9776 76.6845 67.9776C77.1657 67.9776 76.8449 67.2558 76.2568 66.935C75.7488 66.6409 75.535 66.6676 75.0538 66.935C74.7597 67.1488 74.4924 67.4162 74.4924 67.5766C74.4924 67.9241 73.53 68.7796 73.1557 68.7796C72.7012 68.7796 72.8616 67.8172 73.3695 67.4162C73.6102 67.2023 74.1448 66.8548 74.5726 66.6409C75.3746 66.2399 75.5082 65.7052 74.8934 65.4646C74.6795 65.3844 74.4924 65.0102 74.4924 64.6091C74.4924 63.5131 73.3428 62.818 72.6745 63.4863Z" fill="white"/>
<path d="M56.3135 63.8873C56.0997 63.9943 55.565 64.3685 55.1372 64.7695C54.2283 65.625 54.3352 66.4538 55.2976 66.3201C56.3403 66.1864 56.0195 67.0152 54.8966 67.3627C54.2016 67.6033 53.6936 67.63 53.1857 67.4162C52.8114 67.2825 52.3302 67.2023 52.1164 67.2825C51.5817 67.4964 51.6886 68.7261 52.2768 68.9133C52.5708 68.9935 52.8649 69.2608 52.9718 69.5014C53.1322 69.9559 53.0253 70.1163 51.2074 72.3084C50.0044 73.7253 49.6301 74.9283 50.4054 74.9283C50.9133 74.9283 52.6243 72.7896 54.1214 70.3301C54.6293 69.5281 55.1907 69.0469 55.6452 69.0469C55.6987 69.0469 55.7254 69.4747 55.6987 69.9826C55.6452 70.6509 55.3511 71.2123 54.6293 71.9341C53.5065 73.057 53.3728 73.9392 54.1481 74.8481C54.8164 75.6501 55.1907 75.6234 55.4046 74.7946C55.5115 74.3669 55.7521 74.1263 56.0195 74.153C56.9017 74.2332 57.4096 74.1263 57.2492 73.859C57.169 73.6986 56.8482 73.5916 56.5541 73.5916C56.2868 73.5916 56.0462 73.4847 56.0462 73.3243C56.0462 72.9768 56.9017 71.9876 57.2225 71.9876C57.6769 71.9876 58.1581 72.9233 58.1849 73.8055C58.1849 75.1154 57.7571 75.7303 56.8749 75.7303C56.4472 75.7303 55.966 75.9175 55.7789 76.1313C55.5115 76.4521 55.6719 76.6125 56.6878 77.0937C58.1314 77.7621 58.5324 77.6551 59.2275 76.5056C59.7622 75.6501 60.2968 71.8807 59.9493 71.5064C59.8424 71.4262 59.2008 71.2658 58.5057 71.1856C57.57 71.0787 57.2225 70.9183 57.169 70.544C57.0888 70.143 57.169 70.0628 57.7037 70.1965C58.5859 70.4371 61.9008 70.4905 62.1147 70.2767C62.1949 70.1965 62.1414 69.7955 61.9543 69.4212C61.6602 68.7529 61.5533 68.7261 60.2701 68.8598C59.5216 68.9667 58.6126 69.2341 58.2651 69.4479C57.4363 70.0093 56.8482 69.7955 56.8482 68.94C56.8482 68.4053 57.0888 68.1647 58.0512 67.737C59.4146 67.1221 59.7622 66.2132 58.5324 66.4538C58.1581 66.534 57.4631 66.4538 57.0086 66.2934L56.1799 65.9993L57.2225 65.7052C58.5057 65.331 58.6393 65.0636 57.9175 64.2883C57.3561 63.7002 57.0353 63.62 56.3135 63.8873Z" fill="white"/>
<path d="M87.6453 64.3953C87.2977 64.6091 87.0571 65.0903 87.0571 65.4646C87.0571 65.8122 86.7898 66.5607 86.469 67.1221C86.1215 67.6568 85.5601 68.6994 85.1858 69.4479C84.8115 70.1697 84.357 70.945 84.1966 71.1321C84.0095 71.3193 83.8491 71.6668 83.8491 71.8807C83.8491 72.1213 83.662 72.4688 83.4481 72.6827C82.9402 73.1906 82.9402 73.5649 83.4214 73.752C83.956 73.9659 84.6778 73.1639 85.2927 71.7203C85.8274 70.4638 86.6829 69.5014 87.0571 69.7153C87.1908 69.7955 87.2977 70.4905 87.271 71.2658C87.271 72.4956 87.1641 72.7629 86.3353 73.5382C85.2125 74.5808 85.2393 75.356 86.3888 75.2758C86.8165 75.2491 87.3245 75.356 87.5116 75.5164C87.9126 75.8373 88.581 75.4095 88.9552 74.5273C89.0889 74.2332 89.3028 73.8055 89.4097 73.5916C90.1315 72.3352 90.3721 71.7737 90.5058 71.0787C90.6127 70.6509 90.8266 70.2499 91.0137 70.1697C91.4949 70.0093 91.4414 72.6292 90.9335 73.057C90.3721 73.5382 90.4523 74.1263 91.2008 75.062C91.789 75.7838 91.8692 75.8105 92.0029 75.3293C92.1098 75.0352 92.3771 74.3936 92.6177 73.9124C93.0455 73.0837 93.0455 73.0035 92.6177 72.7629C92.19 72.5223 92.19 72.4421 92.6979 71.6133L93.2326 70.7044L92.6177 70.2767L92.0296 69.8489H92.6979C93.3128 69.8489 93.4197 69.9826 93.5801 70.8381C93.8742 72.656 93.7673 74.1263 93.3395 74.2867C93.0722 74.3936 92.9385 74.8214 92.9385 75.4897C92.9385 76.4254 93.0187 76.5323 93.6069 76.5323C94.8633 76.5323 95.7723 73.4045 94.9703 71.8539C94.7297 71.3995 94.5425 70.4103 94.5425 69.6083C94.5425 68.2182 94.5158 68.1914 93.8742 68.2984C93.1257 68.4588 92.9653 67.9776 93.6069 67.4429C94.1148 67.0152 94.1148 66.133 93.6336 65.9458C93.4197 65.8656 93.1791 65.4914 93.0989 65.1438C92.8851 64.2883 92.0296 64.3953 91.9226 65.2775C91.7355 66.5072 90.5325 67.8172 90.5325 66.7746C90.5325 66.534 90.2919 66.3736 89.8642 66.3736C89.4364 66.3736 89.1958 66.534 89.1958 66.7746C89.1958 67.0152 89.4364 67.1756 89.8107 67.1756C90.1315 67.1756 90.6127 67.4696 90.8533 67.8172C91.2543 68.3786 91.281 68.5122 90.9335 68.7796C90.7196 68.9667 90.5325 69.2875 90.5325 69.5014C90.5325 69.9559 89.4899 70.8915 88.982 70.9183C88.7414 70.9183 88.6879 70.544 88.8216 69.4479C88.982 68.1914 88.9285 67.9776 88.5542 67.9776C88.3136 67.9776 88.0463 68.1647 87.9661 68.3786C87.7522 68.9133 87.3245 68.8865 87.3245 68.3518C87.3245 67.8974 88.2601 66.2399 88.8483 65.625C89.2493 65.224 89.276 65.0101 89.0354 64.3953C88.8216 63.8606 88.4206 63.8606 87.6453 64.3953Z" fill="white"/>
</svg>
