<svg width="300" height="200" viewBox="0 0 300 200" fill="none" xmlns="http://www.w3.org/2000/svg">
<path d="M46.634 169L50.434 162.98C49.4073 162.74 48.614 162.253 48.054 161.52C47.5073 160.787 47.234 159.913 47.234 158.9C47.234 158.14 47.4207 157.453 47.794 156.84C48.1807 156.213 48.7207 155.72 49.414 155.36C50.1073 154.987 50.934 154.8 51.894 154.8H56.294V169H54.914V163.16H52.374C52.294 163.16 52.2073 163.16 52.114 163.16C52.034 163.16 51.954 163.16 51.874 163.16L48.234 169H46.634ZM51.954 161.94H54.914V156.02H52.034C51.3807 156.02 50.794 156.14 50.274 156.38C49.754 156.62 49.354 156.953 49.074 157.38C48.794 157.807 48.654 158.313 48.654 158.9C48.654 159.487 48.7807 160.007 49.034 160.46C49.2873 160.913 49.654 161.273 50.134 161.54C50.6273 161.807 51.234 161.94 51.954 161.94ZM82.4284 169V157.44L77.2884 166.42H76.4084L71.2484 157.44V169H69.8484V154.8H71.2884L76.8284 164.52L82.4084 154.8H83.8284V169H82.4284ZM101.787 154.8H102.967L108.867 169H107.387L105.547 164.56H99.1674L97.3474 169H95.8474L101.787 154.8ZM105.227 163.46L102.367 156.44L99.4674 163.46H105.227ZM119.883 171.72V167.76H120.483C120.856 167.76 121.183 167.607 121.463 167.3C121.756 166.993 122.003 166.5 122.203 165.82C122.416 165.127 122.583 164.2 122.703 163.04C122.836 161.88 122.93 160.44 122.983 158.72L123.083 154.8H131.583V167.76H133.283V171.72H132.043V169H121.123V171.72H119.883ZM122.483 167.76H130.183V156.04H124.363L124.283 158.88C124.243 160.68 124.15 162.187 124.003 163.4C123.87 164.6 123.676 165.553 123.423 166.26C123.17 166.953 122.856 167.453 122.483 167.76ZM150.284 154.8H151.464L157.364 169H155.884L154.044 164.56H147.664L145.844 169H144.344L150.284 154.8ZM153.724 163.46L150.864 156.44L147.964 163.46H153.724ZM181.979 169V157.44L176.839 166.42H175.959L170.799 157.44V169H169.399V154.8H170.839L176.379 164.52L181.959 154.8H183.379V169H181.979ZM201.338 154.8H202.518L208.418 169H206.938L205.098 164.56H198.718L196.898 169H195.398L201.338 154.8ZM204.778 163.46L201.918 156.44L199.018 163.46H204.778ZM231.274 171.7V169H220.454V154.8H221.854V167.76H229.414V154.8H230.794V167.76H232.514V171.7H231.274ZM246.682 169.04V167.86H247.582C247.888 167.86 248.115 167.773 248.262 167.6C248.422 167.427 248.595 167.167 248.782 166.82L249.402 165.52L243.342 154.8H244.882L250.042 164.1L254.342 154.8H255.802L249.862 167.5C249.595 168.047 249.322 168.44 249.042 168.68C248.762 168.92 248.368 169.04 247.862 169.04H246.682Z" fill="white"/>
<path d="M92.0905 191.12C91.6345 191.12 91.2145 191.036 90.8305 190.868C90.4545 190.692 90.1225 190.452 89.8345 190.148C89.5545 189.844 89.3345 189.496 89.1745 189.104C89.0225 188.712 88.9465 188.296 88.9465 187.856C88.9465 187.264 89.0785 186.724 89.3425 186.236C89.6065 185.748 89.9745 185.36 90.4465 185.072C90.9185 184.784 91.4625 184.64 92.0785 184.64C92.6625 184.64 93.1785 184.776 93.6265 185.048C94.0745 185.312 94.4065 185.672 94.6225 186.128L93.8305 186.38C93.6545 186.06 93.4065 185.812 93.0865 185.636C92.7745 185.452 92.4265 185.36 92.0425 185.36C91.6265 185.36 91.2465 185.468 90.9025 185.684C90.5585 185.9 90.2825 186.196 90.0745 186.572C89.8745 186.948 89.7745 187.376 89.7745 187.856C89.7745 188.328 89.8785 188.756 90.0865 189.14C90.2945 189.524 90.5705 189.832 90.9145 190.064C91.2585 190.288 91.6385 190.4 92.0545 190.4C92.3265 190.4 92.5865 190.352 92.8345 190.256C93.0905 190.16 93.3105 190.032 93.4945 189.872C93.6865 189.704 93.8145 189.524 93.8785 189.332L94.6825 189.572C94.5705 189.868 94.3825 190.136 94.1185 190.376C93.8625 190.608 93.5585 190.792 93.2065 190.928C92.8625 191.056 92.4905 191.12 92.0905 191.12ZM114.995 190.256V191H110.927V190.256H112.631V185.12C112.567 185.216 112.459 185.32 112.307 185.432C112.155 185.544 111.979 185.648 111.779 185.744C111.587 185.84 111.395 185.92 111.203 185.984C111.011 186.048 110.835 186.08 110.675 186.08V185.288C110.859 185.288 111.059 185.236 111.275 185.132C111.491 185.028 111.699 184.908 111.899 184.772C112.099 184.636 112.267 184.508 112.403 184.388C112.539 184.268 112.615 184.188 112.631 184.148H113.471V190.256H114.995ZM126.201 184.76H121.605V184.004H127.497L123.189 192.524H122.253L126.201 184.76ZM134.016 187.076C134.016 186.532 134.148 186.04 134.412 185.6C134.684 185.16 135.048 184.808 135.504 184.544C135.968 184.28 136.48 184.148 137.04 184.148C137.64 184.148 138.168 184.292 138.624 184.58C139.088 184.86 139.448 185.268 139.704 185.804C139.968 186.332 140.1 186.968 140.1 187.712C140.1 188.872 139.968 189.832 139.704 190.592C139.44 191.344 139.072 191.908 138.6 192.284C138.128 192.66 137.58 192.848 136.956 192.848C136.396 192.848 135.888 192.704 135.432 192.416C134.984 192.136 134.644 191.752 134.412 191.264L134.94 190.784C135.108 191.184 135.376 191.508 135.744 191.756C136.112 192.004 136.516 192.128 136.956 192.128C137.436 192.128 137.848 191.98 138.192 191.684C138.544 191.388 138.816 190.964 139.008 190.412C139.208 189.86 139.312 189.192 139.32 188.408C139.208 188.712 139.032 188.984 138.792 189.224C138.552 189.456 138.276 189.636 137.964 189.764C137.652 189.892 137.312 189.956 136.944 189.956C136.408 189.956 135.916 189.828 135.468 189.572C135.02 189.316 134.664 188.972 134.4 188.54C134.144 188.1 134.016 187.612 134.016 187.076ZM137.028 184.868C136.62 184.868 136.248 184.968 135.912 185.168C135.576 185.368 135.304 185.636 135.096 185.972C134.896 186.3 134.796 186.668 134.796 187.076C134.796 187.476 134.896 187.844 135.096 188.18C135.304 188.516 135.576 188.784 135.912 188.984C136.256 189.184 136.628 189.284 137.028 189.284C137.436 189.284 137.808 189.184 138.144 188.984C138.48 188.784 138.748 188.516 138.948 188.18C139.148 187.844 139.248 187.476 139.248 187.076C139.248 186.676 139.148 186.308 138.948 185.972C138.748 185.636 138.476 185.368 138.132 185.168C137.796 184.968 137.428 184.868 137.028 184.868ZM153.299 187.484C153.299 188.188 153.167 188.816 152.903 189.368C152.647 189.912 152.291 190.34 151.835 190.652C151.379 190.964 150.863 191.12 150.287 191.12C149.711 191.12 149.195 190.964 148.739 190.652C148.291 190.34 147.935 189.912 147.671 189.368C147.407 188.816 147.275 188.188 147.275 187.484C147.275 186.78 147.407 186.156 147.671 185.612C147.935 185.06 148.291 184.628 148.739 184.316C149.195 183.996 149.711 183.836 150.287 183.836C150.863 183.836 151.379 183.996 151.835 184.316C152.291 184.628 152.647 185.06 152.903 185.612C153.167 186.156 153.299 186.78 153.299 187.484ZM152.471 187.484C152.471 186.916 152.379 186.416 152.195 185.984C152.011 185.552 151.755 185.216 151.427 184.976C151.099 184.728 150.719 184.604 150.287 184.604C149.855 184.604 149.475 184.728 149.147 184.976C148.819 185.216 148.559 185.552 148.367 185.984C148.183 186.416 148.091 186.916 148.091 187.484C148.091 188.052 148.183 188.552 148.367 188.984C148.559 189.416 148.819 189.752 149.147 189.992C149.475 190.232 149.855 190.352 150.287 190.352C150.719 190.352 151.099 190.232 151.427 189.992C151.755 189.744 152.011 189.408 152.195 188.984C152.379 188.552 152.471 188.052 152.471 187.484ZM169.909 191V184.748H173.641V185.48H170.725V191H169.909ZM183.449 191.12C183.001 191.12 182.585 191.036 182.201 190.868C181.825 190.692 181.497 190.456 181.217 190.16C180.945 189.856 180.733 189.512 180.581 189.128C180.429 188.736 180.353 188.324 180.353 187.892C180.353 187.444 180.429 187.028 180.581 186.644C180.733 186.252 180.949 185.908 181.229 185.612C181.509 185.308 181.837 185.072 182.213 184.904C182.597 184.728 183.013 184.64 183.461 184.64C183.909 184.64 184.321 184.728 184.697 184.904C185.073 185.072 185.401 185.308 185.681 185.612C185.961 185.908 186.177 186.252 186.329 186.644C186.481 187.028 186.557 187.444 186.557 187.892C186.557 188.324 186.481 188.736 186.329 189.128C186.177 189.512 185.961 189.856 185.681 190.16C185.409 190.456 185.081 190.692 184.697 190.868C184.321 191.036 183.905 191.12 183.449 191.12ZM181.181 187.904C181.181 188.368 181.281 188.792 181.481 189.176C181.689 189.552 181.965 189.852 182.309 190.076C182.653 190.292 183.033 190.4 183.449 190.4C183.865 190.4 184.245 190.288 184.589 190.064C184.933 189.84 185.209 189.536 185.417 189.152C185.625 188.76 185.729 188.336 185.729 187.88C185.729 187.416 185.625 186.992 185.417 186.608C185.209 186.224 184.933 185.92 184.589 185.696C184.245 185.472 183.865 185.36 183.449 185.36C183.033 185.36 182.653 185.476 182.309 185.708C181.973 185.94 181.701 186.248 181.493 186.632C181.285 187.008 181.181 187.432 181.181 187.904ZM193.225 192.452V190.268H193.333C193.517 190.268 193.685 190.212 193.837 190.1C193.989 189.988 194.125 189.792 194.245 189.512C194.365 189.232 194.461 188.848 194.533 188.36C194.605 187.864 194.653 187.24 194.677 186.488L194.737 184.748H198.805V190.268H199.645V192.452H198.913V191H193.945V192.452H193.225ZM194.569 190.268H197.989V185.48H195.469L195.433 186.56C195.409 187.304 195.357 187.928 195.277 188.432C195.205 188.928 195.109 189.324 194.989 189.62C194.877 189.908 194.737 190.124 194.569 190.268ZM206.378 189.2C206.378 188.808 206.49 188.472 206.714 188.192C206.938 187.904 207.246 187.684 207.638 187.532C208.038 187.372 208.498 187.292 209.018 187.292C209.322 187.292 209.638 187.316 209.966 187.364C210.294 187.412 210.586 187.484 210.842 187.58V187.052C210.842 186.524 210.686 186.104 210.374 185.792C210.062 185.48 209.63 185.324 209.078 185.324C208.742 185.324 208.41 185.388 208.082 185.516C207.762 185.636 207.426 185.816 207.074 186.056L206.762 185.48C207.17 185.2 207.57 184.992 207.962 184.856C208.354 184.712 208.754 184.64 209.162 184.64C209.93 184.64 210.538 184.86 210.986 185.3C211.434 185.74 211.658 186.348 211.658 187.124V190.016C211.658 190.128 211.682 190.212 211.73 190.268C211.778 190.316 211.854 190.344 211.958 190.352V191C211.87 191.008 211.794 191.016 211.73 191.024C211.666 191.032 211.618 191.032 211.586 191.024C211.386 191.016 211.234 190.952 211.13 190.832C211.026 190.712 210.97 190.584 210.962 190.448L210.95 189.992C210.67 190.352 210.306 190.632 209.858 190.832C209.41 191.024 208.954 191.12 208.49 191.12C208.09 191.12 207.726 191.036 207.398 190.868C207.078 190.692 206.826 190.46 206.642 190.172C206.466 189.876 206.378 189.552 206.378 189.2ZM210.566 189.68C210.654 189.568 210.722 189.46 210.77 189.356C210.818 189.252 210.842 189.16 210.842 189.08V188.168C210.57 188.064 210.286 187.984 209.99 187.928C209.702 187.872 209.41 187.844 209.114 187.844C208.53 187.844 208.058 187.96 207.698 188.192C207.338 188.424 207.158 188.74 207.158 189.14C207.158 189.372 207.218 189.592 207.338 189.8C207.458 190 207.634 190.168 207.866 190.304C208.098 190.432 208.37 190.496 208.682 190.496C209.074 190.496 209.438 190.42 209.774 190.268C210.118 190.116 210.382 189.92 210.566 189.68Z" fill="white"/>
<path d="M142.321 10.4635C134.433 11.9421 127.77 14.5748 122.115 18.3615C118.621 20.7056 114.011 24.8169 111.814 27.5578C110.769 28.8561 109.653 30.2265 109.329 30.5872C109.005 30.9117 107.744 33.0034 106.519 35.1673C103.926 39.7113 101.369 46.5274 100.54 51.2879C99.8199 55.4713 99.8199 64.6315 100.54 68.7789C101.081 71.9165 103.422 79.2014 104.646 81.6537C108.248 88.8665 113.831 95.6826 119.594 99.9021C120.783 100.804 122.007 101.705 122.259 101.922C123.628 103.04 130.543 106.43 133.677 107.476C139.368 109.423 143.222 110 150.065 110C159.25 109.964 165.265 108.557 172.865 104.626C185.579 98.0989 195.664 85.2601 198.654 71.7361C201.788 57.563 199.446 44.2193 191.666 32.4264C187.02 25.3579 180.429 19.4073 172.757 15.4403C168.687 13.3125 165.985 12.3388 160.871 11.1126C155.972 9.95858 146.752 9.634 142.321 10.4635ZM157.485 13.3486C165.193 14.683 173.945 18.5418 179.384 23.0498C183.238 26.2234 189.685 33.6165 189.685 34.8066C189.685 35.0591 179.564 35.1673 159.43 35.1673C130.075 35.1673 129.103 35.2034 127.086 35.8886C124.528 36.7902 123.52 37.5475 122.223 39.4589C119.486 43.462 122.511 48.2585 128.562 49.5929C129.679 49.8093 138.792 49.9535 153.811 49.9535C174.558 49.9535 177.511 50.0256 178.736 50.5305C182.266 51.9731 182.77 54.1009 180.033 55.7959C178.808 56.5532 178.124 56.6614 172.397 56.8417C165.481 57.0581 164.185 57.3827 162.492 59.4023C161.807 60.1957 161.591 60.8809 161.591 62.1071C161.591 63.5857 161.771 63.9463 162.996 65.1364C164.004 66.0741 164.977 66.579 166.274 66.8675C167.426 67.12 173.369 67.2642 182.302 67.2642C193.467 67.2642 196.529 67.3724 196.529 67.697C196.493 69.8608 194.296 76.8212 192.459 80.4997L191.018 83.493H159.97C126.041 83.493 126.978 83.5651 124.781 81.4373C122.836 79.5981 123.772 76.9654 126.726 75.7032C127.95 75.1983 129.751 75.018 135.298 74.8376C141.637 74.6213 142.466 74.5131 143.942 73.7918C149.957 70.7263 150.029 65.2446 144.086 62.2153L142.321 61.3137L122.619 61.2055L102.881 61.1333V58.3203C102.881 55.5074 103.638 49.8814 104.394 47.2487C104.934 45.4095 107.024 40.1802 108.176 37.9081C111.202 31.8855 117.433 24.9973 123.592 20.7417C128.13 17.6402 136.126 14.4305 141.961 13.3847C145.851 12.6994 153.523 12.6634 157.485 13.3486Z" fill="white"/>
<path d="M182.119 120.857C181.89 121.314 182.061 122.114 182.461 122.571C183.661 124 182.519 124.743 179.49 124.457C176.519 124.171 175.033 124.914 175.033 126.686C175.033 127.6 176.919 127.543 180.633 126.514C182.976 125.886 182.004 127.6 177.833 131.6C175.661 133.714 174.004 135.714 174.176 136C174.804 137.029 177.776 136.686 178.119 135.543C178.347 134.971 178.976 133.943 179.547 133.314C180.119 132.686 181.033 131.371 181.547 130.4C182.061 129.371 182.633 128.571 182.861 128.571C183.033 128.571 183.09 130.8 182.919 133.543C182.576 139.2 182.747 140 184.004 140C184.804 140 184.861 139.2 184.576 133.943C184.404 130.514 184.519 128.114 184.804 128.4C185.09 128.686 186.404 130.571 187.776 132.571C190.404 136.571 192.233 137.486 193.261 135.486C193.776 134.514 193.547 134.114 191.147 132.4C189.661 131.257 187.547 129.429 186.519 128.343C184.576 126.343 184.519 126.286 185.947 126.286C186.69 126.286 188.29 126.514 189.433 126.8C191.547 127.314 192.747 126.8 192.747 125.314C192.747 124.857 191.433 124.571 188.633 124.457L184.461 124.286L184.633 122.114C184.804 120.286 184.69 120 183.604 120C182.976 120 182.29 120.4 182.119 120.857Z" fill="white"/>
<path d="M205.833 120.686C205.776 121.086 205.776 121.771 205.833 122.114C205.89 122.571 205.261 122.857 204.29 122.857C199.776 122.857 197.204 124.514 199.376 126.114C200.176 126.686 200.29 127.371 199.947 130.057C199.776 131.829 199.09 134 198.461 134.857C197.147 136.743 197.033 137.886 198.061 138.8C198.69 139.257 199.09 139.2 199.719 138.4C200.861 137.086 201.433 134.857 201.833 129.714L202.176 125.486L204.633 124.971C206.119 124.686 208.633 124.743 210.804 125.086C214.747 125.657 216.176 125.486 216.176 124.286C216.176 123.543 213.261 122.857 210.061 122.857C208.461 122.857 208.176 122.686 208.176 121.429C208.176 120.4 207.89 120 207.033 120C206.404 120 205.833 120.343 205.833 120.686Z" fill="white"/>
<path d="M132.233 121.371C131.89 121.771 131.776 122.914 131.947 123.886C132.29 125.543 132.176 125.657 130.404 125.829C128.861 125.943 128.404 126.286 128.29 127.371C128.119 128.629 128.233 128.686 129.833 128.4C132.29 127.886 132.176 129.257 129.547 131.886C127.947 133.486 127.604 134.171 128.004 134.857C128.804 136.114 130.061 135.943 130.804 134.4C132.004 131.943 132.29 132.286 132.061 136C131.947 139.143 132.061 139.714 132.919 139.886C133.776 140.057 133.89 139.543 133.89 135.486C133.89 130.914 134.176 130.229 135.49 131.543C136.004 132.057 136.176 131.943 136.176 130.971C136.176 130.286 135.947 129.714 135.604 129.714C135.319 129.714 135.033 129.2 135.033 128.571C135.033 127.943 135.319 127.429 135.604 127.429C135.947 127.429 136.176 127.029 136.176 126.571C136.176 126.114 135.661 125.714 135.033 125.714C134.061 125.714 133.89 125.314 133.89 123.486C133.89 120.971 133.204 120.171 132.233 121.371Z" fill="white"/>
<path d="M161.89 121.143C161.09 121.371 159.09 121.6 157.433 121.657C154.861 121.714 154.404 121.886 154.576 122.686C154.747 123.486 155.319 123.714 157.204 123.657C158.747 123.657 159.604 123.886 159.604 124.286C159.604 125.086 157.09 125.714 153.833 125.714C152.176 125.714 151.604 126 151.319 126.914C150.804 128.514 151.319 128.857 153.033 128.114C154.804 127.314 155.604 127.257 155.604 127.943C155.604 128.571 152.404 130.286 151.204 130.286C150.233 130.286 150.233 131.086 151.261 131.943C152.347 132.857 153.947 132.057 157.09 129.029C159.661 126.571 160.176 126.686 159.776 129.543C159.49 131.143 159.261 131.371 156.919 131.714C155.547 131.886 154.29 132.4 154.119 132.8C154.004 133.143 154.233 134.914 154.633 136.629C155.204 138.8 155.719 139.714 156.404 139.657C156.919 139.657 159.376 139.6 161.833 139.543L166.347 139.429L167.319 136.571C168.519 132.971 168.004 132.171 164.119 131.657L161.319 131.257V129.086C161.319 127.829 161.49 126.857 161.776 126.857C162.004 126.857 163.319 127.886 164.747 129.143C167.719 131.829 169.033 132.343 170.233 131.429C170.919 130.8 170.576 130.514 168.176 129.371C165.09 127.943 164.29 126.629 166.919 127.371C168.861 127.886 170.461 127.543 170.461 126.629C170.461 125.829 166.919 125.143 163.204 125.143C160.576 125.143 160.804 123.371 163.49 122.8C165.719 122.343 166.119 122 165.604 121.2C165.204 120.514 163.947 120.457 161.89 121.143ZM164.576 133.486C167.033 134.171 165.204 134.857 161.033 134.857C157.147 134.857 155.147 134.229 156.861 133.543C157.89 133.086 163.09 133.086 164.576 133.486ZM165.604 137.143C165.433 137.429 163.319 137.714 160.976 137.714C158.519 137.714 156.747 137.486 156.747 137.143C156.747 136.8 158.69 136.571 161.376 136.571C164.29 136.571 165.833 136.8 165.604 137.143Z" fill="white"/>
<path d="M142.461 122.286C142.461 124 145.204 129.143 146.119 129.143C146.519 129.143 147.204 128.8 147.547 128.4C148.004 127.771 147.833 127.314 146.69 126.229C145.833 125.486 144.804 124 144.404 122.971C143.49 120.914 142.461 120.514 142.461 122.286Z" fill="white"/>
<path d="M139.033 123.314C139.033 124.229 138.519 125.429 137.89 126C136.576 127.2 136.461 128.171 137.547 129.086C138.176 129.6 138.519 129.429 139.261 128.229C140.461 126.457 140.747 122.229 139.776 121.886C139.261 121.714 139.033 122.229 139.033 123.314Z" fill="white"/>
<path d="M91.49 122.571C91.3186 122.743 91.3186 125.943 91.49 129.714L91.7757 136.571H89.4329C87.0329 136.571 86.4614 136 86.4614 133.429C86.4614 131.543 85.89 130.286 85.0329 130.286C83.89 130.286 83.6614 132.229 84.5186 134.286C84.9757 135.314 85.3186 136.914 85.3186 137.829C85.3186 139.371 85.4329 139.486 86.6329 139.086C88.29 138.514 95.4329 138.457 97.7186 139.029C99.49 139.486 99.5472 139.429 100.176 137.029C100.519 135.657 101.033 134.114 101.319 133.6C102.29 131.886 102.004 130.286 100.747 130.286C100.061 130.286 99.6043 130.686 99.6043 131.257C99.6043 131.829 99.3186 133.257 98.9757 134.457C98.4043 136.571 98.3472 136.629 96.0043 136.457L93.6043 136.286L93.4329 129.257C93.3186 124 93.09 122.286 92.5186 122.286C92.1186 122.286 91.6614 122.4 91.49 122.571Z" fill="white"/>
<path d="M108.347 123.429C107.604 123.714 107.033 124.4 107.033 124.971C107.033 127.6 109.033 138.286 109.547 138.4C109.89 138.514 112.976 138.457 116.461 138.286L122.69 138L123.776 131.257C125.204 122.686 125.376 122.914 116.176 122.914C112.576 122.914 109.033 123.143 108.347 123.429ZM114.347 127.257C114.176 129.371 114.119 129.429 111.89 129.429C109.661 129.429 109.604 129.371 109.433 127.257L109.261 125.143H114.519L114.347 127.257ZM122.347 127.086C122.576 129.143 122.004 129.543 119.033 129.257C116.861 129.029 116.747 128.914 116.747 127.029V125.086L119.49 125.257C122.004 125.429 122.176 125.543 122.347 127.086ZM114.804 132.857C114.976 133.6 114.976 134.743 114.747 135.429C114.461 136.4 114.004 136.571 112.576 136.457C110.861 136.286 110.747 136.114 110.576 133.943C110.404 131.657 110.404 131.6 112.404 131.543C114.119 131.486 114.519 131.714 114.804 132.857ZM121.433 133.714C121.204 136 120.576 136.571 118.347 136.571C116.861 136.571 116.747 136.4 116.747 134.4C116.747 131.657 117.09 131.314 119.604 131.543C121.547 131.714 121.604 131.771 121.433 133.714Z" fill="white"/>
<path d="M206.747 128.114C206.976 129.486 207.204 130.8 207.261 131.029C207.261 131.314 206.347 131.829 205.147 132.286C202.233 133.314 202.119 133.429 202.919 135.6C203.319 136.686 203.604 137.943 203.604 138.457C203.604 139.314 204.29 139.429 208.69 139.429H213.776L214.69 137.143C215.204 135.886 215.604 134.629 215.604 134.343C215.604 133.029 213.661 132 211.261 132C209.09 132 208.747 131.829 208.747 130.8C208.747 129.771 209.033 129.657 211.204 129.829C213.261 129.943 213.604 129.829 213.776 128.743C213.947 127.714 213.719 127.6 212.061 127.714C209.719 127.886 208.747 127.543 208.747 126.514C208.747 126.057 208.233 125.714 207.547 125.714C206.461 125.714 206.404 125.943 206.747 128.114ZM212.919 134.857C213.661 135.543 212.69 137.143 211.319 137.486C210.576 137.657 208.919 137.6 207.547 137.314C205.604 136.914 204.976 136.571 204.861 135.6C204.747 134.8 205.033 134.286 205.719 134.114C207.033 133.771 212.347 134.286 212.919 134.857Z" fill="white"/>
<path d="M140.29 128.686C139.89 129.086 139.604 129.943 139.604 130.629C139.604 132.857 138.404 135.429 137.319 135.429C136.747 135.429 136.233 135.943 136.061 136.743C135.604 139.086 136.119 139.314 138.919 137.943C142.404 136.229 144.519 136.229 145.947 137.829C146.861 138.971 147.09 139.029 147.604 138.286C148.404 137.086 148.347 136.914 146.461 134.971C145.547 133.943 144.747 132.743 144.747 132.286C144.747 131.829 144.347 131.429 143.833 131.429C143.204 131.429 142.976 131.886 143.147 132.971C143.261 134.286 143.09 134.629 142.061 134.743C140.519 134.971 140.461 134.4 141.604 131.6C142.861 128.686 142.061 126.914 140.29 128.686Z" fill="white"/>
</svg>
