<svg width="24" height="24" viewBox="0 0 24 24" fill="none" xmlns="http://www.w3.org/2000/svg">
<path d="M9.74999 17.8125C9.67635 17.8125 9.60348 17.7975 9.5358 17.7685C9.46811 17.7395 9.40703 17.697 9.35624 17.6437L4.10624 12.3937C4.05453 12.342 4.01352 12.2806 3.98553 12.2131C3.95755 12.1455 3.94315 12.0731 3.94315 12C3.94315 11.9268 3.95755 11.8544 3.98553 11.7869C4.01352 11.7193 4.05453 11.6579 4.10624 11.6062C4.15795 11.5545 4.21934 11.5135 4.2869 11.4855C4.35446 11.4575 4.42687 11.4431 4.49999 11.4431C4.57312 11.4431 4.64553 11.4575 4.71309 11.4855C4.78065 11.5135 4.84203 11.5545 4.89374 11.6062L9.74999 16.4531L19.8562 6.35621C19.9607 6.25178 20.1023 6.19312 20.25 6.19312C20.3977 6.19312 20.5393 6.25178 20.6437 6.35621C20.7482 6.46064 20.8068 6.60228 20.8068 6.74996C20.8068 6.89765 20.7482 7.03928 20.6437 7.14371L10.1437 17.6437C10.093 17.697 10.0319 17.7395 9.96419 17.7685C9.8965 17.7975 9.82363 17.8125 9.74999 17.8125Z" fill="#DAC5A7"/>
</svg>
