<svg width="20" height="20" viewBox="0 0 20 20" fill="none" xmlns="http://www.w3.org/2000/svg">
<g id="ph:arrow-up-light">
<path id="Vector" d="M15.9533 9.07812C15.911 9.12256 15.8601 9.15794 15.8037 9.18211C15.7473 9.20629 15.6865 9.21875 15.6252 9.21875C15.5638 9.21875 15.5031 9.20629 15.4467 9.18211C15.3903 9.15794 15.3394 9.12256 15.297 9.07812L10.4689 4.25781V16.875C10.4689 16.9993 10.4195 17.1185 10.3316 17.2065C10.2437 17.2944 10.1245 17.3438 10.0002 17.3438C9.87585 17.3438 9.75662 17.2944 9.66872 17.2065C9.58081 17.1185 9.53142 16.9993 9.53142 16.875V4.25781L4.7033 9.07812C4.61627 9.16515 4.49824 9.21404 4.37517 9.21404C4.2521 9.21404 4.13407 9.16515 4.04705 9.07812C3.96002 8.9911 3.91113 8.87307 3.91113 8.75C3.91113 8.62693 3.96002 8.5089 4.04705 8.42188L9.67205 2.79687C9.71437 2.75244 9.76527 2.71706 9.82168 2.69289C9.87808 2.66871 9.93881 2.65625 10.0002 2.65625C10.0615 2.65625 10.1223 2.66871 10.1787 2.69289C10.2351 2.71706 10.286 2.75244 10.3283 2.79687L15.9533 8.42188C15.9977 8.4642 16.0331 8.5151 16.0573 8.57151C16.0815 8.62791 16.0939 8.68863 16.0939 8.75C16.0939 8.81137 16.0815 8.87209 16.0573 8.92849C16.0331 8.9849 15.9977 9.0358 15.9533 9.07812Z" fill="#DAC5A7"/>
</g>
</svg>
