<svg width="5817" height="794" viewBox="0 0 5817 794" fill="none" xmlns="http://www.w3.org/2000/svg">
<path d="M977.939 122.036H1050.46V672.717H978.086L977.939 122.036ZM1035.31 385.284H1052.01L1352.61 122.036H1454.26L1165.64 371.628L1161.52 370.476L1035.31 483.426V385.284ZM1118.86 394.826L1172.78 344.069L1471.32 673.128H1372.69L1118.86 394.826Z" fill="#C73A2F"/>
<path d="M1730.59 122.036H1789.44V201.422H1769.28L1560.4 672.717H1483.61L1730.59 122.036ZM1618.35 455.538H1921.02L1948.97 519.622H1590.4L1618.35 455.538ZM1770.53 201.422V122.036H1809.07L2056.13 672.717H1979.35L1770.53 201.422Z" fill="#C73A2F"/>
<path d="M2111 122.036H2196.99L2418.08 581.074H2420.14L2640.8 122.036H2726.49V672.717H2658.3V242.637H2627.26L2698.54 149.924L2447.94 672.717H2390.28L2139.03 149.924L2210 242.637H2179.63V672.717H2110.71L2111 122.036Z" fill="#C73A2F"/>
<path d="M3029 122.036H3087.85V201.422H3067.69L2858.88 672.717H2782.16L3029 122.036ZM2916.91 455.538H3219.5L3247.53 519.622H2889.26L2916.91 455.538ZM3069.09 201.422V122.036H3107.63L3354.62 672.717H3277.9L3069.09 201.422Z" fill="#C73A2F"/>
<path d="M3409.56 122.036H3495.54L3716.64 581.074H3718.7L3939.35 122.036H4024.97V672.717H3956.79V242.637H3925.75L3997.02 149.924L3746.36 672.717H3688.69L3437.88 149.924L3508.86 242.637H3478.48V672.717H3409.56V122.036Z" fill="#C73A2F"/>
<path d="M4239.67 647.873C4197.52 626.578 4161.76 592.129 4136.69 548.662C4111.61 503.334 4098.83 450.835 4099.92 397.541V396.801C4098.82 343.556 4111.6 291.104 4136.69 245.845C4161.85 202.582 4197.59 168.316 4239.67 147.127C4283.8 123.709 4335.65 112 4395.23 112C4454.81 112 4506.61 123.709 4550.64 147.127C4592.7 168.347 4628.44 202.606 4653.62 245.845C4678.77 291.076 4691.56 343.548 4690.39 396.801V397.541C4691.54 450.844 4678.76 503.362 4653.62 548.662C4628.51 592.095 4592.77 626.535 4550.64 647.873C4506.51 671.291 4454.63 683 4395.01 683C4335.38 683 4283.6 671.291 4239.67 647.873ZM4511.81 585.681C4543.36 569.647 4570.08 543.731 4588.74 511.067C4607.44 476.961 4616.92 437.535 4616.03 397.541V396.801C4616.93 356.835 4607.4 317.441 4588.6 283.44C4569.73 251.057 4542.99 225.371 4511.51 209.402C4474.62 192.028 4435 183.078 4394.97 183.078C4354.94 183.078 4315.32 192.028 4278.43 209.402C4246.94 225.348 4220.2 251.039 4201.35 283.44C4182.52 317.432 4172.96 356.826 4173.84 396.801V397.541C4172.99 437.563 4182.55 477 4201.35 511.067C4220.1 543.702 4246.86 569.606 4278.43 585.681C4315.37 603.055 4355.04 612.004 4395.12 612.004C4435.19 612.004 4474.87 603.055 4511.81 585.681Z" fill="#C73A2F"/>
<path d="M4909.43 191.468H4697.53V122.036H5192.97V191.468H4981.73V672.717H4909.43V191.468Z" fill="#C73A2F"/>
<path d="M5338.97 647.873C5296.93 626.526 5261.28 592.081 5236.29 548.662C5211.21 503.332 5198.44 450.834 5199.52 397.541V396.801C5198.42 343.556 5211.19 291.104 5236.29 245.845C5261.45 202.582 5297.19 168.316 5339.27 147.127C5383.4 123.709 5435.25 112 5494.83 112C5554.41 112 5606.21 123.709 5650.24 147.127C5692.27 168.394 5728 202.643 5753.22 245.845C5778.34 291.091 5791.12 343.552 5789.99 396.801V397.541C5791.1 450.839 5778.33 503.347 5753.22 548.662C5728.08 592.067 5692.35 626.499 5650.24 647.873C5606.11 671.291 5554.26 683 5494.68 683C5435.1 683 5383.2 671.291 5338.97 647.873ZM5611.11 585.681C5642.67 569.647 5669.39 543.731 5688.05 511.067C5706.71 476.946 5716.19 437.53 5715.34 397.541V396.801C5716.18 356.842 5706.65 317.466 5687.9 283.44C5669.02 251.036 5642.25 225.346 5610.75 209.402C5573.87 192.025 5534.26 183.074 5494.24 183.074C5454.22 183.074 5414.61 192.025 5377.73 209.402C5346.25 225.348 5319.5 251.039 5300.65 283.44C5281.82 317.432 5272.26 356.826 5273.14 396.801V397.541C5272.3 437.563 5281.85 477 5300.65 511.067C5319.4 543.702 5346.17 569.606 5377.73 585.681C5414.68 603.055 5454.35 612.004 5494.42 612.004C5534.5 612.004 5574.17 603.055 5611.11 585.681Z" fill="#C73A2F"/>
<path d="M977.939 122.036H1050.46V672.717H978.086L977.939 122.036ZM1035.31 385.284H1052.01L1352.61 122.036H1454.26L1165.64 371.628L1161.52 370.476L1035.31 483.426V385.284ZM1118.86 394.826L1172.78 344.069L1471.32 673.128H1372.69L1118.86 394.826Z" stroke="#C73A2F" stroke-width="0.22" stroke-miterlimit="5"/>
<path d="M1730.59 122.036H1789.44V201.422H1769.28L1560.4 672.717H1483.61L1730.59 122.036ZM1618.35 455.538H1921.02L1948.97 519.622H1590.4L1618.35 455.538ZM1770.53 201.422V122.036H1809.07L2056.13 672.717H1979.35L1770.53 201.422Z" stroke="#C73A2F" stroke-width="0.22" stroke-miterlimit="5"/>
<path d="M2111 122.036H2196.99L2418.08 581.074H2420.14L2640.8 122.036H2726.49V672.717H2658.3V242.637H2627.26L2698.54 149.924L2447.94 672.717H2390.28L2139.03 149.924L2210 242.637H2179.63V672.717H2110.71L2111 122.036Z" stroke="#C73A2F" stroke-width="0.22" stroke-miterlimit="5"/>
<path d="M3029 122.036H3087.85V201.422H3067.69L2858.88 672.717H2782.16L3029 122.036ZM2916.91 455.538H3219.5L3247.53 519.622H2889.26L2916.91 455.538ZM3069.09 201.422V122.036H3107.63L3354.62 672.717H3277.9L3069.09 201.422Z" stroke="#C73A2F" stroke-width="0.22" stroke-miterlimit="5"/>
<path d="M3409.56 122.036H3495.54L3716.64 581.074H3718.7L3939.35 122.036H4024.97V672.717H3956.79V242.637H3925.75L3997.02 149.924L3746.36 672.717H3688.69L3437.88 149.924L3508.86 242.637H3478.48V672.717H3409.56V122.036Z" stroke="#C73A2F" stroke-width="0.22" stroke-miterlimit="5"/>
<path d="M4239.67 647.873C4197.52 626.578 4161.76 592.129 4136.69 548.662C4111.61 503.334 4098.83 450.835 4099.92 397.541V396.801C4098.82 343.556 4111.6 291.104 4136.69 245.845C4161.85 202.582 4197.59 168.316 4239.67 147.127C4283.8 123.709 4335.65 112 4395.23 112C4454.81 112 4506.61 123.709 4550.64 147.127C4592.7 168.347 4628.44 202.606 4653.62 245.845C4678.77 291.076 4691.56 343.548 4690.39 396.801V397.541C4691.54 450.844 4678.76 503.362 4653.62 548.662C4628.51 592.095 4592.77 626.535 4550.64 647.873C4506.51 671.291 4454.63 683 4395.01 683C4335.38 683 4283.6 671.291 4239.67 647.873ZM4511.81 585.681C4543.36 569.647 4570.08 543.731 4588.74 511.067C4607.44 476.961 4616.92 437.535 4616.03 397.541V396.801C4616.93 356.835 4607.4 317.441 4588.6 283.44C4569.73 251.057 4542.99 225.371 4511.51 209.402C4474.62 192.028 4435 183.078 4394.97 183.078C4354.94 183.078 4315.32 192.028 4278.43 209.402C4246.94 225.348 4220.2 251.039 4201.35 283.44C4182.52 317.432 4172.96 356.826 4173.84 396.801V397.541C4172.99 437.563 4182.55 477 4201.35 511.067C4220.1 543.702 4246.86 569.606 4278.43 585.681C4315.37 603.055 4355.04 612.004 4395.12 612.004C4435.19 612.004 4474.87 603.055 4511.81 585.681Z" stroke="#C73A2F" stroke-width="0.22" stroke-miterlimit="5"/>
<path d="M4909.43 191.468H4697.53V122.036H5192.97V191.468H4981.73V672.717H4909.43V191.468Z" stroke="#C73A2F" stroke-width="0.22" stroke-miterlimit="5"/>
<path d="M5338.97 647.873C5296.93 626.526 5261.28 592.081 5236.29 548.662C5211.21 503.332 5198.44 450.834 5199.52 397.541V396.801C5198.42 343.556 5211.19 291.104 5236.29 245.845C5261.45 202.582 5297.19 168.316 5339.27 147.127C5383.4 123.709 5435.25 112 5494.83 112C5554.41 112 5606.21 123.709 5650.24 147.127C5692.27 168.394 5728 202.643 5753.22 245.845C5778.34 291.091 5791.12 343.552 5789.99 396.801V397.541C5791.1 450.839 5778.33 503.347 5753.22 548.662C5728.08 592.067 5692.35 626.499 5650.24 647.873C5606.11 671.291 5554.26 683 5494.68 683C5435.1 683 5383.2 671.291 5338.97 647.873ZM5611.11 585.681C5642.67 569.647 5669.39 543.731 5688.05 511.067C5706.71 476.946 5716.19 437.53 5715.34 397.541V396.801C5716.18 356.842 5706.65 317.466 5687.9 283.44C5669.02 251.036 5642.25 225.346 5610.75 209.402C5573.87 192.025 5534.26 183.074 5494.24 183.074C5454.22 183.074 5414.61 192.025 5377.73 209.402C5346.25 225.348 5319.5 251.039 5300.65 283.44C5281.82 317.432 5272.26 356.826 5273.14 396.801V397.541C5272.3 437.563 5281.85 477 5300.65 511.067C5319.4 543.702 5346.17 569.606 5377.73 585.681C5414.68 603.055 5454.35 612.004 5494.42 612.004C5534.5 612.004 5574.17 603.055 5611.11 585.681Z" stroke="#C73A2F" stroke-width="0.22" stroke-miterlimit="5"/>
<path fill-rule="evenodd" clip-rule="evenodd" d="M227.86 764.297V704.564C193.595 704.154 189.494 706.321 165.128 704.447C155.229 699.411 148.962 702.632 141.699 696.6C129.457 701.402 115.458 704.154 103.216 698.005L102.923 664.391C98.4719 641.787 96.4804 491.987 98.4133 467.45C102.806 298.033 114.404 459.72 112.237 284.739C112.237 219.854 106.379 138.864 114.462 76.0859L219.542 77.2572L219.894 26.5432C188.616 26.5432 85.7616 8.97485 60.9851 34.3318C34.2173 61.4457 47.2205 19.3987 31.8158 49.6163L65.1438 51.3146C72.6998 83.6403 75.9798 297.271 73.8712 349.449C71.7626 452.049 68.0139 472.428 66.2567 523.669C58.1151 613.092 65.1438 573.387 47.5719 648.58C40.7189 677.86 53.7807 670.774 35.0959 689.573C43.8673 699.588 48.3484 712.65 47.5719 725.939C47.5719 746.377 40.0746 741.516 30 757.972C110.889 764.297 65.1438 752.643 94.4304 751.53L102.396 751.999H110.889C152.886 753.756 172.274 780.694 207.476 767.166C219.191 764.824 204.782 762.13 227.684 763.945L227.86 764.297ZM219.894 26.5432C243.323 35.2102 283.094 30.3497 312.556 28.8271C345.357 27.1288 538.414 44.1701 572.445 16.1193L576.545 14.0111C576.545 13.6012 577.131 24.6692 577.424 25.0792C602.083 17.3491 615.555 31.5795 645.661 28.1243C709.74 20.8042 816.929 41.9448 850.081 33.512L852.776 290.127C849.906 360.927 858.633 248.607 855.236 374.631C857.344 396.825 851.663 419.547 852.366 444.143C853.01 467.567 855.704 492.046 856.583 514.065C858.34 560.562 853.947 607.763 854.416 652.796C854.884 699.645 853.771 720.844 851.839 767.693C829.698 764.707 820.443 773.842 808.319 778L814.82 766.288C785.534 765.995 768.548 764.999 739.613 766.756C708.627 768.63 691.7 763.243 667.685 758.089C641.093 752.233 436.966 760.256 377.397 760.9C356.428 760.9 372.184 765.585 345.416 762.95C317.008 760.197 253.925 757.445 227.86 764.297V704.564C246.545 703.452 266.811 704.564 285.613 704.564C306.14 704.232 326.632 702.765 346.997 700.172C387.588 696.131 447.216 706.028 476.971 701.226C518.792 694.258 563.835 700.758 605.187 699.411C641.327 698.24 703.649 695.195 737.68 697.83L757.712 703.042C756.657 701.988 755.076 700.816 754.432 700.055C753.787 699.294 752.147 697.888 751.444 696.951L744.591 682.897C768.021 687.464 754.139 711.357 761.753 695.897C762.163 694.96 763.335 698.474 764.272 699.645L801.114 697.713C798.361 665.68 801.114 633.998 801.876 599.506L805.39 342.246C807.147 193.911 806.737 401.569 808.846 84.1674C783.542 91.1362 784.187 74.2705 751.21 92.8344C750.566 92.3659 739.495 85.5728 738.91 85.4557C715.811 77.4057 690.985 75.6472 666.982 80.3609C622.466 87.0954 553.585 86.7441 507.898 82.9962C466.018 79.541 421.385 80.7708 378.568 81.1808C354.085 81.1808 283.738 72.6894 267.279 87.5639C236.939 74.9733 259.724 77.0815 219.542 77.2572L219.894 26.5432Z" fill="#C73A2F"/>
<path fill-rule="evenodd" clip-rule="evenodd" d="M367.967 234.201C365.506 227.115 369.314 219.151 371.129 213.529L440.011 219.736L441.769 254.463C422.931 252.612 404.215 249.679 385.714 245.679C365.975 240.701 373.472 251.067 367.732 233.967L367.967 234.201ZM201.209 227.584C221.651 222.664 244.026 215.871 262.828 221.727V241.697C250.293 252.706 210.874 260.905 199.218 260.729L200.975 227.759L201.209 227.584ZM339.324 182.199C339.91 172.068 340.906 162.171 341.199 152.04C342.077 122.759 346.646 105.191 307.226 109.466L304.356 176.343C262.652 191.803 205.836 173.707 176.901 211.772C148.786 248.783 189.67 395.947 172.86 514.767C168.818 543.521 147.966 627.556 157.045 647.526C184.926 634.876 186.741 609.637 193.302 577.252C212.748 480.685 182.993 498.956 205.016 499.19C200.858 451.346 209.995 397.879 200.506 366.608C193.946 344.999 206.363 351.733 199.51 328.66C195.352 314.137 201.97 320.813 187.21 313.61C204.782 299.438 192.716 313.2 202.029 288.721C240.804 278.766 271.204 283.275 300.49 255.283L297.152 214.29C326.438 215.696 319.117 216.281 340.086 208.434C341.257 236.485 336.923 259.734 367.732 270.158C392.446 276.385 417.525 281.06 442.823 284.154C454.538 378.379 436.966 566.126 466.252 643.309L492.61 652.679C492.61 626.678 498.467 626.151 492.61 596.46L470.997 335.922C470.997 308.457 478.552 252.296 472.168 226.061L451.726 223.777C473.281 218.448 457.115 228.403 468.126 211.713C461.048 204.365 453.192 197.807 444.697 192.154C420.917 176.343 368.728 179.095 339.324 182.199Z" fill="#C73A2F"/>
<path fill-rule="evenodd" clip-rule="evenodd" d="M367.029 311.56C367.029 311.56 372.36 288.136 372.887 279.996L349.867 278.356C334.111 294.519 319.878 349.274 320.581 370.356C306.758 357.531 317.477 371.527 308.866 356.242C305.762 350.386 310.916 351.499 297.679 330.885C310.213 323.448 306.875 319.173 305.762 296.159L285.554 285.208C284.851 283.334 282.567 284.446 280.986 284.154L268.451 309.745C268.099 308.984 266.987 312.439 266.108 313.668C254.692 313.719 243.323 315.154 232.253 317.943C209.878 326.435 220.538 327.079 224.58 338.733C254.686 346.99 293.403 308.632 282.45 371.293C264.468 379.081 256.443 371.293 235.591 380.604C240.16 390.735 231.433 391.496 251.875 396.65C254.218 397.235 275.89 398.055 281.161 398.406C282.216 397.294 283.914 395.888 284.5 395.303L291.119 388.275C291.119 389.915 280.751 384.059 293.813 393.429C309.393 404.614 306.758 386.577 307.636 426.282L242.21 426.867C239.096 432.967 235.553 438.837 231.608 444.435C252.168 452.634 280.868 452.4 306.816 452.634C306.816 505.339 316.012 493.627 293.696 560.855C271.38 628.083 255.448 627.263 266.342 665.094C288.19 660.175 275.128 666.851 282.626 654.67L285.086 647.526C285.73 646.12 287.253 642.021 287.78 640.615L325.794 565.716C326.262 567.004 327.434 571.22 327.903 572.684L342.546 619.533C352.562 651.039 353.089 663.22 370.661 672.238C389.229 660.526 387.823 653.03 375.698 619.065C369.197 600.852 361.758 587.735 356.252 569.405C349.516 546.683 329.718 496.965 340.437 463.292C344.42 450.233 333.35 451.58 385.538 452.927C419.745 453.805 413.419 445.08 418.515 431.669C376.401 413.691 380.15 427.921 339.09 424.349L338.036 398.055C372.008 399.109 416.406 404.38 401.646 380.487C386.886 356.594 343.483 367.896 337.216 368.189L347.115 336.566C384.367 334.633 403.052 359.58 423.259 331.178C415.294 321.691 427.184 327.723 411.018 321.516L367.029 311.56Z" fill="#C73A2F"/>
<path fill-rule="evenodd" clip-rule="evenodd" d="M410.725 607.06C442.706 584.572 416.582 563.315 405.219 530.93C394.676 500.537 396.843 470.847 366.502 462.765C356.486 500.186 376.108 536.669 389.931 574.558L406.976 604.425C407.445 603.839 409.261 606.181 410.725 607.06Z" fill="#C73A2F"/>
<path fill-rule="evenodd" clip-rule="evenodd" d="M226.571 617.132C247.072 606.884 252.578 582.933 261.715 554.706L281.044 499.659C284.149 483.613 283.914 497.023 278.291 482.09C253.163 478.577 251.933 486.424 246.662 502.177C234.069 539.949 210.581 600.97 226.571 617.132Z" fill="#C73A2F"/>
<path fill-rule="evenodd" clip-rule="evenodd" d="M670.379 361.923L680.805 356.535C677.408 361.513 688.83 371.703 670.379 361.923ZM672.312 317.592C673.776 315.484 682.035 322.863 678.638 323.448C678.169 323.448 668.798 323.448 672.312 317.592ZM743.478 245.035C716.593 244.566 739.203 249.193 728.894 236.016C734.065 238.49 738.955 241.513 743.478 245.035ZM718.526 236.075L698.787 237.363C703.18 241.228 692.93 242.224 706.109 241.404C717.823 240.701 710.092 241.99 718.526 236.075ZM777.099 264.301C788.814 212.006 741.018 223.309 666.748 229.926C622.935 233.85 611.455 230.687 594.117 262.779C595.581 263.364 596.636 263.364 597.69 263.891C627.328 278.298 611.396 282.807 599.037 294.812L566.763 347.517C539.586 412.93 524.767 615.551 547.083 649.341C566.998 647.936 567.291 647.994 571.918 625.917C573.978 612.354 574.489 598.602 573.441 584.924C572.562 553.769 569.575 522.849 569.634 491.226C569.634 448.476 570.571 440.629 580.118 400.046C589.666 359.463 587.908 367.662 607.53 333.111C625.318 328.299 643.971 327.618 662.062 331.12C663.936 345.467 669.969 352.729 641.093 381.658C621.881 400.983 620.592 395.01 622.759 431.552C627.445 509.907 663.76 563.549 715.89 615.434C720.518 620.002 749.043 644.305 754.666 646.296C778.915 655.022 780.438 633.412 780.497 613.267C769.836 605.772 766.79 600.384 757.77 593.591C748.75 586.798 739.32 581.879 733.99 577.604C710.311 558.605 690.781 534.953 676.606 508.11C662.431 481.267 653.913 451.803 651.577 421.538C684.495 399.812 699.666 384.586 699.959 342.481C700.31 292.469 664.815 300.492 645.017 267.698C672.956 247.729 745.353 268.811 777.334 264.184L777.099 264.301Z" fill="#C73A2F"/>
<path fill-rule="evenodd" clip-rule="evenodd" d="M530.097 142.084C522.131 167.734 525.177 156.666 530.097 183.077C564.362 181.262 597.104 173.473 631.428 171.365C667.509 168.788 710.795 176.108 743.537 171.892C747.93 103.375 696.679 150.107 596.577 143.255C569.341 141.206 555.693 137.751 530.097 142.084Z" fill="#C73A2F"/>
<path fill-rule="evenodd" clip-rule="evenodd" d="M563.015 257.567C563.015 252.765 570.454 252.004 568.872 257.567C567.291 263.13 563.425 266.819 563.015 257.567ZM525.294 251.242C516.508 244.566 517.504 248.958 515.161 246.499C536.54 243.746 522.834 242.575 525.294 251.242ZM618.542 236.778C588.084 228.228 519.554 231.449 495.539 244.566L495.129 274.432C525.997 283.275 533.201 281.753 578.595 270.04C597.222 265.238 588.904 272.5 594.351 262.954C598.627 256.337 598.803 255.81 601.322 251.594C606.715 246.266 612.468 241.315 618.542 236.778Z" fill="#C73A2F"/>
</svg>
