<svg width="300" height="200" viewBox="0 0 300 200" fill="none" xmlns="http://www.w3.org/2000/svg">
<path d="M65.0808 169V154.8H73.1408V156.04H66.4808V169H65.0808ZM94.9333 167.76V169H85.3933V154.8H94.7533V156.04H86.7933V161.16H93.7333V162.34H86.7933V167.76H94.9333ZM88.2733 152.6V150.72H89.4333V152.6H88.2733ZM91.2533 152.6V150.72H92.4133V152.6H91.2533ZM107.581 169V154.8H108.981V161.12H111.121L116.001 154.8H117.621L112.281 161.68L117.961 169H116.241L111.161 162.4H108.981V169H107.581ZM131.817 169.04V167.86H132.717C133.023 167.86 133.25 167.773 133.397 167.6C133.557 167.427 133.73 167.167 133.917 166.82L134.537 165.52L128.477 154.8H130.017L135.177 164.1L139.477 154.8H140.937L134.997 167.5C134.73 168.047 134.457 168.44 134.177 168.68C133.897 168.92 133.503 169.04 132.997 169.04H131.817ZM151.641 161.8C151.641 160.933 151.787 160.087 152.081 159.26C152.387 158.42 152.827 157.66 153.401 156.98C153.974 156.287 154.681 155.74 155.521 155.34C156.361 154.927 157.314 154.72 158.381 154.72C159.647 154.72 160.727 155.013 161.621 155.6C162.527 156.173 163.194 156.913 163.621 157.82L162.521 158.5C162.214 157.873 161.827 157.38 161.361 157.02C160.894 156.647 160.394 156.38 159.861 156.22C159.341 156.06 158.821 155.98 158.301 155.98C157.447 155.98 156.694 156.153 156.041 156.5C155.387 156.833 154.834 157.287 154.381 157.86C153.941 158.42 153.607 159.053 153.381 159.76C153.154 160.453 153.041 161.16 153.041 161.88C153.041 162.667 153.174 163.42 153.441 164.14C153.707 164.86 154.081 165.5 154.561 166.06C155.041 166.607 155.601 167.047 156.241 167.38C156.894 167.7 157.601 167.86 158.361 167.86C158.894 167.86 159.441 167.767 160.001 167.58C160.561 167.393 161.081 167.107 161.561 166.72C162.054 166.333 162.447 165.833 162.741 165.22L163.901 165.82C163.607 166.527 163.154 167.127 162.541 167.62C161.927 168.113 161.241 168.487 160.481 168.74C159.734 168.993 159.001 169.12 158.281 169.12C157.307 169.12 156.414 168.913 155.601 168.5C154.787 168.073 154.081 167.513 153.481 166.82C152.894 166.113 152.441 165.327 152.121 164.46C151.801 163.58 151.641 162.693 151.641 161.8ZM185.832 167.76V169H176.292V154.8H185.652V156.04H177.692V161.16H184.632V162.34H177.692V167.76H185.832ZM179.172 152.6V150.72H180.332V152.6H179.172ZM182.152 152.6V150.72H183.312V152.6H182.152ZM197.459 171.72V167.76H198.059C198.433 167.76 198.759 167.607 199.039 167.3C199.333 166.993 199.579 166.5 199.779 165.82C199.993 165.127 200.159 164.2 200.279 163.04C200.413 161.88 200.506 160.44 200.559 158.72L200.659 154.8H209.159V167.76H210.859V171.72H209.619V169H198.699V171.72H197.459ZM200.059 167.76H207.759V156.04H201.939L201.859 158.88C201.819 160.68 201.726 162.187 201.579 163.4C201.446 164.6 201.253 165.553 200.999 166.26C200.746 166.953 200.433 167.453 200.059 167.76ZM229.18 169.1C228.18 169.1 227.273 168.9 226.46 168.5C225.646 168.1 224.946 167.56 224.36 166.88C223.773 166.187 223.32 165.413 223 164.56C222.68 163.693 222.52 162.807 222.52 161.9C222.52 160.953 222.686 160.053 223.02 159.2C223.353 158.333 223.82 157.567 224.42 156.9C225.033 156.22 225.746 155.687 226.56 155.3C227.373 154.9 228.253 154.7 229.2 154.7C230.2 154.7 231.106 154.907 231.92 155.32C232.733 155.733 233.426 156.287 234 156.98C234.586 157.673 235.04 158.447 235.36 159.3C235.68 160.153 235.84 161.027 235.84 161.92C235.84 162.867 235.673 163.773 235.34 164.64C235.006 165.493 234.54 166.26 233.94 166.94C233.34 167.607 232.633 168.133 231.82 168.52C231.006 168.907 230.126 169.1 229.18 169.1ZM223.92 161.9C223.92 162.673 224.046 163.42 224.3 164.14C224.553 164.847 224.913 165.48 225.38 166.04C225.846 166.587 226.4 167.027 227.04 167.36C227.693 167.68 228.406 167.84 229.18 167.84C229.993 167.84 230.72 167.673 231.36 167.34C232.013 166.993 232.566 166.54 233.02 165.98C233.486 165.407 233.84 164.767 234.08 164.06C234.32 163.353 234.44 162.633 234.44 161.9C234.44 161.127 234.313 160.387 234.06 159.68C233.806 158.973 233.44 158.34 232.96 157.78C232.493 157.22 231.94 156.78 231.3 156.46C230.66 156.14 229.953 155.98 229.18 155.98C228.38 155.98 227.653 156.147 227 156.48C226.36 156.813 225.806 157.267 225.34 157.84C224.886 158.4 224.533 159.033 224.28 159.74C224.04 160.447 223.92 161.167 223.92 161.9Z" fill="white"/>
<path d="M91.9382 191.12C91.4822 191.12 91.0622 191.036 90.6782 190.868C90.3022 190.692 89.9702 190.452 89.6822 190.148C89.4022 189.844 89.1822 189.496 89.0222 189.104C88.8702 188.712 88.7942 188.296 88.7942 187.856C88.7942 187.264 88.9262 186.724 89.1902 186.236C89.4542 185.748 89.8222 185.36 90.2942 185.072C90.7662 184.784 91.3102 184.64 91.9262 184.64C92.5102 184.64 93.0262 184.776 93.4742 185.048C93.9222 185.312 94.2542 185.672 94.4702 186.128L93.6782 186.38C93.5022 186.06 93.2542 185.812 92.9342 185.636C92.6222 185.452 92.2742 185.36 91.8902 185.36C91.4742 185.36 91.0942 185.468 90.7502 185.684C90.4062 185.9 90.1302 186.196 89.9222 186.572C89.7222 186.948 89.6222 187.376 89.6222 187.856C89.6222 188.328 89.7262 188.756 89.9342 189.14C90.1422 189.524 90.4182 189.832 90.7622 190.064C91.1062 190.288 91.4862 190.4 91.9022 190.4C92.1742 190.4 92.4342 190.352 92.6822 190.256C92.9382 190.16 93.1582 190.032 93.3422 189.872C93.5342 189.704 93.6622 189.524 93.7262 189.332L94.5302 189.572C94.4182 189.868 94.2302 190.136 93.9662 190.376C93.7102 190.608 93.4062 190.792 93.0542 190.928C92.7102 191.056 92.3382 191.12 91.9382 191.12ZM114.843 190.256V191H110.775V190.256H112.479V185.12C112.415 185.216 112.307 185.32 112.155 185.432C112.003 185.544 111.827 185.648 111.627 185.744C111.435 185.84 111.243 185.92 111.051 185.984C110.859 186.048 110.683 186.08 110.523 186.08V185.288C110.707 185.288 110.907 185.236 111.123 185.132C111.339 185.028 111.547 184.908 111.747 184.772C111.947 184.636 112.115 184.508 112.251 184.388C112.387 184.268 112.463 184.188 112.479 184.148H113.319V190.256H114.843ZM127.62 188.636C127.62 189.132 127.48 189.564 127.2 189.932C126.928 190.3 126.564 190.588 126.108 190.796C125.66 190.996 125.168 191.096 124.632 191.096C124.064 191.096 123.56 190.984 123.12 190.76C122.68 190.528 122.332 190.224 122.076 189.848C121.828 189.472 121.704 189.052 121.704 188.588C121.704 188.228 121.788 187.904 121.956 187.616C122.132 187.32 122.348 187.072 122.604 186.872C122.868 186.672 123.136 186.528 123.408 186.44C123.16 186.336 122.928 186.2 122.712 186.032C122.496 185.856 122.324 185.652 122.196 185.42C122.068 185.188 122.004 184.932 122.004 184.652C122.004 184.3 122.08 183.992 122.232 183.728C122.392 183.456 122.6 183.228 122.856 183.044C123.112 182.852 123.396 182.712 123.708 182.624C124.028 182.528 124.348 182.48 124.668 182.48C124.98 182.48 125.292 182.528 125.604 182.624C125.924 182.712 126.212 182.848 126.468 183.032C126.732 183.216 126.94 183.444 127.092 183.716C127.252 183.98 127.332 184.288 127.332 184.64C127.332 184.92 127.264 185.18 127.128 185.42C127 185.652 126.828 185.856 126.612 186.032C126.396 186.2 126.16 186.336 125.904 186.44C126.216 186.544 126.5 186.704 126.756 186.92C127.02 187.128 127.228 187.376 127.38 187.664C127.54 187.952 127.62 188.276 127.62 188.636ZM126.792 188.576C126.792 188.288 126.728 188.036 126.6 187.82C126.48 187.596 126.312 187.408 126.096 187.256C125.888 187.104 125.656 186.988 125.4 186.908C125.152 186.828 124.9 186.788 124.644 186.788C124.3 186.788 123.964 186.864 123.636 187.016C123.316 187.16 123.052 187.368 122.844 187.64C122.644 187.904 122.544 188.22 122.544 188.588C122.544 188.868 122.604 189.116 122.724 189.332C122.852 189.548 123.02 189.736 123.228 189.896C123.436 190.048 123.664 190.164 123.912 190.244C124.168 190.324 124.424 190.364 124.68 190.364C125.024 190.364 125.356 190.292 125.676 190.148C126.004 189.996 126.272 189.784 126.48 189.512C126.688 189.24 126.792 188.928 126.792 188.576ZM122.82 184.688C122.82 184.992 122.912 185.256 123.096 185.48C123.288 185.696 123.528 185.86 123.816 185.972C124.104 186.084 124.384 186.14 124.656 186.14C124.944 186.14 125.228 186.084 125.508 185.972C125.796 185.852 126.032 185.684 126.216 185.468C126.408 185.244 126.504 184.976 126.504 184.664C126.504 184.36 126.416 184.1 126.24 183.884C126.064 183.668 125.832 183.504 125.544 183.392C125.264 183.28 124.964 183.224 124.644 183.224C124.34 183.224 124.044 183.284 123.756 183.404C123.476 183.516 123.248 183.684 123.072 183.908C122.904 184.124 122.82 184.384 122.82 184.688ZM140.901 187.484C140.901 188.188 140.769 188.816 140.505 189.368C140.249 189.912 139.893 190.34 139.437 190.652C138.981 190.964 138.465 191.12 137.889 191.12C137.313 191.12 136.797 190.964 136.341 190.652C135.893 190.34 135.537 189.912 135.273 189.368C135.009 188.816 134.877 188.188 134.877 187.484C134.877 186.78 135.009 186.156 135.273 185.612C135.537 185.06 135.893 184.628 136.341 184.316C136.797 183.996 137.313 183.836 137.889 183.836C138.465 183.836 138.981 183.996 139.437 184.316C139.893 184.628 140.249 185.06 140.505 185.612C140.769 186.156 140.901 186.78 140.901 187.484ZM140.073 187.484C140.073 186.916 139.981 186.416 139.797 185.984C139.613 185.552 139.357 185.216 139.029 184.976C138.701 184.728 138.321 184.604 137.889 184.604C137.457 184.604 137.077 184.728 136.749 184.976C136.421 185.216 136.161 185.552 135.969 185.984C135.785 186.416 135.693 186.916 135.693 187.484C135.693 188.052 135.785 188.552 135.969 188.984C136.161 189.416 136.421 189.752 136.749 189.992C137.077 190.232 137.457 190.352 137.889 190.352C138.321 190.352 138.701 190.232 139.029 189.992C139.357 189.744 139.613 189.408 139.797 188.984C139.981 188.552 140.073 188.052 140.073 187.484ZM151.836 192.524V190.388H147.84V189.668L152.1 184.148H152.652V189.644H153.708V190.388H152.652V192.524H151.836ZM148.704 189.644H151.92V185.432L148.704 189.644ZM170.062 191V184.748H173.794V185.48H170.878V191H170.062ZM183.601 191.12C183.153 191.12 182.737 191.036 182.353 190.868C181.977 190.692 181.649 190.456 181.369 190.16C181.097 189.856 180.885 189.512 180.733 189.128C180.581 188.736 180.505 188.324 180.505 187.892C180.505 187.444 180.581 187.028 180.733 186.644C180.885 186.252 181.101 185.908 181.381 185.612C181.661 185.308 181.989 185.072 182.365 184.904C182.749 184.728 183.165 184.64 183.613 184.64C184.061 184.64 184.473 184.728 184.849 184.904C185.225 185.072 185.553 185.308 185.833 185.612C186.113 185.908 186.329 186.252 186.481 186.644C186.633 187.028 186.709 187.444 186.709 187.892C186.709 188.324 186.633 188.736 186.481 189.128C186.329 189.512 186.113 189.856 185.833 190.16C185.561 190.456 185.233 190.692 184.849 190.868C184.473 191.036 184.057 191.12 183.601 191.12ZM181.333 187.904C181.333 188.368 181.433 188.792 181.633 189.176C181.841 189.552 182.117 189.852 182.461 190.076C182.805 190.292 183.185 190.4 183.601 190.4C184.017 190.4 184.397 190.288 184.741 190.064C185.085 189.84 185.361 189.536 185.569 189.152C185.777 188.76 185.881 188.336 185.881 187.88C185.881 187.416 185.777 186.992 185.569 186.608C185.361 186.224 185.085 185.92 184.741 185.696C184.397 185.472 184.017 185.36 183.601 185.36C183.185 185.36 182.805 185.476 182.461 185.708C182.125 185.94 181.853 186.248 181.645 186.632C181.437 187.008 181.333 187.432 181.333 187.904ZM193.378 192.452V190.268H193.486C193.67 190.268 193.838 190.212 193.99 190.1C194.142 189.988 194.278 189.792 194.398 189.512C194.518 189.232 194.614 188.848 194.686 188.36C194.758 187.864 194.806 187.24 194.83 186.488L194.89 184.748H198.958V190.268H199.798V192.452H199.066V191H194.098V192.452H193.378ZM194.722 190.268H198.142V185.48H195.622L195.586 186.56C195.562 187.304 195.51 187.928 195.43 188.432C195.358 188.928 195.262 189.324 195.142 189.62C195.03 189.908 194.89 190.124 194.722 190.268ZM206.531 189.2C206.531 188.808 206.643 188.472 206.867 188.192C207.091 187.904 207.399 187.684 207.791 187.532C208.191 187.372 208.651 187.292 209.171 187.292C209.475 187.292 209.791 187.316 210.119 187.364C210.447 187.412 210.739 187.484 210.995 187.58V187.052C210.995 186.524 210.839 186.104 210.527 185.792C210.215 185.48 209.783 185.324 209.231 185.324C208.895 185.324 208.563 185.388 208.235 185.516C207.915 185.636 207.579 185.816 207.227 186.056L206.915 185.48C207.323 185.2 207.723 184.992 208.115 184.856C208.507 184.712 208.907 184.64 209.315 184.64C210.083 184.64 210.691 184.86 211.139 185.3C211.587 185.74 211.811 186.348 211.811 187.124V190.016C211.811 190.128 211.835 190.212 211.883 190.268C211.931 190.316 212.007 190.344 212.111 190.352V191C212.023 191.008 211.947 191.016 211.883 191.024C211.819 191.032 211.771 191.032 211.739 191.024C211.539 191.016 211.387 190.952 211.283 190.832C211.179 190.712 211.123 190.584 211.115 190.448L211.103 189.992C210.823 190.352 210.459 190.632 210.011 190.832C209.563 191.024 209.107 191.12 208.643 191.12C208.243 191.12 207.879 191.036 207.551 190.868C207.231 190.692 206.979 190.46 206.795 190.172C206.619 189.876 206.531 189.552 206.531 189.2ZM210.719 189.68C210.807 189.568 210.875 189.46 210.923 189.356C210.971 189.252 210.995 189.16 210.995 189.08V188.168C210.723 188.064 210.439 187.984 210.143 187.928C209.855 187.872 209.563 187.844 209.267 187.844C208.683 187.844 208.211 187.96 207.851 188.192C207.491 188.424 207.311 188.74 207.311 189.14C207.311 189.372 207.371 189.592 207.491 189.8C207.611 190 207.787 190.168 208.019 190.304C208.251 190.432 208.523 190.496 208.835 190.496C209.227 190.496 209.591 190.42 209.927 190.268C210.271 190.116 210.535 189.92 210.719 189.68Z" fill="white"/>
<path d="M129.684 121.002C128.824 121.543 127.645 122.053 127.072 122.148C126.435 122.244 125.989 122.53 125.989 122.753C125.989 123.167 126.403 123.358 127.072 123.231C127.996 123.04 128.856 123.581 128.856 124.313C128.856 125.077 128.792 125.077 126.084 125.173C123.345 125.269 123.281 125.269 123.281 126.064C123.281 126.669 123.472 126.892 124.109 126.956C124.555 127.02 125.097 126.829 125.352 126.574C125.766 126.033 126.817 125.905 127.072 126.351C127.295 126.701 126.69 127.402 125.352 128.293C123.759 129.376 122.74 130.426 123.058 130.649C123.249 130.745 123.791 130.617 124.269 130.363C124.778 130.108 125.384 129.885 125.638 129.885C125.861 129.885 126.594 129.471 127.263 128.93C127.9 128.421 128.537 128.07 128.665 128.198C128.76 128.293 128.856 128.93 128.856 129.599C128.856 130.395 128.696 130.84 128.314 130.968C127.295 131.382 128.41 131.859 129.779 131.636C130.99 131.445 131.085 131.382 130.862 130.586C130.385 128.803 130.544 128.134 131.436 128.038C131.882 127.975 132.423 128.166 132.678 128.421C132.901 128.707 133.22 128.93 133.379 128.93C133.538 128.93 134.048 129.217 134.494 129.567C135.386 130.267 136.66 130.395 136.978 129.885C137.329 129.344 136.246 127.975 135.449 127.975C135.067 127.975 134.335 127.752 133.825 127.497C133.347 127.243 132.455 127.02 131.85 127.02C130.608 127.02 130.417 126.797 130.799 125.778C131.085 125.046 131.181 125.014 133.283 125.237C135.672 125.428 136.501 125.3 136.501 124.632C136.501 123.963 135.354 123.772 132.997 123.995C131.595 124.122 130.767 124.09 130.639 123.868C130.257 123.295 131.054 122.276 131.945 122.18C133.029 122.053 133.188 121.48 132.391 120.684C131.531 119.824 131.531 119.824 129.684 121.002Z" fill="white"/>
<path d="M145.866 120.461C145.77 120.716 145.929 121.352 146.216 121.894C146.885 123.199 146.407 124.218 145.165 124.122C143.7 123.995 143.19 124.154 143.19 124.632C143.19 125.109 143.349 125.173 145.42 125.237C146.312 125.269 146.566 125.396 146.63 125.969C146.726 126.51 146.535 126.733 145.834 126.86C145.356 126.988 144.687 127.179 144.4 127.37C144.082 127.529 143.126 127.656 142.234 127.656C141.056 127.656 140.578 127.784 140.419 128.166C140.323 128.452 140.419 128.803 140.673 128.962C141.311 129.408 144.114 129.057 144.783 128.452C145.42 127.879 146.248 127.816 146.566 128.357C146.821 128.739 144.942 130.522 143.349 131.382C142.84 131.636 142.234 132.082 141.979 132.305C141.757 132.56 141.342 132.751 141.088 132.751C140.801 132.751 140.642 132.973 140.705 133.292C140.896 134.343 142.298 134.12 144.369 132.751C145.483 132.018 146.503 131.509 146.694 131.636C146.853 131.732 147.012 132.591 147.012 133.547C147.012 135.043 147.108 135.33 148 136.062C148.828 136.794 149.274 136.89 151.217 136.89C153.511 136.89 155.422 136.285 155.74 135.457C155.9 134.979 154.657 133.387 154.116 133.387C153.893 133.387 153.542 133.769 153.319 134.247C152.937 135.043 152.682 135.139 151.185 135.234C149.816 135.33 149.37 135.202 148.892 134.693C148.127 133.865 148.127 133.356 148.924 132.496C149.401 131.986 149.943 131.795 150.994 131.795C152.077 131.795 152.491 131.636 152.746 131.159C152.937 130.808 153.001 130.363 152.905 130.204C152.619 129.726 151.281 129.821 150.835 130.363C150.325 130.999 148.796 130.968 148.255 130.331C147.713 129.662 148.095 129.057 149.816 127.847C151.09 126.956 151.153 126.924 151.759 127.465C152.619 128.261 155.709 128.357 155.868 127.625C155.9 127.338 155.581 126.86 155.135 126.574C154.434 126.096 154.148 126.096 153.224 126.447C152.396 126.733 152.013 126.733 151.759 126.478C151.153 125.873 151.695 124.504 152.587 124.282C153.447 124.059 153.542 123.772 153.065 122.912C152.555 121.925 151.822 121.862 150.994 122.753C150.007 123.836 148.924 123.581 148.924 122.244C148.924 120.716 146.343 119.219 145.866 120.461ZM149.561 125.587C149.561 126.064 148.701 126.478 148.255 126.192C147.841 125.937 147.904 125.173 148.382 125.014C148.956 124.823 149.561 125.109 149.561 125.587Z" fill="white"/>
<path d="M168.259 120.843C168.163 120.97 168.259 121.448 168.514 121.957C169.183 123.231 169.119 123.549 167.972 124.632L166.953 125.587L167.909 125.746C169.31 126.001 169.278 126.892 167.845 127.243L166.666 127.497L166.571 131.573L166.507 135.616H167.271C167.972 135.616 168.036 135.489 168.036 134.183C168.036 133.133 168.163 132.751 168.514 132.751C168.896 132.751 168.992 133.165 168.992 134.661C168.992 136.317 169.055 136.571 169.597 136.571C169.915 136.571 170.266 136.348 170.393 136.094C170.648 135.425 171.381 135.489 171.89 136.285C172.336 136.921 172.368 136.921 173.037 136.348C173.674 135.807 173.738 135.457 173.802 131.636C173.865 129.344 173.77 127.306 173.642 127.051C173.451 126.765 173.005 126.701 172.177 126.829C171.126 126.988 170.967 126.924 170.807 126.319C170.521 125.3 170.775 125.109 172.304 125.109C173.802 125.109 174.12 124.95 173.865 124.282C173.738 123.963 173.324 123.899 172.304 124.059L170.903 124.25V122.785C170.903 121.448 170.839 121.321 169.915 121.002C168.737 120.588 168.546 120.588 168.259 120.843ZM172.113 129.662C172.177 132.114 171.667 132.751 170.744 131.35C170.329 130.713 170.298 130.458 170.616 129.949C170.935 129.439 170.935 129.217 170.616 128.834C170.298 128.421 170.329 128.293 170.807 128.038C171.635 127.561 172.113 128.102 172.113 129.662ZM168.96 129.312C168.928 130.076 168.96 130.872 169.023 131.127C169.087 131.382 168.928 131.636 168.641 131.7C168.163 131.827 168.1 131.573 168.195 129.981C168.291 127.879 168.259 127.975 168.673 127.975C168.864 127.975 168.992 128.548 168.96 129.312ZM172.018 132.782C172.145 132.942 172.145 133.451 172.05 133.897C171.795 134.852 170.712 134.916 170.425 134.024C170.075 132.91 171.476 131.859 172.018 132.782Z" fill="white"/>
<path d="M161.92 121.957C161.602 122.116 161.347 122.562 161.347 122.912C161.347 123.836 160.423 125.332 159.181 126.574C157.97 127.72 158.193 128.102 159.881 127.816C160.805 127.625 161.028 127.72 161.347 128.293C161.92 129.344 161.538 129.885 160.232 129.885C159.308 129.885 159.085 129.981 159.181 130.426C159.34 131.254 160.55 131.286 162.016 130.554C162.716 130.172 163.704 129.885 164.245 129.885C165.328 129.885 165.392 129.185 164.341 128.994C163.322 128.803 163.035 128.293 163.672 127.816C164.245 127.402 164.245 127.338 163.704 126.415C163.035 125.3 163.322 124.759 164.15 125.523C164.787 126.096 165.966 126.256 166.252 125.778C166.475 125.428 165.201 124.282 164.277 123.995C163.799 123.868 163.608 123.613 163.704 123.326C163.895 122.785 163.258 121.607 162.78 121.607C162.621 121.607 162.207 121.766 161.92 121.957Z" fill="white"/>
<path d="M172.336 122.244C172.018 122.753 172.814 123.517 173.674 123.517C174.534 123.517 175.044 122.626 174.375 122.212C173.77 121.83 172.591 121.862 172.336 122.244Z" fill="white"/>
<path d="M132.328 130.554C131.691 131.191 131.691 131.286 132.168 131.541C133.315 132.178 132.71 132.655 130.385 132.846C128.091 133.037 127.263 132.814 127.263 131.955C127.263 131.509 125.447 130.649 125.129 130.936C125.033 131.063 125.192 131.636 125.479 132.241C125.766 132.846 125.989 133.992 125.989 134.788C125.989 136.667 126.849 137.367 128.537 136.89C129.142 136.699 130.671 136.571 131.914 136.571C134.271 136.571 134.781 136.412 134.271 135.775C134.08 135.521 134.175 134.852 134.589 133.706C135.258 131.859 135.131 131.286 133.825 130.395C133.06 129.917 132.965 129.917 132.328 130.554ZM132.041 134.024C132.423 134.247 132.391 134.406 131.882 134.979C131.404 135.521 130.99 135.616 129.684 135.552C127.645 135.425 127.486 134.693 129.333 134.152C130.926 133.674 131.436 133.642 132.041 134.024Z" fill="white"/>
<path d="M163.099 131.604C162.939 131.668 162.143 131.891 161.347 132.146C159.595 132.623 159.244 132.91 159.658 133.451C159.85 133.674 160.073 134.406 160.2 135.075C160.455 136.539 161.092 136.858 162.302 136.126C162.812 135.839 163.385 135.616 163.64 135.616C164.405 135.584 165.201 134.088 165.105 132.814C165.01 131.827 164.882 131.636 164.214 131.573C163.768 131.541 163.29 131.573 163.099 131.604ZM163.194 133.61C163.035 135.17 161.379 134.884 161.347 133.292C161.347 132.91 161.602 132.751 162.334 132.751C163.194 132.751 163.29 132.846 163.194 133.61Z" fill="white"/>
<path d="M245.346 45.2065C244.581 45.5117 244.466 45.855 244.466 47.6478C244.466 48.7922 244.275 49.8603 244.046 50.0128C243.816 50.1273 243.74 50.6995 243.893 51.2716C244.008 51.8057 244.275 52.8737 244.428 53.5985C244.619 54.3233 245.002 55.4676 245.269 56.1161C245.69 57.1842 245.651 57.4893 245.116 58.3285C244.734 58.8626 244.122 59.3203 243.702 59.3203C243.32 59.3203 242.861 59.4729 242.746 59.7017C242.287 60.4265 240.72 60.1213 240.414 59.244C240.223 58.5955 240.414 58.2141 241.179 57.6038C242.631 56.4594 242.44 55.6583 240.567 55.048C239 54.5903 238.923 54.4758 238.809 52.8737C238.656 50.852 237.623 49.8221 235.75 49.784C234.451 49.784 233.036 50.9283 232.998 51.9964C232.998 52.2634 232.654 52.95 232.272 53.5222C230.972 55.3532 230.972 56.0017 232.272 57.4512C232.921 58.1759 233.724 59.1296 234.068 59.6255C234.986 61.0368 234.106 61.4946 229.557 61.9905C227.187 62.2575 225.314 62.6389 224.932 62.9822C224.511 63.3637 223.211 63.5163 220.038 63.5163H215.757L215.872 65.1184C215.986 66.7205 216.024 66.7586 217.401 66.8731C218.165 66.9494 219.006 67.2545 219.236 67.5597C219.503 67.8648 220.038 68.0937 220.382 68.0937C220.765 68.0937 222.256 68.704 223.708 69.4669C225.887 70.6113 226.575 70.7639 227.837 70.5732C228.678 70.4587 229.634 70.1154 229.978 69.8103C230.284 69.5051 230.781 69.2381 231.01 69.2381C231.239 69.2381 231.583 69.0092 231.736 68.7422C232.31 67.7885 236.668 64.6606 237.432 64.6606C237.815 64.6606 238.617 64.3936 239.191 64.1266C240.567 63.4018 243.396 62.9822 244.658 63.2874C246.76 63.8214 245.002 66.0339 242.746 65.6906C240.338 65.3091 239.65 66.0339 240.988 67.4834C242.096 68.704 242.287 70.7639 241.446 71.7938C241.026 72.2897 240.529 72.6712 240.299 72.6712C239.611 72.6712 239.764 76.829 240.452 77.096C241.37 77.4775 241.102 78.7363 239.955 79.728C239.344 80.2239 238.541 81.3301 238.159 82.1693C237.585 83.5044 237.547 83.9622 237.891 85.221C238.656 87.7767 239.573 88.5396 242.326 89.0736C245.346 89.6458 246.187 90.3706 244.963 91.3623C244.199 91.9727 243.855 91.9727 240.758 91.5149C238.923 91.2098 236.171 90.9809 234.718 90.9809H232.042L231.545 92.5067C230.895 94.6428 230.972 96.2068 231.736 96.6645C232.08 96.8553 233.304 96.9316 234.412 96.8171C236.63 96.5883 238.044 97.0841 240.682 99.1058C241.446 99.678 242.287 100.136 242.517 100.136C242.784 100.136 243.052 100.403 243.167 100.708C243.32 101.013 243.702 101.28 244.046 101.28C244.39 101.28 245.116 101.585 245.613 101.929C246.454 102.501 247.486 102.615 253.182 102.577C258.726 102.539 259.872 102.424 260.446 101.929C260.828 101.547 261.784 101.28 262.51 101.28C264.498 101.28 267.289 99.6017 267.595 98.2285C268.092 95.9016 266.562 94.414 262.051 92.8882C259.337 91.9727 258.114 91.9345 257.311 92.6974C257.005 93.0026 256.508 93.2696 256.241 93.2696C255.973 93.2696 255.323 93.5366 254.826 93.8799C254.329 94.2232 253.106 94.5284 251.997 94.5666L250.009 94.6047L250.048 93.2315C250.086 92.4686 250.468 91.3623 250.965 90.7139C251.653 89.7602 252.265 89.4551 254.176 89.0736C257.005 88.5396 259.681 87.3952 260.025 86.556C260.369 85.6787 259.375 84.1147 258.458 84.1147C257.999 84.1147 257.311 83.8477 256.929 83.5426C256.432 83.1611 255.285 82.9704 253.603 82.9704C252.188 82.9704 250.927 82.8178 250.812 82.6271C250.659 82.4363 250.736 81.826 250.965 81.2538C251.347 80.2621 251.386 80.2621 253.871 80.4909C256.585 80.7961 257.082 80.5672 257.082 78.927C257.082 77.9733 259.337 76.1042 260.446 76.1042C262.319 76.1042 263.045 72.9763 261.822 70.3443C260.675 67.8648 260.178 67.1401 259.49 66.9875C259.108 66.9494 258.534 66.6442 258.229 66.3772C257.617 65.8813 256.164 65.4998 253.259 65.1565C252.303 65.0421 251.347 64.8132 251.118 64.6225C250.43 64.0885 250.965 62.4864 251.997 61.7616C252.838 61.2276 253.297 61.1894 255.706 61.609C257.196 61.876 259.643 62.143 261.172 62.2575C262.854 62.3719 264.116 62.6771 264.383 62.9822C264.613 63.2874 265.53 63.5163 266.409 63.5544C268.168 63.5926 270.653 64.3555 270.653 64.8895C270.653 66.2627 267.671 68.0937 265.492 68.0937C263.848 68.0937 263.619 68.5515 263.886 70.8783C263.963 71.7175 264.307 72.4423 264.651 72.5567C264.957 72.7093 266.371 72.4804 267.747 72.1371C270.079 71.5268 270.5 71.5268 273.138 72.0608C277.305 72.9382 278.643 72.8619 279.407 71.7175C280.172 70.5732 280.21 67.7123 279.445 66.7205C279.14 66.339 278.872 65.538 278.872 64.9658C278.872 64.3936 278.681 63.8214 278.451 63.707C278.26 63.5544 277.916 63.0585 277.725 62.5626C277.343 61.609 274.705 60.0832 273.367 60.0832C272.87 60.0832 271.953 59.8162 271.379 59.511C270.767 59.2059 269.621 58.9388 268.856 58.9388C267.556 58.9388 267.403 58.8244 267.403 57.9852C267.403 57.4512 267.671 56.9171 267.977 56.8027C269.124 56.345 268.55 54.9717 266.371 52.95C265.148 51.8438 263.963 50.9283 263.733 50.9283C263.504 50.9283 263.084 50.6613 262.816 50.3561C262.472 49.9747 261.593 49.784 259.911 49.784C255.897 49.784 253.182 52.0727 255.897 53.1789C257.502 53.8655 258.496 56.345 257.311 56.7646C256.202 57.1842 252.571 56.5738 252.341 55.9254C251.997 55.048 251.118 53.5985 250.621 53.1026C250.392 52.8737 250.201 52.3397 250.201 51.882C250.201 51.4242 249.933 50.7376 249.627 50.318C249.321 49.9365 249.054 49.0974 249.054 48.5252C249.054 47.419 247.983 45.2065 247.486 45.2065C247.333 45.2065 246.989 45.1302 246.684 45.054C246.416 44.9395 245.804 45.0158 245.346 45.2065ZM248.289 68.4752C248.289 68.6659 248.366 69.0473 248.48 69.3525C248.633 69.6577 248.175 70.268 247.372 70.9165L246.034 71.9464L245.231 71.1453C244.275 70.1917 244.237 69.0855 245.231 68.0937C245.843 67.4834 246.148 67.4071 247.142 67.7504C247.754 67.9793 248.289 68.3226 248.289 68.4752ZM253.565 70.4587C253.832 70.7257 254.023 71.1453 254.023 71.4124C254.023 72.1753 252.418 74.197 251.844 74.197C251.577 74.197 251.347 74.3495 251.347 74.5784C251.347 75.2269 249.78 74.998 248.633 74.1588C247.716 73.5103 247.601 73.2433 247.945 72.8237C248.175 72.5186 248.633 72.2897 248.901 72.2897C249.168 72.2897 249.665 71.7557 250.009 71.1453C250.468 70.2298 250.851 70.001 251.844 70.001C252.533 70.001 253.297 70.1917 253.565 70.4587ZM248.289 78.6218C248.289 78.927 248.136 79.1559 247.907 79.1559C247.448 79.1559 246.722 77.8208 247.028 77.4775C247.372 77.1723 248.289 78.0115 248.289 78.6218ZM245.154 81.3683C245.804 81.9023 246.034 82.3601 245.919 83.1993L245.804 84.3055L243.358 84.191C240.911 84.1147 240.261 83.7714 240.261 82.5889C240.261 81.8642 242.058 80.758 243.32 80.7198C243.855 80.7198 244.696 81.025 245.154 81.3683ZM249.436 86.022C249.436 86.4416 248.327 87.5478 247.869 87.5478C247.333 87.5478 247.486 86.5179 248.136 85.8694C248.71 85.2591 249.436 85.3735 249.436 86.022Z" fill="white"/>
<path d="M129.705 48.9066C128.978 49.7077 128.252 50.6613 128.137 51.0428C127.755 52.0345 128.481 53.5604 130.163 55.2769C131.884 57.0316 131.998 57.3367 131.043 57.68C129.705 58.1378 127.105 60.5409 127.105 61.2657C127.105 62.4482 128.137 62.5245 129.59 61.4564C130.316 60.9224 131.387 60.3502 132.037 60.2358C132.648 60.0832 133.566 59.5873 134.025 59.0914C135.018 58.0615 135.974 57.9089 136.662 58.7481C137.006 59.1677 137.312 59.2059 137.886 58.9007C138.344 58.6718 139.606 58.5574 140.829 58.6718C142.664 58.8244 143.161 58.71 144.193 57.9089C145.761 56.7646 146.296 55.7728 145.99 54.5903C145.722 53.5222 143.582 52.0727 142.244 52.0727C141.785 52.0727 141.059 51.8057 140.638 51.5005C140.256 51.1953 139.453 50.9283 138.88 50.9283C138.306 50.9283 137.771 50.7757 137.656 50.585C137.542 50.3943 136.853 50.1273 136.127 50.0128C135.133 49.8221 134.713 49.517 134.407 48.6396C134.063 47.6478 133.833 47.4952 132.572 47.4952C131.349 47.4952 130.852 47.7623 129.705 48.9066Z" fill="white"/>
<path d="M51.9099 48.6015C50.7248 48.754 49.6544 49.3644 47.7813 50.9283C44.723 53.4459 44.5318 53.5222 41.7794 53.5603C40.5943 53.5985 39.4857 53.7511 39.371 53.9799C39.2181 54.2088 36.5421 54.3614 32.6046 54.3614C27.2526 54.3614 25.9146 54.247 25.4176 53.7892C25.0354 53.4459 23.6591 53.1026 22.3211 52.9882C19.4158 52.683 18.6894 53.1789 19.11 55.1243C19.3011 56.0779 19.9892 56.7264 22.3594 58.2904C24.8442 59.8925 25.4941 60.5028 25.9911 61.8379C26.3734 62.8678 26.9086 63.5163 27.4437 63.6689C28.7053 63.974 32.6428 63.4781 33.1016 62.9059C33.3309 62.6008 33.7514 62.3719 34.019 62.3719C34.2484 62.3719 35.2041 61.8379 36.0451 61.2276C36.9244 60.5791 37.9948 60.0832 38.4535 60.0832C38.874 60.0832 39.7151 59.8543 40.2503 59.5492C41.8176 58.7481 46.6726 57.3367 47.4372 57.4893C47.8195 57.5656 48.4311 58.4048 48.8516 59.4347C49.5398 61.1131 49.5398 61.3038 48.9663 61.9523C48.6223 62.3338 48.3547 63.2874 48.3547 64.1266C48.3547 65.4617 48.2018 65.6906 46.8255 66.4535C44.9906 67.5215 44.3025 67.5597 43.7673 66.5679C43.2321 65.538 42.1235 65.6143 40.9001 66.7205C39.9444 67.5978 39.8297 67.636 38.6064 67.1019C35.0894 65.6524 32.1076 66.9875 32.3752 69.8865C32.4899 71.2216 32.4134 71.3361 31.3813 71.4505C30.1962 71.6031 28.8964 72.8619 28.8582 73.8918C28.8582 74.2351 29.2023 75.1124 29.6228 75.8372C30.3109 77.0197 30.6549 77.2104 32.4517 77.4393C33.6367 77.5537 35.2041 77.5156 36.0451 77.2867C37.9566 76.7527 38.3771 76.9434 40.5943 79.0033C41.55 79.9188 42.5057 80.6817 42.6586 80.6817C43.2703 80.6817 44.1113 82.4363 43.882 83.2755C43.729 83.8859 43.385 84.1147 42.6586 84.1147C42.047 84.1147 40.5943 84.8776 38.9887 86.022C37.536 87.0519 35.7393 88.12 34.9747 88.3489C34.2484 88.6159 33.4838 89.0355 33.3309 89.3025C33.1016 89.684 32.0694 89.8365 29.4699 89.8365C26.2587 89.8365 25.8382 89.9128 25.1118 90.7139C24.3472 91.5149 24.2708 92.0108 24.2708 95.8253V100.059L25.7999 101.28C27.2526 102.424 27.5202 102.501 30.5785 102.501C33.0633 102.539 33.9808 102.386 34.516 101.89C34.8983 101.547 35.5099 101.28 35.8158 101.28C36.1598 101.28 36.6186 101.013 36.8862 100.708C37.1538 100.403 37.7272 100.136 38.1859 100.136C38.6064 100.098 39.4092 99.8687 39.9444 99.5636C40.4796 99.2584 41.8176 99.0296 42.9262 98.9914C44.0349 98.9914 45.564 98.7244 46.3668 98.3811C47.5519 97.8852 49.7309 97.7708 59.5174 97.6945C66.819 97.6563 71.4064 97.4656 71.7505 97.1986C72.0181 97.0079 72.5533 96.7027 72.9738 96.5501C73.7001 96.2831 73.7001 94.9861 72.9738 87.4715C72.5915 83.6188 74.7705 80.6817 77.9817 80.6817C78.8609 80.6817 79.3961 80.9487 79.8166 81.5971C80.5812 82.7415 80.046 83.3518 78.2875 83.3518C76.7584 83.3518 75.1146 84.3436 75.1146 85.221C75.1146 86.022 76.6437 87.5478 77.4465 87.5478C77.7523 87.5478 78.364 87.8148 78.7845 88.12C79.1668 88.4252 80.1607 88.6922 80.9635 88.6922C81.7663 88.6922 83.0278 88.9592 83.7924 89.2644C85.7038 90.0654 88.3416 89.9891 90.2912 89.0355C91.591 88.4252 91.9733 88.0056 92.1644 86.9756C92.4703 85.3735 92.0115 83.3518 91.3234 83.0848C90.5971 82.8178 90.6353 80.8342 91.3616 80.5291C92.1262 80.2621 92.088 78.8888 91.3234 78.1259C90.5206 77.3249 88.1122 76.1042 87.3094 76.1042C86.9654 76.1042 86.4684 75.8372 86.2008 75.532C85.5509 74.7691 81.881 74.7691 81.0782 75.532C80.7341 75.8754 79.8167 76.1042 78.6698 76.1042C77.5994 76.1042 76.4526 76.3331 76.032 76.6764C75.6498 76.9816 75.0381 77.2486 74.7323 77.2486C74.1588 77.2486 72.4386 79.0414 72.4386 79.6136C72.4386 79.8043 71.8651 80.5291 71.2153 81.2157C68.9598 83.4281 67.8512 84.8014 67.8512 85.3354C67.8512 85.8694 65.7104 87.9293 65.1369 87.9293C64.9458 87.9293 64.7164 88.3489 64.5635 88.8448C64.3341 89.8747 63.6078 90.1036 60.4731 90.218C59.4409 90.218 58.1794 90.4087 57.6824 90.5994C57.1472 90.8283 54.2036 90.9809 51.1071 90.9809C46.2139 90.9809 45.2964 91.0953 44.0349 91.7438C42.5057 92.583 40.5179 92.7356 40.1356 92.0871C39.9827 91.8964 39.9827 91.2861 40.0973 90.8283C40.3267 89.9128 41.3589 89.3406 43.9584 88.7303C47.3607 87.9293 52.2157 85.7931 52.9803 84.7632C53.2861 84.3436 54.7388 83.5044 56.115 82.9322C56.8414 82.6271 57.2619 82.1312 57.4148 81.3683C57.606 80.3384 57.7589 80.2239 58.8675 80.4146C59.9761 80.6054 60.2437 80.4146 61.5052 78.927C62.6521 77.5537 63.1491 77.2486 64.1812 77.2486C64.9076 77.2486 65.6721 76.9816 65.9397 76.6764C66.2073 76.3712 66.6279 76.1042 66.8572 76.1042C67.0866 76.0661 67.66 75.7609 68.157 75.3795C68.8833 74.731 68.998 74.2732 68.998 71.9845C68.998 70.0773 68.8451 69.1999 68.4246 68.8566C68.1188 68.5896 67.8512 68.17 67.8512 67.9411C67.8512 67.7123 66.8572 66.8349 65.6721 66.0339C63.4549 64.5843 63.4549 64.5843 60.3966 64.8132C56.6502 65.0802 56.0768 64.8132 56.7649 63.173C57.606 61.1131 58.8675 60.0832 60.5113 60.0832C61.4288 60.0832 62.3845 59.778 62.9962 59.3203C63.8754 58.6337 63.9136 58.4811 63.4931 57.3367C62.0787 53.5222 60.9701 52.1871 59.0586 51.9964C58.1029 51.9201 57.6824 51.6912 57.5677 51.119C57.4913 50.6995 57.109 49.8984 56.6885 49.2881C55.9239 48.1819 55.3122 48.1056 51.9099 48.6015ZM55.4269 54.9336C55.9621 55.4295 56.3826 56.1924 56.3826 56.5738C56.3826 57.413 54.6241 59.3203 53.8213 59.3203C53.2861 59.3203 51.0307 56.0779 51.0307 55.315C51.0307 53.7511 54.0125 53.4841 55.4269 54.9336ZM54.5477 66.4535C55.6563 67.4452 55.3887 68.2463 53.2479 70.5732L51.26 72.7474L50.1896 71.5649C49.6162 70.9165 49.1192 70.2298 49.1192 70.0391C49.1192 69.8865 49.8456 68.8566 50.7248 67.7504C52.4069 65.6906 53.3626 65.3472 54.5477 66.4535ZM58.9822 71.9464C59.1351 72.7474 56.4591 75.4176 55.6563 75.265C55.0064 75.1506 54.5859 72.7474 55.0064 71.6412C55.3122 70.8402 58.8293 71.1072 58.9822 71.9464ZM47.0167 72.9C47.4372 73.3578 47.5901 74.0825 47.5137 75.4939C47.399 77.1723 47.2843 77.4393 46.5579 77.5537C46.0227 77.63 45.3729 77.2867 44.6848 76.5238C44.1113 75.8754 43.3468 75.265 42.9645 75.1506C42.0088 74.8454 42.047 74.3114 43.1174 73.2052C44.1113 72.1371 46.0992 71.9845 47.0167 72.9ZM53.6684 76.2568C53.936 76.6001 54.0889 77.2486 53.936 77.7063C53.6684 78.6981 51.2983 80.4909 49.7691 80.8724C48.2782 81.2538 48.4311 80.3384 50.3426 77.4393C51.9864 74.9217 52.4451 74.7691 53.6684 76.2568ZM85.9332 82.3982C86.3155 83.5044 85.7803 84.191 84.6717 84.0003C84.1365 83.924 83.4101 81.559 83.7542 80.9868C84.0982 80.4146 85.5891 81.3683 85.9332 82.3982ZM37.2684 93.8418C37.536 94.147 37.6507 94.6047 37.536 94.8717C37.2302 95.6728 34.1719 96.9697 32.0312 97.2367L30.0051 97.5037V96.3212C30.0051 95.0624 30.158 94.948 33.4456 93.9181C35.7393 93.1933 36.695 93.1552 37.2684 93.8418Z" fill="white"/>
<path d="M136.892 68.8185C136.509 69.3907 133.986 69.6958 133.413 69.2381C132.992 68.8948 132.534 68.8948 131.463 69.2381C130.355 69.6195 129.628 69.6195 128.061 69.2381C126.341 68.8185 125.92 68.8566 124.964 69.3525C124.353 69.6958 123.397 70.1536 122.824 70.4206C122.212 70.6495 121.753 70.9928 121.753 71.1453C121.753 71.7938 118.733 72.4804 115.943 72.4804C113.152 72.4423 112.922 72.366 112.005 71.3361C110.858 69.9628 110.208 70.2299 108.87 72.5186C107.876 74.2351 107.8 75.5321 108.564 76.8671C108.87 77.4012 109.1 78.1641 109.138 78.6218C109.138 79.0414 109.711 80.0332 110.438 80.7961C112.12 82.6271 113.267 82.6271 114.987 80.8724C116.248 79.6136 116.401 79.5373 119.001 79.5373C120.606 79.5373 122.136 79.3084 122.785 78.9651C123.359 78.66 124.811 77.9734 126.035 77.4775C127.22 76.9434 128.711 76.0661 129.361 75.4939C130.163 74.8454 130.775 74.6166 131.31 74.7692C131.998 74.998 132.075 75.3413 132.075 79.0033C132.075 82.5889 131.998 82.9704 131.387 82.9704C130.431 82.9704 128.94 84.3436 128.023 86.022C127.105 87.6623 124.506 90.5613 123.473 91.019C121.868 91.7438 119.804 93.117 118.504 94.3377C116.516 96.2068 116.707 98.9914 118.81 98.9914C119.23 98.9914 120.645 97.9615 122.021 96.7027C123.359 95.4439 124.811 94.414 125.232 94.414C125.653 94.414 126.455 94.9099 126.991 95.5583C127.755 96.4738 128.252 96.7027 129.437 96.7027H130.928V100.517C130.928 104.255 130.966 104.37 131.884 104.789C133.031 105.285 134.713 104.866 135.133 103.95C136.051 102.005 136.395 100.174 136.509 95.9398C136.624 93.3078 136.853 90.5613 137.045 89.8365C137.236 89.1118 137.465 88.0437 137.58 87.5097C137.733 86.8612 138.306 86.289 139.491 85.6787C140.447 85.221 141.326 84.6869 141.441 84.4581C141.594 84.2673 141.938 84.1148 142.282 84.1148C142.626 84.1148 143.199 83.8859 143.505 83.5807C144.117 83.0085 148.551 80.6054 151.571 79.1177C152.527 78.66 153.75 78.0496 154.324 77.7826C154.859 77.4775 155.585 77.2486 155.891 77.2486C156.235 77.2486 156.962 77.0197 157.573 76.7146C159.064 75.9898 161.09 75.3032 162.466 75.0362C163.116 74.9599 163.957 74.6166 164.378 74.3496C165.486 73.5485 180.548 73.5866 181.619 74.3877C182.001 74.6929 182.613 74.9599 182.995 74.9599C183.339 74.9599 184.142 75.6465 184.792 76.4475C186.245 78.2404 186.359 80.4147 185.212 82.8178C184.295 84.6488 181.275 87.5478 180.281 87.5478C179.899 87.5478 179.363 87.8148 179.096 88.12C178.714 88.5777 177.681 88.6922 174.279 88.6922C170.647 88.6922 169.692 88.5777 168.507 87.9293C166.786 87.0138 165.334 86.9375 165.334 87.7386C165.334 88.4633 167.436 90.4087 168.889 91.019C169.462 91.2479 169.921 91.6675 169.921 91.9727C169.921 92.9263 171.412 93.2696 175.846 93.2696C180.243 93.2696 180.357 93.2315 181.772 92.1253C182.575 91.4768 183.492 90.9809 183.798 90.9809C184.142 90.9809 184.562 90.752 184.715 90.485C185.059 89.951 186.13 89.2644 187.43 88.6922C187.888 88.5015 188.271 88.1581 188.271 87.9293C188.271 87.7386 188.5 87.5478 188.768 87.5478C189.609 87.5478 190.564 86.2509 190.564 85.1828C190.564 84.6488 190.832 84.0003 191.138 83.7333C191.596 83.3518 191.711 82.3601 191.711 79.3466C191.711 76.3331 191.596 75.3413 191.138 74.9599C190.832 74.6929 190.564 74.197 190.564 73.8155C190.564 73.4722 189.953 72.5949 189.226 71.832C187.927 70.535 187.774 70.4969 184.257 70.268C182.231 70.1154 180.281 69.8484 179.86 69.6195C178.79 69.0474 173.438 69.1618 171.297 69.8103C170.265 70.1154 168.392 70.3824 167.169 70.3824C165.907 70.3824 164.531 70.5732 164.072 70.8402C163.613 71.0691 162.466 71.4124 161.511 71.5649C159.446 71.8701 155.776 73.167 153.865 74.2733C153.559 74.4258 153.024 74.6929 152.718 74.8073C152.107 75.0362 150.807 75.7228 148.322 77.1342C147.481 77.5919 146.372 78.1641 145.875 78.393C145.378 78.6218 144.27 79.3084 143.352 79.9569C141.632 81.2157 140.026 81.3301 139.797 80.2621C139.721 79.8425 140.37 79.194 141.594 78.4311L143.543 77.2486V75.1887C143.543 74.0444 143.39 73.0145 143.199 72.8619C142.97 72.7474 142.129 72.8237 141.25 73.0145C139.415 73.4341 138.803 72.7474 139.873 71.5649C140.867 70.4587 140.638 69.4288 139.224 68.9329C137.694 68.3989 137.159 68.3607 136.892 68.8185ZM131.119 91.9345C131.119 93.3459 131.043 93.4603 129.934 93.5748C128.328 93.7274 127.984 92.8119 129.055 91.3242C130.202 89.7221 131.119 89.9891 131.119 91.9345Z" fill="white"/>
<path d="M213.616 69.0474C212.66 69.4288 212.355 69.8103 212.355 70.535C212.355 71.0691 212.584 71.6412 212.851 71.7938C213.693 72.2897 214.648 73.9681 214.342 74.4258C214.189 74.6547 213.501 75.1506 212.813 75.5702C210.29 77.0197 209.334 81.2538 210.825 84.6106C212.01 87.2808 213.348 88.6922 214.725 88.6922C216.024 88.6922 218.7 86.7849 219.274 85.488C219.465 85.0302 219.771 84.4199 219.962 84.1148C220.956 82.3982 221.224 80.6435 220.727 78.66C220.459 77.5538 220 76.4094 219.733 76.0661C219.465 75.7609 219.236 75.1125 219.236 74.6929C219.236 74.2733 218.968 73.7011 218.662 73.4341C218.356 73.167 218.089 72.7474 218.089 72.5186C218.051 71.9845 215.489 68.4752 215.107 68.4752C214.954 68.5133 214.266 68.7422 213.616 69.0474Z" fill="white"/>
<path d="M156.35 81.1394C155.662 83.3518 155.394 84.6869 155.203 87.0519C155.012 88.8448 154.744 89.8365 154.4 89.9891C154.094 90.1036 153.865 90.7139 153.865 91.4768C153.865 92.1634 153.597 93.0789 153.292 93.4985C152.565 94.4521 152.565 96.2831 153.292 96.5501C153.865 96.779 157.114 95.4058 157.535 94.7573C157.65 94.5666 158.3 94.414 158.949 94.414C160.249 94.414 162.008 92.85 162.696 91.0953C163.116 89.9891 162.161 86.9756 161.014 85.7168L160.249 84.8776L161.052 84.0003C162.084 82.9322 162.122 82.1312 161.205 81.3301C160.326 80.5291 156.618 80.4147 156.35 81.1394Z" fill="white"/>
<path d="M127.253 20.3002C126.966 20.6185 126.903 21.1916 127.03 21.9239C127.189 22.7836 127.157 23.0383 126.775 23.0383C126.425 23.0383 126.361 22.7836 126.489 21.8921C126.616 21.128 126.552 20.6504 126.266 20.4912C125.724 20.141 124.991 20.4275 124.991 21.0006C124.991 21.2872 124.609 21.4463 123.908 21.4463C122.698 21.4463 122.093 21.9558 122.889 22.2742C124.068 22.7199 123.208 23.6751 121.615 23.6751C121.137 23.6751 120.85 23.8661 120.85 24.1526C120.85 24.8531 121.742 25.1078 122.602 24.6302C124.099 23.8342 124.832 24.8531 123.845 26.3813C123.176 27.4002 123.462 28.1325 124.514 28.1325C124.991 28.1325 125.31 28.3235 125.31 28.5782C125.31 28.8966 124.864 29.0876 123.877 29.1513C122.284 29.2468 121.902 29.8199 123.303 29.9791C124.768 30.1702 124.8 30.5841 123.431 31.5074C122.698 31.985 122.156 32.5262 122.22 32.7172C122.443 33.3859 123.59 33.2585 124.482 32.4307C125.565 31.4437 125.947 31.4119 125.947 32.367C125.947 32.7809 126.138 33.3859 126.393 33.7361C126.934 34.4365 127.126 34.1182 127.285 32.3033C127.38 31.2527 128.177 30.4567 128.177 31.38C128.177 32.7491 131.107 33.8316 131.967 32.8128C132.382 32.2715 131.84 31.6347 130.98 31.6347C130.661 31.6347 130.152 31.5074 129.833 31.3482C129.547 31.189 129.037 30.9661 128.718 30.8706C127.826 30.5841 128.272 29.8836 129.292 29.8836C130.407 29.8836 130.693 29.2468 129.801 28.7692C129.419 28.5782 129.132 28.2598 129.132 28.0688C129.132 27.8778 128.909 27.4639 128.623 27.1455C128.177 26.6361 128.177 26.5724 128.814 26.3813C129.292 26.2222 129.419 25.9993 129.292 25.6491C128.878 24.5347 128.973 24.471 130.916 24.5665C133.019 24.6939 133.624 24.3437 132.923 23.4522C132.604 23.0701 132.095 23.0064 130.821 23.1338C129.069 23.3248 128.209 22.8791 129.61 22.5289C130.056 22.4333 130.407 22.1468 130.407 21.9558C130.407 21.3508 129.738 20.8414 129.228 21.0324C128.941 21.1598 128.527 20.9369 128.209 20.523C127.731 19.8862 127.603 19.8544 127.253 20.3002ZM127.189 24.28C127.795 24.6621 127.38 25.5854 126.584 25.5854C125.788 25.5854 125.374 24.6621 125.979 24.28C126.234 24.1208 126.489 23.9934 126.584 23.9934C126.68 23.9934 126.934 24.1208 127.189 24.28Z" fill="white"/>
<path d="M109.064 21.4145C108.841 22.2423 108.3 23.0701 107.44 23.8024C105.943 25.076 105.879 25.9993 107.249 26.1585C108.427 26.3177 108.364 27.1455 106.994 29.8836C106.357 31.0935 105.943 32.2715 106.006 32.4944C106.229 33.0675 107.058 33.0038 107.281 32.4307C107.535 31.6984 108.555 31.8576 108.905 32.6536C109.224 33.3859 109.606 33.4495 111.772 33.0675C112.505 32.9401 112.855 32.5899 113.333 31.6029C113.651 30.9024 113.874 30.2657 113.811 30.2338C113.301 29.8199 112.186 29.406 111.931 29.5652C111.74 29.6607 111.613 30.1702 111.613 30.6796C111.613 31.8258 110.466 32.6536 110.116 31.7621C109.988 31.4437 110.116 31.0616 110.466 30.8069C110.976 30.4567 110.912 30.393 110.02 30.202C108.587 29.8836 108.905 29.0558 110.625 28.5464C112.091 28.1325 113.843 26.7316 113.843 25.9993C113.843 25.1715 112.345 24.7894 110.816 25.2033C110.052 25.3944 109.192 25.4899 108.905 25.3944C108.013 25.0441 108.587 24.471 109.956 24.3755C111.358 24.28 111.645 23.8979 110.785 23.4204C110.466 23.2612 110.339 22.9428 110.498 22.7517C110.657 22.4652 110.912 22.497 111.485 22.8473C112.282 23.3885 113.205 23.5159 113.205 23.102C113.205 22.5289 110.657 20.1728 110.052 20.1728C109.574 20.1728 109.319 20.4912 109.064 21.4145Z" fill="white"/>
<path d="M116.55 20.523C116.423 20.7141 116.518 21.7966 116.709 22.9428C116.964 24.2482 117.06 26.2222 116.932 28.1007C116.773 30.6796 116.646 31.2208 116.104 31.6666C115.276 32.3352 115.276 32.367 116.2 33.3859C116.773 33.9908 117.187 34.1818 117.633 34.0227C118.207 33.8635 118.302 33.5451 118.334 31.8576C118.525 24.5347 118.589 23.2293 118.748 22.5926C118.875 22.0831 118.684 21.5737 118.207 21.0006C117.442 20.1091 116.869 19.9499 116.55 20.523Z" fill="white"/>
<path d="M138.72 20.6185C138.434 20.9369 138.657 21.3508 139.676 22.3378C140.377 23.0701 140.887 23.8024 140.759 23.9935C140.664 24.1526 139.485 24.3118 138.179 24.3118H135.822V25.267C135.822 26.0311 135.949 26.2222 136.491 26.2222C137.287 26.2222 139.644 28.3872 139.644 29.1195C139.644 29.6607 137.669 31.1572 136.013 31.8576C135.248 32.2078 135.185 32.367 135.503 32.7491C136.331 33.7361 137.892 33.1948 140.218 31.0616L141.014 30.3612L142.097 31.6029C143.562 33.3222 145.123 34.2455 146.365 34.1182C146.939 34.0545 147.448 33.8634 147.512 33.6406C147.576 33.4495 146.429 32.4625 144.932 31.4755C142.033 29.5652 141.747 29.0876 142.798 27.7823C143.116 27.3684 143.467 26.4769 143.594 25.7764C143.785 24.8531 143.913 24.6302 144.199 24.9168C144.582 25.2988 146.111 25.3944 146.429 25.076C146.716 24.7576 146.079 23.7387 145.346 23.3567C144.868 23.102 144.486 23.1338 143.722 23.484C142.511 24.1208 142.511 24.1208 142.511 23.5159C142.511 22.6562 141.555 21.51 140.281 20.8414C139.294 20.332 139.007 20.3002 138.72 20.6185ZM141.619 25.4262C142.001 25.8083 141.428 27.1773 140.855 27.3684C140.09 27.5912 138.466 26.1903 138.816 25.6172C139.039 25.267 141.301 25.1078 141.619 25.4262Z" fill="white"/>
<path d="M170.861 20.6504C170.415 20.9051 169.682 21.0961 169.205 21.1279C168.058 21.1279 167.357 21.4463 167.357 21.9239C167.357 22.6244 168.95 22.7836 170.67 22.2741C171.562 22.0194 172.709 21.701 173.186 21.6055C173.823 21.4782 174.046 21.2553 173.983 20.8732C173.855 20.1728 171.944 20.0136 170.861 20.6504Z" fill="white"/>
<path d="M183.666 21.1917C183.443 21.4145 183.284 21.7011 183.284 21.8603C183.284 22.0195 182.87 22.7517 182.36 23.5159C181.691 24.5347 181.532 24.9805 181.787 25.2352C182.074 25.5217 182.265 25.4262 182.647 24.9805C183.316 24.089 184.59 23.8661 185.355 24.471C185.992 24.9486 185.992 24.9486 185.386 25.4262C185.036 25.6809 184.303 25.9038 183.73 25.9038C182.456 25.9038 182.105 26.3814 182.774 27.1455C183.061 27.4639 183.284 27.9415 183.284 28.228C183.284 28.8329 182.042 29.2468 181.086 28.9285C180.194 28.6737 179.143 29.024 179.143 29.5652C179.143 29.8199 179.493 30.2338 179.876 30.5204C180.545 30.9661 180.768 30.9661 182.01 30.5204C182.743 30.2657 183.985 30.0428 184.749 30.0428H186.119L186.215 32.0168C186.31 33.7679 186.374 34.0226 186.947 34.0226C187.521 34.0226 187.584 33.7998 187.584 32.1123V30.202L189.687 30.2975C191.184 30.3294 191.917 30.2338 192.171 29.9155C192.745 29.2468 191.821 28.7056 189.719 28.4827C188.03 28.2917 187.903 28.228 187.807 27.432C187.712 26.7316 187.871 26.5087 188.508 26.3495C189.336 26.1585 189.687 25.267 188.954 25.267C187.584 25.2352 187.521 23.8661 188.89 23.5477C189.687 23.3248 189.973 22.4334 189.273 22.3697C188.476 22.306 187.584 22.4652 187.298 22.7517C186.692 23.3248 185.578 23.0701 185.45 22.3697C185.323 21.4145 184.176 20.6822 183.666 21.1917ZM186.215 27.0818C186.438 27.9415 186.151 28.4509 185.482 28.4509C184.781 28.4509 184.399 27.7504 184.686 27.0181C184.94 26.3495 186.055 26.4132 186.215 27.0818Z" fill="white"/>
<path d="M153.055 21.5419C152.864 21.7329 152.704 22.0831 152.704 22.3378C152.704 22.9428 150.283 26.5405 149.392 27.241C148.372 28.037 149.105 28.6419 150.506 28.1643C151.08 27.9733 151.621 27.8778 151.717 27.9733C151.812 28.0688 151.621 29.0558 151.335 30.202C151.048 31.3164 150.889 32.4307 150.984 32.7173C151.207 33.3222 153.023 33.4177 153.055 32.8128C153.055 32.6217 153.055 30.8069 153.023 28.8011L152.959 25.2033L153.978 24.1526C154.647 23.4522 154.966 22.8791 154.87 22.4015C154.743 21.5419 153.596 21.0006 153.055 21.5419Z" fill="white"/>
<path d="M155.826 25.0123C155.699 31.8258 155.89 32.6536 157.705 33.2585C158.948 33.6406 162.802 33.3859 163.471 32.8446C164.172 32.2715 163.821 28.7693 163.057 28.7693C162.802 28.7693 162.547 29.1832 162.42 29.6926C162.133 31.0617 161.177 31.7621 159.521 31.7621C158.311 31.7939 158.024 31.6666 157.578 30.9661C156.591 29.3424 157.737 26.7953 159.68 26.3177C160.381 26.1585 161.623 25.1715 161.623 24.7894C161.623 24.471 160.509 23.3567 160.19 23.3567C160.031 23.3567 159.585 23.8024 159.234 24.3118C158.247 25.8083 157.769 25.5536 157.833 23.5796C157.928 21.5737 157.705 21.128 156.654 21.128H155.89L155.826 25.0123Z" fill="white"/>
<path d="M114.703 23.5795C114.352 23.8979 114.448 27.4639 114.83 28.1643C115.403 29.2787 115.754 28.4509 115.754 25.8719C115.754 23.9934 115.658 23.3567 115.34 23.3567C115.085 23.3567 114.798 23.4522 114.703 23.5795Z" fill="white"/>
<path d="M172.454 23.8661C172.008 24.089 170.957 24.3118 170.128 24.3118C168.281 24.3118 165.446 25.1715 165.446 25.7446C165.446 26.3495 166.147 26.5087 167.644 26.3177C168.504 26.1903 168.95 26.254 168.95 26.5087C168.95 26.9226 167.453 29.406 166.911 29.8836C165.733 30.9025 165.223 32.5899 166.115 32.5899C166.688 32.5899 169.205 30.011 169.396 29.215C169.682 28.0688 170.543 26.8271 170.893 27.05C171.052 27.1455 171.18 28.1325 171.18 29.2468C171.18 31.1572 171.243 31.3164 172.294 32.2397C173.473 33.2585 174.301 33.4177 176.69 33.0357C177.71 32.8446 177.869 32.7173 177.869 31.9213C177.869 31.4437 177.71 30.9343 177.519 30.8388C177.359 30.7114 177.041 30.2657 176.881 29.7881C176.563 28.9285 176.117 29.1195 175.894 30.1702C175.703 31.3164 174.174 31.6347 172.9 30.7751C172.454 30.4886 172.103 26.1585 172.454 25.5854C172.645 25.2988 173.186 25.2352 174.333 25.3944C175.703 25.5854 175.99 25.5217 176.181 25.076C176.436 24.4074 175.129 23.3567 174.046 23.3885C173.601 23.4204 172.9 23.6114 172.454 23.8661Z" fill="white"/>
</svg>
