<svg width="18" height="16" viewBox="0 0 18 16" fill="none" xmlns="http://www.w3.org/2000/svg">
<path d="M17.8125 7.99996C17.8125 8.14915 17.7532 8.29222 17.6477 8.39771C17.5423 8.5032 17.3992 8.56246 17.25 8.56246H2.10938L7.89375 14.3562C7.94546 14.4079 7.98647 14.4693 8.01446 14.5369C8.04244 14.6044 8.05685 14.6768 8.05685 14.75C8.05685 14.8231 8.04244 14.8955 8.01446 14.9631C7.98647 15.0306 7.94546 15.092 7.89375 15.1437C7.84204 15.1954 7.78066 15.2364 7.7131 15.2644C7.64554 15.2924 7.57313 15.3068 7.5 15.3068C7.42687 15.3068 7.35446 15.2924 7.2869 15.2644C7.21934 15.2364 7.15796 15.1954 7.10625 15.1437L0.35625 8.39371C0.302926 8.34293 0.260473 8.28184 0.231465 8.21416C0.202457 8.14647 0.1875 8.0736 0.1875 7.99996C0.1875 7.92632 0.202457 7.85345 0.231465 7.78577C0.260473 7.71808 0.302926 7.657 0.35625 7.60621L7.10625 0.856212C7.21068 0.751783 7.35231 0.693115 7.5 0.693115C7.64769 0.693115 7.78932 0.751783 7.89375 0.856212C7.99818 0.960641 8.05685 1.10228 8.05685 1.24996C8.05685 1.39765 7.99818 1.53928 7.89375 1.64371L2.10938 7.43746H17.25C17.3992 7.43746 17.5423 7.49673 17.6477 7.60221C17.7532 7.7077 17.8125 7.85078 17.8125 7.99996Z" fill="#DAC5A7"/>
</svg>
