<svg width="16" height="16" viewBox="0 0 16 16" fill="none" xmlns="http://www.w3.org/2000/svg">
<g id="ph:arrow-up-right-light">
<path id="Vector" d="M12.3751 4V10.5C12.3751 10.5995 12.3356 10.6948 12.2653 10.7652C12.195 10.8355 12.0996 10.875 12.0001 10.875C11.9007 10.875 11.8053 10.8355 11.735 10.7652C11.6646 10.6948 11.6251 10.5995 11.6251 10.5V4.90625L4.26264 12.2625C4.19302 12.3321 4.09859 12.3712 4.00014 12.3712C3.90168 12.3712 3.80726 12.3321 3.73764 12.2625C3.66802 12.1929 3.62891 12.0985 3.62891 12C3.62891 11.9015 3.66802 11.8071 3.73764 11.7375L11.0939 4.375H5.50014C5.40068 4.375 5.3053 4.33549 5.23497 4.26516C5.16465 4.19484 5.12514 4.09946 5.12514 4C5.12514 3.90054 5.16465 3.80516 5.23497 3.73483C5.3053 3.66451 5.40068 3.625 5.50014 3.625H12.0001C12.0996 3.625 12.195 3.66451 12.2653 3.73483C12.3356 3.80516 12.3751 3.90054 12.3751 4Z" fill="#DAC5A7"/>
</g>
</svg>
