<svg version="1.0" id="Слой_1" xmlns="http://www.w3.org/2000/svg" x="0" y="0" width="72.3" height="72.3" style="enable-background:new 0 0 72.3000031 72.3000031" xml:space="preserve" >
<style>.a{fill:#DAC5A7;stroke-linecap:round;stroke-linejoin:round;}</style>
<path class="a" d="M41.63.41a36.51 36.51 0 0 0-15.21.92c.125.13.242.266.35.41a4.38 4.38 0 0 1-.94 6.11A30.28 30.28 0 0 0 14.5 20.31v.05a1.83 1.83 0 0 0 3.2 1.73A25.09 25.09 0 0 1 42.6 10.4c4.75-2.512 10.638-.698 13.15 4.053a9.73 9.73 0 0 1 1.11 3.947 28.48 28.48 0 0 1 11.45 22.82 1.88 1.88 0 0 0 3.58.36C74.862 21.865 61.333 3.459 41.63.41z" />
<path class="a" d="M51.37 13a7.31 7.31 0 1 0 1.76 10.19A7.33 7.33 0 0 0 51.37 13z"/>
<path class="a" d="M70.64 45.22a4.41 4.41 0 0 1-3.22-.94 4.35 4.35 0 0 1-1.61-2.93 30.32 30.32 0 0 0-5.14-16 1.83 1.83 0 0 0-3.11 1.9 25.09 25.09 0 0 1-2.34 27.35 9.78 9.78 0 0 1-1.1 4.14A9.73 9.73 0 0 1 41.17 63a28.49 28.49 0 0 1-25.5-1.5 1.87 1.87 0 0 0-2.1 2.91c15.578 12.457 38.303 9.942 50.78-5.62a36.41 36.41 0 0 0 6.81-13.62 4.71 4.71 0 0 1-.52.05z"/>
<path class="a" d="M41.29 60.22A7.31 7.31 0 0 0 52.7 53a7.32 7.32 0 0 0-7.18-6.06 6.71 6.71 0 0 0-1.26.11 7.21 7.21 0 0 0-4.73 3 7.32 7.32 0 0 0 1.76 10.17z"/>
<path class="a" d="M33.21 59.17a25.09 25.09 0 0 1-22.58-15.74A9.73 9.73 0 0 1 6.3 33.08a9.61 9.61 0 0 1 4.12-6A28.45 28.45 0 0 1 24.47 5.75a1.83 1.83 0 0 0 .63-1.25 1.8 1.8 0 0 0-.43-1.37A1.86 1.86 0 0 0 23 2.48C4.4 9.736-4.796 30.697 2.46 49.296A36.15 36.15 0 0 0 10.86 62a5.1 5.1 0 0 1 .19-.5 4.3 4.3 0 0 1 2.41-2.31 4.4 4.4 0 0 1 1.59-.3 4.35 4.35 0 0 1 1.76.37 30.21 30.21 0 0 0 16.49 3.55 1.83 1.83 0 0 0-.09-3.64z"/>
<path class="a" d="M20 29.22a7.3 7.3 0 1 0 3 4.72 7.26 7.26 0 0 0-3-4.72z"/>
</svg>