<svg width="300" height="200" viewBox="0 0 300 200" fill="none" xmlns="http://www.w3.org/2000/svg">
<path d="M83.2058 169V154.8H84.6058V161.12H86.7458L91.6258 154.8H93.2458L87.9058 161.68L93.5858 169H91.8658L86.7858 162.4H84.6058V169H83.2058ZM116.362 169.1C115.162 169.1 114.102 168.827 113.182 168.28C112.262 167.72 111.522 166.947 110.962 165.96C110.415 164.973 110.108 163.82 110.042 162.5H107.282V169H105.882V154.8H107.282V161.24H110.042C110.135 159.893 110.462 158.733 111.022 157.76C111.595 156.787 112.342 156.033 113.262 155.5C114.195 154.967 115.228 154.7 116.362 154.7C117.655 154.7 118.788 155.013 119.762 155.64C120.735 156.253 121.495 157.1 122.042 158.18C122.588 159.26 122.862 160.507 122.862 161.92C122.862 163.427 122.575 164.713 122.002 165.78C121.428 166.847 120.648 167.667 119.662 168.24C118.688 168.813 117.588 169.1 116.362 169.1ZM116.362 167.84C117.402 167.84 118.295 167.587 119.042 167.08C119.802 166.56 120.388 165.853 120.802 164.96C121.228 164.067 121.442 163.047 121.442 161.9C121.442 160.687 121.222 159.64 120.782 158.76C120.342 157.867 119.742 157.18 118.982 156.7C118.222 156.22 117.348 155.98 116.362 155.98C115.348 155.98 114.468 156.233 113.722 156.74C112.988 157.233 112.415 157.927 112.002 158.82C111.602 159.713 111.402 160.74 111.402 161.9C111.402 163.1 111.608 164.147 112.022 165.04C112.448 165.933 113.035 166.627 113.782 167.12C114.528 167.6 115.388 167.84 116.362 167.84ZM135.491 169V154.8H136.891V161.12H139.031L143.911 154.8H145.531L140.191 161.68L145.871 169H144.151L139.071 162.4H136.891V169H135.491ZM167.707 167.76V169H158.167V154.8H167.527V156.04H159.567V161.16H166.507V162.34H159.567V167.76H167.707ZM161.047 152.6V150.72H162.207V152.6H161.047ZM164.027 152.6V150.72H165.187V152.6H164.027ZM179.334 171.72V167.76H179.934C180.308 167.76 180.634 167.607 180.914 167.3C181.208 166.993 181.454 166.5 181.654 165.82C181.868 165.127 182.034 164.2 182.154 163.04C182.288 161.88 182.381 160.44 182.434 158.72L182.534 154.8H191.034V167.76H192.734V171.72H191.494V169H180.574V171.72H179.334ZM181.934 167.76H189.634V156.04H183.814L183.734 158.88C183.694 160.68 183.601 162.187 183.454 163.4C183.321 164.6 183.128 165.553 182.874 166.26C182.621 166.953 182.308 167.453 181.934 167.76ZM211.055 169.1C210.055 169.1 209.148 168.9 208.335 168.5C207.521 168.1 206.821 167.56 206.235 166.88C205.648 166.187 205.195 165.413 204.875 164.56C204.555 163.693 204.395 162.807 204.395 161.9C204.395 160.953 204.561 160.053 204.895 159.2C205.228 158.333 205.695 157.567 206.295 156.9C206.908 156.22 207.621 155.687 208.435 155.3C209.248 154.9 210.128 154.7 211.075 154.7C212.075 154.7 212.981 154.907 213.795 155.32C214.608 155.733 215.301 156.287 215.875 156.98C216.461 157.673 216.915 158.447 217.235 159.3C217.555 160.153 217.715 161.027 217.715 161.92C217.715 162.867 217.548 163.773 217.215 164.64C216.881 165.493 216.415 166.26 215.815 166.94C215.215 167.607 214.508 168.133 213.695 168.52C212.881 168.907 212.001 169.1 211.055 169.1ZM205.795 161.9C205.795 162.673 205.921 163.42 206.175 164.14C206.428 164.847 206.788 165.48 207.255 166.04C207.721 166.587 208.275 167.027 208.915 167.36C209.568 167.68 210.281 167.84 211.055 167.84C211.868 167.84 212.595 167.673 213.235 167.34C213.888 166.993 214.441 166.54 214.895 165.98C215.361 165.407 215.715 164.767 215.955 164.06C216.195 163.353 216.315 162.633 216.315 161.9C216.315 161.127 216.188 160.387 215.935 159.68C215.681 158.973 215.315 158.34 214.835 157.78C214.368 157.22 213.815 156.78 213.175 156.46C212.535 156.14 211.828 155.98 211.055 155.98C210.255 155.98 209.528 156.147 208.875 156.48C208.235 156.813 207.681 157.267 207.215 157.84C206.761 158.4 206.408 159.033 206.155 159.74C205.915 160.447 205.795 161.167 205.795 161.9Z" fill="white"/>
<path d="M92.0085 191.12C91.5525 191.12 91.1325 191.036 90.7485 190.868C90.3725 190.692 90.0405 190.452 89.7525 190.148C89.4725 189.844 89.2525 189.496 89.0925 189.104C88.9405 188.712 88.8645 188.296 88.8645 187.856C88.8645 187.264 88.9965 186.724 89.2605 186.236C89.5245 185.748 89.8925 185.36 90.3645 185.072C90.8365 184.784 91.3805 184.64 91.9965 184.64C92.5805 184.64 93.0965 184.776 93.5445 185.048C93.9925 185.312 94.3245 185.672 94.5405 186.128L93.7485 186.38C93.5725 186.06 93.3245 185.812 93.0045 185.636C92.6925 185.452 92.3445 185.36 91.9605 185.36C91.5445 185.36 91.1645 185.468 90.8205 185.684C90.4765 185.9 90.2005 186.196 89.9925 186.572C89.7925 186.948 89.6925 187.376 89.6925 187.856C89.6925 188.328 89.7965 188.756 90.0045 189.14C90.2125 189.524 90.4885 189.832 90.8325 190.064C91.1765 190.288 91.5565 190.4 91.9725 190.4C92.2445 190.4 92.5045 190.352 92.7525 190.256C93.0085 190.16 93.2285 190.032 93.4125 189.872C93.6045 189.704 93.7325 189.524 93.7965 189.332L94.6005 189.572C94.4885 189.868 94.3005 190.136 94.0365 190.376C93.7805 190.608 93.4765 190.792 93.1245 190.928C92.7805 191.056 92.4085 191.12 92.0085 191.12ZM114.913 190.256V191H110.845V190.256H112.549V185.12C112.485 185.216 112.377 185.32 112.225 185.432C112.073 185.544 111.897 185.648 111.697 185.744C111.505 185.84 111.313 185.92 111.121 185.984C110.929 186.048 110.753 186.08 110.593 186.08V185.288C110.777 185.288 110.977 185.236 111.193 185.132C111.409 185.028 111.617 184.908 111.817 184.772C112.017 184.636 112.185 184.508 112.321 184.388C112.457 184.268 112.533 184.188 112.549 184.148H113.389V190.256H114.913ZM127.882 188.192C127.882 188.728 127.746 189.22 127.474 189.668C127.21 190.108 126.85 190.46 126.394 190.724C125.938 190.988 125.426 191.12 124.858 191.12C124.266 191.12 123.738 190.98 123.274 190.7C122.818 190.412 122.458 190 122.194 189.464C121.93 188.928 121.798 188.292 121.798 187.556C121.798 186.396 121.93 185.44 122.194 184.688C122.458 183.928 122.826 183.36 123.298 182.984C123.77 182.608 124.318 182.42 124.942 182.42C125.51 182.42 126.018 182.564 126.466 182.852C126.914 183.132 127.254 183.516 127.486 184.004L126.958 184.484C126.79 184.076 126.522 183.752 126.154 183.512C125.794 183.264 125.39 183.14 124.942 183.14C124.47 183.14 124.058 183.288 123.706 183.584C123.354 183.88 123.078 184.304 122.878 184.856C122.686 185.408 122.59 186.076 122.59 186.86C122.71 186.548 122.886 186.276 123.118 186.044C123.35 185.812 123.622 185.632 123.934 185.504C124.254 185.376 124.594 185.312 124.954 185.312C125.498 185.312 125.99 185.44 126.43 185.696C126.878 185.952 127.23 186.3 127.486 186.74C127.75 187.172 127.882 187.656 127.882 188.192ZM124.882 190.4C125.282 190.4 125.65 190.3 125.986 190.1C126.322 189.9 126.59 189.632 126.79 189.296C126.998 188.96 127.102 188.592 127.102 188.192C127.102 187.792 126.998 187.424 126.79 187.088C126.59 186.752 126.322 186.484 125.986 186.284C125.65 186.084 125.282 185.984 124.882 185.984C124.474 185.984 124.098 186.084 123.754 186.284C123.418 186.484 123.15 186.752 122.95 187.088C122.75 187.416 122.65 187.784 122.65 188.192C122.65 188.592 122.75 188.96 122.95 189.296C123.158 189.632 123.43 189.9 123.766 190.1C124.102 190.3 124.474 190.4 124.882 190.4ZM141.112 188.192C141.112 188.728 140.976 189.22 140.704 189.668C140.44 190.108 140.08 190.46 139.624 190.724C139.168 190.988 138.656 191.12 138.088 191.12C137.496 191.12 136.968 190.98 136.504 190.7C136.048 190.412 135.688 190 135.424 189.464C135.16 188.928 135.028 188.292 135.028 187.556C135.028 186.396 135.16 185.44 135.424 184.688C135.688 183.928 136.056 183.36 136.528 182.984C137 182.608 137.548 182.42 138.172 182.42C138.74 182.42 139.248 182.564 139.696 182.852C140.144 183.132 140.484 183.516 140.716 184.004L140.188 184.484C140.02 184.076 139.752 183.752 139.384 183.512C139.024 183.264 138.62 183.14 138.172 183.14C137.7 183.14 137.288 183.288 136.936 183.584C136.584 183.88 136.308 184.304 136.108 184.856C135.916 185.408 135.82 186.076 135.82 186.86C135.94 186.548 136.116 186.276 136.348 186.044C136.58 185.812 136.852 185.632 137.164 185.504C137.484 185.376 137.824 185.312 138.184 185.312C138.728 185.312 139.22 185.44 139.66 185.696C140.108 185.952 140.46 186.3 140.716 186.74C140.98 187.172 141.112 187.656 141.112 188.192ZM138.112 190.4C138.512 190.4 138.88 190.3 139.216 190.1C139.552 189.9 139.82 189.632 140.02 189.296C140.228 188.96 140.332 188.592 140.332 188.192C140.332 187.792 140.228 187.424 140.02 187.088C139.82 186.752 139.552 186.484 139.216 186.284C138.88 186.084 138.512 185.984 138.112 185.984C137.704 185.984 137.328 186.084 136.984 186.284C136.648 186.484 136.38 186.752 136.18 187.088C135.98 187.416 135.88 187.784 135.88 188.192C135.88 188.592 135.98 188.96 136.18 189.296C136.388 189.632 136.66 189.9 136.996 190.1C137.332 190.3 137.704 190.4 138.112 190.4ZM151.751 188.168C152.111 188.224 152.419 188.352 152.675 188.552C152.931 188.752 153.131 189.004 153.275 189.308C153.419 189.612 153.491 189.956 153.491 190.34C153.491 190.82 153.375 191.244 153.143 191.612C152.911 191.98 152.587 192.264 152.171 192.464C151.755 192.664 151.271 192.764 150.719 192.764C150.111 192.764 149.579 192.64 149.123 192.392C148.667 192.152 148.323 191.816 148.091 191.384L148.655 190.868C148.831 191.212 149.091 191.488 149.435 191.696C149.779 191.912 150.207 192.02 150.719 192.02C151.311 192.02 151.779 191.872 152.123 191.576C152.475 191.288 152.651 190.872 152.651 190.328C152.651 189.784 152.467 189.352 152.099 189.032C151.739 188.704 151.223 188.54 150.551 188.54H150.251V187.844H150.575C151.191 187.844 151.663 187.7 151.991 187.412C152.319 187.124 152.483 186.756 152.483 186.308C152.483 185.98 152.407 185.708 152.255 185.492C152.103 185.276 151.895 185.112 151.631 185C151.375 184.888 151.079 184.832 150.743 184.832C150.287 184.832 149.883 184.936 149.531 185.144C149.187 185.344 148.927 185.624 148.751 185.984L148.223 185.48C148.359 185.2 148.555 184.956 148.811 184.748C149.067 184.54 149.367 184.38 149.711 184.268C150.055 184.148 150.423 184.088 150.815 184.088C151.311 184.088 151.747 184.18 152.123 184.364C152.499 184.54 152.795 184.788 153.011 185.108C153.227 185.428 153.335 185.804 153.335 186.236C153.335 186.556 153.271 186.852 153.143 187.124C153.015 187.396 152.831 187.624 152.591 187.808C152.359 187.992 152.079 188.112 151.751 188.168ZM169.992 191V184.748H173.724V185.48H170.808V191H169.992ZM183.531 191.12C183.083 191.12 182.667 191.036 182.283 190.868C181.907 190.692 181.579 190.456 181.299 190.16C181.027 189.856 180.815 189.512 180.663 189.128C180.511 188.736 180.435 188.324 180.435 187.892C180.435 187.444 180.511 187.028 180.663 186.644C180.815 186.252 181.031 185.908 181.311 185.612C181.591 185.308 181.919 185.072 182.295 184.904C182.679 184.728 183.095 184.64 183.543 184.64C183.991 184.64 184.403 184.728 184.779 184.904C185.155 185.072 185.483 185.308 185.763 185.612C186.043 185.908 186.259 186.252 186.411 186.644C186.563 187.028 186.639 187.444 186.639 187.892C186.639 188.324 186.563 188.736 186.411 189.128C186.259 189.512 186.043 189.856 185.763 190.16C185.491 190.456 185.163 190.692 184.779 190.868C184.403 191.036 183.987 191.12 183.531 191.12ZM181.263 187.904C181.263 188.368 181.363 188.792 181.563 189.176C181.771 189.552 182.047 189.852 182.391 190.076C182.735 190.292 183.115 190.4 183.531 190.4C183.947 190.4 184.327 190.288 184.671 190.064C185.015 189.84 185.291 189.536 185.499 189.152C185.707 188.76 185.811 188.336 185.811 187.88C185.811 187.416 185.707 186.992 185.499 186.608C185.291 186.224 185.015 185.92 184.671 185.696C184.327 185.472 183.947 185.36 183.531 185.36C183.115 185.36 182.735 185.476 182.391 185.708C182.055 185.94 181.783 186.248 181.575 186.632C181.367 187.008 181.263 187.432 181.263 187.904ZM193.308 192.452V190.268H193.416C193.6 190.268 193.768 190.212 193.92 190.1C194.072 189.988 194.208 189.792 194.328 189.512C194.448 189.232 194.544 188.848 194.616 188.36C194.688 187.864 194.736 187.24 194.76 186.488L194.82 184.748H198.888V190.268H199.728V192.452H198.996V191H194.028V192.452H193.308ZM194.652 190.268H198.072V185.48H195.552L195.516 186.56C195.492 187.304 195.44 187.928 195.36 188.432C195.288 188.928 195.192 189.324 195.072 189.62C194.96 189.908 194.82 190.124 194.652 190.268ZM206.46 189.2C206.46 188.808 206.572 188.472 206.796 188.192C207.02 187.904 207.328 187.684 207.72 187.532C208.12 187.372 208.58 187.292 209.1 187.292C209.404 187.292 209.72 187.316 210.048 187.364C210.376 187.412 210.668 187.484 210.924 187.58V187.052C210.924 186.524 210.768 186.104 210.456 185.792C210.144 185.48 209.712 185.324 209.16 185.324C208.824 185.324 208.492 185.388 208.164 185.516C207.844 185.636 207.508 185.816 207.156 186.056L206.844 185.48C207.252 185.2 207.652 184.992 208.044 184.856C208.436 184.712 208.836 184.64 209.244 184.64C210.012 184.64 210.62 184.86 211.068 185.3C211.516 185.74 211.74 186.348 211.74 187.124V190.016C211.74 190.128 211.764 190.212 211.812 190.268C211.86 190.316 211.936 190.344 212.04 190.352V191C211.952 191.008 211.876 191.016 211.812 191.024C211.748 191.032 211.7 191.032 211.668 191.024C211.468 191.016 211.316 190.952 211.212 190.832C211.108 190.712 211.052 190.584 211.044 190.448L211.032 189.992C210.752 190.352 210.388 190.632 209.94 190.832C209.492 191.024 209.036 191.12 208.572 191.12C208.172 191.12 207.808 191.036 207.48 190.868C207.16 190.692 206.908 190.46 206.724 190.172C206.548 189.876 206.46 189.552 206.46 189.2ZM210.648 189.68C210.736 189.568 210.804 189.46 210.852 189.356C210.9 189.252 210.924 189.16 210.924 189.08V188.168C210.652 188.064 210.368 187.984 210.072 187.928C209.784 187.872 209.492 187.844 209.196 187.844C208.612 187.844 208.14 187.96 207.78 188.192C207.42 188.424 207.24 188.74 207.24 189.14C207.24 189.372 207.3 189.592 207.42 189.8C207.54 190 207.716 190.168 207.948 190.304C208.18 190.432 208.452 190.496 208.764 190.496C209.156 190.496 209.52 190.42 209.856 190.268C210.2 190.116 210.464 189.92 210.648 189.68Z" fill="white"/>
<path d="M110.232 120.028C109.526 120.292 109.481 121.351 110.187 121.572C111.114 121.881 110.055 122.807 108.731 122.807H107.452L107.673 125.101C107.893 127.087 107.761 127.704 106.834 129.204C105.599 131.146 105.423 130.793 106.173 127.837C106.702 125.763 106.349 124.792 105.114 124.792C104.805 124.792 104.584 124.219 104.584 123.469C104.584 122.454 104.364 122.145 103.481 121.925C102.246 121.616 100.834 121.837 100.834 122.366C100.834 122.542 101.143 122.939 101.496 123.248C102.996 124.484 102.114 125.94 99.8194 126.072C99.0694 126.116 98.8047 126.425 98.7164 127.572C98.54 129.337 99.5988 129.91 100.834 128.763C102.158 127.572 102.378 128.278 101.496 130.572C100.967 131.984 100.261 132.866 99.2017 133.484C97.7458 134.366 97.7458 134.41 98.4958 135.249C99.0694 135.91 99.5988 136.043 100.614 135.866C102.731 135.469 103.481 134.146 103.481 130.969C103.481 128.013 103.746 126.778 104.408 126.778C104.628 126.778 104.673 128.101 104.54 129.822C104.187 133.307 104.496 134.631 105.378 133.881C105.731 133.616 106.261 132.602 106.57 131.631C106.878 130.66 107.32 129.866 107.584 129.866C108.334 129.866 107.408 133.969 106.261 135.425C105.114 136.925 105.158 137.322 106.702 138.999C107.673 140.102 109.173 140.322 110.011 139.484C110.761 138.734 110.673 138.249 109.702 138.249C107.717 138.249 106.878 137.234 107.937 136.175C108.29 135.822 108.687 135.955 109.393 136.793C110.143 137.631 110.629 137.852 111.334 137.631C112.658 137.19 112.57 136.219 111.202 135.866C108.864 135.293 110.805 134.102 113.276 134.587C114.467 134.808 114.555 134.984 114.335 136.219C114.202 136.969 113.673 137.852 113.187 138.205C111.114 139.616 113.055 140.675 115.614 139.484C116.629 139.043 116.717 138.734 116.717 136.44V133.881L114.82 133.616C113.761 133.44 112.04 133.263 111.07 133.263C110.055 133.219 109.217 133.043 109.217 132.822C109.217 132.469 108.996 132.513 111.29 132.249C112.349 132.116 113.585 132.249 114.07 132.513C115.482 133.263 117.335 132.646 118.217 131.19C119.144 129.557 118.746 128.631 117.555 129.69C116.585 130.572 109.349 131.763 108.952 131.102C108.643 130.616 110.673 129.91 112.129 129.999C113.629 130.087 114.511 128.719 114.511 126.248C114.511 125.366 114.732 124.484 114.952 124.351C116.011 123.69 115.349 122.807 113.849 122.807C112.437 122.807 112.305 122.719 112.526 121.792C112.746 120.998 112.57 120.645 111.776 120.292C111.202 120.072 110.496 119.939 110.232 120.028ZM112.658 124.219C112.437 124.881 109.217 125.278 109.217 124.66C109.217 123.954 109.79 123.69 111.334 123.69C112.305 123.69 112.746 123.866 112.658 124.219ZM112.658 126.425C112.437 127.087 109.217 127.484 109.217 126.822C109.217 126.601 109.879 126.293 110.673 126.204C111.423 126.116 112.261 125.984 112.437 125.984C112.658 125.94 112.746 126.16 112.658 126.425ZM112.526 128.498C111.82 129.16 109.526 129.249 109.349 128.631C109.217 128.278 109.702 128.101 111.026 128.101C112.173 128.101 112.746 128.278 112.526 128.498Z" fill="white"/>
<path d="M171.645 121.616C171.513 121.925 171.601 122.763 171.866 123.469C172.219 124.44 172.219 124.793 171.778 125.057C171.072 125.498 170.675 125.101 170.454 123.69C170.278 122.41 169.042 121.969 168.601 123.028C168.469 123.425 168.557 124.175 168.822 124.66C169.483 125.851 169.042 126.116 167.233 125.587C165.248 124.969 164.983 125.322 164.63 129.116C164.366 131.675 164.454 132.116 165.071 132.381C165.998 132.734 167.013 131.41 167.013 129.822C167.013 129.204 167.277 128.454 167.586 128.19C167.895 127.925 170.454 127.66 173.322 127.572L178.484 127.44L178.528 128.543C178.572 129.16 178.528 130.219 178.484 130.881C178.44 131.852 178.572 132.116 179.19 131.984C180.072 131.807 180.425 131.19 181.043 128.543C181.704 125.807 180.954 124.925 178.484 125.543C177.513 125.807 176.41 125.895 176.057 125.719C175.484 125.498 175.528 125.278 176.542 124.263C177.645 123.204 177.645 123.072 176.94 122.542C175.837 121.748 175.042 122.234 174.866 123.822C174.778 124.572 174.469 125.234 174.16 125.366C173.763 125.498 173.675 124.925 173.719 123.381C173.851 121.484 173.763 121.263 172.836 121.131C172.307 121.042 171.778 121.263 171.645 121.616Z" fill="white"/>
<path d="M142.306 122.851C140.982 123.072 138.953 123.116 137.806 122.984C136.041 122.763 135.688 122.851 135.688 123.425C135.688 124.748 135.909 124.792 140.012 124.616C143.85 124.484 144.159 124.528 143.983 125.278C143.85 126.028 143.365 126.116 140.1 126.116C138.027 126.16 136.085 126.337 135.732 126.513C135.203 126.866 135.203 127.572 135.865 131.366C135.953 132.116 135.865 133.043 135.6 133.528C135.247 134.278 134.85 134.322 133.041 134.102C130.129 133.705 129.776 134.455 131.894 136.352C133.218 137.587 133.791 137.808 134.718 137.587C136.526 137.146 136.968 136.572 137.276 134.234C137.585 131.94 137.453 132.072 140.63 131.41C141.6 131.234 141.953 131.763 141.6 132.69C141.424 133.131 140.806 133.396 140.056 133.396C138.6 133.396 138.512 133.572 138.159 136.837L137.938 139.175L140.232 139.087C141.512 139.043 143.541 139.175 144.777 139.352C147.38 139.705 147.468 139.616 147.689 135.822L147.777 133.616H145.615C143.63 133.616 143.409 133.528 143.277 132.557C143.144 131.675 143.233 131.543 143.938 131.852C144.38 132.028 145.571 132.293 146.63 132.381C148.439 132.646 148.483 132.602 148.483 131.278V129.91L145.747 129.778C143.321 129.646 142.968 129.513 142.835 128.763C142.747 128.013 142.968 127.837 143.894 127.881C144.953 127.881 145.174 127.616 145.836 125.675C147.027 122.234 146.894 122.145 142.306 122.851ZM141.865 128.498C141.865 129.16 141.424 129.381 139.835 129.646C137.497 129.999 137.188 129.822 137.894 128.587C138.556 127.307 141.865 127.219 141.865 128.498ZM145.659 135.293C145.836 135.425 145.836 135.866 145.703 136.263C145.483 136.749 144.777 136.925 142.791 136.925C140.585 136.925 140.188 136.793 139.968 136.087C139.835 135.602 139.88 135.072 140.056 134.94C140.365 134.587 145.262 134.896 145.659 135.293Z" fill="white"/>
<path d="M169.175 128.807C168.469 129.028 167.763 131.852 168.204 132.602C168.292 132.822 169.086 132.955 169.925 132.955C171.116 132.955 171.425 133.131 171.425 133.793C171.425 134.499 171.072 134.675 169.572 134.808C167.057 134.984 166.748 136.043 169.219 136.043C170.498 136.043 170.983 136.219 170.851 136.572C170.763 136.925 169.792 137.146 168.204 137.146C165.424 137.146 164.586 137.675 165.027 139.131C165.292 139.925 165.557 140.014 166.483 139.793C168.116 139.352 172.483 139.352 175.219 139.793C177.204 140.058 177.778 139.969 179.322 139.087C181.043 138.161 181.484 137.455 180.822 136.793C180.69 136.616 180.248 136.749 179.895 137.013C179.145 137.631 174.866 137.631 173.763 136.969C173.101 136.616 173.322 136.528 174.822 136.484C175.969 136.484 176.94 136.175 177.425 135.69C178.175 134.984 178.087 134.94 175.484 134.808C173.454 134.719 172.748 134.499 172.748 134.057C172.748 133.572 173.322 133.396 174.954 133.396H177.16L176.851 131.278C176.719 130.131 176.542 129.16 176.498 129.072C176.278 128.807 169.88 128.587 169.175 128.807ZM175.395 130.969C175.395 131.366 174.645 131.587 173.145 131.719C170.895 131.852 170.278 131.587 170.675 130.616C170.939 129.866 175.395 130.175 175.395 130.969Z" fill="white"/>
<path d="M97.7046 10.3529C97.1165 11.0821 97.7752 13.7168 98.9514 15.2459C99.3042 15.7164 99.5865 16.1398 99.5865 16.2104C99.5865 16.3045 99.2807 16.7985 98.8808 17.3395C98.5044 17.8571 98.1751 18.3981 98.1751 18.4922C98.1751 18.6098 98.4574 19.292 98.8102 20.0213C99.4218 21.3151 99.4218 21.3386 99.0219 22.0444C98.1751 23.4558 99.0219 24.9378 101.774 26.9844C103.421 28.1841 104.033 28.537 106.056 29.4309C106.573 29.6662 107.702 30.3013 108.596 30.8659C109.937 31.7363 110.172 31.9951 110.172 32.5596C110.172 32.936 110.008 33.2889 109.82 33.383C109.608 33.4535 109.467 33.8064 109.467 34.1828C109.467 34.5592 109.631 35.0061 109.82 35.1708C110.29 35.5472 110.266 36.2529 109.796 36.4411C109.396 36.5823 106.903 35.9706 106.55 35.6178C106.409 35.5001 106.173 35.4061 106.009 35.4061C105.844 35.4061 105.021 35.0767 104.174 34.6768C103.139 34.1828 102.527 33.7358 102.292 33.2889C101.845 32.4185 101.845 31.7363 102.268 31.5716C102.598 31.4305 106.009 33.0536 107.185 33.877C107.82 34.3239 108.502 34.3239 108.667 33.877C108.902 33.2654 108.314 32.8184 105.115 31.2658C101.915 29.7132 101.492 29.4074 100.786 28.0665C100.269 27.1491 99.7041 26.9609 99.3748 27.6196C99.0455 28.2312 99.3983 29.1722 100.292 30.1131C100.927 30.7718 100.974 30.9129 100.739 31.7128C100.504 32.5832 100.504 32.5596 101.633 34.5592C101.798 34.8415 101.868 35.4061 101.774 35.9471C101.68 36.6293 101.774 37.0057 102.245 37.7114C102.762 38.5112 102.786 38.6759 102.504 39.1934C102.033 40.0403 102.104 40.9107 102.692 41.6399C103.115 42.181 103.209 42.5809 103.162 43.5924C103.115 44.5334 103.209 45.0039 103.492 45.3097C103.797 45.6626 103.844 46.0154 103.727 47.1446C103.562 48.5325 103.586 48.5796 104.409 49.4735C105.068 50.2027 105.232 50.6026 105.232 51.3319C105.232 52.0611 105.397 52.414 105.938 52.9315C106.338 53.3079 106.644 53.7549 106.644 53.9195C106.644 54.39 105.091 55.872 104.597 55.872C104.362 55.872 103.444 56.0367 102.527 56.2249C99.1631 56.9777 94.2465 57.9186 92.9998 58.0833C89.9416 58.4362 88.0832 59.4007 87.2363 61.0238C86.907 61.706 86.907 61.8236 87.3304 62.647C88.0597 64.0584 88.6713 64.3407 91.0237 64.3407C93.1174 64.3407 96.4343 63.8702 98.5044 63.2586C99.116 63.0704 99.8218 62.9293 100.01 62.9293C100.222 62.9293 100.81 62.7881 101.351 62.5999C101.868 62.4353 102.856 62.0824 103.562 61.8707C104.268 61.6354 105.397 61.1414 106.079 60.7651C107.561 59.9888 108.761 59.8711 108.761 60.5298C108.761 60.7886 108.573 61.1414 108.361 61.3296C107.726 61.8942 106.15 62.7411 105.35 62.9528C104.974 63.0469 103.915 63.3762 102.998 63.7056C97.4929 65.611 94.176 66.1286 91.7059 65.4699C90.7179 65.2111 90.6003 65.2111 90.1298 65.6816L89.6123 66.1991L90.5297 67.046L91.4236 67.9164L94.3877 67.7988C97.1635 67.7047 98.3162 67.5165 100.292 66.8108C100.739 66.6461 101.492 66.3873 101.939 66.2462C102.386 66.0815 103.092 65.8698 103.468 65.7522C106.173 64.9994 109.843 63.2821 110.361 62.5058C110.69 62.0118 110.666 61.9177 110.196 61.4237C109.725 60.9062 109.702 60.8592 110.078 59.9888C110.525 58.9066 110.361 57.9892 109.678 57.9892C109.255 57.9892 107.938 58.5773 105.82 59.73C105.444 59.9417 104.997 60.1064 104.856 60.1064C104.691 60.1064 104.268 60.271 103.915 60.4592C103.539 60.6474 103.021 60.8121 102.762 60.8121C102.48 60.8121 102.174 60.9062 102.057 61.0238C101.915 61.1414 101.304 61.3532 100.645 61.5178C100.01 61.659 98.7867 61.9413 97.9398 62.153C95.4698 62.7176 91.7765 63.188 90.7179 63.0939C89.4711 62.9528 89.0007 62.5999 89.0007 61.7766C89.0007 60.6239 90.5062 59.777 92.9998 59.5183C96.3637 59.1654 103.539 57.6834 105.538 56.9071C106.009 56.7189 107.114 56.5778 107.938 56.5778C109.608 56.5778 109.867 56.319 108.761 55.7544C107.749 55.2369 107.82 54.4135 108.926 53.6372C109.42 53.3079 109.937 53.0491 110.078 53.0491C110.219 53.0491 110.808 52.7904 111.372 52.461C111.937 52.1317 112.572 51.8024 112.76 51.7318C112.948 51.6377 113.278 51.426 113.513 51.2378C113.725 51.0261 114.266 50.932 114.807 50.979C116.195 51.0966 116.147 51.7788 114.642 53.1903C113.019 54.6958 111.725 55.6368 110.949 55.8485C110.384 55.9897 110.29 56.1543 110.29 56.8365C110.29 57.754 110.808 57.9892 111.725 57.5187C112.525 57.0718 116.242 57.307 117.041 57.8481C118.147 58.5773 119.817 58.0363 121.299 56.4601C121.981 55.7309 122.405 54.9311 122.405 54.3194C122.405 53.8019 121.511 53.0491 120.899 53.0491C120.005 53.0491 119.958 52.6492 120.782 51.92L121.558 51.2378L121.017 50.9555C120.57 50.6967 120.405 50.7203 120.005 51.0966C119.159 51.8494 118.359 52.0847 117.771 51.6847C117.465 51.4966 117.23 51.2848 117.23 51.1907C117.23 51.1202 117.7 50.8144 118.265 50.5085C119.347 49.9204 119.958 49.0736 119.747 48.4855C119.511 47.8974 118.782 48.0385 118.218 48.8148C117.935 49.1912 117.347 49.6852 116.947 49.8969C116.242 50.2498 116.147 50.2498 115.418 49.8734C114.995 49.6381 114.642 49.3323 114.642 49.1677C114.642 49.0265 115.254 48.6972 115.983 48.4384C117.465 47.8974 117.63 47.7092 117.136 47.0505C116.83 46.6506 116.712 46.6271 116.312 46.8858C116.03 47.027 115.418 47.3093 114.901 47.4739C113.819 47.8503 113.183 47.6151 113.254 46.8623C113.325 46.0625 112.995 45.5214 112.407 45.5214C111.748 45.5214 111.019 44.7216 111.207 44.2041C111.302 43.9453 111.537 43.8512 111.984 43.9453C113.701 44.2746 113.63 43.3572 111.89 42.7926C110.337 42.2751 109.937 41.6399 110.643 40.7696L111.066 40.2285L112.36 40.9107C113.677 41.6399 114.407 41.6164 114.407 40.8872C114.407 40.4167 113.677 39.8521 112.76 39.5933C110.808 39.0758 110.29 38.7465 110.29 38.0643C110.29 37.4291 110.314 37.4056 111.443 37.4527C112.078 37.4762 112.689 37.5938 112.831 37.7349C113.207 38.1113 113.936 38.0643 114.077 37.6644C114.313 37.0763 113.489 36.1118 112.736 36.1118C111.984 36.1118 110.878 35.1473 110.878 34.4886C110.878 34.0887 111.748 33.5241 112.384 33.5241C112.572 33.5241 112.831 33.383 112.972 33.1948C113.207 32.9125 113.16 32.7478 112.784 32.3714C112.501 32.0892 112.148 31.8774 111.984 31.8774C111.466 31.8774 110.878 31.0776 110.878 30.3954C110.878 29.8544 110.972 29.7603 111.537 29.7603C111.89 29.7603 112.313 29.8779 112.454 30.019C112.595 30.1602 112.948 30.3954 113.207 30.5601C113.466 30.7012 114.077 31.1011 114.571 31.454C115.701 32.2538 116.359 32.3714 116.477 31.8069C116.594 31.2893 115.959 30.6542 114.642 29.972C113.348 29.2898 112.054 28.043 112.054 27.4784C112.054 27.2432 112.195 26.8433 112.36 26.608C112.642 26.2081 112.76 26.2787 113.983 27.3843C115.324 28.6311 115.748 28.7958 116.242 28.3018C116.477 28.0665 116.124 27.6431 114.736 26.3493C113.207 24.9613 112.948 24.6085 113.089 24.1615C113.395 23.197 114.124 23.5969 116.547 26.0435C119.37 28.8899 120.005 30.019 119.441 31.2188C118.947 32.3009 117.982 34.0181 117.63 34.4416C116.853 35.359 116.43 37.1704 116.43 39.4052C116.43 41.3106 116.524 41.8046 116.994 42.6985C118.218 44.9568 120.358 46.4624 122.805 46.8153C124.287 47.0034 124.781 46.6035 124.099 45.7331C123.722 45.3097 123.393 45.1921 122.287 45.145C121.041 45.098 120.852 45.0039 119.888 44.0629C118.335 42.5574 117.841 41.3341 117.865 39.0288C117.888 37.0527 118.335 35.6648 119.441 34.1122C119.7 33.7358 120.052 33.1948 120.194 32.936C120.335 32.6773 120.688 32.0656 120.946 31.5716C121.558 30.513 121.582 29.972 121.088 28.984C120.476 27.8078 117.041 24.4203 115.23 23.2206C114.336 22.6089 113.419 21.9738 113.231 21.7621C113.019 21.5739 111.537 20.3506 109.937 19.0568C108.314 17.763 106.95 16.6573 106.879 16.5632C106.808 16.4927 106.244 16.0457 105.585 15.5517C104.95 15.0577 103.986 14.2814 103.468 13.7874C100.057 10.6116 99.2807 10 98.6455 10C98.2927 10 97.8693 10.1647 97.7046 10.3529ZM101.233 13.5051C102.856 15.2224 105.75 17.5983 110.478 21.0799C112.031 22.2325 112.384 22.8206 111.678 23.1029C111.231 23.2676 110.549 22.9383 108.526 21.5503C107.679 20.9858 106.526 20.1859 105.938 19.786C103.303 18.0217 100.292 15.4341 100.292 14.9165C100.292 14.8224 100.033 14.3284 99.7041 13.858C99.2572 13.1993 99.1866 12.917 99.3748 12.5641C99.4924 12.3289 99.6806 12.1172 99.7747 12.1172C99.8688 12.1172 100.504 12.7288 101.233 13.5051ZM102.104 18.6098C103.021 19.5037 105.773 21.5033 106.761 21.9973C106.903 22.0679 107.42 22.3737 107.938 22.703C108.455 23.0324 109.326 23.5028 109.867 23.7381C110.431 23.9969 111.043 24.4438 111.231 24.7496C111.584 25.2672 111.584 25.3613 111.231 25.9023C111.043 26.2081 110.76 26.4669 110.643 26.4669C110.337 26.4669 109.443 26.0435 108.643 25.5259C108.267 25.2672 107.679 24.9378 107.349 24.7967C107.02 24.6555 106.22 24.138 105.538 23.6205C104.856 23.1265 104.244 22.703 104.174 22.703C104.103 22.703 103.303 22.2325 102.409 21.6444C100.245 20.233 99.2101 18.3746 100.245 17.7865C100.857 17.4101 100.904 17.4336 102.104 18.6098ZM101.845 22.8206C102.268 23.15 102.668 23.4087 102.739 23.4087C102.786 23.4087 103.727 23.9969 104.809 24.7261C105.891 25.4553 106.973 26.1375 107.255 26.2316C108.149 26.5845 110.431 28.1371 110.572 28.49C110.737 28.9134 110.008 29.7603 109.49 29.7603C109.302 29.7603 108.455 29.2898 107.608 28.7252C106.738 28.1606 105.75 27.6431 105.35 27.549C104.974 27.4549 103.938 26.9138 103.092 26.3257C101.045 24.9849 99.8688 23.4558 100.198 22.5854C100.41 22.0679 100.974 22.162 101.845 22.8206ZM104.48 36.2529C104.95 36.4411 106.173 36.8881 107.161 37.2174C108.479 37.6408 109.02 37.9231 109.137 38.276C109.443 39.2405 108.573 39.3111 105.585 38.5348C104.009 38.1113 103.115 37.4527 103.115 36.6999C103.115 36.2294 103.28 35.8765 103.515 35.8765C103.562 35.8765 103.986 36.0412 104.48 36.2529ZM106.314 39.9933C106.95 40.1814 107.726 40.3461 108.032 40.3461C108.667 40.3461 109.467 40.9577 109.467 41.4282C109.467 41.6164 109.208 41.9222 108.879 42.1339C108.337 42.4868 108.149 42.4868 106.361 42.1104C105.279 41.8987 104.268 41.6164 104.127 41.4753C103.962 41.3341 103.821 40.8636 103.821 40.4402C103.821 39.711 103.891 39.6404 104.48 39.6404C104.856 39.6404 105.679 39.8051 106.314 39.9933ZM109.772 43.6865C110.76 44.2041 109.937 44.9804 107.891 45.4979C106.903 45.7331 106.479 45.7331 105.773 45.4979C105.279 45.3568 104.809 45.098 104.715 44.9568C104.48 44.6275 104.48 43.5219 104.691 43.3102C104.903 43.0984 109.231 43.4043 109.772 43.6865ZM111.254 46.4859C111.584 46.8388 111.631 47.0505 111.443 47.3563C110.972 48.0856 109.373 48.7678 107.796 48.9324C105.75 49.1441 105.185 48.8618 105.279 47.7092L105.35 46.8858L107.02 46.8153C108.126 46.7917 108.879 46.6506 109.255 46.3918C110.008 45.8508 110.713 45.8978 111.254 46.4859ZM112.784 48.8148C113.16 48.8148 113.019 50.0381 112.595 50.3909C112.36 50.5556 111.207 51.1907 110.031 51.7788C108.149 52.6963 107.796 52.7904 107.279 52.5551C105.844 51.8965 106.197 50.2262 107.773 50.2262C108.761 50.2262 110.502 49.6146 111.325 49.003C111.654 48.7678 112.054 48.6266 112.242 48.6972C112.407 48.7678 112.666 48.8148 112.784 48.8148ZM118.312 53.0021C118.641 53.4961 118.312 53.9666 116.877 55.0487C115.418 56.1543 114.665 56.4837 114.219 56.2014C113.63 55.825 113.607 55.4251 114.219 55.1898C114.524 55.0722 115.183 54.5312 115.701 53.9666C117.136 52.3434 117.771 52.1082 118.312 53.0021ZM120.711 54.837C120.758 55.1898 120.547 55.5192 120.005 55.8956C118.641 56.8836 118.171 57.0718 117.677 56.813C117.018 56.4366 117.112 56.2014 118.453 55.1663C119.77 54.1077 120.594 54.0136 120.711 54.837Z" fill="white"/>
<path d="M204.41 13.7874C203.493 14.2814 198.011 18.3275 197.564 18.8215C197.447 18.9862 196.647 19.6214 195.824 20.233C194.977 20.8681 193.659 22.0208 192.86 22.7971C192.083 23.5969 189.849 25.4553 187.92 26.9374C183.615 30.2543 182.227 31.6187 182.015 32.7243C181.827 33.8064 182.062 35.8295 182.438 36.2764C183.591 37.6879 184.273 39.5698 184.273 41.4282C184.273 43.0984 184.25 43.169 183.144 44.6275C182.533 45.4273 181.733 46.2507 181.38 46.4153C181.004 46.6035 179.898 46.7682 178.91 46.7682C176.863 46.8152 176.369 46.58 175.217 44.9804L174.558 44.0629L175.028 43.4513C175.475 42.8397 176.228 42.3221 177.569 41.6635C178.698 41.1224 179.38 41.0518 180.392 41.4282C181.662 41.8752 182.086 41.8517 182.391 41.2871C182.815 40.4873 181.756 39.0288 179.992 37.9231C179.616 37.6879 179.333 37.3585 179.333 37.1704C179.333 36.9586 179.239 36.6293 179.122 36.3941C179.004 36.1823 178.581 35.2884 178.181 34.4416C176.581 31.007 173.852 29.6426 169.759 30.2072C168.606 30.3719 167.524 30.6307 167.336 30.7953C167.148 30.9365 166.607 31.2658 166.136 31.5246C164.584 32.3009 162.984 34.0181 162.09 35.8295C161.314 37.4291 160.984 41.7811 161.549 43.169C161.784 43.7336 160.82 44.651 160.185 44.4864C159.926 44.3923 158.961 44.11 158.044 43.8512C155.339 43.0279 154.515 43.0279 153.574 43.7571C152.728 44.3923 151.81 45.8978 151.81 46.6271C151.81 47.2622 152.445 49.003 153.292 50.6732C154.656 53.3785 159.291 57.2835 161.149 57.2835C161.455 57.2835 162.443 57.4482 163.337 57.6599C164.866 57.9892 164.984 58.0833 165.572 59.0713C166.748 61.0709 169.782 63.635 170.982 63.635C171.17 63.635 171.476 63.8938 171.617 64.2231C171.829 64.7171 171.806 64.8818 171.429 65.3052C171.076 65.7051 170.794 65.7757 169.806 65.6816C169.171 65.6345 168.159 65.3993 167.571 65.1641C166.395 64.6936 162.772 64.576 162.349 64.9994C162.208 65.1405 162.161 65.5169 162.255 65.8463C162.372 66.3638 162.537 66.4579 163.196 66.4579C163.643 66.4579 164.301 66.2932 164.654 66.105C165.595 65.6345 166.324 65.6581 166.63 66.1991C166.748 66.4579 166.866 66.7167 166.866 66.8107C166.866 67.046 165.289 67.6341 164.678 67.6341C163.854 67.6341 163.313 68.1281 163.478 68.7397C163.643 69.3749 164.372 69.4454 165.36 68.9279C165.736 68.7397 166.207 68.5751 166.395 68.5751C166.583 68.5751 166.96 68.4104 167.195 68.2222C167.454 68.034 167.83 67.8693 168.065 67.8693C168.277 67.8693 168.583 67.7047 168.747 67.5165C169.1 67.093 169.947 67.046 170.347 67.4459C170.771 67.8693 170.676 68.8103 170.041 70.1041C169.288 71.6097 169.288 72.0566 170.065 72.2448C171.217 72.5271 171.947 70.8569 171.759 68.3398L171.688 67.2812L172.676 67.2107C173.405 67.1636 173.899 67.2812 174.605 67.7282C175.711 68.4339 176.228 68.5045 176.44 67.9634C176.652 67.3989 175.781 66.7167 174.628 66.5049C173.782 66.3638 173.546 66.2226 173.499 65.7992C173.288 64.3642 175.24 65.1641 177.969 67.6341C178.91 68.481 180.086 69.4219 180.58 69.7277C181.168 70.0806 181.427 70.3864 181.356 70.6217C181.286 70.8098 181.215 70.998 181.215 71.0451C181.215 71.0921 180.815 71.3509 180.345 71.6332C179.851 71.9155 179.169 72.5977 178.816 73.1858C178.463 73.7504 178.016 74.2208 177.851 74.2208C177.663 74.2208 176.887 73.9386 176.134 73.6092C175.358 73.2564 174.111 72.8564 173.335 72.6918C172.111 72.4095 171.853 72.433 171.359 72.7388L170.771 73.1152L171.312 73.5386C171.617 73.7974 172.229 73.9856 172.723 73.9856C173.217 73.9856 173.782 74.1267 174.017 74.2914C174.44 74.5972 174.417 74.6443 173.805 75.1148C173.452 75.3971 173.029 75.6323 172.864 75.6323C172.394 75.6323 170.488 76.5497 170.159 76.9261C169.735 77.4437 170.041 77.9847 170.794 77.9847C171.523 77.9847 173.358 77.0673 174.84 76.0087C176.51 74.8325 177.451 75.6323 177.451 78.22C177.451 79.5843 177.875 80.2195 178.628 79.9843C179.122 79.8196 179.145 79.749 179.004 78.314C178.91 77.4672 178.792 76.4792 178.722 76.1263C178.557 75.2794 179.31 74.6913 179.851 75.2324C180.533 75.9381 181.121 76.1028 181.592 75.7499C182.18 75.3265 181.803 74.6678 180.792 74.3385C180.368 74.2208 180.039 73.9856 180.039 73.8445C180.039 73.5151 182.674 71.398 183.097 71.398C183.474 71.398 184.979 70.2217 184.979 69.9159C184.979 69.7748 185.12 69.4925 185.308 69.3043C185.826 68.7162 185.991 67.3518 185.614 66.8343C185.097 66.1286 184.273 66.6931 184.273 67.7517C184.273 68.8103 183.521 69.6101 182.791 69.3749C182.274 69.2102 181.051 68.3163 177.922 65.7757C176.957 64.9994 176.016 64.3407 175.852 64.3407C175.664 64.3407 175.24 64.1996 174.911 64.0114C174.558 63.8232 173.805 63.4938 173.217 63.2821C172.629 63.0704 171.994 62.7881 171.806 62.6705C171.617 62.5529 171.147 62.3176 170.747 62.1294C169.735 61.6825 168.018 60.0829 167.218 58.8831C166.842 58.3421 166.113 57.4011 165.572 56.813C164.56 55.7074 164.137 54.837 163.455 52.461C162.772 50.0616 162.678 49.6617 162.537 48.6972C162.443 48.1796 162.325 47.4739 162.255 47.1211C162.161 46.6976 162.278 46.3683 162.584 46.0625C163.196 45.4979 163.455 42.7926 162.961 42.1339C162.514 41.5223 162.537 39.1229 163.008 37.7585C163.925 35.0532 164.795 33.9946 167.218 32.6772C168.794 31.8069 168.959 31.7833 171.1 31.7833C173.429 31.7833 174.111 31.995 175.593 33.1713C176.158 33.6417 177.922 36.794 177.922 37.3821C177.922 37.5467 178.298 38.0878 178.769 38.5583C179.827 39.6404 179.71 40.2285 178.486 40.0403C177.381 39.8521 176.699 40.1344 175.522 41.2871C174.981 41.8046 174.464 42.228 174.393 42.228C174.299 42.228 173.946 42.4633 173.593 42.7691C173.005 43.2866 172.958 43.4278 173.029 45.0745L173.099 46.8152L173.993 46.7447C174.676 46.6741 175.052 46.8152 175.781 47.3798C177.193 48.509 177.945 48.6972 179.639 48.3208C182.862 47.6621 185.497 45.145 185.802 42.4633C186.014 40.3226 185.45 38.0407 184.203 36.2059C183.615 35.359 183.544 35.0532 183.615 33.7358L183.685 32.2538L185.567 30.6071C186.626 29.6897 187.99 28.5135 188.625 27.996C189.26 27.4784 190.296 26.608 190.954 26.0434C191.613 25.5024 192.248 25.079 192.389 25.126C192.766 25.2436 192.813 26.5375 192.46 26.8197C191.589 27.5019 191.519 27.8313 192.036 28.537C192.483 29.1251 192.507 29.3133 192.272 29.7838C191.942 30.3954 191.001 31.1952 189.543 32.1832C188.79 32.6772 188.508 33.0301 188.508 33.43C188.508 34.3945 189.425 34.1357 190.978 32.7243C192.06 31.7363 192.577 31.4305 193.377 31.3129C194.201 31.2188 195.024 30.7012 197.635 28.7252C199.423 27.3843 201.187 25.9494 201.517 25.5259C202.41 24.4673 202.975 24.7026 202.763 26.0434C202.552 27.3137 202.034 27.9254 199.987 29.3603C199.047 30.019 197.612 30.9835 196.812 31.5481C196.035 32.0891 194.883 32.7243 194.295 32.9125C193.354 33.2418 191.683 34.3004 189.637 35.8765C188.931 36.4176 188.884 36.5352 189.19 37.0292C189.496 37.5232 190.531 37.1704 191.472 36.2294C192.93 34.7709 193.824 35.4531 192.742 37.2174C192.272 37.9937 190.742 38.9347 189.966 38.9347C189.425 38.9347 188.978 39.3816 188.978 39.9227C188.978 40.6049 189.637 40.699 190.39 40.1344C191.095 39.6169 191.919 39.4757 192.13 39.8521C192.201 39.9697 192.201 40.3932 192.13 40.7931C192.013 41.3812 191.754 41.6164 190.954 41.9928C190.39 42.228 189.919 42.5574 189.919 42.6985C189.919 42.8161 190.272 43.2631 190.695 43.6395L191.448 44.3452L190.86 44.8157C190.413 45.1686 189.919 45.2862 188.719 45.2862C187.308 45.2862 187.143 45.3332 187.026 45.8037C186.955 46.086 186.932 46.3918 187.002 46.5094C187.167 46.7917 188.555 46.7447 189.425 46.4389C190.06 46.2036 190.272 46.2271 190.578 46.533C190.884 46.8623 190.907 47.027 190.648 47.5445C190.366 48.1796 190.366 48.1796 188.39 48.015C187.12 47.9209 186.367 47.9679 186.273 48.1091C185.967 48.5796 186.673 49.0265 187.943 49.1912C189.143 49.3323 189.213 49.3794 189.213 50.0145C189.213 50.979 190.484 52.1317 192.107 52.6963C193.33 53.0962 193.471 53.2138 193.401 53.7549C193.33 54.2724 193.213 54.343 192.248 54.4135C191.495 54.4606 191.072 54.3665 190.86 54.1077C190.695 53.9195 190.46 53.7549 190.319 53.7549C189.802 53.7549 188.108 52.1082 187.896 51.3789C187.731 50.8379 187.473 50.5556 186.979 50.3909C186.579 50.2498 186.014 49.9675 185.708 49.7322C185.403 49.4735 184.956 49.2853 184.72 49.2853C183.685 49.2853 183.944 50.6026 185.05 50.8849C185.873 51.0966 186.132 51.6847 185.661 52.2493C185.308 52.6728 184.65 52.4846 183.544 51.6142C182.321 50.6497 182.062 50.7203 182.227 51.967C182.344 52.7668 182.297 53.0256 182.039 53.1432C181.45 53.3549 180.909 53.0491 179.898 51.8965C179.051 50.9555 178.863 50.8614 178.533 51.1437C177.992 51.5906 178.063 51.92 178.863 52.6963C179.639 53.449 179.592 53.7549 178.651 53.7549C178.228 53.7549 177.734 53.4726 177.216 52.9315C176.322 52.0141 175.287 51.8729 175.146 52.6492C175.028 53.2609 177.381 55.1663 178.251 55.1663C178.439 55.1663 178.816 55.5662 179.122 56.0367C179.404 56.5307 179.968 57.26 180.345 57.6834C180.933 58.3185 181.004 58.5067 180.768 58.789C180.51 59.1184 180.392 59.1184 179.804 58.8125C179.451 58.6244 178.863 58.1304 178.463 57.6834C177.593 56.6954 177.357 56.5307 176.887 56.7189C176.252 56.9541 176.463 57.7304 177.381 58.5303C179.239 60.1769 180.674 60.6239 182.039 59.9652C182.65 59.6829 183.144 59.6359 183.968 59.7535C184.72 59.8711 185.308 59.8006 185.897 59.5418C187.096 59.0243 188.79 58.5773 189.308 58.6479C189.872 58.7184 193.518 62.4117 193.307 62.7176C193.213 62.8822 193.001 62.8116 192.719 62.5529C192.295 62.153 191.425 62.2706 191.683 62.6705C191.825 62.9057 193.542 64.129 194.153 64.4113C194.342 64.5054 194.836 64.7877 195.212 65.0464C196.247 65.7051 197.729 66.4108 198.388 66.552C200.152 66.9519 201.305 68.5751 199.823 68.5751C198.388 68.5751 192.695 65.3052 190.931 63.4468C190.296 62.8116 190.272 62.7411 190.742 62.2235C191.048 61.8942 191.001 61.7531 190.366 60.9532C189.66 60.1064 189.613 60.0829 189.166 60.5063C188.602 61.0238 188.696 62.2235 189.378 63.5879C189.802 64.3878 192.366 66.599 193.565 67.1871C193.824 67.3048 194.365 67.6106 194.742 67.8693C195.142 68.1281 195.612 68.3869 195.8 68.481C196.2 68.6221 196.859 68.9279 199.188 69.9865C201.187 70.9039 202.857 71.1392 203.304 70.5981C203.657 70.1747 204.292 70.1041 204.622 70.4335C204.857 70.6687 206.245 70.8098 207.374 70.7393C207.797 70.7158 208.527 70.1747 209.679 69.0455C210.62 68.1281 211.444 67.3989 211.538 67.3989C211.844 67.3989 212.502 66.0345 212.502 65.4228C212.502 64.129 210.385 61.7531 208.903 61.4002C208.55 61.3061 208.197 61.1414 208.127 61.0238C208.056 60.9062 207.797 60.8121 207.515 60.8121C207.256 60.8121 206.715 60.671 206.315 60.4828C205.892 60.3181 204.763 59.9417 203.798 59.6594C202.834 59.3771 201.846 59.0243 201.634 58.9066C201.399 58.789 201.046 58.6949 200.834 58.6949C200.623 58.6949 200.129 58.5538 199.729 58.3656C199.305 58.2009 198.458 57.8716 197.8 57.6363C196.13 57.0482 193.754 55.9426 193.589 55.6838C193.518 55.5662 193.824 55.1428 194.271 54.7193C194.906 54.1548 195.094 53.7784 195.094 53.1903C195.094 52.6963 195.306 52.1787 195.683 51.7788C196.13 51.3084 196.271 50.8849 196.271 50.1321C196.271 49.497 196.412 49.003 196.624 48.8148C196.859 48.6031 196.976 48.0855 196.976 47.1211C196.976 45.8743 197.047 45.639 197.682 45.0039C198.176 44.5099 198.388 44.0864 198.388 43.5219C198.388 42.9808 198.647 42.4398 199.235 41.734C199.917 40.9107 200.058 40.5814 199.964 39.9697C199.87 39.4051 199.964 39.0993 200.317 38.77C201.352 37.8526 201.916 36.6528 201.916 35.312C201.916 34.2534 202.058 33.8299 202.646 32.9125C203.351 31.901 203.398 31.6892 203.375 29.8544C203.375 28.7722 203.469 27.8078 203.587 27.7607C203.869 27.5725 204.739 25.5494 204.739 25.079C204.739 24.8437 204.575 24.4673 204.386 24.2086C203.963 23.644 203.94 22.7265 204.339 22.2561C204.504 22.0443 204.857 21.4327 205.092 20.8681C205.422 20.1154 205.469 19.7625 205.28 19.3391C204.975 18.7039 205.186 18.2334 206.174 17.1749C206.88 16.3986 207.327 14.9165 207.092 13.9991C206.904 13.1993 205.657 13.1052 204.41 13.7874ZM205.563 15.1753C205.869 15.6928 204.41 17.2925 202.011 19.1274C201.352 19.5978 199.588 21.0563 198.058 22.3502C194.342 25.5024 194.412 25.4553 194.13 25.0319C193.518 24.1145 194.742 22.6325 198.482 19.8331C199.517 19.0333 200.434 18.304 200.505 18.2334C200.576 18.1629 200.999 17.8335 201.446 17.5277C201.893 17.1984 202.834 16.4927 203.516 15.9516C204.763 14.9401 205.28 14.7283 205.563 15.1753ZM203.493 20.2565C203.751 20.9387 202.575 22.703 200.623 24.5144C198.106 26.8903 194.201 29.8308 193.777 29.6662C193.589 29.5956 193.448 29.2192 193.448 28.7487C193.448 27.8313 193.707 27.5725 198.388 23.7616C199.987 22.4678 201.658 21.0563 202.128 20.6564C203.093 19.786 203.281 19.7155 203.493 20.2565ZM201.916 30.6071C201.916 32.1362 200.905 33.2889 198.623 34.4416C198.035 34.7238 197.094 35.2179 196.529 35.5472C195.965 35.853 195.189 36.1118 194.812 36.1118C194.248 36.1118 194.153 36.0177 194.153 35.4531C194.153 34.6297 194.553 34.2534 196.459 33.3359C197.894 32.6302 200.317 30.8894 200.952 30.1366C201.493 29.478 201.916 29.6897 201.916 30.6071ZM200.364 35.5942C200.505 35.8295 199.799 37.288 199.305 37.782C198.882 38.2054 198.035 38.6994 196.694 39.264C195.753 39.6874 193.565 39.7815 193.33 39.4051C193.001 38.8641 193.518 38.2525 194.577 37.8526C196.224 37.2645 198.552 36.1118 198.882 35.7354C199.164 35.3825 200.176 35.2884 200.364 35.5942ZM198.623 40.3226C198.623 40.7931 197.494 41.7576 196.953 41.7576C196.788 41.7576 196.482 41.8987 196.294 42.0634C195.565 42.675 193.965 43.0279 193.33 42.7456C192.201 42.228 192.789 41.3341 194.459 41.0283C195 40.9342 195.988 40.6519 196.624 40.3932C198.153 39.7815 198.623 39.758 198.623 40.3226ZM196.694 44.0159C196.812 44.8863 195.212 45.7567 193.424 45.7567C192.319 45.7567 191.754 45.2391 192.013 44.5099C192.177 44.0629 192.413 43.9688 193.871 43.8747C194.789 43.8042 195.612 43.663 195.706 43.5689C196.035 43.2396 196.624 43.4983 196.694 44.0159ZM159.338 45.7096C160.726 46.3212 160.984 46.8152 160.984 48.9795C160.984 50.8143 161.032 50.9555 161.714 51.6612C162.49 52.461 162.514 52.8845 161.714 53.0021C161.173 53.0962 160.302 52.2493 160.279 51.6142C160.279 51.426 160.02 51.0025 159.691 50.6967C159.15 50.1792 159.055 50.1557 158.703 50.5085C158.35 50.8614 158.35 50.9555 158.703 51.6847C159.455 53.2138 159.926 53.6137 161.126 53.7313C162.396 53.896 162.702 54.343 162.02 55.0487C161.69 55.378 161.361 55.4251 160.443 55.331C158.985 55.1428 158.585 54.8134 158.679 53.896C158.75 53.1903 158.703 53.1668 157.715 53.0491C156.585 52.9315 156.186 52.4846 156.962 52.2258C157.409 52.0846 157.456 51.8729 157.456 50.438C157.456 49.003 157.409 48.8148 157.009 48.8148C156.703 48.8148 156.538 49.0265 156.444 49.5676C156.374 49.991 156.209 50.7673 156.115 51.2848L155.927 52.2258L155.315 51.4024C154.609 50.438 153.692 48.4855 153.339 47.2387C153.127 46.4859 153.457 45.4979 154.021 45.2627C154.727 44.9568 158.35 45.2627 159.338 45.7096ZM195.189 47.074C196.035 47.9209 195.259 48.8148 193.659 48.8148C192.13 48.8148 191.519 48.1796 191.942 47.074C192.154 46.5565 194.671 46.5565 195.189 47.074ZM193.612 49.944C195.118 50.1792 195.236 50.2968 194.906 51.0496C194.671 51.5906 194.506 51.6377 193.26 51.6377C191.754 51.6377 190.625 51.0496 190.625 50.2498C190.625 49.6381 190.907 49.4735 191.683 49.6146C192.06 49.6852 192.954 49.8263 193.612 49.944ZM188.508 54.1077C189.166 54.7194 189.919 55.1663 190.437 55.2604C192.06 55.5662 192.13 56.4131 190.625 57.0482C190.037 57.2835 189.825 57.26 189.119 56.8365C188.037 56.1543 186.155 54.0607 186.155 53.5196C186.155 53.0491 186.555 52.8139 187.096 53.0021C187.284 53.0727 187.92 53.5667 188.508 54.1077ZM184.979 53.9666C184.979 54.0842 185.45 54.8134 186.038 55.6133C187.167 57.1423 187.214 57.5187 186.249 57.5187C185.238 57.5187 183.097 54.9311 183.426 54.0842C183.568 53.7313 184.979 53.6137 184.979 53.9666ZM182.486 55.2134C182.744 55.6368 183.356 56.4366 183.85 56.9777C184.344 57.5422 184.744 58.0833 184.744 58.2244C184.744 59.2125 182.274 58.3656 181.098 56.9777C180.204 55.9426 180.133 55.6368 180.557 54.9311C181.027 54.1783 181.968 54.3194 182.486 55.2134ZM193.942 57.3305C194.389 57.4717 194.789 57.6599 194.859 57.754C195.024 57.9892 199.235 59.6359 199.635 59.6359C199.823 59.6359 200.035 59.7065 200.105 59.8006C200.199 59.8711 201.117 60.224 202.152 60.5769C203.187 60.9297 204.104 61.2826 204.198 61.3532C204.269 61.4472 204.504 61.5178 204.716 61.5178C204.928 61.5178 205.398 61.6825 205.774 61.8707C206.127 62.0589 206.598 62.2235 206.809 62.2235C206.998 62.2235 207.845 62.5529 208.644 62.9528C210.268 63.7291 211.232 64.9053 210.973 65.7522C210.785 66.3403 209.538 67.0225 209.021 66.8107C208.785 66.7167 207.986 66.5049 207.209 66.3403C206.433 66.1756 205.163 65.8463 204.386 65.6345C203.61 65.4228 202.669 65.1641 202.269 65.07C201.893 64.9759 200.834 64.5524 199.917 64.129C198.058 63.2821 197.823 63.188 196.035 62.4588C194.201 61.706 191.331 59.4947 191.331 58.8125C191.331 58.4597 192.295 57.3776 192.742 57.2129C192.93 57.1423 193.095 57.0718 193.118 57.0718C193.142 57.0482 193.495 57.1659 193.942 57.3305ZM197.353 64.129C198.623 64.7406 199.047 65.1876 198.647 65.5875C198.435 65.7992 198.27 65.7992 197.964 65.5875C197.753 65.4228 197.118 65.07 196.576 64.8112C195.565 64.2937 195.212 63.635 195.965 63.635C196.177 63.635 196.812 63.8467 197.353 64.129ZM203.046 66.4344C204.175 66.8107 205.563 67.1871 206.151 67.2812C207.586 67.493 208.738 67.8693 208.738 68.1281C208.738 68.4574 206.927 69.2808 206.198 69.2808C205.469 69.2808 204.198 68.7633 202.316 67.6811C200.952 66.8813 200.411 66.3403 200.599 66.0109C200.811 65.6816 200.693 65.6581 203.046 66.4344Z" fill="white"/>
<path d="M158.867 48.6972C158.867 49.45 159.526 49.7558 159.949 49.1912C160.349 48.6266 160.114 48.1091 159.432 48.1091C158.985 48.1091 158.867 48.2267 158.867 48.6972Z" fill="white"/>
<path d="M189.143 29.0781C188.202 29.8544 187.967 30.7012 188.719 30.7012C189.425 30.7012 190.672 29.5485 190.578 28.984C190.46 28.2547 190.107 28.2782 189.143 29.0781Z" fill="white"/>
<path d="M129.956 29.525C127.604 30.0896 124.804 32.2068 123.887 34.1122C123.487 34.9591 123.487 34.9826 123.91 35.312C124.546 35.7589 125.063 35.406 126.051 33.877C126.498 33.1713 127.274 32.3244 127.792 31.995C128.639 31.4775 129.18 31.2893 131.297 30.7718C132.497 30.4895 135.602 31.7598 137.084 33.1713C138.307 34.3239 139.648 37.2409 139.742 39.0523C139.836 40.3226 139.766 40.5814 139.06 41.6164C138.637 42.2516 138.119 42.8632 137.931 42.9573C137.743 43.0514 137.06 43.3807 136.425 43.6865C135.367 44.1805 135.226 44.3452 134.967 45.3568C134.685 46.5094 134.755 47.4034 135.155 47.4034C135.296 47.4034 135.79 47.074 136.284 46.6976C137.319 45.8743 138.378 45.592 139.084 45.9684C139.742 46.3212 139.719 47.1211 139.013 48.4384C138.637 49.1441 138.425 50.0145 138.354 51.0966C138.213 53.3785 137.343 55.0487 135.084 57.4011C133.273 59.283 133.014 59.4712 131.344 60.2005C128.851 61.2826 127.957 61.5178 126.38 61.5178C124.875 61.5178 124.64 61.5884 124.075 62.153C122.428 63.8467 119.7 66.2697 118.547 67.0225C117.371 67.7988 116.053 68.1516 116.053 67.6576C116.053 67.3518 116.712 65.9639 117.23 65.1641C118.124 63.7997 118.335 63.0704 117.935 62.8117C117.441 62.5058 116.759 62.9998 116.265 64.0584C115.959 64.6701 115.418 65.611 115.042 66.1756C114.266 67.3283 114.336 67.7517 115.301 67.9634C115.771 68.0811 115.959 68.2692 115.959 68.5986C115.936 68.975 116.218 69.1867 117.136 69.5396C118.476 70.0571 119.417 70.9039 119.229 71.445C119.135 71.6802 118.641 71.8684 117.865 71.939C116.218 72.1507 114.36 73.374 114.454 74.2209C114.548 75.0442 115.371 75.1148 116.359 74.362C117.277 73.6563 119.794 72.3389 120.241 72.3389C120.382 72.3389 120.523 72.5506 120.523 72.8094C120.523 73.374 119.229 76.2439 118.876 76.4556C118.759 76.5262 118.641 76.8556 118.641 77.1614C118.641 77.5848 118.806 77.773 119.229 77.8906C119.911 78.0553 120.758 77.4672 120.758 76.832C120.758 76.6203 120.923 76.1498 121.111 75.7734C121.299 75.4206 121.464 74.8325 121.464 74.4796C121.464 73.0446 122.617 72.433 124.005 73.1152C124.357 73.3034 124.993 73.6092 125.416 73.8209C125.863 74.0327 126.357 74.2209 126.545 74.2209C127.016 74.2209 128.733 75.1618 129.415 75.797C130.144 76.4556 130.403 76.4792 131.085 75.844L131.603 75.35L131.132 74.8325C130.85 74.5502 129.933 74.0797 129.039 73.7739C126.263 72.8565 125.886 72.1037 128.192 72.1037C129.462 72.1037 129.486 72.1037 129.415 71.445C129.345 70.8804 129.227 70.8099 128.357 70.7393C127.839 70.6922 126.757 70.8334 125.981 71.0216C124.31 71.4685 122.523 71.4921 121.676 71.0921C121.323 70.9275 120.547 70.3629 119.935 69.8218C118.806 68.8103 118.665 68.2692 119.511 67.9399C119.982 67.7517 120.664 67.2107 122.405 65.611C125.745 62.5058 125.698 62.5294 127.016 63.5644C128.333 64.6465 128.145 64.9288 125.298 66.1521C124.169 66.6461 123.652 67.4459 124.169 67.8693C124.522 68.1516 125.934 67.987 125.934 67.6576C125.934 67.5635 126.616 67.1401 127.439 66.6931C128.827 65.9404 129.015 65.8933 129.744 66.1756C130.191 66.3167 130.732 66.4579 130.968 66.4579C131.344 66.4579 131.72 66.6226 133.226 67.4224C133.414 67.5165 134.167 67.8929 134.873 68.2692C135.578 68.6221 136.214 68.9985 136.284 69.0926C136.355 69.1632 136.684 69.3043 137.06 69.3984C137.86 69.6101 138.143 69.0455 137.625 68.2692C137.296 67.7752 135.367 66.6696 134.238 66.3403C133.626 66.1756 133.32 65.5169 133.744 65.2346C133.908 65.1405 134.708 65.0464 135.508 65.0464C136.308 65.0464 137.013 64.9523 137.084 64.8583C137.155 64.7406 137.037 64.4348 136.849 64.1525C136.331 63.3998 134.567 63.4468 133.414 64.2231C132.732 64.6701 132.238 64.8112 131.226 64.8112C129.98 64.8112 129.862 64.7642 128.968 63.8232C128.451 63.2821 128.074 62.7411 128.121 62.5999C128.168 62.4588 128.615 62.3176 129.133 62.2706C129.627 62.2235 130.38 62.0589 130.803 61.8707C131.203 61.6825 131.673 61.5178 131.862 61.5178C132.026 61.5178 132.379 61.3532 132.614 61.165C132.873 60.9768 133.25 60.8121 133.461 60.8121C133.673 60.8121 134.637 60.0123 135.602 59.0478C137.296 57.3305 137.39 57.2835 138.637 57.2129C142.024 57.0012 146 54.6958 148.352 51.5671C150.493 48.7442 150.822 46.7682 149.387 45.2391C148.376 44.1805 147.67 43.8747 146.141 43.8747C145.012 43.8747 144.353 44.0394 143.153 44.604C141.177 45.5214 140.777 45.4508 140.354 44.0864C140.001 43.0279 140.024 42.9808 140.613 42.0399C141.13 41.2165 141.224 40.7931 141.224 39.3111C141.224 37.6173 141.06 37.0292 140.001 34.7238C139.46 33.5241 137.013 30.96 135.814 30.3484C134.002 29.4074 131.768 29.1016 129.956 29.525ZM148.07 46.0154C148.564 46.533 148.752 46.9799 148.752 47.5915C148.752 49.3323 147.529 50.932 146.188 50.932C145.906 50.932 145.412 50.6732 145.082 50.3439C144.753 50.0145 144.447 49.7558 144.376 49.7558C144.306 49.7558 143.977 50.0851 143.647 50.485C142.965 51.2848 142.542 51.1202 142.518 50.0381C142.518 49.5205 142.4 49.4029 141.953 49.4029C141.506 49.4029 141.318 49.6146 140.989 50.4615C140.566 51.5436 139.836 52.0141 139.766 51.2378C139.695 50.438 139.836 49.6852 140.142 49.1912C140.33 48.9324 140.542 48.3208 140.613 47.8503C140.801 46.8152 141.06 46.58 142.189 46.3918C142.659 46.3212 143.506 46.039 144.071 45.7802C144.659 45.5214 145.6 45.3097 146.235 45.2862C147.223 45.2862 147.482 45.3803 148.07 46.0154ZM142.165 51.8965C142.165 52.1787 141.483 52.461 141.295 52.2728C141.224 52.1787 141.224 51.967 141.295 51.7788C141.436 51.4025 142.165 51.5201 142.165 51.8965ZM145.459 52.3905C145.459 53.0021 144.353 53.849 142.636 54.6253C142.048 54.884 141.177 55.2604 140.683 55.4721C139.601 55.9661 138.401 55.9897 138.401 55.5662C138.401 55.1663 138.966 54.6958 140.048 54.2018C141.648 53.4726 142.989 52.7904 143.694 52.3434C144.706 51.7083 145.459 51.7318 145.459 52.3905Z" fill="white"/>
<path d="M113.701 33.9711C113.701 34.7709 114.548 35.1473 115.089 34.5827C115.395 34.2769 115.371 34.1828 114.995 33.7594C114.336 33.0536 113.701 33.1477 113.701 33.9711Z" fill="white"/>
<path d="M129.768 35.3119C128.192 36.4411 130.45 38.4877 132.238 37.5467C132.873 37.2174 132.92 36.3705 132.356 35.6648C131.791 35.0061 130.45 34.8179 129.768 35.3119Z" fill="white"/>
<path d="M171.288 36.0177C169.453 37.0057 170.888 39.9462 172.794 39.1464C173.758 38.7465 174.276 37.6644 173.923 36.8175C173.664 36.2059 172.817 35.6413 172.205 35.6413C172.041 35.6648 171.641 35.806 171.288 36.0177Z" fill="white"/>
<path d="M122.711 36.1118C122.076 36.3705 120.123 38.3701 119.935 38.9582C119.864 39.1934 119.911 39.6169 120.053 39.8992C120.288 40.3226 120.452 40.3696 121.182 40.2285C121.676 40.1344 122.805 40.0168 123.699 39.9697C125.251 39.8521 125.392 39.8756 125.934 40.4637C126.639 41.2165 126.757 43.0749 126.145 43.7806C125.581 44.4393 125.463 44.9568 125.769 45.4038C126.192 45.9449 126.757 45.639 127.321 44.5569C127.698 43.8512 127.815 43.1925 127.815 41.8046C127.815 40.1814 127.745 39.9227 127.227 39.3346C126.522 38.5818 126.569 38.6053 124.287 38.5818C122.852 38.5818 122.523 38.5112 122.452 38.1819C122.405 37.8996 122.711 37.6408 123.464 37.3115C124.263 36.9586 124.546 36.7234 124.475 36.4176C124.381 35.9471 123.511 35.7824 122.711 36.1118Z" fill="white"/>
<path d="M164.889 43.4513C163.949 44.9568 164.372 46.8152 165.619 46.6506C166.489 46.5565 166.889 45.8272 166.324 45.4038C166.019 45.1921 165.901 44.8392 165.948 44.2982C166.066 42.9573 165.501 42.5103 164.889 43.4513Z" fill="white"/>
<path d="M128.545 43.7101C128.427 44.0394 128.192 44.3687 128.074 44.4628C127.768 44.6275 127.721 45.9213 128.004 46.086C128.121 46.1566 128.521 45.8978 128.874 45.5214L129.556 44.8157L129.791 45.5685C130.074 46.4153 131.485 47.3563 131.885 46.9564C132.003 46.8388 132.191 46.2036 132.285 45.592C132.473 44.4393 132.262 43.8747 131.673 43.8747C131.485 43.8747 131.344 43.7571 131.344 43.6395C131.344 43.4983 131.062 43.4042 130.709 43.4042C130.333 43.4278 129.768 43.3572 129.415 43.2631C128.874 43.1455 128.733 43.2161 128.545 43.7101Z" fill="white"/>
<path d="M167.336 43.616C167.077 44.1335 167.03 45.4979 167.242 46.1095C167.501 46.7682 168.959 47.2152 170.3 47.027C171.994 46.8388 172.229 46.6506 171.806 45.8978C171.57 45.4509 171.547 45.145 171.735 44.7451C172.017 44.1335 171.735 43.4043 171.241 43.4043C170.723 43.4043 170.159 44.2276 170.159 44.9804C170.159 45.3568 170.088 45.7567 169.994 45.8272C169.712 46.1331 169.218 45.4509 169.218 44.7216C169.218 44.3217 169.053 43.8042 168.889 43.5689C168.465 43.0279 167.642 43.0514 167.336 43.616Z" fill="white"/>
<path d="M133.038 44.0864C132.803 44.2276 132.803 44.3217 133.108 44.5805C133.555 44.9568 133.555 45.4979 133.085 46.0154C132.638 46.5094 133.014 47.4033 133.673 47.4033C134.238 47.4033 134.355 46.8858 134.214 45.2156C134.096 43.8512 133.814 43.5689 133.038 44.0864Z" fill="white"/>
<path d="M123.205 51.8965C122.875 52.5551 122.875 52.6727 123.181 53.0021C123.722 53.5196 124.71 53.1903 124.898 52.414C125.016 51.967 124.946 51.7083 124.64 51.473C123.958 51.0025 123.628 51.0966 123.205 51.8965Z" fill="white"/>
<path d="M111.866 60.3887C111.701 60.5533 111.584 60.8592 111.584 61.0944C111.584 61.4002 111.772 61.5178 112.29 61.5178C113.16 61.5178 113.16 61.659 112.407 62.3647C111.654 63.0469 111.631 63.635 112.36 63.6115C112.689 63.6115 113.231 63.1645 113.889 62.2941C114.877 61.0709 114.901 61.0003 114.501 60.5533C114.03 60.0358 112.337 59.9182 111.866 60.3887Z" fill="white"/>
<path d="M186.085 61.6119C185.779 62.3647 187.426 64.0584 188.178 63.7761C188.696 63.5644 188.555 63.0469 187.731 62.1295C186.908 61.2591 186.296 61.0473 186.085 61.6119Z" fill="white"/>
<path d="M114.783 62.4353C114.101 63.3998 114.054 64.1761 114.642 64.2937C115.112 64.3642 116.1 62.8587 116.006 62.2C115.889 61.3532 115.465 61.4237 114.783 62.4353Z" fill="white"/>
<path d="M184.273 64.0114C184.273 64.5289 185.944 65.9874 186.555 65.9874C187.096 65.9874 187.567 65.3758 187.567 64.7171C187.567 64.4583 187.331 64.3407 186.767 64.3407C186.343 64.3407 185.849 64.1761 185.685 63.9879C185.285 63.5174 184.273 63.5174 184.273 64.0114Z" fill="white"/>
<path d="M148.07 70.504C146.611 70.9039 145.27 72.0096 144.353 73.5151C143.435 75.0207 142.918 75.3265 141.083 75.4441C139.436 75.5617 138.66 75.8911 137.531 76.9261C137.131 77.279 136.99 77.6554 136.99 78.5258C136.99 79.1374 137.084 79.8196 137.202 80.0548C137.319 80.2665 137.625 80.9017 137.884 81.4192C138.166 81.9603 138.895 82.9718 139.554 83.6775C140.777 84.9949 141.93 86.571 141.93 86.9239C141.93 87.018 142.071 87.4179 142.259 87.7943C143.059 89.3939 143.318 90.8759 143.388 94.0046C143.459 97.6038 143.341 97.9802 142.024 97.9802C140.707 97.9802 140.095 98.3566 139.554 99.5093C139.013 100.638 139.013 101.885 139.578 103.391C139.742 103.838 139.93 104.308 139.954 104.449C140.001 104.567 140.307 105.084 140.636 105.579L141.224 106.449L140.683 106.661C140.401 106.778 138.025 106.943 135.461 107.013C132.873 107.108 129.933 107.249 128.921 107.366C126.851 107.602 122.922 107.343 121.699 106.919C118.853 105.884 117.771 105.061 116.406 102.897C115.724 101.862 115.677 101.227 116.171 100.803C116.406 100.615 116.524 100.074 116.524 99.2035C116.524 97.1333 117.606 95.9336 120.053 95.2279C120.876 95.0162 121.393 94.9927 122.358 95.2044C123.416 95.4396 123.769 95.6513 124.593 96.6158C125.134 97.251 125.651 98.0978 125.722 98.4742C126.216 100.733 124.122 102.92 122.499 101.862C121.864 101.462 121.864 101.344 122.287 99.5799C122.428 99.0859 122.334 98.8977 121.84 98.5683C121.276 98.1919 121.205 98.1919 120.664 98.6154C118.947 99.8621 119.958 102.52 122.499 103.485C123.534 103.885 123.628 103.885 124.663 103.485C126.122 102.92 127.039 101.768 127.251 100.191C127.463 98.3566 127.745 98.0978 129.509 98.0743C131.062 98.0508 134.496 97.4862 135.696 97.0628C138.754 95.9336 138.919 94.8515 136.284 93.4401C135.131 92.8284 135.108 92.7343 135.578 90.923C136.096 88.8999 135.32 85.3478 134.285 84.9478C133.649 84.7126 132.756 84.7832 130.521 85.2537C128.168 85.7477 126.992 86.1241 126.286 86.6181C125.581 87.0885 125.063 86.9945 124.381 86.2417C124.052 85.8653 123.464 85.4183 123.087 85.2537C122.052 84.8302 121.417 85.2537 120.688 86.7827C119.982 88.2883 119.841 90.3584 120.335 92.1933C120.664 93.4636 120.358 93.9811 119.253 93.9811C117.582 93.9811 115.112 96.5923 115.112 98.3331C115.112 98.6624 114.971 98.9447 114.83 98.9447C114.195 99.0153 113.56 98.8741 113.231 98.5918C113.042 98.4272 112.407 98.1214 111.819 97.8861C111.231 97.6509 110.408 97.3215 109.984 97.1333C109.561 96.9452 108.479 96.804 107.585 96.804C106.314 96.804 105.938 96.7334 105.938 96.4747C105.938 96.2865 106.032 96.0748 106.15 96.0042C106.267 95.9336 106.597 95.4161 106.879 94.875C107.326 94.0046 107.42 93.4871 107.42 91.3699C107.42 89.4174 107.326 88.7352 107.02 88.3118C106.808 88.006 106.644 87.5826 106.644 87.3944C106.644 86.8063 105.609 85.9359 105.138 86.1241C104.903 86.2182 104.315 86.7122 103.844 87.2297L102.974 88.1707L101.468 87.1591L99.9864 86.1241L97.4458 86.03C94.3406 85.8888 94.0113 86.0535 94.5994 87.3473C94.8111 87.8178 94.9758 88.8058 94.9993 89.5115C94.9993 90.2173 95.1875 91.1582 95.3992 91.5817C95.7756 92.3109 95.7756 92.3579 95.2816 92.6638C94.9993 92.852 94.3406 93.0872 93.8231 93.1813C92.6234 93.393 91.1178 94.334 91.1178 94.875C91.1178 95.0867 91.4236 95.4867 91.8 95.7454C92.1999 95.9807 92.788 96.6629 93.1409 97.2274C94.0583 98.6624 95.2346 99.4858 96.8812 99.8386C99.2807 100.356 99.2337 100.309 99.2572 101.885C99.2572 104.332 100.01 105.861 101.727 106.966C103.703 108.237 106.361 108.001 108.079 106.425C109.043 105.531 109.067 105.484 108.926 104.332C108.855 103.697 108.596 102.897 108.361 102.591C106.855 100.615 103.115 100.521 103.115 102.473V103.156L104.621 103.085C106.338 103.038 107.114 103.485 107.114 104.567C107.114 105.579 106.385 106.049 104.879 106.025C102.433 106.002 100.974 104.449 100.904 101.815C100.88 100.168 101.28 99.5563 102.927 98.6859C105.279 97.4627 111.419 98.6389 113.207 100.685C113.56 101.085 114.289 102.332 114.854 103.461C116.242 106.261 117.535 107.343 120.852 108.425C122.428 108.942 127.698 109.131 131.344 108.825C132.967 108.684 136.449 108.448 139.107 108.331C143.553 108.096 143.977 108.096 144.753 108.495C145.2 108.731 145.741 109.037 145.929 109.178C146.117 109.342 147.035 109.601 147.929 109.789C149.411 110.095 149.74 110.072 151.198 109.695C152.069 109.484 152.916 109.201 153.08 109.084C153.692 108.613 155.927 108.284 157.127 108.495C157.973 108.66 158.867 108.637 160.138 108.425C162.537 108.001 164.607 107.954 170.159 108.19C176.934 108.448 180.063 107.79 182.674 105.531C183.685 104.661 187.026 102.12 187.92 101.579C188.178 101.415 189.166 100.897 190.107 100.45C191.566 99.7445 192.036 99.6269 193.518 99.6269C195.236 99.6269 195.918 99.8386 197.517 100.897C198.788 101.744 199.188 103.273 198.529 104.826C198.082 105.908 197.329 106.496 195.847 107.013C194.412 107.507 193.377 107.39 192.577 106.637C191.989 106.073 191.825 104.638 192.319 104.144C192.719 103.744 193.801 103.791 194.153 104.214C194.624 104.779 195.541 104.661 195.706 104.002C196.082 102.497 194.883 101.721 193.024 102.238C191.495 102.662 190.742 103.273 190.413 104.379C189.684 106.755 191.613 108.801 194.577 108.801C197.847 108.801 200.505 106.472 200.505 103.602C200.505 102.52 200.67 102.426 203.328 102.003C205.327 101.673 206.292 101.274 207.797 100.097C209.091 99.1094 209.209 98.9682 209.209 98.1919C209.209 97.6509 208.997 97.4862 207.539 96.8275C206.598 96.4276 205.61 96.0983 205.304 96.0983C204.645 96.0983 204.551 95.5337 205.069 94.8045C205.516 94.1223 205.727 92.7343 205.704 90.4995C205.657 87.8648 205.492 87.559 204.081 87.7002C202.458 87.8413 199.964 88.8058 198.458 89.8409L197.47 90.5231L196.271 89.3233C194.93 87.9589 194.153 87.7472 193.589 88.6176C192.86 89.7938 192.225 92.7579 192.06 95.7454L191.919 98.0978L191.213 98.1684C190.554 98.239 190.06 98.4036 188.178 99.3211C187.755 99.5328 186.861 100.168 186.249 100.733C185.614 101.297 184.932 101.744 184.72 101.744C184.344 101.744 183.568 100.38 183.568 99.721C183.568 98.5448 180.51 95.322 178.698 94.5692C177.851 94.2164 177.71 93.6283 178.157 92.4285C178.722 90.9935 177.64 85.8653 176.463 84.4068C176.205 84.101 175.122 84.6656 174.017 85.6771C173.264 86.3828 172.253 86.4769 171.641 85.9359C171.406 85.7241 170.112 85.3713 168.677 85.136C166.489 84.7832 166.019 84.7832 165.172 85.0655C163.666 85.5595 163.549 85.7712 163.713 87.7002C163.807 88.7117 164.09 89.8644 164.419 90.5466C165.148 92.0521 165.125 92.2874 164.348 92.4756C162.325 92.9696 160.984 94.7809 161.667 96.0748C162.255 97.1804 165.548 98.1919 168.559 98.2155C170.606 98.2155 171.241 98.5683 171.006 99.5563C170.841 100.144 171.335 101.274 172.017 101.932C173.358 103.226 175.711 103.579 177.004 102.662C178.698 101.462 178.698 98.4037 177.028 98.8506C176.628 98.9447 176.51 99.1564 176.51 99.7445C176.51 100.568 176.252 100.897 175.358 101.109C173.335 101.603 171.9 99.6269 172.794 97.5803C173.335 96.4041 174.723 95.6749 176.534 95.6513C177.875 95.6278 178.886 96.1218 180.18 97.4156C181.615 98.8506 182.156 100.027 182.156 101.768C182.156 103.085 182.086 103.32 181.356 104.191C180.533 105.179 179.78 105.555 177.028 106.331C175.734 106.708 174.864 106.755 168.912 106.614C164.678 106.519 161.902 106.543 161.22 106.708C160.632 106.849 159.55 107.013 158.82 107.084C157.644 107.202 157.456 107.155 157.456 106.802C157.456 106.59 157.926 105.908 158.514 105.32L159.573 104.261V102.05C159.573 100.168 159.502 99.7916 159.103 99.3917C158.844 99.1329 158.444 98.9212 158.209 98.9212C157.244 98.9212 156.209 98.0743 155.762 96.8981C154.986 95.0162 155.386 91.1817 156.562 89.041C157.362 87.6061 159.173 85.1831 160.914 83.2071C161.761 82.2426 162.067 80.9487 161.831 79.3021C161.62 77.9847 160.49 76.6203 158.961 75.9146C158.326 75.6088 157.621 75.2794 157.409 75.1383C157.174 75.0207 156.844 74.9266 156.633 74.9266C156.444 74.9266 155.856 74.362 155.315 73.6798C154.115 72.1272 153.01 71.3039 151.41 70.6922C150.046 70.1747 149.317 70.1277 148.07 70.504ZM152.257 72.6918C152.775 72.9976 153.527 73.7974 153.951 74.4326C154.727 75.5852 155.833 76.338 156.821 76.338C157.621 76.338 159.644 77.773 160.114 78.6904C160.961 80.3606 160.326 82.0309 157.715 84.9243C156.938 85.7712 156.091 86.9474 155.809 87.5826C154.045 91.4876 153.88 92.1462 153.927 95.2044C153.998 98.6389 154.021 98.4507 153.269 98.4507C152.092 98.4507 151.716 97.7685 151.904 95.9336C152.492 89.935 153.574 86.8063 155.927 84.2892C156.585 83.607 157.338 82.6895 157.644 82.2896C158.585 80.9252 158.185 78.4552 157.032 78.4552C156.821 78.4552 156.068 78.2905 155.362 78.0788C154.068 77.7259 153.269 76.9732 152.398 75.303C152.069 74.6913 151.151 74.0327 150.234 73.7739C149.646 73.6092 149.293 73.6563 148.587 74.0327C147.576 74.5737 146.47 75.7029 146.258 76.4321C145.929 77.5378 145.482 77.7495 143.577 77.7495C141.436 77.7495 141.083 78.0082 141.13 79.4903C141.154 80.5488 141.577 81.3487 142.989 83.0189C143.906 84.101 145.459 86.7592 145.459 87.2062C145.459 87.3473 145.6 87.7707 145.788 88.1707C145.976 88.5941 146.211 89.6056 146.329 90.4525C146.541 92.1462 146.376 97.8391 146.117 98.1214C146 98.2155 145.67 98.1684 145.341 98.0273L144.753 97.745V94.1693C144.753 88.7823 143.977 86.571 141.06 83.4658C139.366 81.678 138.284 79.702 138.495 78.8081C138.825 77.5613 139.578 77.0437 141.765 76.6438C143.741 76.291 143.882 76.2204 144.588 75.3265C145.858 73.7033 147.505 72.1507 148.093 72.0331C149.269 71.7743 151.34 72.0802 152.257 72.6918ZM133.673 86.4299C133.908 86.571 134.026 87.3238 134.12 88.9705C134.214 90.97 134.167 91.3699 133.814 91.7228C133.579 91.9345 133.32 92.4756 133.25 92.8755C133.108 93.4871 132.92 93.6753 131.932 94.0282C131.297 94.2399 130.309 94.4986 129.721 94.5927C129.133 94.6868 128.309 94.8986 127.886 95.0632C126.804 95.5337 125.839 95.4631 125.345 94.9221C124.828 94.334 124.969 93.9576 126.075 93.1342C127.839 91.8169 128.145 91.3229 127.439 91.0641C126.827 90.8289 126.733 90.8759 125.44 92.0992C124.757 92.7579 124.075 93.2519 123.934 93.2048C123.793 93.1578 123.675 92.1933 123.628 90.97C123.558 88.994 123.534 88.8058 123.087 88.8058C122.805 88.8058 122.546 89.041 122.381 89.441C122.123 90.1232 122.311 91.7698 122.664 92.0051C122.781 92.0757 122.875 92.4285 122.875 92.8284C122.875 93.346 122.758 93.5106 122.428 93.5106C121.582 93.5106 121.417 92.9461 121.511 90.2408C121.558 88.1236 121.652 87.5826 122.029 87.1826C122.287 86.9004 122.57 86.6886 122.687 86.6886C122.805 86.6886 123.44 87.2062 124.099 87.8413L125.298 89.0175L126.145 88.3588C127.063 87.6531 128.521 86.9239 129.039 86.9239C129.203 86.9239 129.768 86.7592 130.285 86.571C131.344 86.1946 133.179 86.1241 133.673 86.4299ZM168.042 86.571C168.747 86.7592 169.594 86.9239 169.9 86.9239C170.206 86.9239 171.123 87.2532 171.947 87.6766L173.405 88.4294L174.37 87.559C175.381 86.6416 175.852 86.6181 176.299 87.4414C176.581 87.9825 176.628 93.5106 176.346 93.7459C176.252 93.84 175.664 93.9811 175.075 94.0517C174.017 94.1928 173.97 94.1693 173.264 93.2048C172.488 92.1227 170.347 89.8644 168.818 88.5C167.83 87.6296 167.242 87.4179 166.983 87.8648C166.795 88.1707 167.171 88.6647 169.124 90.7583C172.582 94.4281 172.958 94.9927 172.182 95.2985C171.994 95.369 171.523 95.2749 171.17 95.0632C170.465 94.6868 168.395 94.2164 167.36 94.2164C166.56 94.2164 165.713 94.8045 166.042 95.1103C166.183 95.2514 167.289 95.4631 168.512 95.6043C169.735 95.7689 170.935 95.9336 171.17 96.0042C171.688 96.1689 171.688 96.7099 171.17 96.8981C170.512 97.1569 166.842 96.7805 165.172 96.2865C163.525 95.816 162.961 95.3926 163.172 94.828C163.36 94.334 165.689 93.2754 166.56 93.2754C167.524 93.2754 167.571 92.852 166.771 91.7934C165.736 90.4525 164.937 87.5355 165.313 86.571C165.478 86.1241 166.395 86.1241 168.042 86.571ZM97.1871 87.3473C97.2341 87.512 97.0459 87.6296 96.7871 87.6296C96.2931 87.6296 96.152 87.3708 96.4578 87.065C96.6695 86.8533 97.0694 87.018 97.1871 87.3473ZM100.692 88.1001C101.186 88.3588 101.845 88.947 102.151 89.3939C102.856 90.4525 103.303 90.3819 104.009 89.0881C104.997 87.3238 105.797 87.9354 106.009 90.6172C106.173 92.452 105.985 93.8635 105.562 93.8635C105.444 93.8635 105.303 93.2754 105.232 92.5697C105.115 91.3464 105.068 91.2758 104.456 91.2053L103.774 91.1112L103.938 93.6753C104.103 96.6864 103.938 97.2039 103.021 96.3335C102.668 96.0277 102.409 95.6513 102.409 95.5102C102.409 95.1338 101.586 93.3695 100.998 92.452C100.739 92.0521 100.457 91.5817 100.363 91.3935C100.292 91.2053 99.7512 90.429 99.1866 89.6997C98.622 88.9705 98.1751 88.1942 98.1751 88.006C98.1751 87.4649 99.5865 87.512 100.692 88.1001ZM97.9398 90.2643C98.8102 91.6287 98.9749 91.8875 99.9159 93.6283C100.269 94.2634 100.81 95.2279 101.116 95.7454C101.845 96.9452 101.868 97.5097 101.186 97.5333C99.61 97.6509 98.7396 97.4156 97.093 96.4276C95.9168 95.7454 95.0699 95.3926 94.5288 95.3926C93.9642 95.3926 93.7055 95.2749 93.7055 95.0397C93.7055 94.381 94.8111 93.9105 96.4813 93.887C97.8222 93.8635 98.0574 93.7929 98.128 93.4165C98.1751 93.1578 97.9398 92.7343 97.5399 92.3579C96.7636 91.6522 95.9873 89.935 96.199 89.3939C96.4813 88.6882 97.1635 89.041 97.9398 90.2643ZM204.245 89.7703C204.857 91.5346 204.386 93.7459 203.116 95.0867C202.481 95.7454 202.458 96.9452 203.069 97.2745C203.328 97.3921 204.01 97.5097 204.598 97.5097C205.68 97.5097 207.327 98.1214 207.327 98.5213C207.327 98.8741 206.48 99.5093 205.516 99.9092C203.516 100.709 202.928 100.874 201.752 100.968C200.623 101.062 200.505 101.038 200.505 100.591C200.505 100.191 200.67 100.121 201.869 100.05C203.046 99.9798 203.21 99.9092 203.281 99.4387C203.351 98.9447 203.281 98.9212 201.587 98.9212C200.623 98.9212 199.564 99.0388 199.235 99.1799C198.764 99.3917 198.553 99.3917 198.27 99.1564C197.776 98.7565 197.823 98.3801 198.458 97.7215C199.729 96.3806 202.622 91.958 202.622 91.3229C202.622 90.7348 203.398 89.041 203.681 89.041C203.845 89.041 204.104 89.3704 204.245 89.7703ZM201.305 90.3584C201.493 90.8289 201.281 91.2053 199.07 94.4986C198.082 95.9571 197.165 97.3921 197 97.6744C196.788 98.0743 196.506 98.2155 195.918 98.2155C194.93 98.2155 194.906 98.0037 195.683 96.8511C196.412 95.7925 196.435 94.5692 195.777 93.7459C194.506 92.1698 194.153 91.417 194.389 90.8054C194.506 90.476 194.789 90.2173 195.047 90.2173C195.612 90.2173 196.529 91.2053 196.859 92.1462C196.976 92.5461 197.212 92.9225 197.376 92.9696C197.517 93.0166 198.035 92.5697 198.482 91.958C199.752 90.2878 200.999 89.5821 201.305 90.3584ZM194.483 93.8635C195.024 94.6868 194.977 96.6158 194.412 97.1333C193.659 97.8155 193.448 97.3921 193.448 95.2514C193.448 93.1107 193.73 92.7108 194.483 93.8635ZM135.767 94.5222C136.284 95.0632 136.284 95.0867 135.861 95.4631C135.367 95.9101 131.109 96.804 129.439 96.804C128.568 96.804 128.286 96.7099 128.286 96.4511C128.286 95.9571 129.062 95.6749 130.874 95.5102C132.026 95.3926 132.638 95.2044 133.344 94.6868C134.496 93.8635 135.108 93.8164 135.767 94.5222ZM96.693 97.5803C97.7516 98.5683 97.587 99.0859 96.3872 98.5683C95.5168 98.2155 94.5994 97.298 94.8111 96.9922C95.0464 96.5923 95.8697 96.8511 96.693 97.5803ZM144.988 99.274C145.929 99.7445 146.47 100.568 146.117 100.968C145.788 101.391 145.082 101.344 144.259 100.874C142.753 99.9798 142.118 101.65 143.318 103.344C143.977 104.214 145.647 105.273 146.4 105.273C146.541 105.273 146.917 105.555 147.246 105.908C148.117 106.849 149.222 107.155 150.187 106.755C150.587 106.59 151.175 106.19 151.434 105.908C151.998 105.296 153.339 104.567 153.88 104.567C155.103 104.567 156.538 102.662 156.162 101.509C155.974 100.944 154.609 100.85 154.186 101.368C153.716 101.932 152.751 102.05 152.257 101.603C151.316 100.756 151.975 100.003 154.21 99.3917C155.103 99.1564 155.48 99.1564 156.044 99.3917C156.868 99.7445 157.856 100.827 158.067 101.626C158.209 102.215 157.55 103.861 156.821 104.708C156.35 105.273 153.904 106.684 153.41 106.684C153.245 106.684 152.469 107.108 151.692 107.649C150.446 108.495 150.163 108.59 149.222 108.519C148.093 108.401 144.447 106.778 143.153 105.814C142.071 105.014 141.342 103.744 141.036 102.144C140.707 100.521 140.942 99.8621 142.001 99.3211C142.965 98.8506 144.118 98.8271 144.988 99.274Z" fill="white"/>
<path d="M131.062 87.5825C129.674 88.3824 128.286 89.6527 128.286 90.1232C128.286 90.8759 129.015 90.6642 130.732 89.3939C132.45 88.0766 132.897 87.559 132.614 87.1356C132.426 86.8298 132.285 86.8533 131.062 87.5825Z" fill="white"/>
</svg>
