<svg width="800" height="800" viewBox="0 0 800 800" fill="none" xmlns="http://www.w3.org/2000/svg">
<path d="M400 0C218.067 0 70.5812 147.509 70.5812 329.419C70.5812 511.328 329.492 800 400 800C470.483 800 729.419 511.328 729.419 329.419C729.419 147.509 581.934 0 400 0Z" fill="#FF4B4B"/>
<path fill-rule="evenodd" clip-rule="evenodd" d="M324.869 133.442C324.876 133.441 324.886 133.44 324.893 133.439C324.901 133.438 324.908 133.436 324.915 133.435L324.893 133.439L324.869 133.442Z" fill="white"/>
<path fill-rule="evenodd" clip-rule="evenodd" d="M324.869 133.442L324.83 133.448C321.805 133.908 317.965 134.491 314.329 135.023C276.98 140.292 259.159 151.45 262.258 167.877C263.498 174.851 269.232 180.739 280.235 186.628L289.688 191.743L276.36 194.997C252.96 201.041 231.264 216.538 225.994 231.415C223.825 236.994 223.67 237.149 215.766 237.149C209.412 237.149 206.623 237.924 203.214 240.869L198.874 244.588L198.409 333.542L198.374 340.881C197.992 418.851 197.952 426.988 201.972 431.534C202.441 432.064 202.964 432.545 203.549 433.082C203.642 433.168 203.737 433.255 203.833 433.344C207.708 436.909 208.483 437.064 234.673 437.064C267.527 437.064 267.837 436.909 272.486 417.692C290.308 343.615 343.618 299.448 408.862 304.562C466.511 308.902 508.044 348.419 526.021 416.142C526.123 416.533 526.224 416.916 526.322 417.291C528.419 425.289 529.668 430.053 532.712 432.889C537.195 437.067 545.572 437.066 566.287 437.064L567.863 437.064H598.083L597.618 422.186L597.153 407.309L575.612 407.154L553.916 406.844L552.211 399.87C541.208 357.718 510.523 315.1 476.585 294.799C421.259 261.635 338.194 270.778 297.902 314.326C297.802 314.428 297.705 314.529 297.61 314.627C296.387 315.895 295.521 316.794 294.917 316.643C293.447 316.275 293.532 309.692 293.826 287.091C293.841 285.932 293.856 284.731 293.872 283.486L294.337 251.562H313.554C332.732 251.097 386.347 232.172 385.329 209.314C385.329 208.231 385.035 208.092 385.035 206.93C385.009 206.266 385.035 205.186 385.616 204.024C385.983 203.289 385.816 203.243 386.197 202.862C386.778 202.281 387.321 202.126 387.94 202.281C389.103 202.862 388.522 202.281 389.335 203.52C392.008 206.93 390.885 208.325 403.438 213.284C433.812 225.371 482.474 213.749 498.901 190.503C499.247 190.01 499.568 189.547 499.869 189.113C501.562 186.669 502.628 185.131 504.089 184.384C506.535 183.134 510.105 184.083 519.653 186.619C519.998 186.711 520.351 186.805 520.712 186.9L521.077 186.997L521.124 187.01L521.267 187.048C521.703 187.163 522.151 187.282 522.611 187.403C553.451 195.617 589.559 188.488 600.407 172.061C611.41 155.479 602.267 140.757 577.007 134.093C473.95 117.433 408.862 119.758 329.826 132.698C329.077 132.805 327.754 133.005 326.083 133.258L324.932 133.433L324.915 133.435L324.893 133.439L324.869 133.442ZM264.738 311.536V356.478L259.468 367.016C256.679 372.75 251.875 384.218 249.085 392.432L243.971 407.619H236.223H228.319V337.106V266.594H246.606H264.738V311.536Z" fill="white"/>
<path d="M511.143 210.494C490.997 220.412 503.705 250.012 525.246 243.503C540.123 239.009 541.983 217.158 528.035 209.874C522.301 206.93 517.807 207.085 511.143 210.494Z" fill="white"/>
<path d="M559.805 228.626C556.86 233.12 558.1 237.924 563.059 241.179C571.273 246.603 580.881 234.36 573.907 227.231C570.033 223.357 562.749 224.132 559.805 228.626Z" fill="white"/>
<path d="M542.758 254.196C534.079 257.606 531.6 270.158 538.263 276.667C543.687 282.246 554.536 282.091 559.03 276.512C568.638 264.27 556.86 248.462 542.758 254.196Z" fill="white"/>
<path d="M347.183 327.963C344.238 329.978 343.773 331.683 343.773 340.981C343.773 355.548 345.168 356.478 368.104 356.478C390.11 356.478 391.815 355.393 391.815 340.361C391.815 326.569 390.11 325.484 367.794 325.484C354.776 325.484 349.817 326.104 347.183 327.963Z" fill="white"/>
<path d="M405.452 327.188C403.128 328.428 402.663 330.908 402.663 340.051C402.663 355.858 403.283 356.323 426.219 356.168C449.464 356.168 450.084 355.858 449.464 340.671C449.154 332.302 448.38 328.893 446.52 327.343C443.266 325.019 409.327 324.864 405.452 327.188Z" fill="white"/>
<path d="M320.837 363.917C316.033 364.692 314.174 369.186 314.484 379.414C314.949 393.051 316.033 393.671 338.349 393.671C361.285 393.671 362.37 392.897 362.37 378.794C362.37 365.002 361.595 364.382 341.449 363.917C332.15 363.607 322.852 363.607 320.837 363.917Z" fill="white"/>
<path d="M375.078 366.086C371.978 369.186 372.753 388.092 376.008 391.037C379.882 394.601 412.891 394.911 417.54 391.502C421.414 388.557 421.879 368.101 418.16 365.776C414.596 363.452 377.402 363.762 375.078 366.086Z" fill="white"/>
<path d="M433.657 365.776C429.938 368.101 430.403 388.557 434.277 391.502C437.996 394.136 470.851 394.601 475.655 392.122C479.219 390.107 480.149 369.496 476.74 366.086C474.415 363.762 437.222 363.452 433.657 365.776Z" fill="white"/>
<path d="M287.983 405.449C285.659 411.493 286.124 423.581 288.913 427.455C291.083 430.71 292.323 430.865 310.454 430.865C333.855 430.865 334.475 430.555 334.475 415.522C334.475 401.42 334.475 401.42 310.144 401.42H289.533L287.983 405.449Z" fill="white"/>
<path d="M347.183 403.28C344.083 406.379 344.858 425.286 348.113 428.23C352.142 431.95 384.841 432.104 389.955 428.385C393.829 425.751 394.914 410.408 391.815 404.364C389.8 400.8 350.747 399.715 347.183 403.28Z" fill="white"/>
<path d="M405.762 403.745C402.663 407.464 403.593 426.371 406.847 428.85C410.876 431.95 445.125 431.64 448.225 428.385C451.324 425.441 451.634 406.069 448.845 403.28C445.9 400.335 408.242 400.8 405.762 403.745Z" fill="white"/>
<path d="M463.102 404.364C462.327 406.069 461.552 411.493 461.552 416.607C461.552 430.09 462.947 430.865 486.038 430.865C508.044 430.865 509.594 429.935 509.594 415.677C509.594 401.42 509.594 401.42 485.573 401.42C466.511 401.42 464.652 401.73 463.102 404.364Z" fill="white"/>
<path d="M289.533 441.713C285.039 446.207 285.039 462.014 289.688 466.663C293.407 470.383 327.501 470.383 332.15 466.508C335.405 463.719 335.405 444.502 331.995 441.093C327.966 437.064 293.717 437.529 289.533 441.713Z" fill="white"/>
<path d="M347.803 441.093C343.618 445.277 344.393 464.339 348.887 467.128C355.086 470.848 386.236 470.538 390.11 466.663C394.759 462.014 394.759 446.207 390.265 441.713C386.081 437.528 351.832 437.064 347.803 441.093Z" fill="white"/>
<path d="M406.692 440.628C403.283 443.108 402.663 464.029 405.762 467.128C408.707 470.073 442.336 470.383 446.83 467.438C451.634 464.339 452.719 445.432 448.225 441.093C444.97 437.838 411.031 437.529 406.692 440.628Z" fill="white"/>
<path d="M464.807 441.403C461.862 443.727 461.397 445.277 461.862 454.885C462.482 468.523 464.032 469.608 485.573 469.608C507.114 469.608 508.664 468.523 509.284 454.885C509.904 439.543 508.509 438.613 485.573 438.613C471.16 438.613 467.441 439.078 464.807 441.403Z" fill="white"/>
</svg>
