<?xml version="1.0"?>
<svg viewBox="0 0 72.3 72.3" xmlns="http://www.w3.org/2000/svg" xmlns:svg="http://www.w3.org/2000/svg" enable-background="new 0 0 346.5700073 72.3000031" version="1.0" xml:space="preserve">
<path d="m41.63,0.41a36.51,36.51 0 0 0 -15.21,0.92c0.13,0.13 0.24,0.27 0.35,0.41a4.38,4.38 0 0 1 -0.94,6.11a30.28,30.28 0 0 0 -11.33,12.46l0,0.05a1.83,1.83 0 0 0 3.2,1.73a25.09,25.09 0 0 1 24.9,-11.69c4.75,-2.51 10.64,-0.7 13.15,4.05a9.73,9.73 0 0 1 1.11,3.95a28.48,28.48 0 0 1 11.45,22.82a1.88,1.88 0 0 0 3.58,0.36c2.97,-19.72 -10.56,-38.12 -30.26,-41.17z" fill="#dac5a7"/>
<path d="m51.37,13a7.31,7.31 0 1 0 1.76,10.19a7.33,7.33 0 0 0 -1.76,-10.19z" fill="#dac5a7"/>
<path d="m70.64,45.22a4.41,4.41 0 0 1 -3.22,-0.94a4.35,4.35 0 0 1 -1.61,-2.93a30.32,30.32 0 0 0 -5.14,-16a1.83,1.83 0 0 0 -3.11,1.9a25.09,25.09 0 0 1 -2.34,27.35a9.78,9.78 0 0 1 -1.1,4.14a9.73,9.73 0 0 1 -12.95,4.26a28.49,28.49 0 0 1 -25.5,-1.5a1.87,1.87 0 0 0 -2.1,2.91c15.58,12.46 38.3,9.94 50.78,-5.62a36.41,36.41 0 0 0 6.81,-13.62a4.71,4.71 0 0 1 -0.52,0.05z" fill="#dac5a7"/>
<path d="m41.29,60.22a7.31,7.31 0 0 0 11.41,-7.22a7.32,7.32 0 0 0 -7.18,-6.06a6.71,6.71 0 0 0 -1.26,0.11a7.21,7.21 0 0 0 -4.73,3a7.32,7.32 0 0 0 1.76,10.17z" fill="#dac5a7"/>
<path d="m33.21,59.17a25.09,25.09 0 0 1 -22.58,-15.74a9.73,9.73 0 0 1 -4.33,-10.35a9.61,9.61 0 0 1 4.12,-6a28.45,28.45 0 0 1 14.05,-21.33a1.83,1.83 0 0 0 0.63,-1.25a1.8,1.8 0 0 0 -0.43,-1.37a1.86,1.86 0 0 0 -1.67,-0.65c-18.6,7.26 -27.8,28.22 -20.54,46.82a36.15,36.15 0 0 0 8.4,12.7a5.1,5.1 0 0 1 0.19,-0.5a4.3,4.3 0 0 1 2.41,-2.31a4.4,4.4 0 0 1 1.59,-0.3a4.35,4.35 0 0 1 1.76,0.37a30.21,30.21 0 0 0 16.49,3.55a1.83,1.83 0 0 0 -0.09,-3.64z" fill="#dac5a7"/>
<path d="m20,29.22a7.3,7.3 0 1 0 3,4.72a7.26,7.26 0 0 0 -3,-4.72z" fill="#dac5a7"/>
</svg>