<svg xmlns="http://www.w3.org/2000/svg" width="800" height="800" fill="none" viewBox="0 0 800 800"><path fill="#ff9505" d="M400 0C218.067 0 70.581 147.509 70.581 329.419 70.581 511.328 329.492 800 400 800c70.483 0 329.419-288.672 329.419-470.581C729.419 147.509 581.934 0 400 0"/><g fill="#fff" clip-path="url(#a)"><path d="M559.123 341.462c-25.328 12.47-9.352 49.676 17.723 41.493 18.704-5.644 21.042-33.109 3.507-42.272-7.202-3.696-12.859-3.507-21.23.779m23.776-31.217-.011.014c-3.69 5.642-2.13 11.684 4.102 15.767 10.32 6.813 22.4-8.572 13.638-17.534-4.874-4.863-14.019-3.898-17.718 1.739zm-201.187 93.878h-44.547a5.38 5.38 0 0 0-5.38 5.38v19.408a5.38 5.38 0 0 0 5.38 5.38h44.547a5.38 5.38 0 0 0 5.38-5.38v-19.408a5.38 5.38 0 0 0-5.38-5.38m62.586 0H399.75a5.38 5.38 0 0 0-5.38 5.38v19.408a5.38 5.38 0 0 0 5.38 5.38h44.548a5.38 5.38 0 0 0 5.379-5.38v-19.408a5.38 5.38 0 0 0-5.379-5.38m-92.753 39.381h-44.548a5.38 5.38 0 0 0-5.38 5.38v19.408a5.38 5.38 0 0 0 5.38 5.38h44.548a5.38 5.38 0 0 0 5.38-5.38v-19.408a5.38 5.38 0 0 0-5.38-5.38m62.585 0h-44.548a5.38 5.38 0 0 0-5.379 5.38v19.408a5.38 5.38 0 0 0 5.379 5.38h44.548a5.38 5.38 0 0 0 5.38-5.38v-19.408a5.38 5.38 0 0 0-5.38-5.38m62.61 0h-44.547a5.38 5.38 0 0 0-5.38 5.38v19.408a5.38 5.38 0 0 0 5.38 5.38h44.547a5.38 5.38 0 0 0 5.38-5.38v-19.408a5.38 5.38 0 0 0-5.38-5.38m-154.118 39.382h-44.548a5.38 5.38 0 0 0-5.38 5.379v19.408a5.38 5.38 0 0 0 5.38 5.38h44.548a5.38 5.38 0 0 0 5.379-5.38v-19.408a5.38 5.38 0 0 0-5.379-5.379m63.829 0h-44.547a5.38 5.38 0 0 0-5.38 5.379v19.408a5.38 5.38 0 0 0 5.38 5.38h44.547a5.38 5.38 0 0 0 5.38-5.38v-19.408a5.38 5.38 0 0 0-5.38-5.379m62.61 0h-44.547a5.38 5.38 0 0 0-5.38 5.379v19.408a5.38 5.38 0 0 0 5.38 5.38h44.547a5.38 5.38 0 0 0 5.38-5.38v-19.408a5.38 5.38 0 0 0-5.38-5.379m61.919 0h-44.547a5.38 5.38 0 0 0-5.38 5.379v19.408a5.38 5.38 0 0 0 5.38 5.38h44.547a5.38 5.38 0 0 0 5.38-5.38v-19.408a5.38 5.38 0 0 0-5.38-5.379m-187.893 38.853h-44.548a5.38 5.38 0 0 0-5.38 5.38v19.407a5.38 5.38 0 0 0 5.38 5.38h44.548a5.38 5.38 0 0 0 5.379-5.38v-19.407a5.38 5.38 0 0 0-5.379-5.38m63.829 0h-44.547a5.38 5.38 0 0 0-5.38 5.38v19.407a5.38 5.38 0 0 0 5.38 5.38h44.547a5.38 5.38 0 0 0 5.38-5.38v-19.407a5.38 5.38 0 0 0-5.38-5.38m62.611 0h-44.548a5.38 5.38 0 0 0-5.38 5.38v19.407a5.38 5.38 0 0 0 5.38 5.38h44.548a5.38 5.38 0 0 0 5.379-5.38v-19.407a5.38 5.38 0 0 0-5.379-5.38m63.176 0h-44.548a5.38 5.38 0 0 0-5.38 5.38v19.407a5.38 5.38 0 0 0 5.38 5.38h44.548a5.38 5.38 0 0 0 5.379-5.38v-19.407a5.38 5.38 0 0 0-5.379-5.38m-304.078 11.097a2 2 0 0 0 2 2h17.307a2 2 0 0 0 2-2v-142.74a2 2 0 0 0-2-2h-17.307a2 2 0 0 0-2 2zm43.932 3.987c0 11.399-9.241 20.639-20.64 20.639H206.64c-11.399 0-20.64-9.24-20.64-20.639V386.111c0-11.399 9.241-20.64 20.64-20.64h25.277c11.399 0 20.64 9.241 20.64 20.64z"/><path d="M391.834 349.784c66.619.014 107.892 33.015 132.506 70.772 23.869 36.614 32.201 77.715 34.348 98.029a1.7 1.7 0 0 0 .212.681q.085.147.202.33c.591.922 1.527 2.067 2.701 3.186 1.179 1.123 2.333 1.967 3.229 2.466l.136.074c.248.131.527.187.808.187h30.654a2 2 0 0 1 2 2v18.626a2 2 0 0 1-2 2h-31.725c-4.345 0-8.172-1.612-10.875-3.116-2.881-1.602-5.555-3.683-7.834-5.855-2.285-2.177-4.437-4.696-6.142-7.356-1.568-2.446-3.38-5.966-3.778-10.01-1.768-17.824-9.293-55.756-30.89-88.885-21.244-32.587-55.949-60.493-113.558-60.504-35.271-.012-61.029 10.211-80.109 25.053-19.242 14.967-32.351 35.154-41.253 55.933-8.901 20.778-13.407 41.714-15.67 57.563-1.127 7.895-1.687 14.454-1.966 19.003a163 163 0 0 0-.241 5.211 86 86 0 0 0-.031 1.6c0 .028-.028.056-.056.055-.272-.002-1.869-.004-11.258-.004-11.239 0-11.312-.006-11.312-.012v-.193l.005-.456c.005-.386.016-.935.036-1.636.04-1.402.118-3.413.273-5.947.31-5.064.926-12.237 2.152-20.82 2.442-17.107 7.349-40.113 17.271-63.273 9.922-23.159 25.048-46.906 48.158-64.883 23.272-18.102 53.984-29.831 94.005-29.818z"/><path fill-rule="evenodd" d="M229.381 373.078q-.002-.003-.001-.006c6.248-11.299 20.488-24.207 31.876-30.277 11.954-6.373 27.968-4.676 40.361-1.044 22.086 6.486 43.253.591 58.588-16.579 4.714-5.28 8.523-11.389 13.865-16.027 9.377-8.145 22.412-10.772 34.831-10.76s24.725 2.364 37.144 2.829c28.521 1.068 56.539-14.908 67.487-29.741 4.211-5.706 9.591-14.845 12.319-14.958 19.169-.804 26.974 5.116 46.043 2.954 63.804-7.202 66.771-85.06 63.05-100.207-16.73-68.103-103.839-88.039-142.177-82.344-38.338 5.694-69.436 40.06-85.224 61.78-5.09 7.002-14.09 9.918-22.286 7.152-26.095-8.798-63.352-8.346-99.402 8.435-23.996 11.162-41.003 37.207-50.795 59.166-4.726 10.609-6.687 23.066-2.338 33.838 5.028 12.469 8.535 30.758-18.038 36.666-10.495 2.338-20.036 10.207-23.983 20.213-5.103 12.946 7.479 46.835 15.574 58.16 5.93 8.297 22.812 10.717 23.112 10.759.005.001-.003-.006-.006-.009" clip-rule="evenodd"/></g><defs><clipPath id="a"><path fill="#fff" d="M186 76h450v481.462H186z"/></clipPath></defs></svg>