<svg width="800" height="800" viewBox="0 0 800 800" fill="none" xmlns="http://www.w3.org/2000/svg">
<path d="M400 0C218.067 0 70.5812 147.509 70.5812 329.419C70.5812 511.328 329.492 800 400 800C470.483 800 729.419 511.328 729.419 329.419C729.419 147.509 581.934 0 400 0Z" fill="#FFAA22"/>
<g clip-path="url(#clip0_983_16)">
<path d="M559.123 341.462C533.795 353.932 549.771 391.138 576.846 382.955C595.55 377.311 597.888 349.846 580.353 340.683C573.151 336.987 567.494 337.176 559.123 341.462Z" fill="white"/>
<path d="M582.899 310.245C582.895 310.249 582.891 310.254 582.888 310.259C579.198 315.901 580.758 321.943 586.99 326.026C597.31 332.839 609.39 317.454 600.628 308.492C595.754 303.629 586.609 304.594 582.91 310.231C582.907 310.236 582.903 310.241 582.899 310.245Z" fill="white"/>
<path d="M381.712 404.123H337.165C334.194 404.123 331.785 406.532 331.785 409.503V428.911C331.785 431.882 334.194 434.291 337.165 434.291H381.712C384.684 434.291 387.092 431.882 387.092 428.911V409.503C387.092 406.532 384.684 404.123 381.712 404.123Z" fill="white"/>
<path d="M444.298 404.123H399.75C396.779 404.123 394.37 406.532 394.37 409.503V428.911C394.37 431.882 396.779 434.291 399.75 434.291H444.298C447.269 434.291 449.677 431.882 449.677 428.911V409.503C449.677 406.532 447.269 404.123 444.298 404.123Z" fill="white"/>
<path d="M351.545 443.504H306.997C304.026 443.504 301.617 445.913 301.617 448.884V468.292C301.617 471.263 304.026 473.672 306.997 473.672H351.545C354.516 473.672 356.925 471.263 356.925 468.292V448.884C356.925 445.913 354.516 443.504 351.545 443.504Z" fill="white"/>
<path d="M414.13 443.504H369.582C366.611 443.504 364.203 445.913 364.203 448.884V468.292C364.203 471.263 366.611 473.672 369.582 473.672H414.13C417.101 473.672 419.51 471.263 419.51 468.292V448.884C419.51 445.913 417.101 443.504 414.13 443.504Z" fill="white"/>
<path d="M476.74 443.504H432.193C429.222 443.504 426.813 445.913 426.813 448.884V468.292C426.813 471.263 429.222 473.672 432.193 473.672H476.74C479.711 473.672 482.12 471.263 482.12 468.292V448.884C482.12 445.913 479.711 443.504 476.74 443.504Z" fill="white"/>
<path d="M322.622 482.886H278.074C275.103 482.886 272.694 485.294 272.694 488.265V507.673C272.694 510.645 275.103 513.053 278.074 513.053H322.622C325.593 513.053 328.001 510.645 328.001 507.673V488.265C328.001 485.294 325.593 482.886 322.622 482.886Z" fill="white"/>
<path d="M386.451 482.886H341.904C338.932 482.886 336.524 485.294 336.524 488.265V507.673C336.524 510.645 338.932 513.053 341.904 513.053H386.451C389.422 513.053 391.831 510.645 391.831 507.673V488.265C391.831 485.294 389.422 482.886 386.451 482.886Z" fill="white"/>
<path d="M449.061 482.886H404.514C401.543 482.886 399.134 485.294 399.134 488.265V507.673C399.134 510.645 401.543 513.053 404.514 513.053H449.061C452.033 513.053 454.441 510.645 454.441 507.673V488.265C454.441 485.294 452.033 482.886 449.061 482.886Z" fill="white"/>
<path d="M510.98 482.886H466.433C463.462 482.886 461.053 485.294 461.053 488.265V507.673C461.053 510.645 463.462 513.053 466.433 513.053H510.98C513.952 513.053 516.36 510.645 516.36 507.673V488.265C516.36 485.294 513.952 482.886 510.98 482.886Z" fill="white"/>
<path d="M323.087 521.739H278.539C275.568 521.739 273.159 524.147 273.159 527.119V546.526C273.159 549.498 275.568 551.906 278.539 551.906H323.087C326.058 551.906 328.466 549.498 328.466 546.526V527.119C328.466 524.147 326.058 521.739 323.087 521.739Z" fill="white"/>
<path d="M386.916 521.739H342.369C339.397 521.739 336.989 524.147 336.989 527.119V546.526C336.989 549.498 339.397 551.906 342.369 551.906H386.916C389.887 551.906 392.296 549.498 392.296 546.526V527.119C392.296 524.147 389.887 521.739 386.916 521.739Z" fill="white"/>
<path d="M449.527 521.739H404.979C402.008 521.739 399.599 524.147 399.599 527.119V546.526C399.599 549.498 402.008 551.906 404.979 551.906H449.527C452.498 551.906 454.906 549.498 454.906 546.526V527.119C454.906 524.147 452.498 521.739 449.527 521.739Z" fill="white"/>
<path d="M512.703 521.739H468.155C465.184 521.739 462.775 524.147 462.775 527.119V546.526C462.775 549.498 465.184 551.906 468.155 551.906H512.703C515.674 551.906 518.082 549.498 518.082 546.526V527.119C518.082 524.147 515.674 521.739 512.703 521.739Z" fill="white"/>
<path d="M208.625 532.836C208.625 533.941 209.521 534.836 210.625 534.836H227.932C229.037 534.836 229.932 533.941 229.932 532.836V390.096C229.932 388.992 229.037 388.096 227.932 388.096H210.625C209.521 388.096 208.625 388.992 208.625 390.096V532.836ZM252.557 536.823C252.557 548.222 243.316 557.462 231.917 557.462H206.64C195.241 557.462 186 548.222 186 536.823V386.111C186 374.712 195.241 365.471 206.64 365.471H231.917C243.316 365.471 252.557 374.712 252.557 386.111V536.823Z" fill="white"/>
<path d="M391.834 349.784C458.453 349.798 499.726 382.799 524.34 420.556C548.209 457.17 556.541 498.271 558.688 518.585C558.713 518.827 558.779 519.055 558.9 519.266C558.957 519.364 559.023 519.474 559.102 519.596C559.693 520.518 560.629 521.663 561.803 522.782C562.982 523.905 564.136 524.749 565.032 525.248C565.079 525.274 565.124 525.299 565.168 525.322C565.416 525.453 565.695 525.509 565.976 525.509H596.63C597.735 525.509 598.63 526.405 598.63 527.509V546.135C598.63 547.24 597.735 548.135 596.63 548.135H564.905C560.56 548.135 556.733 546.523 554.03 545.019C551.149 543.417 548.475 541.336 546.196 539.164C543.911 536.987 541.759 534.468 540.054 531.808C538.486 529.362 536.674 525.842 536.276 521.798C534.508 503.974 526.983 466.042 505.386 432.913C484.142 400.326 449.437 372.42 391.828 372.409C356.557 372.397 330.799 382.62 311.719 397.462C292.477 412.429 279.368 432.616 270.466 453.395C261.565 474.173 257.059 495.109 254.796 510.958C253.669 518.853 253.109 525.412 252.83 529.961C252.691 532.233 252.623 533.998 252.589 535.172C252.572 535.758 252.565 536.195 252.561 536.474C252.559 536.614 252.558 536.714 252.558 536.772C252.558 536.8 252.53 536.828 252.502 536.827C252.23 536.825 250.633 536.823 241.244 536.823C230.005 536.823 229.932 536.817 229.932 536.811V536.618C229.933 536.507 229.934 536.355 229.937 536.162C229.942 535.776 229.953 535.227 229.973 534.526C230.013 533.124 230.091 531.113 230.246 528.579C230.556 523.515 231.172 516.342 232.398 507.759C234.84 490.652 239.747 467.646 249.669 444.486C259.591 421.327 274.717 397.58 297.827 379.603C321.099 361.501 351.811 349.772 391.832 349.785L391.834 349.784Z" fill="white"/>
<path fill-rule="evenodd" clip-rule="evenodd" d="M229.381 373.078C229.38 373.076 229.379 373.074 229.38 373.072C235.628 361.773 249.868 348.865 261.256 342.795C273.21 336.422 289.224 338.119 301.617 341.751C323.703 348.237 344.87 342.342 360.205 325.172C364.919 319.892 368.728 313.783 374.07 309.145C383.447 301 396.482 298.373 408.901 298.385C421.32 298.398 433.626 300.749 446.045 301.214C474.566 302.282 502.584 286.306 513.532 271.473C517.743 265.767 523.123 256.628 525.851 256.515C545.02 255.711 552.825 261.631 571.894 259.469C635.698 252.267 638.665 174.409 634.944 159.262C618.214 91.1591 531.105 71.2234 492.767 76.9175C454.429 82.6117 423.331 116.978 407.543 138.698C402.453 145.7 393.453 148.616 385.257 145.85C359.162 137.052 321.905 137.504 285.855 154.285C261.859 165.447 244.852 191.492 235.06 213.451C230.334 224.06 228.373 236.517 232.722 247.289C237.75 259.758 241.257 278.047 214.684 283.955C204.189 286.293 194.648 294.162 190.701 304.168C185.598 317.114 198.18 351.003 206.275 362.328C212.205 370.625 229.087 373.045 229.387 373.087C229.392 373.088 229.384 373.081 229.381 373.078Z" fill="white"/>
</g>
<defs>
<clipPath id="clip0_983_16">
<rect width="450" height="481.462" fill="white" transform="translate(186 76)"/>
</clipPath>
</defs>
</svg>
