<svg xmlns="http://www.w3.org/2000/svg" viewBox="0 0 812.79 130.46"><defs><style>.cls-1,.cls-2,.cls-3{fill:#c73121;}.cls-1{fill-rule:evenodd;}.cls-2{stroke:#c73121;stroke-miterlimit:5;stroke-width:0.22px;}</style></defs><g id="Layer_2" data-name="Layer 2"><g id="Layer_1-2" data-name="Layer 1"><path class="cls-1" d="M33.76,133.36l0-10.18c-5.85-.07-6.53.32-10.69,0-1.69-.86-2.76-.31-4-1.34-2.09.82-4.48,1.29-6.57.24l-.05-5.74c-.76-3.86-1.1-29.44-.77-33.63.75-28.93,2.73-1.32,2.36-31.2,0-11.08-1-24.91.38-35.63l18,.17V7.42c-5.34,0-22.9-3-27.13,1.33C.72,13.38,2.94,6.2.31,11.36L6,11.65c1.29,5.52,1.85,42,1.49,50.91-.36,17.52-1,21-1.3,29.75C4.8,107.58,6,100.8,3,113.64c-1.17,5,1.06,3.79-2.13,7A8.66,8.66,0,0,1,3,126.85c0,3.49-1.28,2.66-3,5.47,13.81,1.08,6-.91,11-1.1l1.36.08,1.45,0c7.17.3,10.48,4.9,16.49,2.59,2-.4-.46-.86,3.45-.55ZM32.39,7.42c4,1.48,10.82.65,15.85.39,5.6-.29,38.56,2.62,44.37-2.17l.7-.36c0-.07.1,1.82.15,1.89,4.21-1.32,6.51,1.11,11.65.52,10.94-1.25,29.24,2.36,34.9.92l.46,43.82c-.49,12.09,1-7.09.42,14.43.36,3.79-.61,7.67-.49,11.87.11,4,.57,8.18.72,11.94.3,7.94-.45,16-.37,23.69.08,8-.11,11.62-.44,19.62-3.78-.51-5.36,1.05-7.43,1.76l1.11-2c-5-.05-7.9-.22-12.84.08-5.29.32-8.18-.6-12.28-1.48-4.54-1-39.39.37-49.56.48-3.58,0-.89.8-5.46.35-4.85-.47-15.62-.94-20.07.23v-10.2c3.19-.19,6.65,0,9.86,0a95.16,95.16,0,0,0,10.48-.75c6.93-.69,17.11,1,22.19.18,7.14-1.19,14.83-.08,21.89-.31,6.17-.2,16.81-.72,22.62-.27l3.42.89c-.18-.18-.45-.38-.56-.51s-.39-.37-.51-.53L122,119.5c4,.78,1.63,4.86,2.93,2.22.07-.16.27.44.43.64l6.29-.33c-.47-5.47,0-10.88.13-16.77l.6-43.93c.3-25.33.23,10.13.59-44.07-4.32,1.19-4.21-1.69-9.84,1.48-.11-.08-2-1.24-2.1-1.26a23.53,23.53,0,0,0-12.28-.87c-7.6,1.15-19.36,1.09-27.16.45-7.15-.59-14.77-.38-22.08-.31-4.18,0-16.19-1.45-19,1.09-5.18-2.15-1.29-1.79-8.15-1.76Z" transform="translate(0 -5.28)"/><path class="cls-1" d="M57.7,42.88c-.42-1.21.23-2.57.54-3.53L70,40.41l.3,5.93a84.25,84.25,0,0,1-9.57-1.5c-3.37-.85-2.09.92-3.07-2ZM29.23,41.75c3.49-.84,7.31-2,10.52-1l0,3.41c-2.14,1.88-8.87,3.28-10.86,3.25l.3-5.63ZM52.81,34c.1-1.73.27-3.42.32-5.15.15-5,.93-8-5.8-7.27L46.84,33c-7.12,2.64-16.82-.45-21.76,6.05-4.8,6.32,2.18,31.45-.69,51.74-.69,4.91-4.25,19.26-2.7,22.67,4.76-2.16,5.07-6.47,6.19-12,3.32-16.49-1.76-13.37,2-13.33-.71-8.17.85-17.3-.77-22.64-1.12-3.69,1-2.54-.17-6.48-.71-2.48.42-1.34-2.1-2.57,3-2.42.94-.07,2.53-4.25,6.62-1.7,11.81-.93,16.81-5.71l-.57-7c5,.24,3.75.34,7.33-1,.2,4.79-.54,8.76,4.72,10.54a104.24,104.24,0,0,0,12.82,2.39c2,16.09-1,48.15,4,61.33l4.5,1.6c0-4.44,1-4.53,0-9.6L75.29,60.25c0-4.69,1.29-14.28.2-18.76L72,41.1c3.68-.91.92.79,2.8-2.06a24.06,24.06,0,0,0-4-3.34C66.74,33,57.83,33.47,52.81,34Z" transform="translate(0 -5.28)"/><path class="cls-1" d="M57.54,56.09s.91-4,1-5.39l-3.93-.28c-2.69,2.76-5.12,12.11-5,15.71-2.36-2.19-.53.2-2-2.41-.53-1,.35-.81-1.91-4.33,2.14-1.27,1.57-2,1.38-5.93l-3.45-1.87c-.12-.32-.51-.13-.78-.18l-2.14,4.37c-.06-.13-.25.46-.4.67a24.09,24.09,0,0,0-5.78.73c-3.82,1.45-2,1.56-1.31,3.55,5.14,1.41,11.75-5.14,9.88,5.56-3.07,1.33-4.44,0-8,1.59.78,1.73-.71,1.86,2.78,2.74.4.1,4.1.24,5,.3.18-.19.47-.43.57-.53l1.13-1.2c0,.28-1.77-.72.46.88,2.66,1.91,2.21-1.17,2.36,5.61l-11.17.1a24.73,24.73,0,0,1-1.81,3c3.51,1.4,8.41,1.36,12.84,1.4,0,9,1.57,7-2.24,18.48S38.49,110,40.35,116.46c3.73-.84,1.5.3,2.78-1.78l.42-1.22c.11-.24.37-.94.46-1.18L50.5,99.49c.08.22.28.94.36,1.19l2.5,8c1.71,5.38,1.8,7.46,4.8,9,3.17-2,2.93-3.28.86-9.08-1.11-3.11-2.38-5.35-3.32-8.48C54.55,96.24,51.17,87.75,53,82c.68-2.23-1.21-2,7.7-1.77,5.84.15,4.76-1.34,5.63-3.63-7.19-3.07-6.55-.64-13.56-1.25l-.18-4.49c5.8.18,13.38,1.08,10.86-3s-9.93-2.15-11-2.1l1.69-5.4c6.36-.33,9.55,3.93,13-.92-1.36-1.62.67-.59-2.09-1.65Z" transform="translate(0 -5.28)"/><path class="cls-1" d="M65,106.55c5.46-3.84,1-7.47-.94-13-1.8-5.19-1.43-10.26-6.61-11.64C55.74,88.3,59.09,94.53,61.45,101l2.91,5.1C64.44,106,64.75,106.4,65,106.55Z" transform="translate(0 -5.28)"/><path class="cls-1" d="M33.56,108.27c3.5-1.75,4.44-5.84,6-10.66l3.3-9.4c.53-2.74.49-.45-.47-3-4.29-.6-4.5.74-5.4,3.43C34.84,95.09,30.83,105.51,33.56,108.27Z" transform="translate(0 -5.28)"/><path class="cls-1" d="M109.33,64.69l1.78-.92c-.58.85,1.37,2.59-1.78.92Zm.33-7.57c.25-.36,1.66.9,1.08,1-.08,0-1.68,0-1.08-1Zm12.15-12.39c-4.59-.08-.73.71-2.49-1.54a13.62,13.62,0,0,1,2.49,1.54Zm-4.26-1.53-3.37.22c.75.66-1,.83,1.25.69,2-.12.68.1,2.12-.91Zm10,4.82c2-8.93-6.16-7-18.84-5.87-7.48.67-9.44.13-12.4,5.61.25.1.43.1.61.19,5.06,2.46,2.34,3.23.23,5.28l-5.51,9C87,73.4,84.47,108,88.28,113.77c3.4-.24,3.45-.23,4.24-4a30.9,30.9,0,0,0,.26-7c-.15-5.32-.66-10.6-.65-16,0-7.3.16-8.64,1.79-15.57s1.33-5.53,4.68-11.43a20.63,20.63,0,0,1,9.31-.34c.32,2.45,1.35,3.69-3.58,8.63-3.28,3.3-3.5,2.28-3.13,8.52.8,13.38,7,22.54,15.9,31.4.79.78,5.66,4.93,6.62,5.27,4.14,1.49,4.4-2.2,4.41-5.64-1.82-1.28-2.34-2.2-3.88-3.36s-3.15-2-4.06-2.73a37.91,37.91,0,0,1-14.07-26.65c5.62-3.71,8.21-6.31,8.26-13.5.06-8.54-6-7.17-9.38-12.77C109.77,45.19,122.13,48.79,127.59,48Z" transform="translate(0 -5.28)"/><path class="cls-1" d="M85.38,27.15c-1.36,4.38-.84,2.49,0,7,5.85-.31,11.44-1.64,17.3-2,6.16-.44,13.55.81,19.14.09.75-11.7-8-3.72-25.09-4.89C92.08,27,89.75,26.41,85.38,27.15Z" transform="translate(0 -5.28)"/><path class="cls-1" d="M91,46.87c0-.82,1.27-.95,1,0s-.93,1.58-1,0Zm-6.44-1.08c-1.5-1.14-1.33-.39-1.73-.81,3.65-.47,1.31-.67,1.73.81Zm15.92-2.47c-5.2-1.46-16.9-.91-21,1.33l-.07,5.1C84.68,51.26,85.91,51,93.66,49c3.18-.82,1.76.42,2.69-1.21.73-1.13.76-1.22,1.19-1.94A28.19,28.19,0,0,1,100.48,43.32Z" transform="translate(0 -5.28)"/><path class="cls-2" d="M156.14,14.14H166V81.08h-9.84Zm7.8,32h2.27l40.87-32H220.9L181.66,44.48l-.56-.14L163.94,58.07Zm11.36,1.16,7.33-6.17,40.59,40H209.81Z" transform="translate(0 -5.28)"/><path class="cls-2" d="M258.47,14.14h8v9.65h-2.74L235.33,81.08H224.89ZM243.21,54.68h41.15l3.8,7.79H239.41ZM263.9,23.79V14.14h5.24l33.59,66.94H292.29Z" transform="translate(0 -5.28)"/><path class="cls-2" d="M310.19,14.14h11.69l30.06,55.8h.28l30-55.8h11.65V81.08H384.6V28.8h-4.22l9.69-11.27L356,81.08h-7.84L314,17.53l9.65,11.27h-4.13V81.08h-9.37Z" transform="translate(0 -5.28)"/><path class="cls-2" d="M435,14.14h8v9.65h-2.74L411.87,81.08H401.44ZM419.76,54.68H460.9l3.81,7.79H416Zm20.69-30.89V14.14h5.24l33.58,66.94H468.84Z" transform="translate(0 -5.28)"/><path class="cls-2" d="M486.74,14.14h11.69l30.06,55.8h.28l30-55.8h11.64V81.08h-9.27V28.8h-4.22l9.69-11.27L532.53,81.08h-7.84l-34.1-63.55,9.65,11.27h-4.13V81.08h-9.37Z" transform="translate(0 -5.28)"/><path class="cls-2" d="M599.6,78.06a32.66,32.66,0,0,1-14-12.06,33.46,33.46,0,0,1-5-18.37v-.09a33.35,33.35,0,0,1,5-18.35,32.73,32.73,0,0,1,14-12q9-4.27,21.15-4.27t21.13,4.27a32.81,32.81,0,0,1,14,12,33.2,33.2,0,0,1,5,18.35v.09a33.31,33.31,0,0,1-5,18.37,32.77,32.77,0,0,1-14,12.06q-9,4.27-21.16,4.27T599.6,78.06Zm37-7.56a24.38,24.38,0,0,0,10.46-9.07,25.21,25.21,0,0,0,3.71-13.8v-.09a25,25,0,0,0-3.73-13.78,24.68,24.68,0,0,0-10.48-9,40.83,40.83,0,0,0-31.69,0,24.62,24.62,0,0,0-10.48,9,25,25,0,0,0-3.74,13.78v.09a25.14,25.14,0,0,0,3.74,13.8,24.55,24.55,0,0,0,10.48,9.07,40.93,40.93,0,0,0,31.73,0Z" transform="translate(0 -5.28)"/><path class="cls-2" d="M690.66,22.58H661.85V14.14h67.36v8.44H700.49v58.5h-9.83Z" transform="translate(0 -5.28)"/><path class="cls-2" d="M749.06,78.06A32.66,32.66,0,0,1,735.1,66a33.47,33.47,0,0,1-5-18.37v-.09a33.35,33.35,0,0,1,5-18.35,32.73,32.73,0,0,1,14-12q9-4.27,21.15-4.27t21.13,4.27a32.93,32.93,0,0,1,14,12,33.28,33.28,0,0,1,5,18.35v.09a33.39,33.39,0,0,1-5,18.37,32.86,32.86,0,0,1-14,12.06q-9,4.27-21.15,4.27T749.06,78.06Zm37-7.56a24.38,24.38,0,0,0,10.46-9.07,25.29,25.29,0,0,0,3.71-13.8v-.09a25.13,25.13,0,0,0-3.73-13.78,24.65,24.65,0,0,0-10.49-9,40.8,40.8,0,0,0-31.68,0,24.62,24.62,0,0,0-10.48,9,25,25,0,0,0-3.74,13.78v.09a25.14,25.14,0,0,0,3.74,13.8,24.55,24.55,0,0,0,10.48,9.07,40.93,40.93,0,0,0,31.73,0Z" transform="translate(0 -5.28)"/><path class="cls-3" d="M186.24,132.62V119.85H174.73l-11.49,12.77h-6L169,119.54a11.61,11.61,0,0,1-7.54-3.13,9.52,9.52,0,0,1-2.79-7.09v0a10.35,10.35,0,0,1,1.45-5.58,9.58,9.58,0,0,1,4.16-3.62,14.82,14.82,0,0,1,6.36-1.28h20.61v33.82Zm0-29.65H171.31a8.53,8.53,0,0,0-5.64,1.67,5.83,5.83,0,0,0-2,4.73v0a5.72,5.72,0,0,0,2,4.64,8.56,8.56,0,0,0,5.62,1.66h14.93Z" transform="translate(0 -5.28)"/><path class="cls-3" d="M227.44,132.62V103.07H203v29.55h-4.9V98.8h34.27v33.82Z" transform="translate(0 -5.28)"/><path class="cls-3" d="M247.5,131.1a16.52,16.52,0,0,1-7.05-6.1,16.91,16.91,0,0,1-2.51-9.28v0a16.82,16.82,0,0,1,2.51-9.26,16.56,16.56,0,0,1,7.05-6.09,27.63,27.63,0,0,1,21.37,0,16.17,16.17,0,0,1,9.59,15.35v0a16.83,16.83,0,0,1-2.52,9.28,16.6,16.6,0,0,1-7.06,6.1,27.65,27.65,0,0,1-21.38,0Zm18.72-3.82a12.35,12.35,0,0,0,5.28-4.59,12.75,12.75,0,0,0,1.88-7v0a12.64,12.64,0,0,0-1.89-7,12.5,12.5,0,0,0-5.3-4.57,20.68,20.68,0,0,0-16,0,12.5,12.5,0,0,0-5.3,4.57,12.64,12.64,0,0,0-1.89,7v0a12.67,12.67,0,0,0,1.89,7,12.4,12.4,0,0,0,5.3,4.59,20.76,20.76,0,0,0,16,0Z" transform="translate(0 -5.28)"/><path class="cls-3" d="M284,98.8h5v14.41h25.4V98.8h5v33.82h-5V117.48H289v15.14h-5Z" transform="translate(0 -5.28)"/><path class="cls-3" d="M334.31,131.08a16.11,16.11,0,0,1-6.92-6.1A17.33,17.33,0,0,1,325,115.7v0a17.21,17.21,0,0,1,2.43-9.26,16.12,16.12,0,0,1,6.91-6.09A27.46,27.46,0,0,1,354,99.7a16.91,16.91,0,0,1,6.48,4.33,13.35,13.35,0,0,1,3.26,6.58l0,.26h-5l-.09-.26a10.71,10.71,0,0,0-2.69-4.4,11.83,11.83,0,0,0-4.59-2.75,20,20,0,0,0-6.39-.93,18,18,0,0,0-8,1.63,12.07,12.07,0,0,0-5.16,4.58,12.89,12.89,0,0,0-1.82,6.93v0a13,13,0,0,0,1.82,7,12.11,12.11,0,0,0,5.18,4.6,17.85,17.85,0,0,0,7.95,1.64,18.88,18.88,0,0,0,6.33-1A12.51,12.51,0,0,0,356,125.1a10.78,10.78,0,0,0,2.73-4.53l.07-.16h5l0,.26a13.68,13.68,0,0,1-3.27,6.65,16.62,16.62,0,0,1-6.48,4.37,27.05,27.05,0,0,1-19.67-.61Z" transform="translate(0 -5.28)"/><path class="cls-3" d="M369.1,132.62V98.8h5v14.53h3.64L394.15,98.8h6.49l-19.31,16.78.09-1,20.65,18.09h-6.91L377.7,117.39h-3.64v15.23Z" transform="translate(0 -5.28)"/><path class="cls-3" d="M420.38,98.8h4v4.87H423l-14.35,29h-5.27Zm-7.71,20.48h20.79l1.92,3.94H410.74Zm10.45-15.61V98.8h2.65l17,33.82h-5.28Z" transform="translate(0 -5.28)"/><path class="cls-3" d="M473.77,132.62V119.85H462.26l-11.48,12.77h-6l11.67-13.08a11.61,11.61,0,0,1-7.54-3.13,9.52,9.52,0,0,1-2.79-7.09v0a10.35,10.35,0,0,1,1.45-5.58,9.58,9.58,0,0,1,4.16-3.62,14.84,14.84,0,0,1,6.37-1.28h20.6v33.82Zm0-29.65H458.84a8.53,8.53,0,0,0-5.64,1.67,5.83,5.83,0,0,0-2,4.73v0a5.7,5.7,0,0,0,2,4.64,8.51,8.51,0,0,0,5.61,1.66h14.93Z" transform="translate(0 -5.28)"/><path class="cls-3" d="M497.89,132.62V98.8h5v14.53h3.64L522.94,98.8h6.49l-19.31,16.78.09-1,20.65,18.09H524l-17.46-15.23h-3.64v15.23Z" transform="translate(0 -5.28)"/><path class="cls-3" d="M534.8,98.8h29.41V103H539.77v10.29H562.6v4.08H539.77v11h24.44v4.22H534.8Z" transform="translate(0 -5.28)"/><path class="cls-3" d="M570.14,98.8h5v33.82h-5Zm2.51,17.88h16.22a8.7,8.7,0,0,0,5.86-1.79,6.36,6.36,0,0,0,2.06-5v0a6.34,6.34,0,0,0-2.06-5,8.7,8.7,0,0,0-5.86-1.79H572.65V98.8h17a14.59,14.59,0,0,1,6.48,1.35,9.93,9.93,0,0,1,4.25,3.82,10.86,10.86,0,0,1,1.5,5.75v0a11,11,0,0,1-1.51,5.82,10.12,10.12,0,0,1-4.26,3.87,14.4,14.4,0,0,1-6.46,1.37h-17Z" transform="translate(0 -5.28)"/><path class="cls-3" d="M621.4,98.8h4v4.87h-1.38l-14.34,29h-5.28Zm-7.71,20.48h20.79l1.92,3.94H611.77Zm10.45-15.61V98.8h2.65l17,33.82h-5.27Z" transform="translate(0 -5.28)"/><path class="cls-3" d="M648,98.8h5.91L669.07,127h.14l15.17-28.2h5.88v33.82h-4.69V106.21h-2.13l4.9-5.7-17.23,32.11h-4l-17.23-32.11,4.88,5.7h-2.09v26.41H648Z" transform="translate(0 -5.28)"/><path class="cls-3" d="M697.13,98.8H702v27h2.22l-5.11,2.77,28.5-29.79h4.64v33.82h-4.85V105.57h-2.2l5-2.74-28.43,29.79h-4.71Z" transform="translate(0 -5.28)"/><path class="cls-3" d="M739.15,132.62V98.8h5v14.53h3.63L764.21,98.8h6.49l-19.31,16.78.09-1,20.65,18.09h-6.92l-17.46-15.23h-3.63v15.23Z" transform="translate(0 -5.28)"/><path class="cls-3" d="M790.43,98.8h4v4.87h-1.38l-14.34,29h-5.28Zm-7.71,20.48h20.79l1.92,3.94H780.8Zm10.45-15.61V98.8h2.65l17,33.82h-5.27Z" transform="translate(0 -5.28)"/></g></g></svg>