<svg width="300" height="200" viewBox="0 0 300 200" fill="none" xmlns="http://www.w3.org/2000/svg">
<path d="M58.8816 169V154.8H60.2816V161.12H62.4216L67.3016 154.8H68.9216L63.5816 161.68L69.2616 169H67.5416L62.4616 162.4H60.2816V169H58.8816ZM83.1173 169.04V167.86H84.0173C84.324 167.86 84.5507 167.773 84.6973 167.6C84.8573 167.427 85.0307 167.167 85.2173 166.82L85.8373 165.52L79.7773 154.8H81.3173L86.4773 164.1L90.7773 154.8H92.2373L86.2973 167.5C86.0307 168.047 85.7573 168.44 85.4773 168.68C85.1973 168.92 84.804 169.04 84.2973 169.04H83.1173ZM115.082 154.8V169H113.702V162.36H105.282V169H103.882V154.8H105.282V161.12H113.702V154.8H115.082ZM141.227 169V157.44L136.087 166.42H135.207L130.047 157.44V169H128.647V154.8H130.087L135.627 164.52L141.207 154.8H142.627V169H141.227ZM161.086 169.12C160.286 169.12 159.513 168.993 158.766 168.74C158.033 168.473 157.366 168.093 156.766 167.6C156.18 167.107 155.713 166.513 155.366 165.82L156.546 165.22C156.866 165.807 157.266 166.3 157.746 166.7C158.226 167.087 158.753 167.38 159.326 167.58C159.9 167.767 160.473 167.86 161.046 167.86C161.82 167.86 162.533 167.7 163.186 167.38C163.853 167.06 164.433 166.62 164.926 166.06C165.42 165.5 165.793 164.86 166.046 164.14C166.313 163.42 166.433 162.673 166.406 161.9L167.026 162.32H159.706V161.16H166.986L166.406 161.56C166.393 160.88 166.26 160.207 166.006 159.54C165.766 158.86 165.42 158.26 164.966 157.74C164.513 157.207 163.96 156.78 163.306 156.46C162.653 156.14 161.913 155.98 161.086 155.98C160.513 155.98 159.953 156.067 159.406 156.24C158.873 156.413 158.38 156.687 157.926 157.06C157.473 157.433 157.093 157.92 156.786 158.52L155.626 157.82C156.12 156.913 156.813 156.173 157.706 155.6C158.613 155.013 159.726 154.72 161.046 154.72C162.126 154.72 163.086 154.927 163.926 155.34C164.78 155.74 165.493 156.287 166.066 156.98C166.653 157.66 167.1 158.42 167.406 159.26C167.713 160.1 167.866 160.96 167.866 161.84C167.866 162.76 167.7 163.66 167.366 164.54C167.046 165.407 166.586 166.187 165.986 166.88C165.386 167.56 164.666 168.107 163.826 168.52C163 168.92 162.086 169.12 161.086 169.12ZM180.563 169V154.8H181.943V167.08L190.743 154.8H192.043V169H190.663V156.94L181.963 169H180.563ZM204.658 171.72V167.76H205.258C205.632 167.76 205.958 167.607 206.238 167.3C206.532 166.993 206.778 166.5 206.978 165.82C207.192 165.127 207.358 164.2 207.478 163.04C207.612 161.88 207.705 160.44 207.758 158.72L207.858 154.8H216.358V167.76H218.058V171.72H216.818V169H205.898V171.72H204.658ZM207.258 167.76H214.958V156.04H209.138L209.058 158.88C209.018 160.68 208.925 162.187 208.778 163.4C208.645 164.6 208.452 165.553 208.198 166.26C207.945 166.953 207.632 167.453 207.258 167.76ZM236.379 169.1C235.379 169.1 234.472 168.9 233.659 168.5C232.846 168.1 232.146 167.56 231.559 166.88C230.972 166.187 230.519 165.413 230.199 164.56C229.879 163.693 229.719 162.807 229.719 161.9C229.719 160.953 229.886 160.053 230.219 159.2C230.552 158.333 231.019 157.567 231.619 156.9C232.232 156.22 232.946 155.687 233.759 155.3C234.572 154.9 235.452 154.7 236.399 154.7C237.399 154.7 238.306 154.907 239.119 155.32C239.932 155.733 240.626 156.287 241.199 156.98C241.786 157.673 242.239 158.447 242.559 159.3C242.879 160.153 243.039 161.027 243.039 161.92C243.039 162.867 242.872 163.773 242.539 164.64C242.206 165.493 241.739 166.26 241.139 166.94C240.539 167.607 239.832 168.133 239.019 168.52C238.206 168.907 237.326 169.1 236.379 169.1ZM231.119 161.9C231.119 162.673 231.246 163.42 231.499 164.14C231.752 164.847 232.112 165.48 232.579 166.04C233.046 166.587 233.599 167.027 234.239 167.36C234.892 167.68 235.606 167.84 236.379 167.84C237.192 167.84 237.919 167.673 238.559 167.34C239.212 166.993 239.766 166.54 240.219 165.98C240.686 165.407 241.039 164.767 241.279 164.06C241.519 163.353 241.639 162.633 241.639 161.9C241.639 161.127 241.512 160.387 241.259 159.68C241.006 158.973 240.639 158.34 240.159 157.78C239.692 157.22 239.139 156.78 238.499 156.46C237.859 156.14 237.152 155.98 236.379 155.98C235.579 155.98 234.852 156.147 234.199 156.48C233.559 156.813 233.006 157.267 232.539 157.84C232.086 158.4 231.732 159.033 231.479 159.74C231.239 160.447 231.119 161.167 231.119 161.9Z" fill="white"/>
<path d="M92.9929 191.12C92.5369 191.12 92.1169 191.036 91.7329 190.868C91.3569 190.692 91.0249 190.452 90.7369 190.148C90.4569 189.844 90.2369 189.496 90.0769 189.104C89.9249 188.712 89.8489 188.296 89.8489 187.856C89.8489 187.264 89.9809 186.724 90.2449 186.236C90.5089 185.748 90.8769 185.36 91.3489 185.072C91.8209 184.784 92.3649 184.64 92.9809 184.64C93.5649 184.64 94.0809 184.776 94.5289 185.048C94.9769 185.312 95.3089 185.672 95.5249 186.128L94.7329 186.38C94.5569 186.06 94.3089 185.812 93.9889 185.636C93.6769 185.452 93.3289 185.36 92.9449 185.36C92.5289 185.36 92.1489 185.468 91.8049 185.684C91.4609 185.9 91.1849 186.196 90.9769 186.572C90.7769 186.948 90.6769 187.376 90.6769 187.856C90.6769 188.328 90.7809 188.756 90.9889 189.14C91.1969 189.524 91.4729 189.832 91.8169 190.064C92.1609 190.288 92.5409 190.4 92.9569 190.4C93.2289 190.4 93.4889 190.352 93.7369 190.256C93.9929 190.16 94.2129 190.032 94.3969 189.872C94.5889 189.704 94.7169 189.524 94.7809 189.332L95.5849 189.572C95.4729 189.868 95.2849 190.136 95.0209 190.376C94.7649 190.608 94.4609 190.792 94.1089 190.928C93.7649 191.056 93.3929 191.12 92.9929 191.12ZM115.897 190.256V191H111.829V190.256H113.533V185.12C113.469 185.216 113.361 185.32 113.209 185.432C113.057 185.544 112.881 185.648 112.681 185.744C112.489 185.84 112.297 185.92 112.105 185.984C111.913 186.048 111.737 186.08 111.577 186.08V185.288C111.761 185.288 111.961 185.236 112.177 185.132C112.393 185.028 112.601 184.908 112.801 184.772C113.001 184.636 113.169 184.508 113.305 184.388C113.441 184.268 113.517 184.188 113.533 184.148H114.373V190.256H115.897ZM128.866 188.192C128.866 188.728 128.73 189.22 128.458 189.668C128.194 190.108 127.834 190.46 127.378 190.724C126.922 190.988 126.41 191.12 125.842 191.12C125.25 191.12 124.722 190.98 124.258 190.7C123.802 190.412 123.442 190 123.178 189.464C122.914 188.928 122.782 188.292 122.782 187.556C122.782 186.396 122.914 185.44 123.178 184.688C123.442 183.928 123.81 183.36 124.282 182.984C124.754 182.608 125.302 182.42 125.926 182.42C126.494 182.42 127.002 182.564 127.45 182.852C127.898 183.132 128.238 183.516 128.47 184.004L127.942 184.484C127.774 184.076 127.506 183.752 127.138 183.512C126.778 183.264 126.374 183.14 125.926 183.14C125.454 183.14 125.042 183.288 124.69 183.584C124.338 183.88 124.062 184.304 123.862 184.856C123.67 185.408 123.574 186.076 123.574 186.86C123.694 186.548 123.87 186.276 124.102 186.044C124.334 185.812 124.606 185.632 124.918 185.504C125.238 185.376 125.578 185.312 125.938 185.312C126.482 185.312 126.974 185.44 127.414 185.696C127.862 185.952 128.214 186.3 128.47 186.74C128.734 187.172 128.866 187.656 128.866 188.192ZM125.866 190.4C126.266 190.4 126.634 190.3 126.97 190.1C127.306 189.9 127.574 189.632 127.774 189.296C127.982 188.96 128.086 188.592 128.086 188.192C128.086 187.792 127.982 187.424 127.774 187.088C127.574 186.752 127.306 186.484 126.97 186.284C126.634 186.084 126.266 185.984 125.866 185.984C125.458 185.984 125.082 186.084 124.738 186.284C124.402 186.484 124.134 186.752 123.934 187.088C123.734 187.416 123.634 187.784 123.634 188.192C123.634 188.592 123.734 188.96 123.934 189.296C124.142 189.632 124.414 189.9 124.75 190.1C125.086 190.3 125.458 190.4 125.866 190.4ZM140.261 190.256V191H136.193V190.256H137.897V185.12C137.833 185.216 137.725 185.32 137.573 185.432C137.421 185.544 137.245 185.648 137.045 185.744C136.853 185.84 136.661 185.92 136.469 185.984C136.277 186.048 136.101 186.08 135.941 186.08V185.288C136.125 185.288 136.325 185.236 136.541 185.132C136.757 185.028 136.965 184.908 137.165 184.772C137.365 184.636 137.533 184.508 137.669 184.388C137.805 184.268 137.881 184.188 137.897 184.148H138.737V190.256H140.261ZM149.665 192.788C149.065 192.788 148.521 192.636 148.033 192.332C147.545 192.036 147.181 191.644 146.941 191.156L147.481 190.748C147.705 191.14 148.009 191.456 148.393 191.696C148.785 191.936 149.213 192.056 149.677 192.056C150.077 192.056 150.433 191.968 150.745 191.792C151.065 191.616 151.317 191.372 151.501 191.06C151.693 190.748 151.789 190.388 151.789 189.98C151.789 189.588 151.697 189.244 151.513 188.948C151.337 188.644 151.093 188.408 150.781 188.24C150.477 188.072 150.133 187.988 149.749 187.988C149.381 187.988 149.029 188.072 148.693 188.24C148.357 188.4 148.085 188.636 147.877 188.948H147.121L148.069 184.148H152.185V184.904H148.681L148.093 187.964C148.301 187.74 148.557 187.568 148.861 187.448C149.165 187.32 149.493 187.256 149.845 187.256C150.365 187.256 150.833 187.372 151.249 187.604C151.673 187.836 152.009 188.156 152.257 188.564C152.505 188.972 152.629 189.44 152.629 189.968C152.629 190.528 152.493 191.02 152.221 191.444C151.957 191.868 151.601 192.196 151.153 192.428C150.705 192.668 150.209 192.788 149.665 192.788ZM169.007 191V184.748H172.739V185.48H169.823V191H169.007ZM182.546 191.12C182.098 191.12 181.682 191.036 181.298 190.868C180.922 190.692 180.594 190.456 180.314 190.16C180.042 189.856 179.83 189.512 179.678 189.128C179.526 188.736 179.45 188.324 179.45 187.892C179.45 187.444 179.526 187.028 179.678 186.644C179.83 186.252 180.046 185.908 180.326 185.612C180.606 185.308 180.934 185.072 181.31 184.904C181.694 184.728 182.11 184.64 182.558 184.64C183.006 184.64 183.418 184.728 183.794 184.904C184.17 185.072 184.498 185.308 184.778 185.612C185.058 185.908 185.274 186.252 185.426 186.644C185.578 187.028 185.654 187.444 185.654 187.892C185.654 188.324 185.578 188.736 185.426 189.128C185.274 189.512 185.058 189.856 184.778 190.16C184.506 190.456 184.178 190.692 183.794 190.868C183.418 191.036 183.002 191.12 182.546 191.12ZM180.278 187.904C180.278 188.368 180.378 188.792 180.578 189.176C180.786 189.552 181.062 189.852 181.406 190.076C181.75 190.292 182.13 190.4 182.546 190.4C182.962 190.4 183.342 190.288 183.686 190.064C184.03 189.84 184.306 189.536 184.514 189.152C184.722 188.76 184.826 188.336 184.826 187.88C184.826 187.416 184.722 186.992 184.514 186.608C184.306 186.224 184.03 185.92 183.686 185.696C183.342 185.472 182.962 185.36 182.546 185.36C182.13 185.36 181.75 185.476 181.406 185.708C181.07 185.94 180.798 186.248 180.59 186.632C180.382 187.008 180.278 187.432 180.278 187.904ZM192.323 192.452V190.268H192.431C192.615 190.268 192.783 190.212 192.935 190.1C193.087 189.988 193.223 189.792 193.343 189.512C193.463 189.232 193.559 188.848 193.631 188.36C193.703 187.864 193.751 187.24 193.775 186.488L193.835 184.748H197.903V190.268H198.743V192.452H198.011V191H193.043V192.452H192.323ZM193.667 190.268H197.087V185.48H194.567L194.531 186.56C194.507 187.304 194.455 187.928 194.375 188.432C194.303 188.928 194.207 189.324 194.087 189.62C193.975 189.908 193.835 190.124 193.667 190.268ZM205.476 189.2C205.476 188.808 205.588 188.472 205.812 188.192C206.036 187.904 206.344 187.684 206.736 187.532C207.136 187.372 207.596 187.292 208.116 187.292C208.42 187.292 208.736 187.316 209.064 187.364C209.392 187.412 209.684 187.484 209.94 187.58V187.052C209.94 186.524 209.784 186.104 209.472 185.792C209.16 185.48 208.728 185.324 208.176 185.324C207.84 185.324 207.508 185.388 207.18 185.516C206.86 185.636 206.524 185.816 206.172 186.056L205.86 185.48C206.268 185.2 206.668 184.992 207.06 184.856C207.452 184.712 207.852 184.64 208.26 184.64C209.028 184.64 209.636 184.86 210.084 185.3C210.532 185.74 210.756 186.348 210.756 187.124V190.016C210.756 190.128 210.78 190.212 210.828 190.268C210.876 190.316 210.952 190.344 211.056 190.352V191C210.968 191.008 210.892 191.016 210.828 191.024C210.764 191.032 210.716 191.032 210.684 191.024C210.484 191.016 210.332 190.952 210.228 190.832C210.124 190.712 210.068 190.584 210.06 190.448L210.048 189.992C209.768 190.352 209.404 190.632 208.956 190.832C208.508 191.024 208.052 191.12 207.588 191.12C207.188 191.12 206.824 191.036 206.496 190.868C206.176 190.692 205.924 190.46 205.74 190.172C205.564 189.876 205.476 189.552 205.476 189.2ZM209.664 189.68C209.752 189.568 209.82 189.46 209.868 189.356C209.916 189.252 209.94 189.16 209.94 189.08V188.168C209.668 188.064 209.384 187.984 209.088 187.928C208.8 187.872 208.508 187.844 208.212 187.844C207.628 187.844 207.156 187.96 206.796 188.192C206.436 188.424 206.256 188.74 206.256 189.14C206.256 189.372 206.316 189.592 206.436 189.8C206.556 190 206.732 190.168 206.964 190.304C207.196 190.432 207.468 190.496 207.78 190.496C208.172 190.496 208.536 190.42 208.872 190.268C209.216 190.116 209.48 189.92 209.664 189.68Z" fill="white"/>
<path d="M134.61 15.171C133.978 15.4047 134.078 16.4061 134.81 17.0737C135.842 18.0083 136.574 20.3783 136.208 21.413C135.875 22.2809 135.809 22.2809 132.746 22.2809C129.318 22.2809 128.386 22.6481 128.586 23.9499C128.786 25.3519 129.518 25.452 132.713 24.4506C134.344 23.9499 135.842 23.3825 136.075 23.2156C136.574 22.815 137.839 24.751 137.839 25.8526C137.839 26.5536 137.672 26.6203 136.175 26.6203C135.143 26.6203 133.978 26.8874 133.179 27.2879C132.447 27.6551 131.215 27.9555 130.35 27.9555C128.619 27.9555 127.521 28.4228 127.521 29.1238C127.521 29.8582 128.22 30.1252 130.184 30.1252H132.014L132.114 31.861C132.214 33.5633 132.214 33.5967 130.783 34.3978C129.984 34.8652 128.653 35.2991 127.787 35.4326C126.289 35.5995 126.223 35.5995 126.023 34.6315C125.79 33.5633 124.758 32.6287 123.793 32.6287C123.494 32.6287 123.028 32.3617 122.795 32.0279C122.562 31.6941 121.43 30.7594 120.265 29.9583C118.568 28.7233 118.202 28.2893 118.268 27.6217C118.368 26.8206 118.435 26.7872 120.731 26.8874C122.562 26.9875 123.161 26.8874 123.494 26.4868C123.893 26.0195 123.86 25.8526 123.361 25.2851C122.595 24.4506 120.931 24.4172 119.566 25.185C118.401 25.8526 117.436 25.5188 117.27 24.4172C117.136 23.3157 117.769 22.815 119.566 22.6147C120.531 22.5146 121.363 22.2809 121.43 22.114C121.63 21.413 120.864 20.8122 119.466 20.6453L118.035 20.445L117.935 18.776C117.835 17.0069 117.27 16.2725 116.071 16.2725C115.672 16.2725 115.139 16.4061 114.873 16.6063C114.474 16.8734 114.474 17.0403 114.973 18.1084C115.273 18.7427 115.639 19.8776 115.739 20.6119C115.905 21.6801 115.838 21.9805 115.372 22.1474C114.707 22.4144 114.208 21.7802 114.208 20.7121C114.208 20.178 113.941 19.8776 113.375 19.744C112.044 19.4103 111.545 19.7774 111.545 21.0792C111.545 22.6147 110.613 23.1822 109.282 22.548C108.416 22.114 108.383 22.0139 108.483 19.9443C108.583 18.1084 108.516 17.6745 107.95 17.1738C107.551 16.8066 106.918 16.6063 106.319 16.6731C105.288 16.7732 105.288 16.8066 105.72 20.5118C106.053 23.1488 105.72 23.6161 103.557 23.6161C101.626 23.6161 100.694 24.3839 101.726 25.1516C102.059 25.4186 102.991 25.6189 103.79 25.6189C104.655 25.6189 105.321 25.7858 105.387 26.0195C105.687 26.7538 103.024 31.2935 101.626 32.4952C100.927 33.0626 100.861 33.2629 101.194 33.8971C101.759 34.9653 102.192 34.8318 103.79 33.0293C104.955 31.7274 105.254 31.5272 105.554 31.9611C105.754 32.2281 105.82 32.9959 105.72 33.6301C105.021 37.7358 105.221 38.9709 106.652 38.9709C107.751 38.9709 108.216 38.3367 108.216 36.9347C108.216 35.7998 108.316 35.6997 109.315 35.4994C110.047 35.3659 111.179 34.5981 112.577 33.2963C115.139 30.8929 115.705 30.8262 115.672 33.096C115.672 34.8652 115.04 35.6329 113.642 35.6329C112.377 35.6329 112.71 36.6677 114.54 38.4702C115.938 39.8388 116.304 40.0724 116.804 39.772C117.835 39.1378 118.135 37.402 117.769 34.3645C117.602 32.8624 117.536 31.5272 117.669 31.3936C118.068 30.9931 119.5 31.9611 120.065 33.0293C121.164 35.2323 121.763 35.6329 124.093 35.6329C125.258 35.6329 126.19 35.7664 126.19 35.9667C126.19 36.5008 128.519 38.6371 129.119 38.6371C129.418 38.6371 130.55 38.0363 131.582 37.2685C132.647 36.5342 134.444 35.4326 135.576 34.7984C137.073 34.0307 137.706 33.4966 137.772 32.9625C137.905 32.2615 137.806 32.2281 136.641 32.395C135.043 32.6621 134.51 32.2281 134.51 30.6259C134.51 29.224 134.743 28.9569 136.641 28.3227C137.939 27.8888 137.972 27.8888 138.738 28.8234C139.17 29.3575 139.503 29.9249 139.503 30.0918C139.503 30.726 141.533 34.5647 142.166 35.1322C142.532 35.466 142.831 35.9333 142.831 36.1336C142.831 36.3673 143.164 36.8012 143.597 37.0682C143.996 37.3687 144.895 38.1364 145.594 38.7706C146.892 40.0057 148.39 40.3395 149.488 39.6385C149.888 39.3715 149.888 39.1712 149.521 38.1364C149.288 37.4688 149.122 36.1336 149.155 35.199C149.288 32.6287 149.255 32.5619 148.257 32.6955C147.524 32.7622 147.291 33.0293 147.058 34.0307C146.892 34.7316 146.559 35.2991 146.326 35.2991C145.694 35.2991 142.831 31.7274 142.831 30.9597C142.831 30.6259 142.698 30.2254 142.499 30.1252C142.066 29.8582 139.969 25.2851 139.669 24.0167C139.37 22.6481 139.803 22.4812 143.331 22.4478H146.326L146.426 21.2795C146.493 20.2781 146.359 20.0445 145.527 19.5772C144.928 19.21 144.496 18.6425 144.329 18.0083C144.129 17.0069 143.963 16.8734 142.099 16.4728C141.067 16.2392 140.169 16.5062 140.169 17.0737C140.169 17.3073 140.535 17.8414 141.001 18.2753C141.999 19.21 142.066 20.1112 141.2 20.6119C139.503 21.5132 138.505 20.6787 138.505 18.3755C138.505 16.1724 136.408 14.4366 134.61 15.171ZM115.539 24.2837C116.005 25.1182 115.705 26.1864 114.906 26.6203C113.176 27.5216 108.782 27.2212 107.85 26.0862C106.852 24.8846 108.749 23.4158 109.914 24.484C110.546 25.0515 110.613 25.0515 111.978 24.3505C113.775 23.4158 115.073 23.4158 115.539 24.2837ZM113.875 28.4896C114.274 28.9235 113.975 29.3575 111.844 31.4938C108.882 34.498 108.216 34.5981 107.751 32.2281C107.418 30.2253 107.617 29.6245 108.716 29.6245C109.182 29.6245 109.847 29.2573 110.28 28.79C111.112 27.822 113.176 27.6217 113.875 28.4896Z" fill="white"/>
<path d="M160.139 16.4728C159.939 16.9401 159.806 17.541 159.806 17.8414C159.806 19.2434 155.512 24.6843 152.75 26.854C150.32 28.7233 150.22 29.9583 152.484 29.9583C152.85 29.9583 153.282 30.2921 153.515 30.6593C153.848 31.3269 154.048 31.3603 156.345 31.16C159.207 30.9263 159.44 31.1266 158.674 33.0293C157.975 34.6983 156.677 35.6329 155.113 35.6329C153.915 35.6329 153.815 35.6997 153.815 36.5675C153.815 37.1016 154.081 37.7692 154.414 38.0696C155.18 38.7706 157.21 38.804 158.475 38.1364C159.007 37.8694 160.172 37.4688 161.104 37.2685C162.003 37.1016 163.001 36.6343 163.334 36.2671C163.667 35.8999 164.333 35.6329 164.998 35.6329C165.963 35.6329 166.196 35.7998 166.796 36.9681C167.228 37.8026 167.761 38.3701 168.293 38.5036C169.691 38.8374 170.124 38.4702 170.124 36.9347C170.124 35.6997 169.924 35.3659 168.726 34.2309C166.33 32.0279 164.466 31.3603 164.466 32.7622C164.466 34.064 163.467 34.9319 161.736 35.1656C160.405 35.3659 160.106 35.2991 159.939 34.7984C159.773 34.3645 160.039 33.8971 160.904 33.0626C161.57 32.4618 162.336 31.427 162.602 30.7928L163.101 29.6245L166.196 29.5578C167.894 29.491 170.457 29.4576 171.855 29.4576C174.617 29.4576 175.25 29.1572 175.05 27.9221C174.983 27.3881 174.65 27.0543 173.952 26.854C172.121 26.3199 170.224 25.185 168.593 23.7163C163.401 19.0431 163.168 18.776 163.168 17.8748C163.134 16.9735 161.803 15.6049 160.904 15.6049C160.671 15.6049 160.305 16.0055 160.139 16.4728ZM163.634 21.6467C164.732 22.9819 164.599 23.5494 163.134 24.1168C162.502 24.3505 161.27 24.8178 160.405 25.1516C159.54 25.4854 158.741 25.6857 158.641 25.5522C158.109 25.0515 161.27 20.6119 162.136 20.6119C162.469 20.6119 163.134 21.0792 163.634 21.6467ZM166.829 25.2851C167.162 25.4854 167.461 25.9861 167.461 26.3867C167.461 27.0209 167.128 27.2545 165.73 27.7219C162.868 28.6565 153.981 29.9249 153.549 29.4576C153.282 29.1906 155.779 26.9207 157.043 26.2531C157.643 25.9193 157.975 25.9193 158.641 26.2865C159.34 26.6537 159.839 26.6203 162.036 26.1196C163.467 25.7858 164.865 25.4186 165.131 25.2517C165.797 24.8846 166.063 24.8846 166.829 25.2851Z" fill="white"/>
<path d="M180.508 17.2406C179.743 17.7079 180.209 19.0431 181.407 19.8442C182.705 20.7121 184.702 20.879 184.968 20.1112C185.301 19.2434 184.802 17.9415 184.003 17.6411C182.672 17.1404 180.941 16.9401 180.508 17.2406Z" fill="white"/>
<path d="M189.861 18.4756C189.761 18.776 189.828 19.5104 190.027 20.0779C190.227 20.6453 190.427 22.0473 190.493 23.1822C190.593 25.5522 189.994 26.5202 188.53 26.5202C187.997 26.5202 187.398 26.854 187.032 27.2879C186.466 27.9889 186.266 28.0223 185.168 27.7552C183.637 27.3881 183.404 26.42 184.602 25.2851C185.102 24.8178 185.434 24.1502 185.434 23.5494C185.434 22.6815 185.334 22.6147 184.07 22.6147C183.204 22.6147 182.406 22.8484 181.873 23.2823C181.34 23.6829 180.508 23.9499 179.71 23.9499C178.778 23.9499 178.179 24.1836 177.613 24.7844C176.581 25.7858 176.581 26.2198 177.546 26.5869C178.378 26.8874 179.011 26.7538 179.876 26.0195C180.309 25.6189 180.542 25.5855 180.841 25.886C181.474 26.5202 180.275 28.4228 178.378 29.8582C176.647 31.1934 176.082 32.1948 176.814 32.6621C177.579 33.1294 177.812 33.0293 179.144 31.5939C180.209 30.4256 180.508 30.2587 180.941 30.6259C181.573 31.16 181.573 31.6941 180.908 34.8318C180.442 37.135 180.442 37.4354 180.941 38.1698C181.207 38.6037 181.74 38.9709 182.039 38.9709C182.772 38.9709 184.003 37.7358 184.17 36.8012C184.269 36.2671 184.569 36.1336 185.767 36.1002C186.599 36.1002 188.63 35.8999 190.26 35.6663C191.925 35.4326 194.654 35.2323 196.385 35.199L199.513 35.1322L199.846 34.1642C200.112 33.3631 200.046 33.096 199.547 32.7288C198.848 32.2281 196.385 32.1614 194.787 32.6287C193.123 33.096 192.757 32.6287 192.757 30.1586C192.757 29.0571 192.923 27.8888 193.09 27.6217C193.256 27.3213 194.121 27.0543 195.32 26.9541C196.984 26.8206 197.25 26.6871 197.35 26.0862C197.516 24.8178 196.584 24.2503 194.654 24.484L192.99 24.7177L193.223 21.7802C193.356 19.7774 193.323 18.7093 193.056 18.4089C192.49 17.7413 190.127 17.808 189.861 18.4756ZM189.894 28.1558C190.56 28.4228 190.66 32.6955 190.027 33.2295C189.794 33.3964 188.863 33.6635 187.931 33.797C187.032 33.9305 185.934 34.2309 185.534 34.498C185.135 34.765 184.569 34.9653 184.303 34.9653C183.704 34.9653 183.337 33.3631 183.504 31.4604C183.604 30.2587 183.704 30.1252 184.702 29.9249C185.301 29.7914 186 29.4576 186.233 29.1238C186.433 28.8234 187.165 28.4562 187.764 28.2893C189.329 27.9221 189.295 27.9221 189.894 28.1558Z" fill="white"/>
<path d="M51.5723 55.3584C51.5211 55.6144 51.5211 55.9728 51.5723 56.2288C51.828 57.4576 51.0097 58.9936 49.8334 59.5056C48.0434 60.3248 48.0434 62.7312 49.8334 63.9088C50.5494 64.3696 51.112 65.1888 51.112 65.752C51.112 67.2367 51.8791 67.4415 57.965 67.5439L63.6418 67.6463L65.2784 66.0079C66.6081 64.6768 66.9661 63.9088 66.9661 62.2704C66.9661 59.2496 66.1989 58.8912 61.0847 59.3008C56.4308 59.7104 54.6919 59.2496 54.6919 57.56C54.6919 55.8192 54.0782 55 52.8508 55C52.186 55 51.5723 55.1536 51.5723 55.3584Z" fill="white"/>
<path d="M29.7345 57.56C29.0185 58.4816 28.0979 59.096 27.4331 59.096C25.8988 59.096 25.0294 60.0176 25.0294 61.656C25.0294 63.4992 27.2285 64.984 30.5016 65.3936C33.7747 65.752 35.1556 64.8816 35.6158 62.0656C35.8716 60.4784 35.667 59.864 34.235 58.072C32.2916 55.6144 31.2176 55.512 29.7345 57.56Z" fill="white"/>
<path d="M42.9292 70.1551C42.2132 70.3087 40.2698 70.6159 38.5821 70.9231C36.8944 71.2303 34.1839 71.5375 32.5473 71.5887C30.2459 71.6399 29.3765 71.8447 28.8139 72.6127C28.2002 73.4831 28.2002 73.7903 28.8139 74.6607C29.6834 75.9919 32.8542 76.2991 36.8433 75.4799C40.4232 74.7119 42.0598 75.3263 41.8041 77.4255C41.5995 79.2687 39.1958 79.9343 35.7181 79.1663C31.2176 78.0911 30.1948 79.5759 31.2176 85.2079C32.445 92.2734 32.4962 91.9662 30.6551 93.451C29.6322 94.3214 29.1208 95.1918 29.2231 95.8062C29.4276 96.8814 30.6551 96.9326 37.6104 96.2158C41.5995 95.8574 41.8041 95.8574 42.3666 96.9326C43.1338 98.315 42.6735 99.9022 41.2926 100.619C40.4744 101.029 39.247 101.029 36.5364 100.568C33.7236 100.107 32.5985 100.056 31.7802 100.517C28.8139 102.104 31.9848 104.664 35.5647 103.691C39.9118 102.462 42.2132 103.23 41.3438 105.534C40.4744 107.889 41.5484 108.453 46.4069 108.043C50.038 107.787 50.9074 107.889 52.6462 108.76C54.743 109.835 58.9879 110.142 59.5504 109.272C60.113 108.401 58.5787 106.046 57.1979 105.637C55.9705 105.329 52.6462 105.688 50.3448 106.456C49.6288 106.661 48.8105 106.405 47.89 105.688C45.8954 104.101 46.816 103.23 50.4982 103.025C52.8508 102.923 53.4134 102.718 53.5668 101.899C53.8736 100.517 52.6974 100.005 50.038 100.363C46.6114 100.824 44.8215 98.7758 46.8671 96.7278C47.6854 95.8574 48.5037 95.8574 52.9019 96.779C54.1293 96.9838 54.8453 96.7278 56.3796 95.499C57.4536 94.6798 58.5276 93.9118 58.7321 93.8094C59.4993 93.5022 63.3861 87.1023 63.9998 85.1567C64.4089 83.6207 64.4089 83.0063 63.8975 82.3919C62.9258 81.2143 62.4144 81.4191 60.2664 83.7743L58.2719 85.9759L53.8225 86.1295C48.5037 86.3343 46.5091 85.7711 46.5091 84.0303C46.5091 81.9823 48.1968 80.9071 50.7028 81.3167C51.9302 81.5215 53.6179 81.8287 54.4362 81.9823C55.6125 82.1359 56.2262 81.9311 56.9933 81.1119C57.965 80.0367 57.965 79.9855 57.0444 79.2687C56.2773 78.7567 54.9988 78.6543 51.6234 78.9103C46.9183 79.2175 46.1512 78.9103 46.7649 77.0671C46.9183 76.5551 47.6854 75.8383 48.4526 75.5823C51.4188 74.4047 53.0042 74.4047 55.6636 75.4799C59.4993 76.9647 62.1075 76.8111 62.3632 74.9679C62.7724 72.3055 61.6984 71.9471 55.2033 72.4079C49.6288 72.8175 48.0434 72.4591 46.5603 70.6671C45.8954 69.8479 45.4352 69.7967 42.9292 70.1551ZM41.8041 81.4191C42.5712 81.9311 42.9292 82.6991 42.9292 83.8767C42.9292 85.8735 42.3155 86.2319 39.1447 86.2319C35.7181 86.2319 34.7976 84.5423 36.8433 81.9311C38.0707 80.3951 40.0652 80.1903 41.8041 81.4191ZM42.3666 90.0207C42.8269 90.5838 42.8781 91.0446 42.4178 91.8126C42.0086 92.6318 41.3949 92.8878 39.605 92.8878C37.815 92.8878 37.2013 92.6318 36.7921 91.8126C35.9227 90.2766 36.9967 89.3039 39.605 89.3039C40.8835 89.3039 42.0598 89.6111 42.3666 90.0207ZM54.9476 89.8159C56.175 91.7614 52.1348 94.0142 49.0151 93.0926C46.7649 92.427 45.9466 90.9934 47.2251 90.0207C48.4014 89.2015 54.4362 88.9967 54.9476 89.8159Z" fill="white"/>
<path d="M237.116 60.9904C236.451 61.6048 236.758 62.7824 237.986 64.2672C238.906 65.3424 239.366 66.8271 239.827 70.1039C240.594 75.4799 240.287 76.8623 238.19 77.7327C236.196 78.6031 234.866 78.2447 233.843 76.6575C233.076 75.5311 233.076 75.2751 233.843 73.6367C235.019 71.1791 234.917 70.0527 233.383 68.0047C231.695 65.8544 229.803 65.7008 228.064 67.5439C226.837 68.8239 226.837 68.8751 227.706 71.2815C228.166 72.6127 228.575 74.7631 228.575 76.0943V78.5007L225.865 79.8319C222.592 81.3679 222.796 81.3167 220.597 80.2927C218.961 79.5247 218.807 79.5247 217.324 80.5999C216.097 81.4703 215.79 82.0847 215.79 83.5695C215.79 84.6447 216.097 85.9247 216.506 86.4879C216.864 87.0511 217.324 88.4334 217.529 89.5086C217.733 90.635 218.603 92.8878 219.421 94.5262C220.7 97.0862 221.109 97.4958 222.387 97.4958C223.615 97.4958 223.973 97.1886 224.689 95.2942C225.66 92.6318 225.712 91.5054 224.74 89.8158C224.331 89.099 224.024 87.5631 223.973 86.3855C223.973 84.2351 224.024 84.1839 227.144 82.5967C230.212 81.0095 230.417 81.0095 234.917 81.3679C237.474 81.5727 242.23 81.7775 245.452 81.8287C250.874 81.8799 251.538 82.0335 253.891 83.3135C255.885 84.4399 257.369 84.8495 260.693 85.0543C265.296 85.4127 266.421 85.9759 266.421 88.075C266.421 88.9966 265.909 89.5598 264.017 90.4302C262.739 91.0958 261.307 92.1198 260.949 92.683C260.335 93.6558 260.386 93.9118 261.767 95.3966C263.557 97.291 264.58 97.3934 266.114 95.7038C267.444 94.2702 269.438 93.3998 271.535 93.3998C273.376 93.3998 276.138 91.147 276.138 89.6622C276.138 89.0478 275.78 88.075 275.371 87.563C274.961 86.9999 274.603 86.0271 274.603 85.4127C274.603 84.0303 272.456 81.3167 270.512 80.3439C268.876 79.4735 260.795 78.3983 257.011 78.5007C254.044 78.5519 252.101 77.5279 252.101 75.8383C252.101 75.1215 253.021 73.7903 254.402 72.4079C255.681 71.1791 256.704 69.7455 256.704 69.2335C256.704 67.6975 252.663 64.1648 251.129 64.3184C248.879 64.5744 248.265 66.5199 248.828 71.2815C249.442 76.5039 249.032 77.5279 246.475 77.5279C245.197 77.5279 244.43 77.2719 244.225 76.7087C243.765 75.4799 243.867 72.2031 244.43 70.5647C244.839 69.3871 244.788 68.4655 244.174 66.7759C242.793 62.8848 238.599 59.4544 237.116 60.9904Z" fill="white"/>
<path d="M155.954 61.912C152.732 62.4752 149.663 63.704 149.049 64.6768C148.896 64.984 148.538 66.4175 148.231 67.9535C147.822 70.2575 147.924 71.6399 148.742 75.4799C149.561 79.0127 149.816 82.1871 149.816 88.4334C149.868 99.2366 148.845 104.101 145.93 106.609C144.6 107.787 144.242 107.838 140.253 107.531C135.292 107.121 133.962 107.582 133.962 109.733C133.962 110.757 134.474 111.576 135.957 112.753C137.082 113.675 138.463 114.392 139.025 114.392C139.588 114.392 141.122 114.648 142.503 114.955C144.856 115.518 145.214 115.467 148.026 114.085C150.532 112.856 151.3 112.139 152.425 110.04C153.192 108.606 154.01 106.456 154.164 105.176C154.573 102.411 155.902 99.595 157.079 98.827C157.743 98.4174 158.715 98.571 160.812 99.2878C163.369 100.107 163.932 100.158 165.824 99.595C167 99.2366 168.892 98.8782 170.018 98.827L172.063 98.7758L171.961 102.513C171.91 104.92 171.552 106.712 170.989 107.685C170.222 108.965 170.171 109.528 170.682 111.217C171.04 112.344 171.296 114.136 171.296 115.262C171.296 116.593 171.603 117.617 172.217 118.129C174.314 120.075 177.842 118.437 178.047 115.569C178.61 105.79 177.689 82.9551 176.615 79.6271C176.206 78.3471 175.899 76.8111 175.899 76.0943C175.899 75.4287 175.336 74.1999 174.62 73.3295C173.086 71.4863 172.984 69.4383 174.365 67.6463C176.155 65.3936 175.899 64.1648 173.495 62.8336C171.654 61.8096 170.529 61.6048 165.313 61.5024C161.988 61.4 157.795 61.6048 155.954 61.912ZM169.404 68.8751L171.808 70.4623V73.7391C171.808 76.6575 171.654 77.0671 170.529 77.8351C169.455 78.5519 168.432 78.6543 164.955 78.3983C159.022 77.9887 155.238 79.4735 156.158 81.8799C156.823 83.6207 159.175 84.1327 164.443 83.7231C171.808 83.1599 171.961 83.2623 172.575 89.0478C172.83 91.7102 172.728 92.3758 171.91 93.3998L170.938 94.6286L168.279 92.8878C165.671 91.2494 165.517 91.1982 161.323 91.5054L157.027 91.8126L155.647 90.1742C154.368 88.6894 154.317 88.331 154.573 84.9519C154.828 81.6751 154.675 81.0095 153.345 78.2959C151.658 74.8655 151.402 71.7423 152.68 69.8991C154.061 67.9535 156.26 67.3391 161.886 67.2879C166.796 67.2879 167.154 67.3391 169.404 68.8751Z" fill="white"/>
<path d="M112.074 66.9808C109.977 68.9264 110.028 69.1312 112.994 73.1759C114.733 75.5311 114.835 76.5039 113.71 81.1119C112.994 84.1839 112.994 84.7983 113.812 88.9455C114.835 94.219 114.426 96.4718 111.92 99.6462C111.102 100.67 110.437 101.848 110.437 102.257C110.437 103.128 113.301 106.046 114.528 106.456C115.551 106.763 118.006 105.739 120.103 104.101C121.535 102.923 124.041 102.872 127.825 103.896C130.331 104.561 130.843 104.561 133.144 103.742C136.417 102.667 139.844 99.339 140.56 96.6254C141.531 92.7854 142.657 86.4367 142.657 84.6447C142.657 83.6207 142.247 82.0335 141.787 81.1119C141.173 79.7807 140.969 78.0911 141.02 74.0975C141.122 67.6464 140.662 66.9296 137.082 67.5952C132.633 68.3632 125.728 68.056 122.455 66.9296C120.768 66.3664 118.159 65.752 116.676 65.5984C114.119 65.2912 113.863 65.3936 112.074 66.9808ZM133.4 73.4831C134.423 73.7903 135.599 74.2511 136.008 74.4559C137.082 74.9679 137.849 78.8079 137.133 80.2927C136.622 81.4703 136.264 81.5215 129.615 81.8799C121.637 82.3407 118.824 81.8287 118.364 79.9343C117.034 74.2511 118.517 73.0223 126.496 72.9711C129.308 72.9199 132.428 73.1759 133.4 73.4831ZM134.218 87.4607L136.264 88.0751L136.417 91.4031C136.519 94.219 136.366 94.987 135.446 96.1646C133.809 98.2638 131.508 99.0318 126.956 99.0318C120.768 99.0318 119.182 98.6222 118.057 96.779C117.341 95.6014 117.188 94.6286 117.392 92.6318C117.801 89.0991 118.262 88.4335 121.075 87.5631C123.99 86.6415 131.405 86.5903 134.218 87.4607Z" fill="white"/>
<path d="M235.224 91.659C233.332 93.3998 233.178 93.707 233.178 96.2158C233.178 98.7758 233.281 99.0318 234.917 100.005C235.838 100.619 237.27 101.08 238.088 101.08C240.952 101.08 242.844 103.486 241.259 105.073C240.901 105.432 239.264 105.688 237.525 105.688C234.15 105.688 233.178 106.251 233.178 108.094C233.178 109.579 234.764 110.245 237.934 110.142C240.44 110.04 242.384 111.217 242.384 112.856C242.384 114.341 241.259 114.801 236.758 115.057C231.133 115.416 226.683 116.184 225.712 116.952C224.638 117.873 224.842 119.614 226.274 121.56C226.99 122.533 227.553 123.608 227.553 123.966C227.553 124.324 227.808 124.632 228.064 124.632C228.371 124.632 228.575 124.222 228.575 123.71C228.575 123.249 229.445 122.277 230.519 121.611C232.462 120.331 232.718 120.28 240.594 120.433C242.282 120.485 244.583 120.485 245.708 120.485C246.833 120.485 251.231 120.741 255.425 120.997C263.301 121.509 267.29 121.56 274.245 121.406C277.825 121.304 278.388 121.15 279.257 120.075C280.383 118.641 280.229 116.849 278.797 115.262C278.03 114.443 277.161 114.341 270.001 114.443C264.784 114.545 261.306 114.341 259.772 113.931C258.391 113.521 256.397 113.368 254.658 113.573C249.544 114.187 247.191 112.446 248.47 109.067C249.288 107.019 249.186 106.763 247.242 105.637C244.02 103.691 245.452 100.721 249.339 101.285C253.84 101.899 256.499 99.4926 255.885 95.3454C255.732 94.1166 255.272 92.683 254.914 92.1198C254.044 90.6862 249.493 89.8158 242.742 89.8158H237.27L235.224 91.659ZM248.572 93.963C250.311 95.1918 250.413 95.9598 249.032 97.2398C247.805 98.3662 242.742 99.1342 241.054 98.5198C239.264 97.803 237.986 95.6526 238.804 94.6798C240.389 92.7854 246.322 92.3246 248.572 93.963Z" fill="white"/>
<path d="M31.9336 106.712C30.8085 107.941 31.2688 109.272 32.803 109.272C35.0021 109.272 35.4624 109.989 35.1044 112.805C34.6953 116.235 35.3601 117.976 36.9967 117.976C38.8378 117.976 39.5538 116.337 39.1447 112.958C38.9401 111.269 39.0424 109.937 39.3492 109.528C39.9629 108.76 39.2981 108.145 36.4341 106.661C34.0304 105.432 33.1099 105.432 31.9336 106.712Z" fill="white"/>
<path d="M22.728 108.965C21.9097 110.193 20.5289 114.545 20.0686 117.31C19.864 118.693 20.0686 119.256 21.3472 120.536C24.3134 123.505 27.1774 122.072 27.024 117.669C27.024 116.286 27.1262 114.033 27.3308 112.702C27.6888 110.552 27.5865 110.091 26.5637 109.016C25.0805 107.429 23.7508 107.377 22.728 108.965Z" fill="white"/>
<path d="M49.0662 112.805C48.2991 114.289 48.4014 118.744 49.2708 119.461C51.0097 120.894 54.1805 117.566 54.1805 114.341C54.1805 112.241 50.0891 111.013 49.0662 112.805Z" fill="white"/>
<path d="M63.8975 112.651C63.3349 113.265 63.3349 114.033 63.8975 116.849C64.2555 118.744 64.8692 120.741 65.2272 121.304C65.6363 121.867 65.9432 122.789 65.9432 123.454C65.9432 124.068 66.1478 124.683 66.4035 124.836C67.2217 125.348 68.5003 124.58 68.5003 123.608C68.5003 123.096 68.8072 121.918 69.2163 120.997C70.0857 118.846 69.4209 114.494 67.8866 112.907C66.7615 111.627 64.8181 111.525 63.8975 112.651Z" fill="white"/>
</svg>
