<svg width="1000" height="1002" viewBox="0 0 1000 1002" fill="none" xmlns="http://www.w3.org/2000/svg">
<path d="M925.926 0C975.308 1.45719e-05 1000 24.7246 1000 74.1738V927.174C1000 976.623 975.309 1001.35 925.926 1001.35H74.0742C24.6915 1001.35 4.49207e-05 976.623 0 927.174V74.1738C7.35977e-05 24.7246 24.6915 5.83136e-07 74.0742 0H925.926ZM835.398 468.84C835.637 436.923 844.997 321.417 813.275 328.261C792.689 332.7 798.083 376.011 798.464 398.777C801.164 559.516 791.926 735.097 801.594 893.384C803.276 920.954 801.229 945.671 822.873 951.482C840.088 936.228 837.126 912.548 835.965 882.193C831.72 771.068 834.534 583.99 835.398 468.84ZM434.056 112.849C435.148 63.6113 324.109 84.5539 305.711 90.3838C282.757 97.6541 271.905 111.349 267.112 141.719C259.365 190.787 262.91 368.048 272.607 402.334C294.011 478.008 336.634 452.111 346.254 471.073C351.741 508.414 314.406 530.866 298.63 555.933C256.486 622.903 260.487 710.579 263.452 792.028C264.863 830.772 262.379 896.777 300.026 882.12C316.295 811.384 253.424 639.591 349.727 541.699C368.278 522.841 423.983 547.674 405.562 589.354C394.747 613.828 371.415 623.105 357.723 674.854C332.641 769.674 381.738 867.156 443.753 912.13C451.566 917.795 465.406 926.715 474.892 924.665C487.675 921.904 478.745 923.968 482.897 919.806C504.027 869.198 371.229 838.161 385.132 703.061C392.347 632.947 425.246 640.618 434.716 590.712C449.318 513.754 393.494 509.57 377.592 497.203L376.998 466.841C443.489 460.867 456.303 417.137 458.09 336.691L454.546 172.138C453.744 150.511 450.359 140.85 431.604 142.424C423.928 154.866 426.302 162.948 425.123 179.66C392.473 170.298 371.284 166.569 387.562 119.73C408.601 116.318 418.395 124.611 434.056 112.849ZM244.741 155.052C236.121 119.779 184.343 109.779 149.69 114.086C-6.02213 133.438 77.5624 275.07 74.7764 293.9C71.5482 315.744 37.1912 357.79 52.3691 421.153C63.2817 466.73 94.7574 474.428 138.109 477.423C134.034 549.363 156.612 537.794 168.397 589.441C187.613 673.673 153.023 756.985 113.532 817.822C87.1709 858.426 50.4157 864.128 80.0156 898.981C104.433 897.543 136.371 850.776 151.314 829.083C170.708 800.931 185.748 769.454 195.66 725.045C235.334 547.26 155.097 552.272 167.449 477.484C198.781 465.059 271.763 466.955 241.207 342.401C238.064 329.587 224.986 291.81 224.882 284.228C224.503 256.401 258.422 211.043 244.741 155.052ZM680.681 238.057C656.952 220.835 593.702 230.775 562.419 231.588C522.613 232.63 499.438 228.055 490.304 240.242C486.845 244.856 486.103 254.246 490.517 267.062C508.265 272.713 509.902 270.488 527.648 270.519C525.635 353.494 520.909 367.421 574.784 400.486L574.362 495.587C547.231 497.738 531.36 489.279 523.634 465.252C515.922 441.28 520.651 419.273 517.287 403.318C514.794 391.485 515.82 395.52 510.808 389.313C471.707 370.01 489.134 464.06 497.194 488.845C509.462 526.573 531.783 538.402 573.665 542.992L572.497 625.281L535.487 624.839C536.378 597.002 540.122 578.826 524.216 564.015C500.27 567.967 503.567 596.198 503.552 625.442C503.531 683.755 497.739 762.195 527.689 794.442C550.515 819.018 604.846 823.646 635.822 803.154C682.046 772.567 676.103 666.5 674.119 600.608C673.319 573.93 675.686 546.073 652.708 546.832C638.405 565.952 646.054 594.884 643.45 623.291L606.085 622.629L606.31 541.259C636.978 522.997 650.845 524.485 667.407 490.359C701.448 420.224 665.608 334.756 649.558 379.034C644.472 393.068 670.053 492.944 605.485 496.838L604.702 402.9C604.464 374.211 640.255 415.653 646.31 267.52C665.239 265.5 666.608 268.124 680.98 259.688C683.725 252.479 683.621 245.266 680.681 238.057ZM645.309 662.222C642.425 723.079 649.09 772.869 590.191 774.34C563.222 775.01 550.929 765.378 543.793 742.355C537.513 722.11 534.421 685.381 539.766 664.729L645.309 662.222ZM201.966 317.564C211.986 340.228 222.942 375.249 216.095 405.642C209.211 436.197 179.561 438.261 151.674 438.375C73.9331 438.698 65.979 393.657 98.5547 322.793C115.115 329.641 122.564 350.805 151.433 348C174.389 345.774 186.412 327.22 201.966 317.564ZM422.2 374.298C424.707 415.156 400.765 427.008 368.82 427.732C331.072 428.587 305.974 428.86 307.534 378.248L422.2 374.298ZM831.687 91.9092C830.97 70.0355 832.654 49.5191 812.803 51.3242C783.694 53.973 798.468 131.064 798.857 155.664C799.481 195.407 794.527 228.716 775.995 252.464C758.21 275.264 744.4 286.84 721.447 307.248C710.459 317.017 700.258 325.282 692.407 334.701C686.387 341.924 678.006 352.317 678.163 362.022C678.434 378.946 677.883 367.709 681.447 373.11C694.462 387.907 709.992 368.082 720.34 359.53C733.543 348.622 743.678 339.451 755.888 327.55C778.452 305.569 814.055 261.615 824.132 257.391C835.957 281.003 859.201 302.848 880.726 321.86C894.79 334.278 928.035 361.389 947.829 359.881C950.418 359.686 958.037 360.118 962.176 353.363C971.487 326.826 933.17 311.108 914.475 298.36C821.187 234.767 835.149 197.282 831.687 91.9092ZM554.396 303.991C555.216 266.735 548.78 263.25 614.246 267.339C615.886 300.141 616.835 341.024 597.144 355.081C565.261 367.153 553.612 339.46 554.396 303.991ZM427.925 296.154L426.445 337.913L301.543 347.855L299.87 295.871L427.925 296.154ZM149.724 232.601C168.802 225.572 183.918 259.285 186.443 273.222C155.911 328.143 132.518 294.262 116.341 285.549C120.851 269.104 139.834 236.246 149.724 232.601ZM355.476 194.255C368.163 197.694 375.401 204.677 388.355 209.016C402.359 213.702 412.878 212.464 427.052 215.541L427.523 257.975L296.46 262.287L296.492 232.159C321.311 213.011 333.395 228.575 355.476 194.255ZM150.53 156.3C208.638 150.841 238.789 166.736 205.113 236.74L192.142 221.41C187.959 215.153 185.15 210.316 180.907 204.845C141.639 154.197 126.093 236.004 97.5146 252.865C83.8121 171.512 72.0678 163.663 150.53 156.3ZM347.536 161.653C338.689 175.436 314.505 186.886 295.386 192.649C297.247 131.93 296.783 124.489 350.671 119.545L347.536 161.653ZM667.161 138.282C648.323 120.453 609.559 129.126 579.781 128.256C551.648 127.428 511.365 124.848 497.453 143.529C499.45 181.919 545.134 167.741 576.307 166.758C605.416 165.843 647.031 171.216 667.338 157.357C671.071 151.001 671.009 144.639 667.161 138.282Z" fill="#C73A2F"/>
</svg>
