<svg width="300" height="200" viewBox="0 0 300 200" fill="none" xmlns="http://www.w3.org/2000/svg">
<path d="M56.9943 161.8C56.9943 160.933 57.141 160.087 57.4343 159.26C57.741 158.42 58.181 157.66 58.7543 156.98C59.3276 156.287 60.0343 155.74 60.8743 155.34C61.7143 154.927 62.6676 154.72 63.7343 154.72C65.001 154.72 66.081 155.013 66.9743 155.6C67.881 156.173 68.5476 156.913 68.9743 157.82L67.8743 158.5C67.5676 157.873 67.181 157.38 66.7143 157.02C66.2476 156.647 65.7476 156.38 65.2143 156.22C64.6943 156.06 64.1743 155.98 63.6543 155.98C62.801 155.98 62.0476 156.153 61.3943 156.5C60.741 156.833 60.1876 157.287 59.7343 157.86C59.2943 158.42 58.961 159.053 58.7343 159.76C58.5076 160.453 58.3943 161.16 58.3943 161.88C58.3943 162.667 58.5276 163.42 58.7943 164.14C59.061 164.86 59.4343 165.5 59.9143 166.06C60.3943 166.607 60.9543 167.047 61.5943 167.38C62.2476 167.7 62.9543 167.86 63.7143 167.86C64.2476 167.86 64.7943 167.767 65.3543 167.58C65.9143 167.393 66.4343 167.107 66.9143 166.72C67.4076 166.333 67.801 165.833 68.0943 165.22L69.2543 165.82C68.961 166.527 68.5076 167.127 67.8943 167.62C67.281 168.113 66.5943 168.487 65.8343 168.74C65.0876 168.993 64.3543 169.12 63.6343 169.12C62.661 169.12 61.7676 168.913 60.9543 168.5C60.141 168.073 59.4343 167.513 58.8343 166.82C58.2476 166.113 57.7943 165.327 57.4743 164.46C57.1543 163.58 56.9943 162.693 56.9943 161.8ZM86.5452 169.12C85.7452 169.12 84.9719 168.993 84.2252 168.74C83.4919 168.473 82.8252 168.093 82.2252 167.6C81.6386 167.107 81.1719 166.513 80.8252 165.82L82.0052 165.22C82.3252 165.807 82.7252 166.3 83.2052 166.7C83.6852 167.087 84.2119 167.38 84.7852 167.58C85.3586 167.767 85.9319 167.86 86.5052 167.86C87.2786 167.86 87.9919 167.7 88.6452 167.38C89.3119 167.06 89.8919 166.62 90.3852 166.06C90.8786 165.5 91.2519 164.86 91.5052 164.14C91.7719 163.42 91.8919 162.673 91.8652 161.9L92.4852 162.32H85.1652V161.16H92.4452L91.8652 161.56C91.8519 160.88 91.7186 160.207 91.4652 159.54C91.2252 158.86 90.8786 158.26 90.4252 157.74C89.9719 157.207 89.4186 156.78 88.7652 156.46C88.1119 156.14 87.3719 155.98 86.5452 155.98C85.9719 155.98 85.4119 156.067 84.8652 156.24C84.3319 156.413 83.8386 156.687 83.3852 157.06C82.9319 157.433 82.5519 157.92 82.2452 158.52L81.0852 157.82C81.5786 156.913 82.2719 156.173 83.1652 155.6C84.0719 155.013 85.1852 154.72 86.5052 154.72C87.5852 154.72 88.5452 154.927 89.3852 155.34C90.2386 155.74 90.9519 156.287 91.5252 156.98C92.1119 157.66 92.5586 158.42 92.8652 159.26C93.1719 160.1 93.3252 160.96 93.3252 161.84C93.3252 162.76 93.1586 163.66 92.8252 164.54C92.5052 165.407 92.0452 166.187 91.4452 166.88C90.8452 167.56 90.1252 168.107 89.2852 168.52C88.4586 168.92 87.5452 169.12 86.5452 169.12ZM106.022 169V154.8H107.402V167.08L116.202 154.8H117.502V169H116.122V156.94L107.422 169H106.022ZM111.782 153.6C111.129 153.6 110.575 153.507 110.122 153.32C109.682 153.12 109.349 152.853 109.122 152.52C108.895 152.173 108.775 151.8 108.762 151.4H109.862C109.875 151.747 110.015 152.06 110.282 152.34C110.562 152.62 111.062 152.76 111.782 152.76C112.475 152.76 112.962 152.633 113.242 152.38C113.522 152.113 113.669 151.787 113.682 151.4H114.782C114.769 151.8 114.649 152.173 114.422 152.52C114.195 152.853 113.862 153.12 113.422 153.32C112.995 153.507 112.449 153.6 111.782 153.6ZM130.117 171.72V167.76H130.717C131.091 167.76 131.417 167.607 131.697 167.3C131.991 166.993 132.237 166.5 132.437 165.82C132.651 165.127 132.817 164.2 132.937 163.04C133.071 161.88 133.164 160.44 133.217 158.72L133.317 154.8H141.817V167.76H143.517V171.72H142.277V169H131.357V171.72H130.117ZM132.717 167.76H140.417V156.04H134.597L134.517 158.88C134.477 160.68 134.384 162.187 134.237 163.4C134.104 164.6 133.911 165.553 133.657 166.26C133.404 166.953 133.091 167.453 132.717 167.76ZM159.678 169.18C158.705 169.18 157.831 168.973 157.058 168.56C156.285 168.133 155.678 167.547 155.238 166.8L156.318 166.14C156.651 166.727 157.105 167.18 157.678 167.5C158.251 167.82 158.911 167.98 159.658 167.98C160.671 167.98 161.471 167.72 162.058 167.2C162.658 166.667 162.958 165.96 162.958 165.08C162.958 164.52 162.831 164.027 162.578 163.6C162.338 163.16 161.991 162.82 161.538 162.58C161.085 162.34 160.538 162.22 159.898 162.22H158.538V161.1H159.918C160.411 161.1 160.845 160.987 161.218 160.76C161.591 160.52 161.885 160.207 162.098 159.82C162.311 159.433 162.418 159 162.418 158.52C162.418 158 162.298 157.547 162.058 157.16C161.831 156.773 161.505 156.467 161.078 156.24C160.665 156.013 160.178 155.9 159.618 155.9C158.938 155.9 158.338 156.053 157.818 156.36C157.298 156.667 156.885 157.093 156.578 157.64L155.558 156.96C155.971 156.227 156.518 155.653 157.198 155.24C157.891 154.827 158.718 154.62 159.678 154.62C160.491 154.62 161.198 154.78 161.798 155.1C162.411 155.407 162.891 155.84 163.238 156.4C163.598 156.947 163.778 157.593 163.778 158.34C163.778 159.06 163.598 159.713 163.238 160.3C162.891 160.873 162.385 161.307 161.718 161.6C162.558 161.827 163.205 162.267 163.658 162.92C164.125 163.573 164.358 164.333 164.358 165.2C164.358 166.027 164.158 166.74 163.758 167.34C163.358 167.927 162.805 168.38 162.098 168.7C161.405 169.02 160.598 169.18 159.678 169.18ZM187.496 169.1C186.296 169.1 185.236 168.827 184.316 168.28C183.396 167.72 182.656 166.947 182.096 165.96C181.55 164.973 181.243 163.82 181.176 162.5H178.416V169H177.016V154.8H178.416V161.24H181.176C181.27 159.893 181.596 158.733 182.156 157.76C182.73 156.787 183.476 156.033 184.396 155.5C185.33 154.967 186.363 154.7 187.496 154.7C188.79 154.7 189.923 155.013 190.896 155.64C191.87 156.253 192.63 157.1 193.176 158.18C193.723 159.26 193.996 160.507 193.996 161.92C193.996 163.427 193.71 164.713 193.136 165.78C192.563 166.847 191.783 167.667 190.796 168.24C189.823 168.813 188.723 169.1 187.496 169.1ZM187.496 167.84C188.536 167.84 189.43 167.587 190.176 167.08C190.936 166.56 191.523 165.853 191.936 164.96C192.363 164.067 192.576 163.047 192.576 161.9C192.576 160.687 192.356 159.64 191.916 158.76C191.476 157.867 190.876 157.18 190.116 156.7C189.356 156.22 188.483 155.98 187.496 155.98C186.483 155.98 185.603 156.233 184.856 156.74C184.123 157.233 183.55 157.927 183.136 158.82C182.736 159.713 182.536 160.74 182.536 161.9C182.536 163.1 182.743 164.147 183.156 165.04C183.583 165.933 184.17 166.627 184.916 167.12C185.663 167.6 186.523 167.84 187.496 167.84ZM205.606 171.72V167.76H206.206C206.579 167.76 206.906 167.607 207.186 167.3C207.479 166.993 207.726 166.5 207.926 165.82C208.139 165.127 208.306 164.2 208.426 163.04C208.559 161.88 208.652 160.44 208.706 158.72L208.806 154.8H217.306V167.76H219.006V171.72H217.766V169H206.846V171.72H205.606ZM208.206 167.76H215.906V156.04H210.086L210.006 158.88C209.966 160.68 209.872 162.187 209.726 163.4C209.592 164.6 209.399 165.553 209.146 166.26C208.892 166.953 208.579 167.453 208.206 167.76ZM237.326 169.1C236.326 169.1 235.42 168.9 234.606 168.5C233.793 168.1 233.093 167.56 232.506 166.88C231.92 166.187 231.466 165.413 231.146 164.56C230.826 163.693 230.666 162.807 230.666 161.9C230.666 160.953 230.833 160.053 231.166 159.2C231.5 158.333 231.966 157.567 232.566 156.9C233.18 156.22 233.893 155.687 234.706 155.3C235.52 154.9 236.4 154.7 237.346 154.7C238.346 154.7 239.253 154.907 240.066 155.32C240.88 155.733 241.573 156.287 242.146 156.98C242.733 157.673 243.186 158.447 243.506 159.3C243.826 160.153 243.986 161.027 243.986 161.92C243.986 162.867 243.82 163.773 243.486 164.64C243.153 165.493 242.686 166.26 242.086 166.94C241.486 167.607 240.78 168.133 239.966 168.52C239.153 168.907 238.273 169.1 237.326 169.1ZM232.066 161.9C232.066 162.673 232.193 163.42 232.446 164.14C232.7 164.847 233.06 165.48 233.526 166.04C233.993 166.587 234.546 167.027 235.186 167.36C235.84 167.68 236.553 167.84 237.326 167.84C238.14 167.84 238.866 167.673 239.506 167.34C240.16 166.993 240.713 166.54 241.166 165.98C241.633 165.407 241.986 164.767 242.226 164.06C242.466 163.353 242.586 162.633 242.586 161.9C242.586 161.127 242.46 160.387 242.206 159.68C241.953 158.973 241.586 158.34 241.106 157.78C240.64 157.22 240.086 156.78 239.446 156.46C238.806 156.14 238.1 155.98 237.326 155.98C236.526 155.98 235.8 156.147 235.146 156.48C234.506 156.813 233.953 157.267 233.486 157.84C233.033 158.4 232.68 159.033 232.426 159.74C232.186 160.447 232.066 161.167 232.066 161.9Z" fill="white"/>
<path d="M92.0964 191.12C91.6404 191.12 91.2204 191.036 90.8364 190.868C90.4604 190.692 90.1284 190.452 89.8404 190.148C89.5604 189.844 89.3404 189.496 89.1804 189.104C89.0284 188.712 88.9524 188.296 88.9524 187.856C88.9524 187.264 89.0844 186.724 89.3484 186.236C89.6124 185.748 89.9804 185.36 90.4524 185.072C90.9244 184.784 91.4684 184.64 92.0844 184.64C92.6684 184.64 93.1844 184.776 93.6324 185.048C94.0804 185.312 94.4124 185.672 94.6284 186.128L93.8364 186.38C93.6604 186.06 93.4124 185.812 93.0924 185.636C92.7804 185.452 92.4324 185.36 92.0484 185.36C91.6324 185.36 91.2524 185.468 90.9084 185.684C90.5644 185.9 90.2884 186.196 90.0804 186.572C89.8804 186.948 89.7804 187.376 89.7804 187.856C89.7804 188.328 89.8844 188.756 90.0924 189.14C90.3004 189.524 90.5764 189.832 90.9204 190.064C91.2644 190.288 91.6444 190.4 92.0604 190.4C92.3324 190.4 92.5924 190.352 92.8404 190.256C93.0964 190.16 93.3164 190.032 93.5004 189.872C93.6924 189.704 93.8204 189.524 93.8844 189.332L94.6884 189.572C94.5764 189.868 94.3884 190.136 94.1244 190.376C93.8684 190.608 93.5644 190.792 93.2124 190.928C92.8684 191.056 92.4964 191.12 92.0964 191.12ZM115.001 190.256V191H110.933V190.256H112.637V185.12C112.573 185.216 112.465 185.32 112.313 185.432C112.161 185.544 111.985 185.648 111.785 185.744C111.593 185.84 111.401 185.92 111.209 185.984C111.017 186.048 110.841 186.08 110.681 186.08V185.288C110.865 185.288 111.065 185.236 111.281 185.132C111.497 185.028 111.705 184.908 111.905 184.772C112.105 184.636 112.273 184.508 112.409 184.388C112.545 184.268 112.621 184.188 112.637 184.148H113.477V190.256H115.001ZM127.778 188.636C127.778 189.132 127.638 189.564 127.358 189.932C127.086 190.3 126.722 190.588 126.266 190.796C125.818 190.996 125.326 191.096 124.79 191.096C124.222 191.096 123.718 190.984 123.278 190.76C122.838 190.528 122.49 190.224 122.234 189.848C121.986 189.472 121.862 189.052 121.862 188.588C121.862 188.228 121.946 187.904 122.114 187.616C122.29 187.32 122.506 187.072 122.762 186.872C123.026 186.672 123.294 186.528 123.566 186.44C123.318 186.336 123.086 186.2 122.87 186.032C122.654 185.856 122.482 185.652 122.354 185.42C122.226 185.188 122.162 184.932 122.162 184.652C122.162 184.3 122.238 183.992 122.39 183.728C122.55 183.456 122.758 183.228 123.014 183.044C123.27 182.852 123.554 182.712 123.866 182.624C124.186 182.528 124.506 182.48 124.826 182.48C125.138 182.48 125.45 182.528 125.762 182.624C126.082 182.712 126.37 182.848 126.626 183.032C126.89 183.216 127.098 183.444 127.25 183.716C127.41 183.98 127.49 184.288 127.49 184.64C127.49 184.92 127.422 185.18 127.286 185.42C127.158 185.652 126.986 185.856 126.77 186.032C126.554 186.2 126.318 186.336 126.062 186.44C126.374 186.544 126.658 186.704 126.914 186.92C127.178 187.128 127.386 187.376 127.538 187.664C127.698 187.952 127.778 188.276 127.778 188.636ZM126.95 188.576C126.95 188.288 126.886 188.036 126.758 187.82C126.638 187.596 126.47 187.408 126.254 187.256C126.046 187.104 125.814 186.988 125.558 186.908C125.31 186.828 125.058 186.788 124.802 186.788C124.458 186.788 124.122 186.864 123.794 187.016C123.474 187.16 123.21 187.368 123.002 187.64C122.802 187.904 122.702 188.22 122.702 188.588C122.702 188.868 122.762 189.116 122.882 189.332C123.01 189.548 123.178 189.736 123.386 189.896C123.594 190.048 123.822 190.164 124.07 190.244C124.326 190.324 124.582 190.364 124.838 190.364C125.182 190.364 125.514 190.292 125.834 190.148C126.162 189.996 126.43 189.784 126.638 189.512C126.846 189.24 126.95 188.928 126.95 188.576ZM122.978 184.688C122.978 184.992 123.07 185.256 123.254 185.48C123.446 185.696 123.686 185.86 123.974 185.972C124.262 186.084 124.542 186.14 124.814 186.14C125.102 186.14 125.386 186.084 125.666 185.972C125.954 185.852 126.19 185.684 126.374 185.468C126.566 185.244 126.662 184.976 126.662 184.664C126.662 184.36 126.574 184.1 126.398 183.884C126.222 183.668 125.99 183.504 125.702 183.392C125.422 183.28 125.122 183.224 124.802 183.224C124.498 183.224 124.202 183.284 123.914 183.404C123.634 183.516 123.406 183.684 123.23 183.908C123.062 184.124 122.978 184.384 122.978 184.688ZM138.647 192.524V190.388H134.651V189.668L138.911 184.148H139.463V189.644H140.519V190.388H139.463V192.524H138.647ZM135.515 189.644H138.731V185.432L135.515 189.644ZM147.358 187.076C147.358 186.532 147.49 186.04 147.754 185.6C148.026 185.16 148.39 184.808 148.846 184.544C149.31 184.28 149.822 184.148 150.382 184.148C150.982 184.148 151.51 184.292 151.966 184.58C152.43 184.86 152.79 185.268 153.046 185.804C153.31 186.332 153.442 186.968 153.442 187.712C153.442 188.872 153.31 189.832 153.046 190.592C152.782 191.344 152.414 191.908 151.942 192.284C151.47 192.66 150.922 192.848 150.298 192.848C149.738 192.848 149.23 192.704 148.774 192.416C148.326 192.136 147.986 191.752 147.754 191.264L148.282 190.784C148.45 191.184 148.718 191.508 149.086 191.756C149.454 192.004 149.858 192.128 150.298 192.128C150.778 192.128 151.19 191.98 151.534 191.684C151.886 191.388 152.158 190.964 152.35 190.412C152.55 189.86 152.654 189.192 152.662 188.408C152.55 188.712 152.374 188.984 152.134 189.224C151.894 189.456 151.618 189.636 151.306 189.764C150.994 189.892 150.654 189.956 150.286 189.956C149.75 189.956 149.258 189.828 148.81 189.572C148.362 189.316 148.006 188.972 147.742 188.54C147.486 188.1 147.358 187.612 147.358 187.076ZM150.37 184.868C149.962 184.868 149.59 184.968 149.254 185.168C148.918 185.368 148.646 185.636 148.438 185.972C148.238 186.3 148.138 186.668 148.138 187.076C148.138 187.476 148.238 187.844 148.438 188.18C148.646 188.516 148.918 188.784 149.254 188.984C149.598 189.184 149.97 189.284 150.37 189.284C150.778 189.284 151.15 189.184 151.486 188.984C151.822 188.784 152.09 188.516 152.29 188.18C152.49 187.844 152.59 187.476 152.59 187.076C152.59 186.676 152.49 186.308 152.29 185.972C152.09 185.636 151.818 185.368 151.474 185.168C151.138 184.968 150.77 184.868 150.37 184.868ZM169.904 191V184.748H173.636V185.48H170.72V191H169.904ZM183.443 191.12C182.995 191.12 182.579 191.036 182.195 190.868C181.819 190.692 181.491 190.456 181.211 190.16C180.939 189.856 180.727 189.512 180.575 189.128C180.423 188.736 180.347 188.324 180.347 187.892C180.347 187.444 180.423 187.028 180.575 186.644C180.727 186.252 180.943 185.908 181.223 185.612C181.503 185.308 181.831 185.072 182.207 184.904C182.591 184.728 183.007 184.64 183.455 184.64C183.903 184.64 184.315 184.728 184.691 184.904C185.067 185.072 185.395 185.308 185.675 185.612C185.955 185.908 186.171 186.252 186.323 186.644C186.475 187.028 186.551 187.444 186.551 187.892C186.551 188.324 186.475 188.736 186.323 189.128C186.171 189.512 185.955 189.856 185.675 190.16C185.403 190.456 185.075 190.692 184.691 190.868C184.315 191.036 183.899 191.12 183.443 191.12ZM181.175 187.904C181.175 188.368 181.275 188.792 181.475 189.176C181.683 189.552 181.959 189.852 182.303 190.076C182.647 190.292 183.027 190.4 183.443 190.4C183.859 190.4 184.239 190.288 184.583 190.064C184.927 189.84 185.203 189.536 185.411 189.152C185.619 188.76 185.723 188.336 185.723 187.88C185.723 187.416 185.619 186.992 185.411 186.608C185.203 186.224 184.927 185.92 184.583 185.696C184.239 185.472 183.859 185.36 183.443 185.36C183.027 185.36 182.647 185.476 182.303 185.708C181.967 185.94 181.695 186.248 181.487 186.632C181.279 187.008 181.175 187.432 181.175 187.904ZM193.22 192.452V190.268H193.328C193.512 190.268 193.68 190.212 193.832 190.1C193.984 189.988 194.12 189.792 194.24 189.512C194.36 189.232 194.456 188.848 194.528 188.36C194.6 187.864 194.648 187.24 194.672 186.488L194.732 184.748H198.8V190.268H199.64V192.452H198.908V191H193.94V192.452H193.22ZM194.564 190.268H197.984V185.48H195.464L195.428 186.56C195.404 187.304 195.352 187.928 195.272 188.432C195.2 188.928 195.104 189.324 194.984 189.62C194.872 189.908 194.732 190.124 194.564 190.268ZM206.373 189.2C206.373 188.808 206.485 188.472 206.709 188.192C206.933 187.904 207.241 187.684 207.633 187.532C208.033 187.372 208.493 187.292 209.013 187.292C209.317 187.292 209.633 187.316 209.961 187.364C210.289 187.412 210.581 187.484 210.837 187.58V187.052C210.837 186.524 210.681 186.104 210.369 185.792C210.057 185.48 209.625 185.324 209.073 185.324C208.737 185.324 208.405 185.388 208.077 185.516C207.757 185.636 207.421 185.816 207.069 186.056L206.757 185.48C207.165 185.2 207.565 184.992 207.957 184.856C208.349 184.712 208.749 184.64 209.157 184.64C209.925 184.64 210.533 184.86 210.981 185.3C211.429 185.74 211.653 186.348 211.653 187.124V190.016C211.653 190.128 211.677 190.212 211.725 190.268C211.773 190.316 211.849 190.344 211.953 190.352V191C211.865 191.008 211.789 191.016 211.725 191.024C211.661 191.032 211.613 191.032 211.581 191.024C211.381 191.016 211.229 190.952 211.125 190.832C211.021 190.712 210.965 190.584 210.957 190.448L210.945 189.992C210.665 190.352 210.301 190.632 209.853 190.832C209.405 191.024 208.949 191.12 208.485 191.12C208.085 191.12 207.721 191.036 207.393 190.868C207.073 190.692 206.821 190.46 206.637 190.172C206.461 189.876 206.373 189.552 206.373 189.2ZM210.561 189.68C210.649 189.568 210.717 189.46 210.765 189.356C210.813 189.252 210.837 189.16 210.837 189.08V188.168C210.565 188.064 210.281 187.984 209.985 187.928C209.697 187.872 209.405 187.844 209.109 187.844C208.525 187.844 208.053 187.96 207.693 188.192C207.333 188.424 207.153 188.74 207.153 189.14C207.153 189.372 207.213 189.592 207.333 189.8C207.453 190 207.629 190.168 207.861 190.304C208.093 190.432 208.365 190.496 208.677 190.496C209.069 190.496 209.433 190.42 209.769 190.268C210.113 190.116 210.377 189.92 210.561 189.68Z" fill="white"/>
<path d="M144.249 10.3787C136.274 11.3892 129.693 13.6285 123.849 17.2607C110.412 25.59 101.264 39.3539 99.3249 54.1009C96.7851 73.4359 105.142 92.4705 121.145 103.804C122.647 104.869 123.849 105.524 124.286 105.524C124.859 105.524 125.487 104.924 127.59 102.329C129.01 100.554 131.359 97.9051 132.806 96.3758C134.254 94.8737 135.51 93.399 135.619 93.0713C135.756 92.5798 135.455 92.3067 133.352 91.0778C125.979 86.7083 118.769 77.4231 117.731 70.9781C117.622 70.2134 117.322 68.8207 117.103 67.8375C116.857 66.8544 116.584 64.5331 116.502 62.6488C116.12 55.166 117.895 48.721 122.128 42.4399C125.214 37.8519 129.474 34.0559 134.39 31.5434C139.661 28.8398 143.593 27.9659 150.885 27.8567C154.353 27.8021 155.855 27.6655 155.937 27.447C155.992 27.2832 157.63 24.4976 159.569 21.2751C161.508 18.08 163.42 14.7482 163.83 13.9016C164.731 12.0992 164.758 12.1538 161.672 11.3072C156.784 9.99639 150.038 9.64137 144.249 10.3787Z" fill="white"/>
<path d="M175.381 18.79C175.381 18.8446 176.911 20.0735 178.795 21.5209C180.652 22.9683 182.345 24.4157 182.509 24.7707C182.81 25.3442 182.81 25.3442 182.318 24.9346C177.948 21.3297 176.446 20.3466 176.474 21.1932C176.501 21.3844 177.156 21.9579 177.976 22.4767C179.915 23.7056 181.99 25.7812 181.28 25.7812C180.871 25.7812 180.952 25.9723 181.744 26.8462C182.263 27.447 182.837 28.1571 183.001 28.4302C183.246 28.9217 183.165 28.9763 182.4 28.9763C181.908 28.9763 181.362 28.8671 181.171 28.7033C180.98 28.5667 180.761 28.4848 180.679 28.5667C180.625 28.6486 181.171 29.4679 181.963 30.3964C182.728 31.3249 183.301 32.1442 183.219 32.2262C183.137 32.3081 182.127 31.5434 180.952 30.533L178.795 28.7033L180.871 30.8607C183.274 33.3185 184.503 35.3121 183.383 34.8752C182.755 34.6294 183.001 35.2029 184.393 37.2511C184.994 38.125 185.622 39.19 185.759 39.5997C186.032 40.2824 186.005 40.3097 185.595 39.9547C185.322 39.7362 184.312 38.4527 183.301 37.1145C181.663 34.9025 179.997 33.0727 180.707 34.247C180.843 34.4655 181.69 35.6398 182.564 36.8414C184.639 39.627 185.431 41.2382 184.994 41.6752C184.748 41.921 184.503 41.839 183.984 41.3475C183.574 40.9651 183.192 40.8013 183.083 40.9378C182.973 41.1017 182.564 41.2382 182.154 41.2655C181.526 41.2929 181.171 41.0471 180.188 39.7635C178.877 38.043 177.921 37.0872 177.703 37.3057C177.621 37.3603 178.058 38.0977 178.659 38.8896C179.259 39.7089 179.751 40.419 179.751 40.4736C179.751 40.5555 178.959 39.8455 178.003 38.9442C176.201 37.1965 175.682 36.8687 176.255 37.7973C176.72 38.5346 176.392 38.7258 175.409 38.2342C174.972 37.9884 174.507 37.7973 174.426 37.7973C174.316 37.7973 174.863 38.5619 175.6 39.4904C182.919 48.721 185.295 59.0712 182.618 70.1042C181.854 73.2448 181.772 74.1187 182.291 74.1187C183.192 74.1187 192.013 74.9925 194.853 75.3749C197.529 75.7026 198.185 75.7299 198.512 75.4295C199.851 74.3371 200.834 68.6295 200.888 62.1026C200.916 56.7226 200.561 53.6367 199.359 48.8848C197.147 40.0366 193.187 32.7723 187.152 26.5185C183.875 23.1322 177.839 18.3803 177.839 19.1996C177.839 19.3362 178.03 19.5 178.249 19.6093C178.467 19.6912 178.659 19.8823 178.659 20.0189C178.659 20.1554 178.003 19.9097 177.238 19.4727C175.873 18.7354 175.381 18.5442 175.381 18.79Z" fill="white"/>
<path d="M149.574 30.8061C149.438 30.8881 148.973 30.9973 148.564 31.0792C147.826 31.2431 147.799 31.325 147.799 32.9909C147.799 36.5138 149.246 51.3974 149.683 52.6536C149.957 53.3363 150.202 51.9708 151.349 43.8327C152.524 35.6945 152.879 31.5708 152.524 31.2158C152.223 30.9154 150.093 30.615 149.574 30.8061Z" fill="white"/>
<path d="M128.437 39.8455C127.836 40.5009 127.317 41.211 127.317 41.4294C127.317 42.0575 143.511 55.8214 143.866 55.4664C144.139 55.1933 132.123 40.1732 130.621 38.9443C129.966 38.3981 129.638 38.5346 128.437 39.8455Z" fill="white"/>
<path d="M166.915 42.6311C160.552 49.5949 157.303 53.2544 156.729 54.0464L156.183 54.8656L156.975 54.1556C159.132 52.2712 169.947 42.0576 170.711 41.211C171.421 40.419 171.503 40.1459 171.285 39.709C171.121 39.4086 170.793 39.1628 170.52 39.1628C170.274 39.1901 168.636 40.7194 166.915 42.6311Z" fill="white"/>
<path d="M148.837 55.2753C148.263 55.3845 147.225 55.8214 146.515 56.2584C144.877 57.2415 143.593 59.5628 143.593 61.5291C143.593 63.113 144.795 65.407 146.16 66.5267C149.082 68.848 153.916 67.8375 155.582 64.5604C156.593 62.5668 156.538 60.5187 155.391 58.252C154.626 56.8046 154.299 56.3949 153.261 55.9034C151.813 55.2206 150.257 55.0022 148.837 55.2753Z" fill="white"/>
<path d="M119.752 59.399C119.288 59.8632 119.315 61.8841 119.78 62.5122C120.135 63.0038 120.353 63.0311 125.514 62.7034C132.56 62.2664 140.425 61.5837 141.081 61.3106C141.6 61.1194 136.984 60.546 128.546 59.8086C120.162 59.0439 120.107 59.0439 119.752 59.399Z" fill="white"/>
<path d="M173.606 60.3548C171.804 60.4913 162.764 61.0375 161.508 61.0648C160.225 61.0921 159.597 61.5564 160.825 61.5564C161.262 61.5564 163.502 61.6656 165.823 61.8022C168.144 61.966 172.35 62.1299 175.136 62.2391L180.242 62.403L180.406 61.7203C180.761 60.3275 180.488 60.1909 177.457 60.2455C175.955 60.2729 174.207 60.3275 173.606 60.3548Z" fill="white"/>
<path d="M139.415 70.6504C129.092 79.7444 127.645 81.0826 127.617 81.6288C127.59 82.2569 128.792 83.677 129.338 83.677C129.556 83.677 131.468 81.6834 133.625 79.2256C135.783 76.795 138.896 73.2721 140.589 71.3878C143.484 68.138 144.522 66.7452 144.058 66.7452C143.948 66.7452 141.846 68.5203 139.415 70.6504Z" fill="white"/>
<path d="M156.593 68.8207C157.521 70.1315 163.748 76.795 164.376 77.2046C164.84 77.4777 165.823 77.2046 165.823 76.795C165.823 76.2761 156.429 67.5645 155.883 67.5645C155.773 67.5645 156.101 68.138 156.593 68.8207Z" fill="white"/>
<path d="M149.656 76.3854C149.574 80.0175 149.601 83.1035 149.711 83.2127C150.038 83.595 150.748 83.1035 151.021 82.3661C151.376 81.2464 150.475 70.1861 149.984 69.8857C149.874 69.8038 149.711 72.7259 149.656 76.3854Z" fill="white"/>
<path d="M176.61 77.3958C163.283 78.8705 150.912 84.032 140.535 92.4159C136.52 95.6657 131.168 101.291 128.519 105.033C126.361 108.119 123.903 112.297 124.149 112.543C124.176 112.598 125.678 111.751 127.481 110.659C138.65 103.94 150.284 100.39 162.819 99.8714C167.571 99.6802 172.896 100.063 177.238 100.882C182.1 101.81 181.908 101.892 185.185 98.5878C188.517 95.2288 188.599 95.42 183.656 94.6007C173.825 92.9348 164.348 93.3718 154.217 95.9662C149.083 97.277 145.751 98.5059 140.835 100.882C136.602 102.957 132.861 105.142 130.103 107.163C129.092 107.9 128.218 108.447 128.164 108.365C127.918 108.119 132.123 104.077 135.373 101.455C143.402 94.983 152.032 90.9139 162.628 88.6199C171.039 86.7902 181.717 86.7629 190.32 88.538C193.296 89.1661 192.969 89.3846 195.017 85.5613C196.464 82.8304 197.502 80.1814 197.502 79.1709C197.502 78.4882 197.666 78.5428 192.723 77.7781C189.5 77.2866 179.724 77.0681 176.61 77.3958Z" fill="white"/>
<path d="M94.5457 124.696V126.143L91.1321 126.061C88.21 125.979 87.7184 126.034 87.7184 126.389C87.7184 126.744 88.2919 126.826 91.214 126.88L94.6823 126.962L94.7642 128.055L94.8461 129.147L94.1634 128.492L93.4533 127.836L92.7979 128.437C92.2244 128.983 91.8967 129.038 90.2035 128.956C88.8381 128.901 88.2646 128.956 88.2646 129.202C88.2646 129.393 88.7561 129.557 89.4389 129.611L90.5859 129.693V131.468V133.243L89.3023 133.38C88.5923 133.462 87.9642 133.598 87.9095 133.653C87.6638 133.953 88.3192 135.565 88.6742 135.565C88.8927 135.565 89.0839 135.428 89.0839 135.292C89.0839 135.128 89.2204 135.018 89.3569 135.018C89.9304 135.018 93.9995 133.325 94.6003 132.834C95.5015 132.124 95.0919 131.933 93.7264 132.424C93.0983 132.643 92.5248 132.834 92.4702 132.834C92.4156 132.834 92.361 132.096 92.361 131.195V129.557H93.6991C95.01 129.557 95.0373 129.557 95.2285 130.567C95.7473 133.298 98.1505 136.111 100.008 136.111C100.526 136.111 100.554 136.002 100.39 134.254C100.281 133.243 100.171 132.369 100.117 132.342C100.09 132.288 99.8437 132.615 99.5979 133.107C99.161 133.953 99.1337 133.953 98.5875 133.462C97.659 132.615 96.7032 130.431 96.4847 128.573L96.2935 126.826H98.1232C100.117 126.826 100.69 126.471 99.7345 125.815C99.4341 125.597 99.0518 125.105 98.9152 124.75C98.6148 123.986 97.9867 123.685 95.9931 123.412L94.5457 123.221V124.696ZM97.5224 124.941C98.2052 125.87 98.0413 126.225 96.9216 126.143C96.4301 126.116 96.2935 125.897 96.2389 125.105C96.1297 123.822 96.6485 123.767 97.5224 124.941Z" fill="white"/>
<path d="M73.7907 123.876C73.7907 124.641 72.1248 127.7 71.087 128.819C69.9127 130.075 69.7762 130.376 70.2678 130.376C71.0051 130.376 73.3264 128.273 74.3915 126.662C75.0196 125.706 75.6477 124.914 75.7569 124.914C76.2758 124.914 75.9208 124.34 75.1561 123.958C74.2003 123.467 73.7907 123.439 73.7907 123.876Z" fill="white"/>
<path d="M77.7505 123.822C77.6413 123.985 77.8324 124.887 78.1875 125.815C78.8702 127.618 81.1915 130.376 82.0381 130.376C82.2839 130.376 82.6662 130.021 82.8847 129.584L83.2943 128.765L81.8196 128.055C80.263 127.29 78.4333 125.269 78.4333 124.34C78.4333 123.74 77.9963 123.439 77.7505 123.822Z" fill="white"/>
<path d="M160.498 123.822C160.389 123.986 160.47 124.286 160.634 124.532C161.126 125.105 159.979 126.744 156.866 129.775C155.446 131.168 154.353 132.369 154.435 132.451C154.654 132.697 156.866 131.332 158.258 130.103C158.941 129.502 159.569 129.01 159.679 129.01C159.815 129.01 159.815 130.376 159.76 132.014C159.624 134.472 159.679 135.128 160.006 135.455C160.853 136.275 161.044 135.729 161.181 132.26C161.29 129.529 161.235 128.792 160.907 128.382C160.552 127.918 160.607 127.782 161.809 126.662C162.519 125.979 163.092 125.269 163.092 125.051C163.092 124.313 160.853 123.275 160.498 123.822Z" fill="white"/>
<path d="M205.995 124.067C205.722 124.259 205.777 124.395 206.241 124.723C206.814 125.105 206.814 125.269 206.76 130.075C206.705 135.128 206.814 135.81 207.716 135.483C208.071 135.346 208.153 134.773 208.153 132.288C208.153 128.847 208.316 128.655 209.9 130.267C210.993 131.386 211.785 131.414 211.921 130.349C212.03 129.475 211.102 128.792 209.436 128.519C208.344 128.328 208.289 128.246 208.207 127.317C208.153 126.744 208.262 126.034 208.426 125.706C208.699 125.214 208.671 125.023 208.262 124.641C207.634 124.04 206.487 123.767 205.995 124.067Z" fill="white"/>
<path d="M110.522 124.341C110.44 124.504 110.631 124.75 110.931 124.914C111.396 125.16 111.505 125.433 111.423 126.361L111.341 127.508L109.293 127.727C107.927 127.863 106.999 127.809 106.48 127.618C105.47 127.181 105.251 127.508 105.934 128.41C106.535 129.174 106.671 129.202 109.156 128.847L110.522 128.655L109.266 130.13C108.583 130.949 107.381 132.096 106.616 132.697C105.852 133.298 105.224 133.871 105.224 133.981C105.114 134.882 108.255 133.079 110.276 131.059L111.423 129.884L111.614 131.496C111.723 132.369 111.723 133.216 111.614 133.353C111.532 133.516 111.013 133.653 110.494 133.653C109.976 133.653 109.566 133.762 109.566 133.926C109.566 134.063 109.702 134.199 109.839 134.199C110.003 134.199 110.44 134.527 110.822 134.937C111.478 135.647 111.559 135.674 112.242 135.264C112.98 134.855 112.98 134.855 112.952 131.687C112.898 128.027 112.87 128.082 115.601 128.382C116.83 128.492 117.158 128.464 117.294 128.109C117.595 127.317 116.803 127.017 114.755 127.235C112.925 127.426 112.843 127.399 112.843 126.826C112.843 126.498 112.98 125.979 113.143 125.679C113.417 125.187 113.362 124.996 112.843 124.586C112.188 124.067 110.795 123.931 110.522 124.341Z" fill="white"/>
<path d="M143.566 124.532C142.419 124.805 141.736 124.832 141.299 124.641C140.944 124.477 140.562 124.368 140.425 124.368C139.961 124.368 140.125 125.078 140.698 125.597C141.217 126.061 141.49 126.088 143.866 125.815C146.679 125.515 147.471 125.133 146.597 124.477C145.969 124.04 145.778 124.04 143.566 124.532Z" fill="white"/>
<path d="M224.402 125.105C221.807 125.406 220.633 125.433 220.059 125.214C219.076 124.859 218.967 124.969 219.185 125.843C219.431 126.88 220.141 127.126 221.589 126.689C222.299 126.498 223.855 126.225 225.112 126.116L227.351 125.924L226.75 126.798C226.067 127.754 225.767 127.863 225.521 127.208C225.412 126.908 225.057 126.826 224.21 126.88C223.145 126.962 222.326 127.645 223.337 127.645C224.538 127.645 222.872 132.834 221.152 134.445C220.332 135.21 220.251 135.565 220.879 135.565C221.698 135.565 224.156 132.752 224.757 131.113C225.084 130.239 225.357 129.393 225.357 129.202C225.357 128.901 226.914 127.945 229.126 126.88C229.59 126.635 230 126.307 230 126.143C230 125.679 228.798 124.641 228.334 124.668C228.116 124.696 226.368 124.887 224.402 125.105Z" fill="white"/>
<path d="M193.433 125.761C192.259 126.225 188.818 126.389 188.353 126.006C187.807 125.542 187.561 125.815 187.78 126.662C188.053 127.727 188.708 127.918 190.402 127.481C191.221 127.263 192.231 127.099 192.668 127.099H193.433L192.832 127.973C191.712 129.584 188.708 132.533 187.288 133.462C186.141 134.199 186.005 134.363 186.496 134.418C187.261 134.527 188.845 133.708 191.002 132.042L192.75 130.704L193.597 131.441C194.061 131.823 194.771 132.615 195.181 133.161C195.945 134.226 196.847 134.5 197.147 133.762C197.447 132.998 196.737 132.096 195.071 131.059C194.143 130.485 193.406 129.966 193.406 129.912C193.406 129.666 194.908 127.754 195.427 127.317L196 126.853L195.345 126.17C194.607 125.406 194.416 125.351 193.433 125.761Z" fill="white"/>
<path d="M123.657 126.935C124.094 127.454 124.668 128.164 124.914 128.519C125.269 129.038 125.46 129.092 125.87 128.847C126.143 128.683 126.361 128.246 126.361 127.891C126.361 127.099 124.832 126.006 123.685 126.006H122.893L123.657 126.935Z" fill="white"/>
<path d="M130.976 127.754C129.201 129.666 125.951 132.206 124.941 132.451C124.586 132.561 124.149 132.479 123.931 132.315C123.548 131.987 123.22 132.178 123.22 132.724C123.22 133.189 124.559 134.745 124.941 134.745C125.487 134.745 129.72 130.977 130.949 129.42C133.571 126.088 133.598 124.969 130.976 127.754Z" fill="white"/>
<path d="M171.558 126.088C171.558 126.17 171.859 126.58 172.214 126.99C172.596 127.426 173.115 128.082 173.415 128.437C174.098 129.311 174.835 129.038 174.835 127.945C174.835 127.372 174.644 126.99 174.18 126.689C173.524 126.252 171.558 125.815 171.558 126.088Z" fill="white"/>
<path d="M178.931 128.273C177.648 129.529 175.818 131.031 174.835 131.659C173.278 132.697 173.033 132.779 172.65 132.424C172.022 131.851 171.831 131.905 171.831 132.697C171.831 133.407 172.896 134.745 173.442 134.745C173.825 134.745 177.129 131.878 178.686 130.185C180.078 128.71 181.471 126.634 181.335 126.279C181.28 126.143 180.215 127.044 178.931 128.273Z" fill="white"/>
<path d="M146.133 126.935C146.078 127.017 144.74 127.208 143.184 127.372C141.19 127.59 140.262 127.59 140.07 127.399C139.661 126.99 139.06 127.017 139.06 127.481C139.06 127.7 139.278 128.137 139.552 128.464L140.043 129.065L142.829 128.601C144.385 128.328 145.723 128.191 145.805 128.273C146.16 128.628 144.303 131.195 142.173 133.298C139.661 135.81 139.797 136.275 142.501 134.5C144.44 133.243 145.423 132.233 147.089 129.775L148.345 127.918L147.744 127.372C147.198 126.88 146.406 126.662 146.133 126.935Z" fill="white"/>
<path d="M74.6919 128.956C74.5281 129.693 74.0092 131.086 73.5723 132.096C72.7803 133.79 72.6711 133.926 71.8518 133.926C71.0325 133.926 71.0052 133.953 71.169 134.8C71.3875 135.865 71.8245 136.384 72.0976 135.92C72.2068 135.756 73.5176 135.401 75.0197 135.155C76.5217 134.937 78.1329 134.609 78.6245 134.5C79.4165 134.281 79.5257 134.308 79.7715 135.046C79.9626 135.647 80.2084 135.838 80.7273 135.838C81.3554 135.838 81.4373 135.729 81.4373 134.773C81.4373 133.817 81.2735 133.544 79.7715 132.178C78.843 131.304 78.0237 130.704 77.9418 130.786C77.8598 130.867 78.0783 131.496 78.4333 132.151C78.7883 132.806 79.0341 133.407 78.9795 133.462C78.8976 133.544 77.696 133.68 76.3032 133.79L73.7634 133.981L74.8285 132.342C75.402 131.441 76.0574 130.321 76.2486 129.857C76.4397 129.393 76.6855 129.01 76.8221 129.01C77.1225 129.01 77.1498 128.273 76.8767 128.109C76.7401 128.027 76.2759 127.891 75.8389 127.809C75.047 127.645 75.0197 127.672 74.6919 128.956Z" fill="white"/>
</svg>
