<svg width="300" height="200" viewBox="0 0 300 200" fill="none" xmlns="http://www.w3.org/2000/svg">
<path d="M71.7917 169V154.8H81.3117V156.04H73.1917V160.98H77.8717C79.4317 160.98 80.5851 161.347 81.3317 162.08C82.0784 162.8 82.4517 163.74 82.4517 164.9C82.4517 165.66 82.2851 166.353 81.9517 166.98C81.6317 167.593 81.1384 168.087 80.4717 168.46C79.8184 168.82 78.9917 169 77.9917 169H71.7917ZM73.1917 167.76H77.8317C78.6051 167.76 79.2251 167.62 79.6917 167.34C80.1584 167.06 80.4984 166.7 80.7117 166.26C80.9251 165.807 81.0317 165.34 81.0317 164.86C81.0317 164.38 80.9384 163.933 80.7517 163.52C80.5651 163.093 80.2317 162.753 79.7517 162.5C79.2851 162.233 78.6251 162.1 77.7717 162.1H73.1917V167.76ZM98.9652 154.8H100.145L106.045 169H104.565L102.725 164.56H96.3452L94.5252 169H93.0252L98.9652 154.8ZM102.405 163.46L99.5452 156.44L96.6452 163.46H102.405ZM118.161 169V154.8H119.541V167.08L128.341 154.8H129.641V169H128.261V156.94L119.561 169H118.161ZM123.921 153.6C123.267 153.6 122.714 153.507 122.261 153.32C121.821 153.12 121.487 152.853 121.261 152.52C121.034 152.173 120.914 151.8 120.901 151.4H122.001C122.014 151.747 122.154 152.06 122.421 152.34C122.701 152.62 123.201 152.76 123.921 152.76C124.614 152.76 125.101 152.633 125.381 152.38C125.661 152.113 125.807 151.787 125.821 151.4H126.921C126.907 151.8 126.787 152.173 126.561 152.52C126.334 152.853 126.001 153.12 125.561 153.32C125.134 153.507 124.587 153.6 123.921 153.6ZM148.176 169.12C147.376 169.12 146.603 168.993 145.856 168.74C145.123 168.473 144.456 168.093 143.856 167.6C143.269 167.107 142.803 166.513 142.456 165.82L143.636 165.22C143.956 165.807 144.356 166.3 144.836 166.7C145.316 167.087 145.843 167.38 146.416 167.58C146.989 167.767 147.563 167.86 148.136 167.86C148.909 167.86 149.623 167.7 150.276 167.38C150.943 167.06 151.523 166.62 152.016 166.06C152.509 165.5 152.883 164.86 153.136 164.14C153.403 163.42 153.523 162.673 153.496 161.9L154.116 162.32H146.796V161.16H154.076L153.496 161.56C153.483 160.88 153.349 160.207 153.096 159.54C152.856 158.86 152.509 158.26 152.056 157.74C151.603 157.207 151.049 156.78 150.396 156.46C149.743 156.14 149.003 155.98 148.176 155.98C147.603 155.98 147.043 156.067 146.496 156.24C145.963 156.413 145.469 156.687 145.016 157.06C144.563 157.433 144.183 157.92 143.876 158.52L142.716 157.82C143.209 156.913 143.903 156.173 144.796 155.6C145.703 155.013 146.816 154.72 148.136 154.72C149.216 154.72 150.176 154.927 151.016 155.34C151.869 155.74 152.583 156.287 153.156 156.98C153.743 157.66 154.189 158.42 154.496 159.26C154.803 160.1 154.956 160.96 154.956 161.84C154.956 162.76 154.789 163.66 154.456 164.54C154.136 165.407 153.676 166.187 153.076 166.88C152.476 167.56 151.756 168.107 150.916 168.52C150.089 168.92 149.176 169.12 148.176 169.12ZM167.653 169V154.8H169.033V167.08L177.833 154.8H179.133V169H177.753V156.94L169.053 169H167.653ZM191.748 171.72V167.76H192.348C192.722 167.76 193.048 167.607 193.328 167.3C193.622 166.993 193.868 166.5 194.068 165.82C194.282 165.127 194.448 164.2 194.568 163.04C194.702 161.88 194.795 160.44 194.848 158.72L194.948 154.8H203.448V167.76H205.148V171.72H203.908V169H192.988V171.72H191.748ZM194.348 167.76H202.048V156.04H196.228L196.148 158.88C196.108 160.68 196.015 162.187 195.868 163.4C195.735 164.6 195.542 165.553 195.288 166.26C195.035 166.953 194.722 167.453 194.348 167.76ZM223.469 169.1C222.469 169.1 221.562 168.9 220.749 168.5C219.935 168.1 219.235 167.56 218.649 166.88C218.062 166.187 217.609 165.413 217.289 164.56C216.969 163.693 216.809 162.807 216.809 161.9C216.809 160.953 216.975 160.053 217.309 159.2C217.642 158.333 218.109 157.567 218.709 156.9C219.322 156.22 220.035 155.687 220.849 155.3C221.662 154.9 222.542 154.7 223.489 154.7C224.489 154.7 225.395 154.907 226.209 155.32C227.022 155.733 227.715 156.287 228.289 156.98C228.875 157.673 229.329 158.447 229.649 159.3C229.969 160.153 230.129 161.027 230.129 161.92C230.129 162.867 229.962 163.773 229.629 164.64C229.295 165.493 228.829 166.26 228.229 166.94C227.629 167.607 226.922 168.133 226.109 168.52C225.295 168.907 224.415 169.1 223.469 169.1ZM218.209 161.9C218.209 162.673 218.335 163.42 218.589 164.14C218.842 164.847 219.202 165.48 219.669 166.04C220.135 166.587 220.689 167.027 221.329 167.36C221.982 167.68 222.695 167.84 223.469 167.84C224.282 167.84 225.009 167.673 225.649 167.34C226.302 166.993 226.855 166.54 227.309 165.98C227.775 165.407 228.129 164.767 228.369 164.06C228.609 163.353 228.729 162.633 228.729 161.9C228.729 161.127 228.602 160.387 228.349 159.68C228.095 158.973 227.729 158.34 227.249 157.78C226.782 157.22 226.229 156.78 225.589 156.46C224.949 156.14 224.242 155.98 223.469 155.98C222.669 155.98 221.942 156.147 221.289 156.48C220.649 156.813 220.095 157.267 219.629 157.84C219.175 158.4 218.822 159.033 218.569 159.74C218.329 160.447 218.209 161.167 218.209 161.9Z" fill="white"/>
<path d="M91.8659 191.12C91.4099 191.12 90.9899 191.036 90.6059 190.868C90.2299 190.692 89.8979 190.452 89.6099 190.148C89.3299 189.844 89.1099 189.496 88.9499 189.104C88.7979 188.712 88.7219 188.296 88.7219 187.856C88.7219 187.264 88.8539 186.724 89.1179 186.236C89.3819 185.748 89.7499 185.36 90.2219 185.072C90.6939 184.784 91.2379 184.64 91.8539 184.64C92.4379 184.64 92.9539 184.776 93.4019 185.048C93.8499 185.312 94.1819 185.672 94.3979 186.128L93.6059 186.38C93.4299 186.06 93.1819 185.812 92.8619 185.636C92.5499 185.452 92.2019 185.36 91.8179 185.36C91.4019 185.36 91.0219 185.468 90.6779 185.684C90.3339 185.9 90.0579 186.196 89.8499 186.572C89.6499 186.948 89.5499 187.376 89.5499 187.856C89.5499 188.328 89.6539 188.756 89.8619 189.14C90.0699 189.524 90.3459 189.832 90.6899 190.064C91.0339 190.288 91.4139 190.4 91.8299 190.4C92.1019 190.4 92.3619 190.352 92.6099 190.256C92.8659 190.16 93.0859 190.032 93.2699 189.872C93.4619 189.704 93.5899 189.524 93.6539 189.332L94.4579 189.572C94.3459 189.868 94.1579 190.136 93.8939 190.376C93.6379 190.608 93.3339 190.792 92.9819 190.928C92.6379 191.056 92.2659 191.12 91.8659 191.12ZM114.77 190.256V191H110.702V190.256H112.406V185.12C112.342 185.216 112.234 185.32 112.082 185.432C111.93 185.544 111.754 185.648 111.554 185.744C111.362 185.84 111.17 185.92 110.978 185.984C110.786 186.048 110.61 186.08 110.45 186.08V185.288C110.634 185.288 110.834 185.236 111.05 185.132C111.266 185.028 111.474 184.908 111.674 184.772C111.874 184.636 112.042 184.508 112.178 184.388C112.314 184.268 112.39 184.188 112.406 184.148H113.246V190.256H114.77ZM127.739 188.192C127.739 188.728 127.603 189.22 127.331 189.668C127.067 190.108 126.707 190.46 126.251 190.724C125.795 190.988 125.283 191.12 124.715 191.12C124.123 191.12 123.595 190.98 123.131 190.7C122.675 190.412 122.315 190 122.051 189.464C121.787 188.928 121.655 188.292 121.655 187.556C121.655 186.396 121.787 185.44 122.051 184.688C122.315 183.928 122.683 183.36 123.155 182.984C123.627 182.608 124.175 182.42 124.799 182.42C125.367 182.42 125.875 182.564 126.323 182.852C126.771 183.132 127.111 183.516 127.343 184.004L126.815 184.484C126.647 184.076 126.379 183.752 126.011 183.512C125.651 183.264 125.247 183.14 124.799 183.14C124.327 183.14 123.915 183.288 123.563 183.584C123.211 183.88 122.935 184.304 122.735 184.856C122.543 185.408 122.447 186.076 122.447 186.86C122.567 186.548 122.743 186.276 122.975 186.044C123.207 185.812 123.479 185.632 123.791 185.504C124.111 185.376 124.451 185.312 124.811 185.312C125.355 185.312 125.847 185.44 126.287 185.696C126.735 185.952 127.087 186.3 127.343 186.74C127.607 187.172 127.739 187.656 127.739 188.192ZM124.739 190.4C125.139 190.4 125.507 190.3 125.843 190.1C126.179 189.9 126.447 189.632 126.647 189.296C126.855 188.96 126.959 188.592 126.959 188.192C126.959 187.792 126.855 187.424 126.647 187.088C126.447 186.752 126.179 186.484 125.843 186.284C125.507 186.084 125.139 185.984 124.739 185.984C124.331 185.984 123.955 186.084 123.611 186.284C123.275 186.484 123.007 186.752 122.807 187.088C122.607 187.416 122.507 187.784 122.507 188.192C122.507 188.592 122.607 188.96 122.807 189.296C123.015 189.632 123.287 189.9 123.623 190.1C123.959 190.3 124.331 190.4 124.739 190.4ZM137.406 192.788C136.806 192.788 136.262 192.636 135.774 192.332C135.286 192.036 134.922 191.644 134.682 191.156L135.222 190.748C135.446 191.14 135.75 191.456 136.134 191.696C136.526 191.936 136.954 192.056 137.418 192.056C137.818 192.056 138.174 191.968 138.486 191.792C138.806 191.616 139.058 191.372 139.242 191.06C139.434 190.748 139.53 190.388 139.53 189.98C139.53 189.588 139.438 189.244 139.254 188.948C139.078 188.644 138.834 188.408 138.522 188.24C138.218 188.072 137.874 187.988 137.49 187.988C137.122 187.988 136.77 188.072 136.434 188.24C136.098 188.4 135.826 188.636 135.618 188.948H134.862L135.81 184.148H139.926V184.904H136.422L135.834 187.964C136.042 187.74 136.298 187.568 136.602 187.448C136.906 187.32 137.234 187.256 137.586 187.256C138.106 187.256 138.574 187.372 138.99 187.604C139.414 187.836 139.75 188.156 139.998 188.564C140.246 188.972 140.37 189.44 140.37 189.968C140.37 190.528 140.234 191.02 139.962 191.444C139.698 191.868 139.342 192.196 138.894 192.428C138.446 192.668 137.95 192.788 137.406 192.788ZM151.77 184.76H147.174V184.004H153.066L148.758 192.524H147.822L151.77 184.76ZM169.134 191V184.748H172.866V185.48H169.95V191H169.134ZM182.673 191.12C182.225 191.12 181.809 191.036 181.425 190.868C181.049 190.692 180.721 190.456 180.441 190.16C180.169 189.856 179.957 189.512 179.805 189.128C179.653 188.736 179.577 188.324 179.577 187.892C179.577 187.444 179.653 187.028 179.805 186.644C179.957 186.252 180.173 185.908 180.453 185.612C180.733 185.308 181.061 185.072 181.437 184.904C181.821 184.728 182.237 184.64 182.685 184.64C183.133 184.64 183.545 184.728 183.921 184.904C184.297 185.072 184.625 185.308 184.905 185.612C185.185 185.908 185.401 186.252 185.553 186.644C185.705 187.028 185.781 187.444 185.781 187.892C185.781 188.324 185.705 188.736 185.553 189.128C185.401 189.512 185.185 189.856 184.905 190.16C184.633 190.456 184.305 190.692 183.921 190.868C183.545 191.036 183.129 191.12 182.673 191.12ZM180.405 187.904C180.405 188.368 180.505 188.792 180.705 189.176C180.913 189.552 181.189 189.852 181.533 190.076C181.877 190.292 182.257 190.4 182.673 190.4C183.089 190.4 183.469 190.288 183.813 190.064C184.157 189.84 184.433 189.536 184.641 189.152C184.849 188.76 184.953 188.336 184.953 187.88C184.953 187.416 184.849 186.992 184.641 186.608C184.433 186.224 184.157 185.92 183.813 185.696C183.469 185.472 183.089 185.36 182.673 185.36C182.257 185.36 181.877 185.476 181.533 185.708C181.197 185.94 180.925 186.248 180.717 186.632C180.509 187.008 180.405 187.432 180.405 187.904ZM192.45 192.452V190.268H192.558C192.742 190.268 192.91 190.212 193.062 190.1C193.214 189.988 193.35 189.792 193.47 189.512C193.59 189.232 193.686 188.848 193.758 188.36C193.83 187.864 193.878 187.24 193.902 186.488L193.962 184.748H198.03V190.268H198.87V192.452H198.138V191H193.17V192.452H192.45ZM193.794 190.268H197.214V185.48H194.694L194.658 186.56C194.634 187.304 194.582 187.928 194.502 188.432C194.43 188.928 194.334 189.324 194.214 189.62C194.102 189.908 193.962 190.124 193.794 190.268ZM205.603 189.2C205.603 188.808 205.715 188.472 205.939 188.192C206.163 187.904 206.471 187.684 206.863 187.532C207.263 187.372 207.723 187.292 208.243 187.292C208.547 187.292 208.863 187.316 209.191 187.364C209.519 187.412 209.811 187.484 210.067 187.58V187.052C210.067 186.524 209.911 186.104 209.599 185.792C209.287 185.48 208.855 185.324 208.303 185.324C207.967 185.324 207.635 185.388 207.307 185.516C206.987 185.636 206.651 185.816 206.299 186.056L205.987 185.48C206.395 185.2 206.795 184.992 207.187 184.856C207.579 184.712 207.979 184.64 208.387 184.64C209.155 184.64 209.763 184.86 210.211 185.3C210.659 185.74 210.883 186.348 210.883 187.124V190.016C210.883 190.128 210.907 190.212 210.955 190.268C211.003 190.316 211.079 190.344 211.183 190.352V191C211.095 191.008 211.019 191.016 210.955 191.024C210.891 191.032 210.843 191.032 210.811 191.024C210.611 191.016 210.459 190.952 210.355 190.832C210.251 190.712 210.195 190.584 210.187 190.448L210.175 189.992C209.895 190.352 209.531 190.632 209.083 190.832C208.635 191.024 208.179 191.12 207.715 191.12C207.315 191.12 206.951 191.036 206.623 190.868C206.303 190.692 206.051 190.46 205.867 190.172C205.691 189.876 205.603 189.552 205.603 189.2ZM209.791 189.68C209.879 189.568 209.947 189.46 209.995 189.356C210.043 189.252 210.067 189.16 210.067 189.08V188.168C209.795 188.064 209.511 187.984 209.215 187.928C208.927 187.872 208.635 187.844 208.339 187.844C207.755 187.844 207.283 187.96 206.923 188.192C206.563 188.424 206.383 188.74 206.383 189.14C206.383 189.372 206.443 189.592 206.563 189.8C206.683 190 206.859 190.168 207.091 190.304C207.323 190.432 207.595 190.496 207.907 190.496C208.299 190.496 208.663 190.42 208.999 190.268C209.343 190.116 209.607 189.92 209.791 189.68Z" fill="white"/>
<path d="M132 120.087C131.755 120.185 130.017 121.815 130.017 121.951C130.017 121.999 130.125 122.077 130.252 122.125C130.547 122.232 130.802 122.581 130.802 122.873C130.802 123.154 130.576 123.979 130.311 124.648C130.193 124.939 130.066 125.289 130.017 125.425C129.977 125.561 129.82 125.929 129.673 126.249C129.113 127.453 129.359 128.161 130.4 128.326C131.067 128.433 131.146 128.511 130.999 128.986C130.714 129.85 130.753 129.811 130.193 129.927C129.869 130.005 129.85 130.121 130.115 130.345C130.351 130.548 130.37 131.004 130.174 131.461C130.095 131.635 129.958 131.955 129.869 132.169C129.575 132.877 129.643 132.848 128.494 132.877C127.709 132.897 127.404 132.868 127.346 132.78C127.228 132.606 127.365 129.694 127.503 129.413C127.562 129.277 127.807 129.073 128.053 128.947C128.494 128.724 129.133 128.181 129.133 128.035C129.133 127.996 128.986 127.773 128.809 127.54C128.593 127.259 128.396 127.113 128.21 127.094C127.954 127.065 127.935 127.036 127.984 126.657C128.003 126.434 128.131 126.007 128.249 125.716C128.377 125.425 128.494 124.939 128.514 124.648L128.544 124.115L127.424 122.97C126.138 121.669 126 121.611 125.234 122.125C124.998 122.281 124.773 122.416 124.743 122.416C124.665 122.416 123.103 123.591 122.966 123.756C122.75 124.027 122.897 124.115 123.673 124.134C125.107 124.173 125.372 124.58 125.224 126.473C125.165 127.133 125.077 127.724 125.008 127.802C124.94 127.88 124.753 127.948 124.596 127.948C124.429 127.948 124.026 128.016 123.692 128.103C123.26 128.219 122.661 128.258 121.552 128.258C120.599 128.258 120 128.297 120 128.355C120 128.404 120.147 128.569 120.314 128.724C121.257 129.529 121.768 129.937 122.239 130.238C122.74 130.568 122.789 130.587 123.535 130.558C123.958 130.539 124.341 130.558 124.38 130.587C124.468 130.684 122.838 132.489 121.679 133.576C121.139 134.09 120.648 134.634 120.589 134.779C120.481 135.08 120.53 135.769 120.737 136.536C120.805 136.798 120.894 137.128 120.923 137.263C121.002 137.623 121.326 137.933 121.561 137.875C121.669 137.846 122.17 137.341 122.671 136.739C123.535 135.701 123.702 135.517 124.262 134.905C124.399 134.75 124.557 134.653 124.616 134.692C124.743 134.77 124.674 135.75 124.458 137.215C124.262 138.496 124.321 138.768 124.93 139.447L125.431 140L125.882 139.932C126.422 139.854 127.071 139.389 127.071 139.078C127.071 138.962 127.139 138.777 127.228 138.671C127.346 138.515 127.375 138.176 127.355 136.875C127.336 135.09 127.326 135.119 128.072 134.983C128.671 134.876 128.671 135.07 128.082 136.215C127.807 136.759 127.974 137.487 128.534 138.069C129.094 138.68 129.693 138.787 130.007 138.341C130.193 138.088 130.272 138.059 131.018 138.001C133.797 137.787 133.964 137.797 134.18 138.214C134.396 138.632 135.28 139.495 135.644 139.641C135.928 139.757 136.036 139.757 136.469 139.631C136.743 139.554 137.048 139.389 137.166 139.272C137.588 138.816 137.991 137.817 138.266 136.536C138.423 135.779 138.678 134.886 138.776 134.76C138.904 134.614 139.375 134.605 139.837 134.74C140.426 134.915 141.634 135.041 142.105 134.983C142.351 134.944 142.675 134.828 142.822 134.702C143.058 134.517 143.087 134.44 143.038 134.187C142.95 133.799 141.919 132.683 141.339 132.344C140.927 132.111 140.858 132.091 140.465 132.198C140.004 132.324 139.542 132.353 139.542 132.256C139.542 132.169 140.102 131.393 140.269 131.257C140.75 130.859 139.955 129.714 138.619 128.84C138.079 128.491 137.598 128.443 137.068 128.666C136.508 128.899 133.65 129.452 133.552 129.335C133.513 129.297 133.424 129.054 133.355 128.792C133.287 128.54 133.189 128.307 133.149 128.278C133.1 128.248 133.061 128.142 133.061 128.045C133.061 127.909 133.169 127.831 133.483 127.744C133.709 127.686 134.092 127.579 134.338 127.511C135.123 127.298 135.938 127.084 136.783 126.88C137.234 126.773 137.617 126.676 137.627 126.667C137.627 126.647 137.784 126.453 137.951 126.24C138.325 125.764 138.334 125.658 138.04 125.318C137.529 124.716 136.547 124.551 135.977 124.978C135.526 125.308 134.995 125.561 133.955 125.958C132.953 126.337 132.472 126.463 132.472 126.337C132.472 126.269 133.316 125.153 133.454 125.036C133.64 124.881 134.75 123.358 134.829 123.144C134.897 122.96 134.887 122.766 134.77 122.416C134.632 122.009 134.534 121.892 133.984 121.543C133.64 121.32 133.277 121.029 133.179 120.893C132.933 120.534 132.413 119.99 132.315 120C132.265 120 132.128 120.039 132 120.087ZM136.793 131.024C136.783 131.228 136.724 131.567 136.645 131.781C136.567 131.994 136.498 132.237 136.498 132.324C136.498 132.596 136.282 132.683 135.516 132.712L134.779 132.751L134.789 132.46C134.799 132.033 135.064 131.169 135.231 131.004C135.31 130.927 135.614 130.82 135.909 130.772C136.812 130.626 136.793 130.626 136.793 131.024ZM133.238 131.422C133.257 131.548 133.198 131.878 133.1 132.149C133.012 132.431 132.923 132.712 132.904 132.771C132.864 132.916 131.882 132.945 131.882 132.8C131.882 132.528 132.462 131.363 132.648 131.247C132.923 131.092 133.208 131.179 133.238 131.422ZM135.85 134.343C135.928 134.469 135.428 136.012 135.241 136.215C135.143 136.342 134.946 136.39 134.622 136.39C133.945 136.39 133.847 136.332 133.847 135.915C133.847 135.575 134.112 134.624 134.269 134.372C134.367 134.236 135.771 134.207 135.85 134.343ZM132.393 134.837C132.373 135.08 132.275 135.517 132.177 135.808L131.99 136.342H131.323C130.586 136.342 130.586 136.342 130.812 135.711C131.293 134.381 131.323 134.343 132.03 134.381L132.423 134.401L132.393 134.837Z" fill="white"/>
<path d="M154.911 120.679C154.479 120.893 154.086 121.106 154.027 121.145C153.978 121.184 153.703 121.291 153.418 121.388C152.917 121.553 152.917 121.553 152.505 121.33C151.366 120.699 151.277 120.67 150.737 120.67C150.138 120.67 149.5 120.815 149.402 120.971C149.372 121.029 149.421 121.165 149.529 121.281C149.844 121.65 150.119 122.339 150.492 123.678C150.59 124.027 150.757 124.396 150.855 124.503C151.11 124.804 151.955 125.075 152.191 124.949C152.387 124.842 152.996 124.144 152.996 124.018C152.996 123.94 153.801 122.892 154.204 122.465C154.567 122.077 155.048 121.931 155.245 122.164C155.353 122.281 155.264 122.543 154.754 123.746C154.066 125.347 153.772 125.871 153.516 125.949C153.418 125.978 152.966 126.065 152.505 126.143C152.043 126.23 151.327 126.366 150.904 126.453C149.981 126.638 149.853 126.579 150.128 126.065C150.315 125.725 150.315 125.696 150.148 125.114C149.883 124.173 149.461 123.173 149.176 122.814C148.724 122.242 147.212 121.922 146.75 122.3C146.524 122.494 145.827 123.678 145.827 123.872C145.827 123.959 145.925 123.979 146.132 123.93C146.348 123.891 146.515 123.93 146.711 124.066C146.976 124.25 147.988 125.434 147.988 125.551C147.988 125.667 148.567 126.444 148.773 126.618C149.038 126.841 148.989 127.006 148.616 127.084C148.459 127.113 148.233 127.191 148.115 127.249C147.752 127.443 147.546 127.375 147.173 126.929C146.426 126.046 144.747 125.007 144.747 125.434C144.747 125.493 144.796 125.619 144.855 125.725C145.042 126.075 145.032 126.773 144.845 127.831C144.737 128.394 144.609 128.986 144.56 129.151C144.511 129.316 144.393 129.714 144.305 130.034C144.207 130.354 144.069 130.781 144.001 130.985C143.785 131.558 143.843 132.101 144.197 132.936C144.551 133.77 144.992 134.304 145.415 134.381C145.837 134.469 146.416 134.304 146.593 134.042C146.898 133.634 147.29 132.489 147.448 131.606C147.477 131.412 147.546 131.247 147.595 131.247C147.654 131.247 148.105 131.519 148.606 131.858C149.097 132.198 149.716 132.596 149.981 132.741C150.236 132.887 150.443 133.023 150.443 133.042C150.443 133.081 148.783 134.061 148.705 134.061C148.479 134.061 146.171 135.323 145.906 135.585C145.582 135.915 145.582 135.924 145.601 136.759C145.621 137.729 145.866 138.467 146.22 138.574C146.515 138.661 147.271 138.447 147.703 138.147C148.852 137.341 150.335 136.128 150.826 135.585C151.081 135.313 151.268 135.255 151.376 135.42C151.405 135.468 151.385 136.157 151.317 136.934C151.209 138.292 151.209 138.37 151.405 138.758C151.523 138.971 151.778 139.321 151.994 139.525C152.78 140.281 153.438 140.049 153.929 138.845C154.194 138.185 154.194 138.176 154.165 136.148C154.135 134.663 154.155 134.11 154.233 134.11C154.341 134.11 154.734 134.411 155.716 135.245C156.629 136.021 156.826 136.254 156.826 136.565C156.826 136.837 156.757 136.904 156.315 137.166C156.03 137.322 155.588 137.525 155.333 137.613C154.479 137.894 154.567 138.059 155.628 138.147C156.688 138.234 157.788 138.641 158.417 139.185C158.505 139.263 158.868 139.35 159.222 139.369C159.801 139.418 159.87 139.408 160.106 139.175C160.312 138.971 160.361 138.826 160.361 138.457C160.361 137.826 159.86 136.002 159.605 135.701C159.536 135.624 159.477 135.497 159.477 135.439C159.477 135.216 157.837 134.081 156.561 133.421C156.207 133.236 155.863 133.052 155.805 133.003C155.746 132.965 155.608 132.897 155.5 132.868C154.135 132.479 154.066 132.198 155.284 132.023C156.384 131.868 156.394 131.858 156.62 131.509C156.787 131.237 156.845 131.024 156.914 130.364C156.924 130.325 157.003 130.277 157.101 130.248C157.189 130.218 157.513 130.102 157.808 129.986C159.369 129.384 160.371 129.112 161.009 129.112C161.363 129.112 161.736 129.073 161.834 129.015C162.129 128.86 162.423 128.297 162.423 127.889C162.423 127.2 161.481 126.366 159.458 125.24C158.967 124.959 158.014 124.92 157.729 125.163C157.641 125.24 157.474 125.328 157.366 125.347C157.258 125.376 157.091 125.434 157.003 125.473C156.639 125.619 156.845 125.24 157.474 124.59C158.21 123.833 158.593 123.29 158.593 122.989C158.593 122.494 156.6 120.495 155.932 120.33C155.755 120.291 155.471 120.388 154.911 120.679ZM158.279 127.395C158.338 127.686 156.443 129.791 156.129 129.791C156.05 129.791 155.746 129.733 155.451 129.656C154.98 129.529 154.842 129.539 154.322 129.665C153.998 129.743 153.683 129.85 153.615 129.908C153.487 130.015 151.69 128.86 151.749 128.695C151.759 128.646 151.975 128.54 152.22 128.481C152.456 128.413 152.917 128.287 153.241 128.19C153.939 127.996 154.832 127.783 155.451 127.657C155.696 127.618 156.021 127.53 156.168 127.472C156.325 127.414 156.629 127.365 156.855 127.356C157.081 127.346 157.376 127.307 157.513 127.268C157.896 127.142 158.24 127.2 158.279 127.395ZM148.754 128.423C149.225 128.656 149.677 128.763 150.394 128.811L151.179 128.87L151.228 129.636C151.258 130.053 151.258 130.422 151.228 130.461C151.169 130.548 149.893 130.83 149.166 130.917C148.449 131.004 147.87 130.975 147.742 130.849C147.654 130.762 147.654 128.287 147.752 128.132C147.791 128.064 148.4 128.249 148.754 128.423Z" fill="white"/>
<path d="M171.193 121.601C170.908 121.795 170.672 121.98 170.672 122.019C170.682 122.048 170.82 122.164 170.987 122.271C171.615 122.669 171.595 123.037 170.928 123.726C170.437 124.241 170.23 124.231 170.132 123.688C170.054 123.222 169.847 122.931 169.268 122.426C168.767 122.009 168.443 121.902 168.561 122.193C168.777 122.746 168.728 123.241 168.374 124.115C167.913 125.24 167.893 125.677 168.306 126.182C168.473 126.395 168.61 126.618 168.61 126.676C168.61 126.744 168.404 126.783 168.08 126.783H167.54L167.324 126.347C167.039 125.784 166.243 125.036 165.585 124.707C164.8 124.318 164.741 124.338 164.819 125.056C164.957 126.308 164.682 128.472 164.299 129.19C164.024 129.694 163.307 131.257 163.16 131.645L162.993 132.101L163.356 132.809C163.553 133.207 163.896 133.76 164.112 134.042C164.761 134.896 165.183 134.905 165.792 134.09C166.44 133.207 167.127 131.305 167.589 129.112C167.687 128.656 167.775 128.268 167.795 128.239C167.815 128.219 168.09 128.161 168.394 128.122C168.698 128.084 169.131 128.025 169.347 127.996C172.519 127.56 175.73 127.142 177.154 126.997C178.234 126.88 178.362 126.968 178.057 127.579C177.596 128.481 176.771 129.791 176.653 129.791C176.604 129.791 176.564 129.626 176.564 129.423C176.564 129.112 176.496 128.986 176.054 128.559C175.18 127.724 175.052 127.705 174.1 128.19C173.726 128.375 173.334 128.53 173.216 128.53C173.098 128.53 172.666 128.588 172.253 128.666C170.132 129.064 169.789 129.112 169.307 129.122C168.856 129.141 168.757 129.102 168.463 128.821C168.168 128.54 168.119 128.52 168.06 128.666C168.021 128.753 168.05 129.229 168.109 129.724C168.178 130.218 168.257 131.179 168.286 131.858C168.345 133.091 168.345 133.1 168.64 133.343C169.032 133.673 169.415 133.595 169.936 133.091C170.378 132.664 170.564 132.615 170.8 132.877C170.977 133.062 171.036 134.187 170.888 134.42C170.8 134.566 169.572 134.614 168.59 134.508C168.09 134.449 167.824 134.459 167.824 134.527C167.824 134.575 168.158 134.954 168.571 135.362C169.366 136.128 169.415 136.148 170.525 136.215L170.918 136.245L170.947 136.71C170.967 136.972 170.928 137.234 170.879 137.302C170.564 137.671 167.883 137.467 166.646 136.972C166.351 136.856 165.968 136.72 165.792 136.672C165.615 136.623 165.448 136.536 165.419 136.487C165.379 136.429 165.271 136.39 165.163 136.39C164.986 136.39 164.967 136.429 165.026 136.701C165.124 137.137 165.664 137.982 166.361 138.806C167.265 139.864 167.913 140.058 169.455 139.748C171.34 139.36 176.564 139.107 178.499 139.311C179.717 139.437 180.041 139.36 180.267 138.913C180.365 138.709 180.355 138.632 180.227 138.428C179.952 138.011 179.039 137.186 178.204 136.613C177.772 136.322 177.252 136.332 176.525 136.672C175.857 136.982 173.579 137.361 173.402 137.186C173.353 137.137 173.324 136.866 173.343 136.575L173.373 136.05L174.208 135.924C175.465 135.74 176.172 135.536 176.368 135.294C176.525 135.109 176.525 135.07 176.388 134.837C175.769 133.848 175.072 133.576 173.962 133.916L173.481 134.051L172.98 133.586C172.705 133.324 172.332 133.042 172.145 132.945C171.841 132.79 171.831 132.761 171.978 132.654C172.312 132.412 172.921 132.392 173.265 132.596C173.952 133.033 174.178 133.12 174.532 133.052C175.17 132.936 175.465 132.567 175.838 131.412C176.024 130.839 176.172 130.742 176.456 130.995C176.761 131.257 177.488 131.461 177.753 131.354C177.89 131.305 178.519 130.839 179.137 130.306C179.766 129.782 180.63 129.064 181.052 128.714C181.799 128.103 181.838 128.045 181.946 127.511C182.083 126.832 182.005 126.657 181.16 125.755C180.551 125.114 179.717 124.551 179.373 124.551C179.275 124.551 178.99 124.658 178.725 124.784C178.126 125.085 177.448 125.201 177.448 125.017C177.448 124.949 177.537 124.804 177.655 124.716C177.988 124.425 177.782 123.862 177.065 123.125C176.535 122.572 175.082 121.834 174.532 121.834C174.267 121.834 174.139 122.009 174.345 122.086C174.433 122.116 174.502 122.184 174.502 122.232C174.502 122.271 174.64 122.504 174.797 122.737C175.199 123.338 175.19 123.746 174.738 124.415C174.384 124.939 174.1 125.182 173.972 125.066C173.825 124.91 173.933 124.212 174.198 123.697C174.453 123.193 174.473 123.115 174.355 122.853C174.217 122.533 173.825 122.145 173.098 121.601C172.44 121.116 171.91 121.116 171.193 121.601ZM171.635 125.735C171.654 126.007 171.615 126.123 171.438 126.24C171.154 126.444 170.771 126.444 170.771 126.24C170.771 126.046 171.379 125.318 171.507 125.357C171.566 125.376 171.615 125.551 171.635 125.735ZM173.304 129.821C173.451 129.986 173.304 130.946 173.118 131.063C173.039 131.111 172.852 131.15 172.685 131.15C172.528 131.15 172.106 131.218 171.753 131.296C170.908 131.48 170.319 131.48 170.25 131.305C170.181 131.14 170.27 130.49 170.388 130.267C170.446 130.15 170.672 130.083 171.124 130.034C171.487 129.995 172.057 129.908 172.381 129.84C173.157 129.675 173.186 129.675 173.304 129.821Z" fill="white"/>
<path d="M112.22 10.399C109.154 11.1032 108.057 11.5382 105.986 12.9259C102.776 15.0592 100.787 17.7932 99.3583 21.9977C98.9855 23.0955 98.9648 24.3589 99.0269 58.6579C99.0684 78.1893 99.1512 94.5932 99.2133 95.111C99.8968 100.6 102.755 105.115 107.208 107.683C109.113 108.802 109.714 109.05 111.867 109.63C113.338 110.024 114.208 110.024 150.182 109.982C180.295 109.92 187.213 109.858 188.227 109.63C192.68 108.636 196.512 106.213 198.81 102.982C199.825 101.552 200.115 101.097 200.26 100.703C200.322 100.538 200.509 100.103 200.654 99.7712C202.041 96.478 202 98.2178 202 59.7971C202 23.0333 202 23.4061 201.089 20.8379C200.219 18.4353 198.044 15.5149 195.89 13.8165C193.509 11.9524 191.81 11.1032 188.952 10.3783C187.461 10.0055 186.156 9.98478 150.638 10.0055C115.761 10.0055 113.794 10.0262 112.22 10.399ZM188.352 14.7485C191.955 15.867 194.689 18.1453 196.201 21.2314C196.781 22.4534 197.112 23.4683 197.236 24.421C197.34 25.2081 197.464 41.1149 197.506 59.7971C197.589 87.779 197.547 94.0547 197.319 95.401C196.491 100.248 192.494 104.349 187.627 105.343C186.177 105.633 182.201 105.674 149.892 105.674C118.246 105.674 113.669 105.633 113.007 105.363C112.613 105.198 112.137 105.053 111.992 105.053C111.288 105.053 108.885 103.624 107.643 102.505C105.24 100.31 103.894 97.6171 103.542 94.3654C103.314 92.3356 103.19 25.4566 103.397 24.1932C103.521 23.5097 103.997 22.2048 104.453 21.2935C106.151 17.8346 109.424 15.3906 113.152 14.7692C114.001 14.6243 114.85 14.4793 115.015 14.4379C115.181 14.4171 131.46 14.3757 151.176 14.355C186.467 14.3343 187.047 14.3343 188.352 14.7485Z" fill="white"/>
<path d="M149.188 18.2696C124.584 18.3524 114.104 18.456 113.669 18.6009C110.397 19.7815 108.637 21.4799 107.643 24.3796C107.332 25.3116 107.29 26.4301 107.332 35.7712C107.373 41.467 107.415 46.1686 107.456 46.2307C107.498 46.3136 107.56 53.3764 107.58 61.9304C107.601 70.6916 107.705 77.5679 107.808 77.6301C107.891 77.6922 108.326 77.4644 108.761 77.133C109.61 76.4909 113.338 73.9848 113.462 73.9848C113.524 73.9848 114.249 73.5084 115.078 72.9492C115.927 72.3692 116.693 71.9136 116.817 71.9136C116.921 71.9136 117.625 72.3485 118.35 72.9077C119.924 74.0676 121.187 74.7925 123.051 75.5382C123.818 75.8696 124.252 76.4702 123.714 76.4702C123.528 76.4702 119.22 79.6391 118.951 79.9705C118.888 80.0534 118.205 80.6126 117.397 81.234C115.181 82.9738 115.181 82.9738 114.829 83.3052C114.643 83.4709 113.711 84.3201 112.737 85.1692C110.004 87.5511 107.953 89.5809 107.767 90.0366C107.684 90.2644 107.684 91.7142 107.746 93.2469C107.87 95.7738 107.953 96.1673 108.492 97.265C109.217 98.6942 110.604 100.123 111.909 100.786C113.566 101.615 114.767 101.842 117.501 101.842C118.93 101.842 134.753 101.822 152.667 101.78C179.715 101.739 185.494 101.677 186.633 101.428C189.843 100.765 192.225 98.5699 193.032 95.5252C193.219 94.821 193.281 87.7997 193.301 66.777C193.301 43.0411 193.26 38.9608 193.012 38.8573C192.846 38.7951 191.893 39.1265 190.878 39.6236C187.71 41.1149 185.784 42.0262 184.292 42.7097C183.505 43.0825 182.159 43.7039 181.331 44.0974C179.943 44.7602 179.757 44.8016 179.26 44.5531C178.266 44.0767 177.271 43.7246 176.215 43.476C175.076 43.1861 174.703 42.6268 175.532 42.399C175.801 42.3369 177.044 41.8398 178.286 41.322C179.55 40.8042 180.937 40.245 181.393 40.0793C181.849 39.9136 182.366 39.7065 182.532 39.6029C182.801 39.4786 185.266 38.5052 187.606 37.6145C188.062 37.4281 188.724 37.1589 189.056 37.0139C189.408 36.8689 190.091 36.5997 190.609 36.3925C191.127 36.2061 191.935 35.8747 192.432 35.6469L193.301 35.2534V30.2411C193.301 24.8352 193.177 24.0275 192.162 22.2877C191.438 21.045 190.464 20.0715 189.263 19.3673C188.145 18.7252 185.639 18.0417 184.686 18.1039C184.354 18.1453 168.387 18.2074 149.188 18.2696ZM180.337 25.9744C181.89 26.5958 181.993 27.3828 180.502 27.3828C180.13 27.3828 179.115 27.7142 178.286 28.1285C177.437 28.5427 176.609 28.8327 176.464 28.7705C176.07 28.6255 175.822 26.4715 176.132 25.9123C176.319 25.5395 176.505 25.498 177.934 25.5809C178.804 25.6223 179.902 25.8087 180.337 25.9744ZM174.6 28.5634L175.035 30.3861L174.372 31.5252C173.999 32.1466 173.544 33.2029 173.336 33.845C173.129 34.5077 172.839 35.0463 172.715 35.0463C171.742 35.0463 171.245 30.5103 172.073 29.0398C172.487 28.3149 173.813 26.7615 174.041 26.7615C174.103 26.7615 174.351 27.5899 174.6 28.5634ZM183.775 29.5783C185.349 33.1822 182.035 37.7802 177.851 37.7388C177.002 37.7181 175.366 37.3453 174.89 37.0346C174.476 36.7653 174.683 34.1142 175.2 33.1615C176.671 30.4689 179.363 28.7291 182.159 28.6463L183.34 28.6255L183.775 29.5783ZM154.573 29.5783C159.481 30.9039 163.747 34.0728 165.798 37.9459C166.067 38.4637 166.378 39.023 166.481 39.1886C166.958 39.9343 168.035 43.7246 168.035 44.6359C168.035 45.278 168.304 45.3815 169.381 45.1744C170.665 44.9259 172.322 44.9673 174.186 45.278C175.925 45.5886 178.452 46.4793 179.032 46.9764C179.198 47.142 179.425 47.2663 179.508 47.2663C179.591 47.2663 180.192 47.6806 180.834 48.1776C184.624 51.0773 186.674 55.0954 186.674 59.5899C186.674 65.2443 182.967 70.8366 177.872 72.9077C174.621 74.2126 174.082 74.2747 173.254 73.4048C172.736 72.8663 171.576 71.955 170.623 71.3336C169.65 70.7123 166.295 69.1796 165.301 68.8896C164.7 68.7239 163.126 68.434 161.821 68.2476C160.517 68.0611 159.357 67.8333 159.253 67.7505C159.129 67.6469 159.274 67.1291 159.605 66.487C159.895 65.8864 160.434 64.7265 160.786 63.9395C161.159 63.1317 161.863 61.6404 162.36 60.5841C162.857 59.5485 163.271 58.5751 163.271 58.4301C163.271 58.078 162.443 57.2081 162.111 57.2081C161.78 57.2081 160.848 58.3058 160.682 58.9065C160.599 59.1757 160.434 59.6521 160.268 60.0042C160.123 60.3356 159.688 61.3712 159.336 62.2825C158.963 63.1938 158.466 64.3951 158.197 64.9751C157.949 65.5343 157.617 66.3421 157.493 66.7563C157.162 67.7919 156.54 68.3925 155.815 68.3925C155.132 68.3925 155.07 68.2061 155.38 66.9634C155.484 66.5492 155.732 65.555 155.919 64.7679C156.105 63.9602 156.375 62.8003 156.54 62.1789C156.685 61.5576 156.975 60.2942 157.162 59.3828C157.369 58.4715 157.659 57.3531 157.804 56.8974C158.218 55.6754 158.176 55.199 157.555 54.8055C156.809 54.3084 155.981 54.6191 155.795 55.4476C155.525 56.5867 155.028 59.155 154.676 61.2469C154.49 62.3861 154.2 63.898 154.034 64.6022C153.869 65.3065 153.744 66.1556 153.744 66.4663C153.744 66.777 153.62 67.4605 153.475 67.9576C153.247 68.6825 153.04 68.9311 152.398 69.2417C151.963 69.4488 151.528 69.5731 151.404 69.4903C151.259 69.4074 151.238 66.922 151.342 61.889C151.466 55.2819 151.425 54.3498 151.155 53.9356C150.7 53.3142 149.664 53.3142 149.416 53.9356C149.312 54.2048 149.312 57.0217 149.416 60.2113C149.664 69.3246 149.664 69.4281 149.209 69.4281C148.587 69.4281 147.78 68.5168 147.635 67.6469C147.573 67.1912 147.386 66.1764 147.22 65.3893C147.075 64.5815 146.786 63.1524 146.599 62.1789C146.413 61.2055 146.143 59.7556 145.978 58.9686C145.833 58.1608 145.626 57.1459 145.564 56.6903C145.294 55.0333 144.487 54.2463 143.575 54.7433C142.809 55.1369 142.851 55.6547 143.907 59.9006C145.087 64.6644 145.646 67.067 145.709 67.6676C145.771 68.2476 145.729 68.289 145.046 68.2476C144.507 68.2268 144.176 68.0404 143.762 67.5433C143.43 67.1705 143.182 66.7356 143.182 66.5699C143.182 66.4042 143.058 66.0314 142.892 65.7414C142.561 65.0786 142.353 64.6022 141.629 62.8003C141.318 62.0547 140.987 61.3712 140.883 61.2469C140.779 61.1433 140.697 60.9362 140.697 60.7912C140.697 60.2734 139.413 57.8294 139.04 57.6223C138.522 57.3531 137.652 57.7466 137.507 58.3058C137.445 58.6165 138.108 60.1906 139.599 63.1731C141.981 67.999 141.981 67.9576 140.386 67.9783C139.392 67.9783 136.41 68.4961 135.105 68.8689C134.194 69.1382 133.717 69.3246 132.205 70.0288C131.045 70.5673 129.099 71.8722 127.856 72.9285C127.235 73.467 126.531 73.9848 126.323 74.0469C126.116 74.1298 125.412 74.0469 124.77 73.8605C117.211 71.665 112.53 63.8152 114.373 56.3796C114.85 54.4741 116.237 51.823 117.584 50.2696C118.516 49.1925 120.504 47.5149 121.229 47.2042C121.394 47.1213 121.684 46.9764 121.85 46.8935C123.403 46.0029 125.205 45.4851 127.525 45.2365C128.747 45.0916 129.844 45.0916 130.693 45.2365C132.454 45.5058 132.619 45.423 132.619 44.2217C132.619 43.0618 133.282 40.887 134.256 38.7744C135.705 35.6676 138.978 32.4987 142.353 30.9039C142.871 30.6553 143.43 30.3861 143.617 30.2825C144.155 29.9925 146.537 29.4126 147.842 29.2469C149.54 29.0398 153.185 29.2262 154.573 29.5783ZM145.667 71.2301C146.93 71.5822 148.028 71.9964 149.312 72.5556C150.389 73.0527 150.679 73.0527 151.735 72.4935C153.454 71.6029 153.703 71.4993 154.096 71.4993C154.303 71.4993 154.883 71.3544 155.401 71.1679C156.892 70.6294 162.132 70.6916 163.892 71.2508C166.895 72.2035 168.18 72.8456 170.106 74.3162C171.866 75.6417 171.845 75.621 171.348 77.0709C169.795 81.731 166.088 84.9621 161.138 85.9977C158.798 86.4948 158.342 86.4948 156.188 86.0806C154.552 85.7492 151.632 84.5686 151.363 84.1336C151.197 83.8644 150.079 83.8644 149.913 84.1336C149.706 84.465 147.138 85.6042 145.626 86.0184C143.72 86.5569 140.448 86.5569 138.584 86.0184C136.223 85.3349 134.338 84.2579 132.661 82.6424C130.921 80.9647 130.072 79.5563 129.264 77.133L128.829 75.8281L129.43 75.2068C130.714 73.8605 134.049 71.9757 136.327 71.3336C138.791 70.6501 143.368 70.588 145.667 71.2301ZM125.474 83.0773C126.054 83.2845 126.531 83.5951 126.572 83.7815C126.613 83.9679 126.22 84.5272 125.723 85.045C125.205 85.5421 124.584 86.3498 124.315 86.8055C124.066 87.2819 123.776 87.6547 123.673 87.6547C123.569 87.6547 123.155 87.4268 122.72 87.1576C121.664 86.4948 120.131 85.8527 118.661 85.4799C117.977 85.3142 117.335 85.0864 117.232 84.9828C117.004 84.755 118.971 83.4501 120.193 83.0359C121.456 82.5802 124.149 82.6217 125.474 83.0773ZM128.374 84.8793C128.767 85.045 129.865 86.5984 130.424 87.7582C130.714 88.3796 130.797 89.0838 130.797 90.6165C130.797 92.4599 130.756 92.7705 130.155 93.9511C129.513 95.256 128.167 96.8508 127.877 96.6644C127.773 96.623 127.649 96.0016 127.566 95.2767C127.504 94.5725 127.338 93.6611 127.214 93.2676C126.862 92.1699 125.723 89.9537 125.329 89.5809C124.584 88.8974 125.019 87.7789 126.779 85.9563C127.4 85.2935 127.939 84.755 127.98 84.755C128.001 84.755 128.187 84.8171 128.374 84.8793ZM118.474 86.909C120.4 87.3233 121.933 88.1518 123.3 89.5188C125.122 91.3621 126.179 93.7854 126.199 96.2501C126.199 97.5964 125.847 98.0521 124.542 98.3421C123.051 98.6942 122.306 98.6942 120.98 98.3421C119.448 97.9278 118.743 97.5964 117.646 96.7679C115.885 95.4217 114.601 92.812 114.601 90.5751C114.601 89.4773 115.181 87.4683 115.678 86.8676C115.968 86.5362 116.734 86.5569 118.474 86.909Z" fill="white"/>
<path d="M148.919 47.0385C148.132 47.5563 147.531 48.5712 147.531 49.3997C147.531 50.3938 148.38 51.5123 149.457 51.9265C150.348 52.2579 150.41 52.2579 151.383 51.8437C152.564 51.3259 153.123 50.5181 153.123 49.2961C153.123 47.3078 150.576 45.9408 148.919 47.0385Z" fill="white"/>
<path d="M141.836 47.867C141.111 48.1984 140.262 49.2547 140.158 50.0003C140.013 50.8081 140.469 51.8851 141.194 52.465C141.421 52.6722 142.063 52.9 142.602 52.9621C143.41 53.0864 143.72 53.0243 144.321 52.6515C145.356 52.0094 145.667 51.4709 145.667 50.3317C145.667 49.4825 145.564 49.2133 145.004 48.6126C144.445 47.9913 144.135 47.867 143.285 47.7841C142.726 47.722 142.063 47.7634 141.836 47.867Z" fill="white"/>
<path d="M156.499 48.3019C153.786 49.9382 155.691 53.977 158.756 53.0864C159.792 52.7757 160.33 52.2786 160.599 51.3466C161.283 48.9647 158.632 46.9971 156.499 48.3019Z" fill="white"/>
<path d="M163.375 50.9738C162.588 51.3052 161.842 52.1958 161.718 52.9207C161.387 54.6812 162.588 56.0689 164.41 56.0689C165.715 56.0482 166.461 55.5511 166.916 54.3706C167.33 53.2935 167.185 52.6515 166.316 51.6987C165.798 51.1395 165.446 50.9738 164.721 50.8909C164.203 50.8288 163.603 50.8702 163.375 50.9738Z" fill="white"/>
<path d="M134.546 51.6987C133.841 52.3408 133.779 52.4857 133.779 53.542C133.779 54.4948 133.862 54.8055 134.276 55.2404C135.85 56.9388 138.191 56.4831 139.04 54.3498C139.268 53.7906 139.268 53.5213 139.04 52.8378C138.646 51.6573 137.673 50.9945 136.368 50.9945C135.457 50.9945 135.208 51.098 134.546 51.6987Z" fill="white"/>
</svg>
