<svg width="300" height="200" viewBox="0 0 300 200" fill="none" xmlns="http://www.w3.org/2000/svg">
<path d="M69.3307 156.04H64.2707V169H62.8707V156.04H57.8107V154.8H69.3307V156.04ZM86.3187 169.12C85.5187 169.12 84.7453 168.993 83.9987 168.74C83.2653 168.473 82.5987 168.093 81.9987 167.6C81.412 167.107 80.9453 166.513 80.5987 165.82L81.7787 165.22C82.0987 165.807 82.4987 166.3 82.9787 166.7C83.4587 167.087 83.9853 167.38 84.5587 167.58C85.132 167.767 85.7053 167.86 86.2787 167.86C87.052 167.86 87.7653 167.7 88.4187 167.38C89.0853 167.06 89.6653 166.62 90.1587 166.06C90.652 165.5 91.0253 164.86 91.2787 164.14C91.5453 163.42 91.6653 162.673 91.6387 161.9L92.2587 162.32H84.9387V161.16H92.2187L91.6387 161.56C91.6253 160.88 91.492 160.207 91.2387 159.54C90.9987 158.86 90.652 158.26 90.1987 157.74C89.7453 157.207 89.192 156.78 88.5387 156.46C87.8853 156.14 87.1453 155.98 86.3187 155.98C85.7453 155.98 85.1853 156.067 84.6387 156.24C84.1053 156.413 83.612 156.687 83.1587 157.06C82.7053 157.433 82.3253 157.92 82.0187 158.52L80.8587 157.82C81.352 156.913 82.0453 156.173 82.9387 155.6C83.8453 155.013 84.9587 154.72 86.2787 154.72C87.3587 154.72 88.3187 154.927 89.1587 155.34C90.012 155.74 90.7253 156.287 91.2987 156.98C91.8853 157.66 92.332 158.42 92.6387 159.26C92.9453 160.1 93.0987 160.96 93.0987 161.84C93.0987 162.76 92.932 163.66 92.5987 164.54C92.2787 165.407 91.8187 166.187 91.2187 166.88C90.6187 167.56 89.8987 168.107 89.0587 168.52C88.232 168.92 87.3187 169.12 86.3187 169.12ZM116.916 154.8V169H115.536V162.36H107.116V169H105.716V154.8H107.116V161.12H115.536V154.8H116.916ZM141.681 154.8V169H140.301V162.36H131.881V169H130.481V154.8H131.881V161.12H140.301V154.8H141.681ZM160.147 169.12C159.347 169.12 158.573 168.993 157.827 168.74C157.093 168.473 156.427 168.093 155.827 167.6C155.24 167.107 154.773 166.513 154.427 165.82L155.607 165.22C155.927 165.807 156.327 166.3 156.807 166.7C157.287 167.087 157.813 167.38 158.387 167.58C158.96 167.767 159.533 167.86 160.107 167.86C160.88 167.86 161.593 167.7 162.247 167.38C162.913 167.06 163.493 166.62 163.987 166.06C164.48 165.5 164.853 164.86 165.107 164.14C165.373 163.42 165.493 162.673 165.467 161.9L166.087 162.32H158.767V161.16H166.047L165.467 161.56C165.453 160.88 165.32 160.207 165.067 159.54C164.827 158.86 164.48 158.26 164.027 157.74C163.573 157.207 163.02 156.78 162.367 156.46C161.713 156.14 160.973 155.98 160.147 155.98C159.573 155.98 159.013 156.067 158.467 156.24C157.933 156.413 157.44 156.687 156.987 157.06C156.533 157.433 156.153 157.92 155.847 158.52L154.687 157.82C155.18 156.913 155.873 156.173 156.767 155.6C157.673 155.013 158.787 154.72 160.107 154.72C161.187 154.72 162.147 154.927 162.987 155.34C163.84 155.74 164.553 156.287 165.127 156.98C165.713 157.66 166.16 158.42 166.467 159.26C166.773 160.1 166.927 160.96 166.927 161.84C166.927 162.76 166.76 163.66 166.427 164.54C166.107 165.407 165.647 166.187 165.047 166.88C164.447 167.56 163.727 168.107 162.887 168.52C162.06 168.92 161.147 169.12 160.147 169.12ZM190.744 154.8V169H189.364V162.36H180.944V169H179.544V154.8H180.944V161.12H189.364V154.8H190.744ZM203.289 171.72V167.76H203.889C204.263 167.76 204.589 167.607 204.869 167.3C205.163 166.993 205.409 166.5 205.609 165.82C205.823 165.127 205.989 164.2 206.109 163.04C206.243 161.88 206.336 160.44 206.389 158.72L206.489 154.8H214.989V167.76H216.689V171.72H215.449V169H204.529V171.72H203.289ZM205.889 167.76H213.589V156.04H207.769L207.689 158.88C207.649 160.68 207.556 162.187 207.409 163.4C207.276 164.6 207.083 165.553 206.829 166.26C206.576 166.953 206.263 167.453 205.889 167.76ZM235.01 169.1C234.01 169.1 233.103 168.9 232.29 168.5C231.476 168.1 230.776 167.56 230.19 166.88C229.603 166.187 229.15 165.413 228.83 164.56C228.51 163.693 228.35 162.807 228.35 161.9C228.35 160.953 228.516 160.053 228.85 159.2C229.183 158.333 229.65 157.567 230.25 156.9C230.863 156.22 231.576 155.687 232.39 155.3C233.203 154.9 234.083 154.7 235.03 154.7C236.03 154.7 236.936 154.907 237.75 155.32C238.563 155.733 239.256 156.287 239.83 156.98C240.416 157.673 240.87 158.447 241.19 159.3C241.51 160.153 241.67 161.027 241.67 161.92C241.67 162.867 241.503 163.773 241.17 164.64C240.836 165.493 240.37 166.26 239.77 166.94C239.17 167.607 238.463 168.133 237.65 168.52C236.836 168.907 235.956 169.1 235.01 169.1ZM229.75 161.9C229.75 162.673 229.876 163.42 230.13 164.14C230.383 164.847 230.743 165.48 231.21 166.04C231.676 166.587 232.23 167.027 232.87 167.36C233.523 167.68 234.236 167.84 235.01 167.84C235.823 167.84 236.55 167.673 237.19 167.34C237.843 166.993 238.396 166.54 238.85 165.98C239.316 165.407 239.67 164.767 239.91 164.06C240.15 163.353 240.27 162.633 240.27 161.9C240.27 161.127 240.143 160.387 239.89 159.68C239.636 158.973 239.27 158.34 238.79 157.78C238.323 157.22 237.77 156.78 237.13 156.46C236.49 156.14 235.783 155.98 235.01 155.98C234.21 155.98 233.483 156.147 232.83 156.48C232.19 156.813 231.636 157.267 231.17 157.84C230.716 158.4 230.363 159.033 230.11 159.74C229.87 160.447 229.75 161.167 229.75 161.9Z" fill="white"/>
<path d="M92.071 191.12C91.615 191.12 91.195 191.036 90.811 190.868C90.435 190.692 90.103 190.452 89.815 190.148C89.535 189.844 89.315 189.496 89.155 189.104C89.003 188.712 88.927 188.296 88.927 187.856C88.927 187.264 89.059 186.724 89.323 186.236C89.587 185.748 89.955 185.36 90.427 185.072C90.899 184.784 91.443 184.64 92.059 184.64C92.643 184.64 93.159 184.776 93.607 185.048C94.055 185.312 94.387 185.672 94.603 186.128L93.811 186.38C93.635 186.06 93.387 185.812 93.067 185.636C92.755 185.452 92.407 185.36 92.023 185.36C91.607 185.36 91.227 185.468 90.883 185.684C90.539 185.9 90.263 186.196 90.055 186.572C89.855 186.948 89.755 187.376 89.755 187.856C89.755 188.328 89.859 188.756 90.067 189.14C90.275 189.524 90.551 189.832 90.895 190.064C91.239 190.288 91.619 190.4 92.035 190.4C92.307 190.4 92.567 190.352 92.815 190.256C93.071 190.16 93.291 190.032 93.475 189.872C93.667 189.704 93.795 189.524 93.859 189.332L94.663 189.572C94.551 189.868 94.363 190.136 94.099 190.376C93.843 190.608 93.539 190.792 93.187 190.928C92.843 191.056 92.471 191.12 92.071 191.12ZM114.976 190.256V191H110.908V190.256H112.612V185.12C112.548 185.216 112.44 185.32 112.288 185.432C112.136 185.544 111.96 185.648 111.76 185.744C111.568 185.84 111.376 185.92 111.184 185.984C110.992 186.048 110.816 186.08 110.656 186.08V185.288C110.84 185.288 111.04 185.236 111.256 185.132C111.472 185.028 111.68 184.908 111.88 184.772C112.08 184.636 112.248 184.508 112.384 184.388C112.52 184.268 112.596 184.188 112.612 184.148H113.452V190.256H114.976ZM127.944 188.192C127.944 188.728 127.808 189.22 127.536 189.668C127.272 190.108 126.912 190.46 126.456 190.724C126 190.988 125.488 191.12 124.92 191.12C124.328 191.12 123.8 190.98 123.336 190.7C122.88 190.412 122.52 190 122.256 189.464C121.992 188.928 121.86 188.292 121.86 187.556C121.86 186.396 121.992 185.44 122.256 184.688C122.52 183.928 122.888 183.36 123.36 182.984C123.832 182.608 124.38 182.42 125.004 182.42C125.572 182.42 126.08 182.564 126.528 182.852C126.976 183.132 127.316 183.516 127.548 184.004L127.02 184.484C126.852 184.076 126.584 183.752 126.216 183.512C125.856 183.264 125.452 183.14 125.004 183.14C124.532 183.14 124.12 183.288 123.768 183.584C123.416 183.88 123.14 184.304 122.94 184.856C122.748 185.408 122.652 186.076 122.652 186.86C122.772 186.548 122.948 186.276 123.18 186.044C123.412 185.812 123.684 185.632 123.996 185.504C124.316 185.376 124.656 185.312 125.016 185.312C125.56 185.312 126.052 185.44 126.492 185.696C126.94 185.952 127.292 186.3 127.548 186.74C127.812 187.172 127.944 187.656 127.944 188.192ZM124.944 190.4C125.344 190.4 125.712 190.3 126.048 190.1C126.384 189.9 126.652 189.632 126.852 189.296C127.06 188.96 127.164 188.592 127.164 188.192C127.164 187.792 127.06 187.424 126.852 187.088C126.652 186.752 126.384 186.484 126.048 186.284C125.712 186.084 125.344 185.984 124.944 185.984C124.536 185.984 124.16 186.084 123.816 186.284C123.48 186.484 123.212 186.752 123.012 187.088C122.812 187.416 122.712 187.784 122.712 188.192C122.712 188.592 122.812 188.96 123.012 189.296C123.22 189.632 123.492 189.9 123.828 190.1C124.164 190.3 124.536 190.4 124.944 190.4ZM134.995 191C134.995 190.728 135.019 190.456 135.067 190.184C135.115 189.904 135.207 189.628 135.343 189.356C135.479 189.084 135.679 188.824 135.943 188.576C136.207 188.32 136.555 188.08 136.987 187.856C137.219 187.736 137.459 187.62 137.707 187.508C137.955 187.388 138.187 187.26 138.403 187.124C138.627 186.98 138.803 186.82 138.931 186.644C139.067 186.46 139.135 186.244 139.135 185.996C139.135 185.796 139.075 185.6 138.955 185.408C138.843 185.216 138.667 185.06 138.427 184.94C138.195 184.82 137.903 184.76 137.551 184.76C137.295 184.76 137.063 184.796 136.855 184.868C136.647 184.94 136.463 185.032 136.303 185.144C136.143 185.248 136.007 185.356 135.895 185.468C135.783 185.572 135.691 185.66 135.619 185.732L135.103 185.168C135.143 185.12 135.231 185.036 135.367 184.916C135.511 184.788 135.691 184.656 135.907 184.52C136.131 184.384 136.391 184.268 136.687 184.172C136.991 184.076 137.323 184.028 137.683 184.028C138.171 184.028 138.587 184.116 138.931 184.292C139.283 184.46 139.551 184.688 139.735 184.976C139.919 185.264 140.011 185.576 140.011 185.912C140.011 186.24 139.939 186.524 139.795 186.764C139.659 186.996 139.479 187.2 139.255 187.376C139.039 187.544 138.811 187.692 138.571 187.82C138.339 187.94 138.127 188.044 137.935 188.132C137.559 188.308 137.243 188.484 136.987 188.66C136.731 188.836 136.527 189.016 136.375 189.2C136.223 189.376 136.103 189.552 136.015 189.728C135.935 189.896 135.879 190.072 135.847 190.256H140.143V191H134.995ZM147.253 191C147.253 190.728 147.277 190.456 147.325 190.184C147.373 189.904 147.465 189.628 147.601 189.356C147.737 189.084 147.937 188.824 148.201 188.576C148.465 188.32 148.813 188.08 149.245 187.856C149.477 187.736 149.717 187.62 149.965 187.508C150.213 187.388 150.445 187.26 150.661 187.124C150.885 186.98 151.061 186.82 151.189 186.644C151.325 186.46 151.393 186.244 151.393 185.996C151.393 185.796 151.333 185.6 151.213 185.408C151.101 185.216 150.925 185.06 150.685 184.94C150.453 184.82 150.161 184.76 149.809 184.76C149.553 184.76 149.321 184.796 149.113 184.868C148.905 184.94 148.721 185.032 148.561 185.144C148.401 185.248 148.265 185.356 148.153 185.468C148.041 185.572 147.949 185.66 147.877 185.732L147.361 185.168C147.401 185.12 147.489 185.036 147.625 184.916C147.769 184.788 147.949 184.656 148.165 184.52C148.389 184.384 148.649 184.268 148.945 184.172C149.249 184.076 149.581 184.028 149.941 184.028C150.429 184.028 150.845 184.116 151.189 184.292C151.541 184.46 151.809 184.688 151.993 184.976C152.177 185.264 152.269 185.576 152.269 185.912C152.269 186.24 152.197 186.524 152.053 186.764C151.917 186.996 151.737 187.2 151.513 187.376C151.297 187.544 151.069 187.692 150.829 187.82C150.597 187.94 150.385 188.044 150.193 188.132C149.817 188.308 149.501 188.484 149.245 188.66C148.989 188.836 148.785 189.016 148.633 189.2C148.481 189.376 148.361 189.552 148.273 189.728C148.193 189.896 148.137 190.072 148.105 190.256H152.401V191H147.253ZM168.929 191V184.748H172.661V185.48H169.745V191H168.929ZM182.468 191.12C182.02 191.12 181.604 191.036 181.22 190.868C180.844 190.692 180.516 190.456 180.236 190.16C179.964 189.856 179.752 189.512 179.6 189.128C179.448 188.736 179.372 188.324 179.372 187.892C179.372 187.444 179.448 187.028 179.6 186.644C179.752 186.252 179.968 185.908 180.248 185.612C180.528 185.308 180.856 185.072 181.232 184.904C181.616 184.728 182.032 184.64 182.48 184.64C182.928 184.64 183.34 184.728 183.716 184.904C184.092 185.072 184.42 185.308 184.7 185.612C184.98 185.908 185.196 186.252 185.348 186.644C185.5 187.028 185.576 187.444 185.576 187.892C185.576 188.324 185.5 188.736 185.348 189.128C185.196 189.512 184.98 189.856 184.7 190.16C184.428 190.456 184.1 190.692 183.716 190.868C183.34 191.036 182.924 191.12 182.468 191.12ZM180.2 187.904C180.2 188.368 180.3 188.792 180.5 189.176C180.708 189.552 180.984 189.852 181.328 190.076C181.672 190.292 182.052 190.4 182.468 190.4C182.884 190.4 183.264 190.288 183.608 190.064C183.952 189.84 184.228 189.536 184.436 189.152C184.644 188.76 184.748 188.336 184.748 187.88C184.748 187.416 184.644 186.992 184.436 186.608C184.228 186.224 183.952 185.92 183.608 185.696C183.264 185.472 182.884 185.36 182.468 185.36C182.052 185.36 181.672 185.476 181.328 185.708C180.992 185.94 180.72 186.248 180.512 186.632C180.304 187.008 180.2 187.432 180.2 187.904ZM192.245 192.452V190.268H192.353C192.537 190.268 192.705 190.212 192.857 190.1C193.009 189.988 193.145 189.792 193.265 189.512C193.385 189.232 193.481 188.848 193.553 188.36C193.625 187.864 193.673 187.24 193.697 186.488L193.757 184.748H197.825V190.268H198.665V192.452H197.933V191H192.965V192.452H192.245ZM193.589 190.268H197.009V185.48H194.489L194.453 186.56C194.429 187.304 194.377 187.928 194.297 188.432C194.225 188.928 194.129 189.324 194.009 189.62C193.897 189.908 193.757 190.124 193.589 190.268ZM205.398 189.2C205.398 188.808 205.51 188.472 205.734 188.192C205.958 187.904 206.266 187.684 206.658 187.532C207.058 187.372 207.518 187.292 208.038 187.292C208.342 187.292 208.658 187.316 208.986 187.364C209.314 187.412 209.606 187.484 209.862 187.58V187.052C209.862 186.524 209.706 186.104 209.394 185.792C209.082 185.48 208.65 185.324 208.098 185.324C207.762 185.324 207.43 185.388 207.102 185.516C206.782 185.636 206.446 185.816 206.094 186.056L205.782 185.48C206.19 185.2 206.59 184.992 206.982 184.856C207.374 184.712 207.774 184.64 208.182 184.64C208.95 184.64 209.558 184.86 210.006 185.3C210.454 185.74 210.678 186.348 210.678 187.124V190.016C210.678 190.128 210.702 190.212 210.75 190.268C210.798 190.316 210.874 190.344 210.978 190.352V191C210.89 191.008 210.814 191.016 210.75 191.024C210.686 191.032 210.638 191.032 210.606 191.024C210.406 191.016 210.254 190.952 210.15 190.832C210.046 190.712 209.99 190.584 209.982 190.448L209.97 189.992C209.69 190.352 209.326 190.632 208.878 190.832C208.43 191.024 207.974 191.12 207.51 191.12C207.11 191.12 206.746 191.036 206.418 190.868C206.098 190.692 205.846 190.46 205.662 190.172C205.486 189.876 205.398 189.552 205.398 189.2ZM209.586 189.68C209.674 189.568 209.742 189.46 209.79 189.356C209.838 189.252 209.862 189.16 209.862 189.08V188.168C209.59 188.064 209.306 187.984 209.01 187.928C208.722 187.872 208.43 187.844 208.134 187.844C207.55 187.844 207.078 187.96 206.718 188.192C206.358 188.424 206.178 188.74 206.178 189.14C206.178 189.372 206.238 189.592 206.358 189.8C206.478 190 206.654 190.168 206.886 190.304C207.118 190.432 207.39 190.496 207.702 190.496C208.094 190.496 208.458 190.42 208.794 190.268C209.138 190.116 209.402 189.92 209.586 189.68Z" fill="white"/>
<path d="M145.535 100.168C145.376 100.259 145.124 100.487 144.987 100.662C144.561 101.224 144.668 101.817 145.307 102.509C145.718 102.958 145.825 103.27 145.71 103.665C145.657 103.84 145.528 104.136 145.421 104.326C144.926 105.185 144.728 105.68 144.751 105.968L144.774 106.265L145.193 106.242C146.388 106.181 147.164 106.197 147.477 106.288C148.596 106.615 149.44 107.284 150.072 108.34C150.598 109.222 150.567 109.602 149.943 109.8C149.821 109.831 149.532 109.937 149.303 110.028C148.459 110.348 148.268 110.424 148.047 110.484C147.926 110.515 147.629 110.621 147.4 110.712C147.172 110.804 146.883 110.91 146.753 110.941C146.426 111.032 145.87 111.214 145.65 111.305C145.543 111.343 145.269 111.435 145.041 111.496C144.812 111.564 144.439 111.67 144.211 111.731C143.678 111.891 142.673 111.891 142.376 111.739C142.064 111.579 141.303 111.511 141.09 111.617C140.321 112.028 140.542 113.624 141.478 114.476C141.866 114.825 142.201 114.932 142.643 114.848C142.841 114.81 143.023 114.681 143.328 114.339C143.556 114.088 143.747 113.852 143.747 113.83C143.747 113.799 143.929 113.647 144.15 113.503C144.531 113.244 144.744 113.168 145.878 112.879C146.152 112.803 146.456 112.712 146.563 112.674C146.67 112.628 146.86 112.568 146.982 112.53C147.111 112.499 147.758 112.279 148.428 112.051C149.775 111.579 150.194 111.526 150.438 111.784C150.666 112.028 150.674 112.233 150.552 114.02C150.415 115.989 150.362 116.43 150.24 116.468C150.194 116.483 150.027 116.354 149.859 116.179C149.433 115.707 149.098 115.411 148.504 114.955C148.215 114.734 147.956 114.537 147.933 114.514C147.819 114.392 146.7 113.685 146.388 113.533C145.726 113.214 144.972 113.411 144.622 113.997C144.515 114.179 144.485 114.392 144.477 114.886C144.477 115.624 144.546 115.791 145.041 116.361C145.573 116.962 145.665 117.198 145.665 117.935C145.665 118.361 145.627 118.68 145.543 118.878C145.474 119.037 145.421 119.22 145.421 119.273C145.421 119.463 145.718 119.684 145.969 119.684H146.213L146.053 119.843C145.916 119.98 145.17 120.284 144.394 120.52C144.272 120.558 143.67 120.763 143.061 120.968C142.27 121.242 141.828 121.356 141.501 121.364C140.892 121.371 140.74 121.425 140.45 121.713C140.207 121.957 140.1 122.23 139.834 123.371C139.674 124.07 139.682 124.458 139.857 124.861C140.108 125.431 140.717 125.826 141.196 125.735C141.729 125.636 142.445 124.945 142.452 124.519C142.452 124.283 142.924 123.477 143.176 123.287C143.632 122.945 144.013 122.861 144.866 122.915C145.657 122.968 146.099 122.892 147.438 122.466C147.606 122.413 147.948 122.306 148.2 122.23C148.451 122.162 148.793 122.056 148.961 121.995C149.585 121.782 149.562 121.729 149.494 123.12C149.418 124.519 149.418 125.454 149.486 128.122C149.562 130.973 149.798 132.502 150.407 134.189C150.59 134.699 150.727 134.858 151.054 134.957C151.443 135.071 152.173 134.95 152.63 134.684C153.544 134.159 154.092 132.988 154.099 131.551C154.099 131.202 154.145 130.244 154.206 129.423C154.267 128.601 154.358 126.686 154.404 125.157C154.449 123.629 154.503 122.071 154.533 121.698C154.579 121.06 154.594 120.999 154.83 120.763L155.074 120.52H155.88C156.779 120.52 156.908 120.558 157.768 121.067C159.024 121.805 159.397 121.926 160.532 121.926C161.247 121.926 161.529 121.896 161.841 121.782C162.359 121.584 162.762 121.181 162.785 120.824C162.831 120.094 162.808 120.041 162.229 119.471C160.181 117.486 159.603 117.121 157.966 116.749C157.403 116.62 157.35 116.62 156.961 116.741C156.741 116.817 156.391 116.962 156.185 117.068C154.99 117.699 154.099 117.76 153.825 117.228C153.711 117.007 153.703 116.726 153.741 114.476C153.772 113.1 153.818 111.754 153.84 111.488C153.886 111.062 153.917 111.001 154.137 110.865C154.427 110.682 154.609 110.674 154.952 110.819C155.576 111.077 156.604 111.321 157.098 111.321C158.24 111.321 158.979 110.355 158.667 109.268C158.53 108.804 157.685 108.021 156.916 107.664C156.094 107.276 156.063 107.268 154.99 107.253L153.939 107.246L153.787 107.018C153.711 106.896 153.642 106.759 153.642 106.706C153.642 106.622 154.023 106.212 154.259 106.037C156.071 104.706 157.471 103.558 157.586 103.3C157.883 102.646 157.411 101.954 156.284 101.422C155.69 101.133 155.18 100.989 154.168 100.799C153.285 100.639 152.79 100.647 152.44 100.821C152.112 100.989 151.214 101.893 151.009 102.251C150.795 102.623 150.719 102.6 150.255 102C149.623 101.186 149.197 100.928 147.621 100.373C146.373 99.9396 146 99.9016 145.535 100.168ZM150.217 117.752C150.217 117.965 149.867 118.68 149.585 119.022C149.41 119.243 148.847 119.41 148.847 119.235C148.847 119.129 149.205 118.619 149.897 117.73C150.072 117.502 150.217 117.509 150.217 117.752Z" fill="white"/>
<path d="M178.459 100.183C177.568 100.381 177.362 100.609 177.362 101.392C177.355 102.129 177.4 102.251 177.926 102.897C178.74 103.893 178.832 104.227 179.029 107.253C179.25 110.614 179.25 110.621 179.144 110.75C178.892 111.047 177.621 111.549 177.111 111.549C176.936 111.549 176.921 111.526 176.959 111.298C176.989 111.055 177.096 110.728 177.279 110.294C177.332 110.165 177.431 109.914 177.507 109.724C177.575 109.534 177.674 109.298 177.713 109.192C178.025 108.424 178.086 107.649 177.888 107.086C177.697 106.539 177.073 105.619 176.601 105.193C176.152 104.782 176.144 104.782 175.65 104.782C175.162 104.782 175.132 104.79 174.744 105.132C173.648 106.09 173.275 107.831 173.891 109.154C174.043 109.481 174.85 110.5 175.482 111.161C175.779 111.473 176 111.754 175.969 111.784C175.931 111.807 175.65 111.891 175.337 111.975C175.025 112.051 174.728 112.134 174.683 112.172C174.515 112.294 173.617 112.537 173.328 112.537C172.711 112.537 172.232 112.309 171.653 111.739C170.747 110.842 170.58 110.781 170.154 111.199C169.834 111.511 169.781 111.686 169.27 114.096C169.21 114.385 169.126 114.727 169.08 114.856C169.042 114.978 168.974 115.198 168.936 115.335C168.89 115.472 168.616 115.837 168.327 116.148C167.824 116.673 167.786 116.734 167.748 117.129C167.695 117.646 167.801 117.874 168.593 118.916C169.278 119.813 169.575 120.087 170.032 120.208C170.336 120.299 170.435 120.292 170.823 120.17C171.592 119.934 171.973 119.387 172.14 118.262C172.216 117.753 172.331 117.137 172.49 116.376C172.551 116.08 172.597 115.753 172.597 115.647C172.597 115.533 172.65 115.297 172.711 115.122C172.772 114.947 172.825 114.704 172.825 114.59C172.825 114.301 173.229 113.776 173.564 113.632C173.861 113.51 174.234 113.525 176.335 113.761C176.692 113.799 177.157 113.83 177.362 113.83C177.926 113.83 178.839 113.632 179.265 113.419C179.722 113.191 181.267 112.476 181.922 112.195C182.052 112.142 182.341 112.013 182.569 111.906C184.556 111.017 185.561 110.69 187.365 110.37C188.05 110.249 189.169 110.218 189.321 110.317C189.443 110.393 189.649 110.887 189.649 111.1C189.649 111.427 189.276 111.898 188.393 112.682C187.624 113.373 187.365 113.647 187.365 113.776C187.365 113.837 188.552 114.567 189.002 114.78C190.014 115.251 190.166 115.274 193.264 115.304C193.995 115.304 194.383 115.069 194.825 114.331C194.97 114.088 195 113.936 195 113.419C195 113.001 194.954 112.704 194.871 112.499C194.163 110.865 193.325 110.043 191.78 109.458C191.59 109.382 191.369 109.298 191.285 109.26C191.201 109.23 190.943 109.124 190.714 109.032C190.486 108.941 190.242 108.827 190.181 108.774C189.93 108.591 189.473 108.432 189.184 108.432C188.864 108.432 188.552 108.561 188.157 108.857C187.738 109.184 187.197 109.336 185.728 109.572C185.211 109.648 184.533 109.785 183.962 109.922C183.277 110.081 183.117 110.066 183.056 109.838C182.995 109.58 183.079 109.268 183.269 109.055C183.399 108.926 183.513 108.888 183.84 108.888C184.122 108.888 184.388 108.827 184.67 108.698C185.363 108.386 186.185 108.204 186.939 108.204C188.08 108.204 188.743 107.846 189.116 107.01C189.42 106.341 189.184 105.588 188.309 104.425C187.54 103.399 186.71 102.958 185.553 102.958C185.02 102.958 184.883 102.981 184.701 103.125L184.472 103.292V104.167C184.472 105.064 184.343 105.748 184.054 106.417C183.856 106.866 183.475 107.367 183.323 107.367C183.155 107.367 183.102 107.154 183.102 106.425C183.102 105.862 183.171 105.467 183.445 104.516C183.741 103.482 183.779 103.034 183.62 102.471C183.308 101.414 181.945 100.51 180.171 100.183C179.448 100.054 179.029 100.054 178.459 100.183Z" fill="white"/>
<path d="M117.674 102.167C117.035 102.327 116.418 102.509 116.152 102.623C116.03 102.677 115.733 102.791 115.505 102.882C114.584 103.254 114.287 103.437 113.975 103.84C113.716 104.182 113.655 104.319 113.625 104.699C113.564 105.345 113.754 105.687 114.736 106.675C115.809 107.763 117.073 108.888 117.218 108.888C117.279 108.888 117.537 109.04 117.789 109.222C118.489 109.739 119.174 109.77 119.996 109.321C120.864 108.85 121.062 108.766 121.709 108.584C122.348 108.401 122.843 108.394 123.574 108.546C123.993 108.629 124.229 108.645 124.548 108.584C124.792 108.546 125.119 108.493 125.287 108.462C125.675 108.394 126.101 108.059 126.307 107.671C126.512 107.276 126.528 106.318 126.337 105.832C126.208 105.482 125.713 104.782 125.606 104.782C125.568 104.782 125.165 104.471 124.708 104.098C124.259 103.718 123.871 103.414 123.848 103.414C123.825 103.414 123.719 103.33 123.612 103.232C123.353 102.988 122.143 102.395 121.519 102.205C121.092 102.068 120.826 102.045 119.578 102.053C118.596 102.061 117.987 102.099 117.674 102.167Z" fill="white"/>
<path d="M116.533 110.88C116.221 110.994 116.045 111.153 115.908 111.473C115.749 111.845 115.817 112.279 116.144 112.963C116.388 113.48 116.418 113.586 116.373 113.936C116.304 114.407 116.175 114.742 115.985 114.902C115.908 114.97 114.858 115.616 113.655 116.346C112.445 117.076 111.364 117.73 111.257 117.798C110.717 118.14 110.435 118.247 110.001 118.285C108.905 118.376 108.639 118.612 108.639 119.486C108.639 120.353 108.829 120.634 110.024 121.508C110.283 121.698 110.618 121.957 110.77 122.086C111.135 122.39 111.965 122.968 112.308 123.143C112.681 123.34 113.861 123.348 114.135 123.158C114.363 122.998 114.591 122.991 114.591 123.135C114.591 123.242 113.914 124.245 113.617 124.587C113.541 124.671 113.419 124.838 113.343 124.96C113.092 125.355 111.996 126.632 111.493 127.119C110.443 128.115 107.177 130.396 106.393 130.677C106.05 130.799 105.952 130.806 105.67 130.723C105.053 130.54 105 130.532 105 130.647C105 130.806 105.51 131.772 105.693 131.969C105.883 132.175 106.728 132.456 107.284 132.509C107.565 132.532 107.885 132.502 108.266 132.395C108.89 132.228 109.126 132.258 109.468 132.578C109.742 132.836 109.902 132.859 110.23 132.714C110.389 132.646 110.671 132.517 110.861 132.433C112.567 131.673 114.158 130.791 114.866 130.221C115.924 129.369 116.829 128.229 117.461 126.982C117.659 126.594 117.674 126.496 117.674 125.69C117.674 124.952 117.697 124.77 117.834 124.511C118.032 124.139 118.162 124.101 118.352 124.382C118.428 124.496 118.71 124.747 118.976 124.929C119.243 125.119 119.684 125.431 119.958 125.629C120.225 125.834 120.461 125.994 120.483 125.994C120.506 125.994 120.742 126.146 121.016 126.336C121.298 126.526 121.541 126.678 121.564 126.678C121.587 126.678 121.838 126.83 122.128 127.02C122.417 127.21 122.676 127.362 122.699 127.362C122.805 127.362 123.985 128.206 124.442 128.609C124.99 129.096 125.363 129.559 125.82 130.327C126.429 131.346 126.71 131.574 127.875 131.969C128.324 132.114 129.831 132.517 130.273 132.608C130.463 132.638 130.707 132.707 130.821 132.752C131.141 132.874 132.823 132.927 133.774 132.844C135.069 132.737 136.408 132.517 136.728 132.365C136.918 132.273 136.934 132.228 136.956 131.749C136.994 130.951 136.789 130.768 135.411 130.35C134.992 130.221 134.498 130.084 134.307 130.031C133.516 129.818 132.336 129.415 131.986 129.232C131.864 129.164 131.727 129.111 131.696 129.111C131.628 129.111 129.892 128.267 129.626 128.1C129.542 128.054 129.306 127.91 129.093 127.788C128.682 127.545 127.692 126.914 127.57 126.815C124.937 124.762 124.244 124.025 122.607 121.546C122.013 120.634 121.8 120.398 121.42 120.208C121.168 120.079 121.092 120.071 120.826 120.147C120.582 120.223 120.461 120.223 120.24 120.14C120.088 120.087 119.935 120.003 119.905 119.957C119.775 119.767 119.859 119.341 120.118 118.824C120.537 117.981 121.237 117.182 122.508 116.095C123.346 115.373 124.29 115.046 125.089 115.198C125.766 115.327 126.116 115.297 126.299 115.099C126.391 115 126.467 114.841 126.467 114.734C126.467 114.635 126.52 114.362 126.581 114.134C126.642 113.906 126.695 113.563 126.695 113.373C126.695 113.054 126.665 113.008 126.17 112.53C125.454 111.838 124.663 111.222 124.282 111.062C123.734 110.819 123.3 110.925 122.013 111.602C121.892 111.67 121.427 111.959 120.993 112.248C120.56 112.53 120.156 112.765 120.095 112.765C120.042 112.765 119.958 112.674 119.912 112.552C119.395 111.267 118.694 110.789 117.332 110.796C117.02 110.796 116.662 110.834 116.533 110.88Z" fill="white"/>
<path d="M183.14 113.807C182.318 114.058 181.465 114.423 179.806 115.236C178.497 115.875 178.116 116.202 178.025 116.741C177.903 117.494 178.634 117.54 180.362 116.871C180.59 116.779 180.872 116.681 180.978 116.643C181.085 116.612 181.237 116.551 181.321 116.506C181.397 116.468 181.618 116.369 181.808 116.3C181.998 116.232 182.265 116.126 182.402 116.065C182.775 115.905 182.874 115.928 182.874 116.171C182.874 116.392 182.653 117.091 182.523 117.266C182.485 117.319 182.379 117.494 182.303 117.661C182.036 118.186 180.354 119.836 180.088 119.836C180.057 119.836 179.973 119.889 179.912 119.95C179.844 120.01 179.646 120.079 179.479 120.109C179.243 120.147 179.136 120.125 179.037 120.018C178.816 119.805 178.573 119.372 178.405 118.923C177.751 117.182 176.319 115.859 175.376 116.118C175.2 116.164 175.071 116.262 175.018 116.384C174.888 116.665 175.079 117.365 175.414 117.821C176.106 118.779 176.297 119.319 176.213 120.056C176.175 120.33 176.144 120.862 176.144 121.242C176.137 121.835 176.167 121.98 176.342 122.344C176.449 122.58 176.662 122.899 176.814 123.052C177.081 123.333 177.796 123.713 178.063 123.713C178.344 123.713 178.771 123.546 179.136 123.295C179.349 123.15 179.547 123.029 179.578 123.029C179.616 123.029 179.699 123.242 179.768 123.5C180.377 125.849 180.422 125.712 178.915 126.108C178.641 126.184 178.131 126.336 177.773 126.45C177.416 126.572 177.012 126.686 176.875 126.716C176.738 126.746 176.601 126.815 176.578 126.876C176.525 127.028 177.21 127.902 177.636 128.229C177.994 128.503 178.649 128.852 179.205 129.065C180.027 129.377 180.141 129.445 180.179 129.62C180.24 129.863 180.148 130.563 180.034 130.692C179.989 130.753 179.912 130.867 179.867 130.958C179.775 131.148 178.999 131.688 178.824 131.696C178.748 131.696 178.58 131.741 178.443 131.802C177.842 132.061 177.56 132.152 176.281 132.502C175.817 132.623 174.82 132.623 173.906 132.486C173.198 132.38 172.521 132.95 172.331 133.802C172.255 134.174 172.346 134.341 172.726 134.509C173.16 134.699 173.99 134.714 175.025 134.547C175.429 134.478 176.099 134.372 176.517 134.311C177.888 134.106 178.824 133.954 180.59 133.634C184.693 132.897 185.447 132.821 186.71 133.026C187.274 133.117 187.578 133.224 188.461 133.657C189.725 134.281 189.938 134.357 190.402 134.357C190.905 134.357 191.278 134.205 191.765 133.794C192.206 133.421 192.465 132.981 192.465 132.608C192.465 132.41 192.161 131.916 191.909 131.703C191.795 131.612 190.577 130.882 190.334 130.753C190.151 130.669 189.953 130.54 189.238 130.061C188.56 129.613 188.545 129.605 188.02 129.605C187.532 129.613 187.418 129.643 186.87 129.932C186.535 130.107 186.139 130.274 185.995 130.297C185.85 130.327 185.538 130.396 185.31 130.449C185.081 130.51 184.548 130.555 184.13 130.555C183.361 130.555 183.361 130.555 183.231 130.335C183.064 130.054 183.064 129.575 183.239 129.05C183.475 128.297 184.495 127.491 185.34 127.377C185.515 127.362 185.751 127.294 185.865 127.233C186.17 127.081 186.672 126.617 186.802 126.366C187.038 125.91 186.87 125.142 186.474 124.869C185.896 124.473 184.586 123.941 184.175 123.941C183.688 123.941 182.562 123.424 182.265 123.067C182.12 122.892 182.234 122.74 182.584 122.649C182.767 122.603 183.064 122.519 183.254 122.459C183.445 122.405 183.818 122.299 184.092 122.23C185.645 121.812 185.995 121.501 185.995 120.558C185.995 119.752 186.071 119.554 186.687 118.71C187.334 117.836 187.669 117.213 187.669 116.901C187.669 116.612 187.464 116.293 186.908 115.692C186.634 115.396 186.261 114.985 186.078 114.772C185.302 113.852 184.191 113.487 183.14 113.807Z" fill="white"/>
<path d="M148.019 11.0319C147.373 11.5824 145.886 12.8777 144.689 13.8491C143.493 14.8206 141.683 16.3426 140.648 17.2493C139.646 18.1236 137.803 19.678 136.574 20.6494C134.699 22.1714 123.706 31.2708 113.845 39.5283C112.293 40.8236 109.448 43.1875 107.508 44.7743C102.529 48.8868 101.107 50.085 100.202 50.8945C99.7489 51.2831 98.682 52.1898 97.7767 52.8698C96.9038 53.5822 95.6429 54.6185 95.0286 55.2014C94.4143 55.7519 93.4767 56.5614 92.9271 56.95C92.4098 57.371 91.4398 58.1481 90.8255 58.6663C90.1789 59.2168 88.9503 60.253 88.1097 60.9654C86.1698 62.5521 83.8097 64.5275 82.7427 65.4342C82.2901 65.8227 81.2232 66.7295 80.3179 67.4095C79.4449 68.1219 78.5397 68.8667 78.3457 69.061C78.1517 69.2229 77.3111 69.9677 76.5028 70.6477C73.884 72.8821 73.4637 72.7849 85.5879 72.7849H96.5158L100.46 68.9638C104.146 65.4018 117.693 52.2869 120.247 49.7935C120.894 49.1782 123.254 46.9115 125.452 44.7743C127.683 42.637 132.985 37.5206 137.253 33.4404C149.248 21.88 149.571 21.5561 150.089 21.6857C150.38 21.7181 154.098 25.2153 158.398 29.3927C162.698 33.57 167.418 38.1683 168.905 39.5931C173.335 43.8999 184.554 54.7156 186.332 56.3671C187.237 57.2414 189.791 59.7349 192.022 61.8721C194.253 64.0417 197.68 67.3771 199.652 69.2877L203.241 72.7849H214.137C221.767 72.7849 225 72.6878 225 72.4287C225 72.0078 225.065 72.1049 216.917 65.3046C213.458 62.455 209.901 59.4758 208.996 58.6986C206.959 56.9824 186.073 39.5607 183.131 37.1644C181.935 36.1929 180.771 35.2215 180.577 35.0596C180.383 34.8653 179.51 34.1529 178.605 33.4404C176.6 31.8213 168.97 25.442 168.744 25.183C168.647 25.0858 167.483 24.1143 166.157 23.0133C160.532 18.3827 151.414 10.7728 151.026 10.3842C150.315 9.70421 149.248 9.93089 148.019 11.0319Z" fill="white"/>
<path d="M162.035 54.4485C162.035 61.2221 156.553 66.7133 149.79 66.7133C143.027 66.7133 137.544 61.2221 137.544 54.4485C137.544 47.6748 143.027 42.1837 149.79 42.1837C156.553 42.1837 162.035 47.6748 162.035 54.4485Z" fill="white"/>
<path d="M145.304 78.7352C145.304 85.5089 139.821 91 133.058 91C126.295 91 120.813 85.5089 120.813 78.7352C120.813 71.9615 126.295 66.4704 133.058 66.4704C139.821 66.4704 145.304 71.9615 145.304 78.7352Z" fill="white"/>
<path d="M179.009 78.7352C179.009 85.5089 173.526 91 166.763 91C160 91 154.518 85.5089 154.518 78.7352C154.518 71.9615 160 66.4704 166.763 66.4704C173.526 66.4704 179.009 71.9615 179.009 78.7352Z" fill="white"/>
</svg>
