<svg width="800" height="800" viewBox="0 0 800 800" fill="none" xmlns="http://www.w3.org/2000/svg">
<path d="M122.787 667.05C113.35 669.537 153 650.3 124.637 645.3C117.225 643.963 104.862 650.3 96.325 640.275C87.85 630.237 75.5625 638.763 72.75 647.888C69.9125 657 18.975 658.675 25.575 664.512C32.1625 670.375 48.2125 701.325 54.825 694.637C61.4375 687.95 68.4 668.713 74.825 677.913C81.25 687.113 83.15 706.35 60.5 724.762C37.8625 743.175 71.825 732.288 67.0875 754.038C62.3875 775.788 86 774.125 89.75 774.963C93.5375 775.788 115.225 763.237 119.012 754.9C122.8 746.525 145.412 687.125 142.587 682.1C139.775 677.088 132.2 664.512 122.787 667.05Z" fill="white" fill-opacity="0.5"/>
<path d="M81.5929 635.071C84.1372 633.926 86.9791 633.42 89.8478 633.984C92.7331 634.552 95.4746 636.17 97.8478 638.978L98.1984 639.377C101.846 643.395 106.219 644.196 110.839 644.047C113.282 643.968 115.651 643.631 118.074 643.372C120.4 643.124 122.819 642.941 124.984 643.33H124.984C128.643 643.975 131.4 644.88 133.351 646.062C135.34 647.269 136.625 648.859 136.958 650.823C137.278 652.708 136.645 654.514 135.756 656.041C134.857 657.585 133.571 659.067 132.215 660.406C130.572 662.028 128.695 663.565 127.058 664.85C130.798 665.43 134.042 667.772 136.583 670.336C140.207 673.993 142.912 678.593 144.33 681.12H144.331C144.788 681.932 144.841 682.929 144.829 683.685C144.816 684.54 144.699 685.55 144.514 686.658C144.141 688.882 143.453 691.725 142.555 694.953C140.756 701.421 138.06 709.627 135.168 717.903C129.391 734.439 122.767 751.452 120.835 755.724L120.833 755.727C119.708 758.205 117.381 760.78 114.704 763.162C111.981 765.586 108.707 767.973 105.459 770.052C102.212 772.13 98.9432 773.932 96.214 775.17C94.8531 775.787 93.586 776.283 92.4991 776.599C91.5205 776.885 90.3344 777.137 89.3243 776.917L89.3136 776.915C89.018 776.849 88.4112 776.791 87.3517 776.709C86.3667 776.632 85.1171 776.541 83.7413 776.386C81.0002 776.076 77.6282 775.498 74.4816 774.188C71.3233 772.874 68.266 770.767 66.3683 767.333C64.4628 763.885 63.8856 759.387 65.1329 753.615V753.612C66.2009 748.709 65.0578 746.011 63.4093 744.239C61.5816 742.275 58.938 741.186 56.255 739.97C55.0153 739.407 53.6599 738.766 52.6329 737.941C51.5414 737.065 50.577 735.778 50.6466 733.969C50.7092 732.345 51.6052 730.748 52.9366 729.14C54.3062 727.485 56.3687 725.545 59.2384 723.211L60.2511 722.373C81.1373 704.787 78.8264 687.135 73.1857 679.057C72.5108 678.091 71.9693 677.706 71.6222 677.561C71.3321 677.44 71.035 677.424 70.6134 677.58C69.5607 677.97 68.1863 679.261 66.4952 681.516C64.8648 683.691 63.2362 686.336 61.5148 688.996C59.8432 691.578 58.0658 694.205 56.2472 696.044C54.9148 697.391 53.244 697.806 51.546 697.465C49.9952 697.153 48.4994 696.235 47.1339 695.131C44.3816 692.904 41.4202 689.296 38.5841 685.473C35.7315 681.627 32.8592 677.358 30.3556 673.78C27.7777 670.097 25.6801 667.284 24.2452 666.007L24.2462 666.006C23.6342 665.463 22.9476 664.59 22.9874 663.397C23.0269 662.218 23.7555 661.41 24.3302 660.943C25.4496 660.035 27.2807 659.367 29.2091 658.811C33.2189 657.657 39.1857 656.594 45.257 655.462C51.4068 654.315 57.7261 653.087 62.6759 651.594C65.1551 650.846 67.1914 650.06 68.6564 649.236C70.2008 648.367 70.7224 647.67 70.84 647.293C72.4114 642.2 76.5718 637.331 81.5929 635.071Z" stroke="#0E0E0E" stroke-opacity="0.5" stroke-width="4" stroke-miterlimit="3.8637"/>
<path d="M567.237 251.263C567.237 251.263 550.275 238.713 546.475 251.263C542.712 263.787 568.175 266.325 565.375 276.362C562.537 286.4 537.037 288.088 536.087 269.65C535.175 251.263 525.737 267.988 525.737 281.375C525.737 294.775 495.537 283.063 504.975 298.95C514.412 314.838 488.95 333.25 503.1 336.6C517.262 339.95 498.375 403.525 488.95 410.213C479.475 416.925 486.1 429.45 469.112 434.475C452.112 439.5 434.187 476.3 411.575 482.175C388.912 488.038 383.237 498.875 380.437 488.037C377.575 477.15 360.587 478.812 375.712 471.287C390.8 463.737 401.175 448.725 385.125 452.075C369.087 455.4 354 470.438 359.637 478.813C365.337 487.188 362.575 503.075 349.787 511.45C336.987 519.825 317.212 531.513 326.625 539.888C336.062 548.263 323.787 566.65 312.475 559.95C301.137 553.263 289.837 535.713 278.5 544.063C267.162 552.413 237 559.125 220.937 556.612C204.912 554.125 181.287 546.575 178.487 557.463C175.65 568.3 153.512 593.425 142.85 595.937C132.212 598.45 124.4 608.487 112.425 610.975C103.7 612.8 86.95 619.35 98.25 628.55C109.575 637.75 132.687 616.825 142.837 628.55C153.012 640.275 161.5 608.487 165.25 616C169.012 623.55 195.437 616.925 214.325 610.625C233.212 604.275 253 590.05 271.9 595.075C290.775 600.1 305.85 605.012 295.475 612.6C285.087 620.162 277.537 637.75 286.025 640.263C294.525 642.775 306.8 662.013 318.125 657.813C329.45 653.638 343.6 616.825 360.575 617.675C377.55 618.5 365.325 600.1 353.987 598.438C342.662 596.75 368.137 566.625 374.75 580.863C381.337 595.075 418.15 605.938 426.625 600.925C435.137 595.925 445.512 576.588 457.8 577.05C470.037 577.513 438.912 611.787 457.8 602.612C476.65 593.412 475.7 560.788 490.825 570.825C505.925 580.863 509.687 540.7 511.562 557.45C513.462 574.15 500.225 587.55 511.562 583.35C522.9 579.175 549.325 551.587 543.65 534.837C537.975 518.112 534.225 492.163 552.162 482.963C570.087 473.788 546.475 410.187 563.475 410.187C580.45 410.187 580.45 417.925 581.412 399.837C582.35 381.75 588.962 373.4 602.15 359.163C615.375 344.925 579.512 299.763 574.812 292.238C570.075 284.7 585.162 259.613 567.237 251.263Z" fill="white" fill-opacity="0.5"/>
<path d="M550.788 244.04C553.478 243.295 556.41 243.826 558.912 244.658C561.459 245.506 563.836 246.76 565.55 247.778C566.413 248.292 567.124 248.754 567.621 249.091C567.87 249.259 568.068 249.396 568.204 249.493C568.226 249.509 568.247 249.524 568.266 249.537C573.149 251.867 575.89 255.405 577.22 259.511C578.533 263.566 578.437 268.063 577.957 272.28C577.716 274.404 577.369 276.51 577.031 278.497C576.69 280.504 576.362 282.368 576.134 284.092C575.906 285.819 575.793 287.308 575.859 288.549C575.918 289.645 576.11 290.42 576.384 290.957L576.506 291.173L576.509 291.178C577.654 293.012 580.682 297.109 584.571 302.729C588.402 308.264 592.952 315.117 596.945 322.2C600.926 329.26 604.419 336.66 606.06 343.276C607.676 349.792 607.642 356.185 603.616 360.521C597.011 367.652 592.221 373.139 588.934 379.03C585.686 384.853 583.866 391.155 583.41 399.941L583.409 399.944C583.173 404.388 582.989 407.498 582.544 409.516C582.319 410.536 581.98 411.528 581.349 412.314C580.643 413.192 579.724 413.631 578.736 413.775C577.855 413.903 576.913 413.796 576.04 413.656C575.17 413.517 574.067 413.289 572.942 413.081C570.611 412.652 567.556 412.188 563.475 412.188C562.141 412.188 561.274 412.731 560.574 413.94C559.787 415.3 559.273 417.455 559.051 420.418C558.609 426.318 559.381 434.351 560.157 442.954C560.923 451.44 561.683 460.426 561.095 467.878C560.8 471.611 560.16 475.084 558.941 477.978C557.712 480.892 555.849 483.321 553.074 484.741C544.978 488.894 541.62 496.853 541.048 506.2C540.475 515.568 542.75 525.96 545.544 534.194V534.195C547.168 538.988 546.44 544.361 544.5 549.592C542.552 554.845 539.306 560.171 535.571 565.028C531.83 569.894 527.547 574.357 523.463 577.879C519.42 581.366 515.427 584.056 512.256 585.225L512.257 585.226C510.798 585.766 509.49 586.124 508.394 586.128C507.823 586.13 507.174 586.039 506.566 585.711C505.914 585.36 505.458 584.816 505.198 584.188C504.751 583.105 504.933 581.877 505.126 580.982C505.342 579.984 505.717 578.819 506.128 577.599C507.753 572.776 510.267 566.032 509.659 558.554C509.168 559.722 508.602 561.075 507.972 562.452C506.437 565.806 504.338 569.741 501.453 572.15C499.969 573.389 498.189 574.3 496.109 574.441C494.023 574.582 491.883 573.929 489.719 572.49V572.491C488.017 571.362 486.735 570.964 485.768 570.931C484.849 570.899 484.015 571.188 483.152 571.85C482.249 572.543 481.341 573.629 480.383 575.125C479.431 576.612 478.498 578.392 477.5 580.397C475.536 584.342 473.338 589.132 470.449 593.463C467.541 597.823 463.824 601.898 458.677 604.41L458.674 604.411C457.44 605.011 456.357 605.459 455.416 605.752C454.498 606.038 453.593 606.214 452.757 606.163C451.878 606.109 450.921 605.784 450.255 604.926C449.636 604.128 449.528 603.195 449.554 602.481C449.605 601.097 450.209 599.443 450.895 597.876C451.612 596.237 452.564 594.385 453.532 592.523C455.525 588.691 457.553 584.87 458.385 581.977C458.815 580.48 458.784 579.679 458.663 579.353C458.63 579.263 458.606 579.245 458.567 579.221C458.503 579.182 458.318 579.095 457.912 579.06L457.725 579.049C455.204 578.954 452.657 579.868 450.026 581.564C447.389 583.263 444.801 585.66 442.238 588.325C439.585 591.084 437.323 593.727 434.816 596.391C432.453 598.901 430.039 601.236 427.642 602.646L427.643 602.647C426.212 603.493 424.368 603.912 422.401 604.078C420.402 604.247 418.106 604.168 415.647 603.891C410.726 603.336 404.977 601.964 399.321 599.991C393.666 598.019 388.027 595.421 383.351 592.374C378.719 589.356 374.815 585.759 372.936 581.704C372.277 580.285 371.487 579.619 370.736 579.312C369.953 578.991 368.933 578.948 367.645 579.296C365.004 580.009 361.857 582.204 359.078 585.07C356.308 587.928 354.202 591.146 353.431 593.581C353.037 594.824 353.09 595.553 353.22 595.886C353.277 596.031 353.408 596.329 354.282 596.459H354.281C357.558 596.941 360.765 598.599 363.423 600.689C366.086 602.782 368.357 605.433 369.688 608.095C370.969 610.659 371.631 613.801 369.978 616.342C368.311 618.903 364.922 619.889 360.478 619.673H360.475C356.992 619.499 353.422 621.247 349.689 624.507C345.974 627.75 342.368 632.25 338.842 637.044C335.379 641.752 331.923 646.849 328.717 650.902C327.096 652.95 325.477 654.814 323.869 656.316C322.277 657.803 320.59 659.033 318.819 659.687L318.82 659.688C315.351 660.974 311.903 660.412 308.729 659.029C305.586 657.661 302.548 655.423 299.739 653.095C298.326 651.923 296.938 650.7 295.608 649.527C294.268 648.345 292.991 647.217 291.758 646.195C289.229 644.099 287.148 642.68 285.458 642.181L285.457 642.18C284.034 641.758 282.864 640.989 282.003 639.907C281.154 638.84 280.684 637.569 280.483 636.245C280.086 633.646 280.68 630.603 281.8 627.621C284.049 621.636 288.757 615.018 294.294 610.986C296.757 609.184 296.912 608.102 296.846 607.674C296.749 607.051 296.02 605.981 293.652 604.607C289.669 602.294 282.894 600.15 274.888 597.953L271.386 597.008C262.565 594.663 253.391 596.77 243.826 600.451C239.054 602.288 234.282 604.475 229.447 606.636C224.641 608.784 219.784 610.899 214.962 612.521L214.958 612.523C205.473 615.687 194.025 618.956 184.43 620.482C179.647 621.242 175.2 621.59 171.643 621.221C168.352 620.88 165.135 619.848 163.622 617.194C163.476 617.337 163.308 617.516 163.119 617.737C162.464 618.507 161.719 619.577 160.858 620.87C160.02 622.127 159.075 623.59 158.094 624.998C156.18 627.745 153.806 630.777 151.043 632.245C149.589 633.018 147.921 633.415 146.137 633.022C144.378 632.634 142.782 631.537 141.327 629.861L141.325 629.859C139.314 627.536 136.653 626.744 133.271 626.896C129.798 627.051 125.846 628.194 121.575 629.514C117.419 630.799 112.949 632.256 108.813 632.768C104.644 633.283 100.426 632.894 96.9894 630.103L96.9874 630.101C93.9313 627.613 92.301 624.918 92.4747 622.058C92.6441 619.271 94.4928 617.062 96.5978 615.42C100.825 612.122 107.553 609.951 112.016 609.018L112.019 609.017C117.588 607.86 122.243 604.94 127.042 601.793C131.733 598.717 136.658 595.345 142.39 593.991L142.392 593.99C144.604 593.469 147.697 591.668 151.273 588.824C154.787 586.029 158.565 582.394 162.123 578.477C165.679 574.562 168.983 570.402 171.563 566.575C174.173 562.702 175.932 559.328 176.553 556.956C177.486 553.342 180.199 551.369 183.519 550.458C186.744 549.573 190.761 549.607 194.955 550.032C199.186 550.461 203.81 551.315 208.323 552.202C212.305 552.985 216.184 553.791 219.74 554.392L221.244 554.636L221.246 554.637C228.923 555.838 240.2 554.842 251.062 552.457C261.951 550.066 271.99 546.373 277.314 542.452C280.613 540.022 284.023 539.436 287.396 540.122C290.656 540.785 293.768 542.611 296.676 544.758C299.588 546.909 302.506 549.548 305.288 551.961C307.944 554.265 310.491 556.377 312.991 557.925L313.491 558.228L313.494 558.23C315.785 559.586 318.054 559.66 320.122 558.933C322.245 558.186 324.224 556.561 325.683 554.439C328.675 550.084 328.96 544.634 325.297 541.383L325.295 541.382C323.9 540.141 322.936 538.737 322.475 537.17C322.011 535.598 322.101 534.017 322.56 532.507C323.448 529.581 325.764 526.774 328.511 524.207C334.041 519.04 342.394 513.897 348.692 509.777C354.647 505.876 358.251 500.24 359.71 494.628C361.18 488.972 360.433 483.535 357.984 479.938L357.979 479.929C356.133 477.187 356.078 473.994 357.087 470.942C358.085 467.923 360.152 464.902 362.818 462.156C368.152 456.666 376.285 451.865 384.719 450.116C386.828 449.676 388.631 449.509 390.118 449.636C391.586 449.761 392.975 450.197 393.965 451.192C395.015 452.248 395.303 453.614 395.167 454.901C395.037 456.136 394.518 457.398 393.826 458.595C391.092 463.324 384.364 469.195 376.608 473.076L376.604 473.078C374.751 474 373.469 474.743 372.615 475.351C372.192 475.652 371.907 475.898 371.721 476.089C371.705 476.106 371.69 476.122 371.676 476.137C371.832 476.283 372.08 476.488 372.471 476.759C373.572 477.524 375.82 478.8 377.658 480.361C379.494 481.918 381.282 484.007 382.2 486.933L382.372 487.528L382.374 487.537C383.066 490.217 383.727 490.555 383.916 490.616C384.07 490.666 384.4 490.709 385.076 490.546C385.755 490.383 386.612 490.055 387.732 489.547C392.022 487.601 399.063 483.495 410.003 480.523L411.074 480.238C416.313 478.877 421.403 475.687 426.419 471.426C431.43 467.169 436.242 461.954 440.957 456.674C445.635 451.435 450.249 446.097 454.745 441.779C459.216 437.486 463.813 433.956 468.545 432.557C472.533 431.377 474.978 429.807 476.607 428.119C478.242 426.424 479.184 424.478 479.966 422.301C481.459 418.143 482.393 412.407 487.794 408.58C488.599 408.008 489.747 406.609 491.117 404.259C492.447 401.978 493.864 399.022 495.28 395.596C498.112 388.748 500.883 380.17 502.926 371.687C504.974 363.181 506.26 354.894 506.19 348.598C506.154 345.435 505.776 342.93 505.085 341.187C504.406 339.472 503.55 338.761 502.64 338.546H502.639C500.639 338.073 499.001 337.258 497.937 335.913C496.84 334.526 496.602 332.894 496.761 331.335C496.916 329.816 497.46 328.21 498.117 326.634C498.78 325.045 499.63 323.328 500.473 321.6C502.193 318.071 503.935 314.389 504.716 310.655C505.483 306.984 505.29 303.398 503.255 299.972C502.008 297.873 501.268 295.996 501.161 294.309C501.047 292.491 501.681 290.989 502.904 289.895C504.02 288.897 505.498 288.351 506.915 287.999C508.362 287.64 509.995 287.426 511.589 287.242C514.923 286.859 518.065 286.592 520.446 285.674C521.592 285.232 522.392 284.697 522.906 284.065C523.392 283.467 523.737 282.644 523.737 281.375C523.737 277.81 524.363 274.069 525.303 270.763C526.236 267.48 527.52 264.48 528.929 262.455C529.615 261.468 530.461 260.522 531.474 259.984C532.005 259.701 532.65 259.496 533.37 259.527C534.113 259.56 534.781 259.839 535.333 260.279C536.348 261.09 536.934 262.407 537.312 263.803C537.709 265.27 537.967 267.175 538.085 269.547L538.109 269.929C538.394 273.831 539.916 276.552 541.992 278.393C544.174 280.327 547.106 281.408 550.206 281.693C553.309 281.977 556.44 281.449 558.904 280.322C561.396 279.184 562.957 277.565 563.45 275.819C563.864 274.325 563.364 273.008 561.693 271.414C559.948 269.75 557.383 268.235 554.507 266.443C551.767 264.736 548.753 262.779 546.704 260.345C544.552 257.788 543.385 254.596 544.56 250.687L544.561 250.683C545.682 246.979 547.917 244.835 550.788 244.04Z" stroke="#0E0E0E" stroke-opacity="0.5" stroke-width="4" stroke-miterlimit="3.8637"/>
<path d="M254.912 615.813C246.925 617.275 230.35 609.125 223.762 619.987C217.137 630.875 208.65 624.388 203.95 631.075C199.213 637.763 187.9 618.525 180.325 631.075C172.787 643.625 153.925 657 164.3 664.525C174.675 672.075 160.512 677.1 169.012 685.45C177.525 693.825 194.487 697.175 197.362 685.45C200.175 673.75 211.5 647.638 224.712 654.425C237.925 661.213 244.5 664.9 249.237 658.45C253.975 652 263.4 641.95 270 640.288C276.588 638.588 272.85 612.438 254.912 615.813Z" fill="white" fill-opacity="0.5"/>
<path d="M222.054 618.948C225.988 612.464 232.891 611.875 238.978 612.382C242.034 612.636 245.204 613.2 247.879 613.574C250.679 613.966 252.913 614.146 254.553 613.846V613.846C259.559 612.907 263.712 614.022 266.935 616.353C270.108 618.648 272.254 622.024 273.528 625.45C274.8 628.871 275.266 632.509 274.932 635.494C274.765 636.983 274.387 638.416 273.72 639.595C273.045 640.786 271.997 641.838 270.5 642.224L270.488 642.227C267.725 642.924 264.041 645.526 260.286 649.035C256.611 652.47 253.151 656.5 250.849 659.634C249.472 661.509 247.84 662.8 245.849 663.409C243.892 664.007 241.818 663.875 239.672 663.343C235.497 662.307 230.282 659.534 223.799 656.204C221.186 654.862 218.718 655.106 216.245 656.505C213.669 657.962 211.136 660.666 208.794 664.126C204.123 671.026 200.671 680.245 199.307 685.918L199.305 685.927C198.46 689.371 196.529 691.829 193.902 693.315C191.332 694.77 188.249 695.211 185.154 694.982C178.997 694.527 172.189 691.381 167.61 686.876V686.875C165.183 684.49 164.189 682.132 164.149 679.753C164.112 677.541 164.931 675.51 165.48 674.003C166.088 672.335 166.415 671.203 166.243 670.119C166.09 669.156 165.46 667.843 163.123 666.142V666.141C161.594 665.032 160.485 663.726 159.854 662.211C159.221 660.69 159.13 659.108 159.395 657.553C159.908 654.544 161.786 651.449 163.991 648.489C166.222 645.494 169.036 642.327 171.658 639.243C174.322 636.109 176.819 633.029 178.61 630.046L178.613 630.042C180.769 626.47 183.451 624.812 186.486 624.721C189.277 624.638 191.972 625.917 194.166 627.125C195.236 627.714 196.451 628.443 197.374 628.964C198.383 629.534 199.248 629.977 200.005 630.251C200.773 630.528 201.249 630.563 201.535 630.512C201.734 630.476 201.99 630.379 202.313 629.925C205.261 625.731 209.654 625.646 212.813 625.133C214.5 624.859 216.05 624.486 217.542 623.636C219.012 622.797 220.551 621.418 222.054 618.948Z" stroke="#0E0E0E" stroke-opacity="0.5" stroke-width="4" stroke-miterlimit="3.8637"/>
<path d="M751.275 147.525C755.988 143.325 752.213 134.125 744.65 127.437C737.113 120.75 751.275 103.2 757.888 92.3C764.475 81.4375 732.413 117.4 721.075 113.225C709.75 109.025 705 104.012 688.037 102.337C671.062 100.675 628.588 58.85 611.613 35.4125C594.613 12 576.675 33.75 583.3 45.45C589.888 57.175 595.55 75.575 589.888 88.125C584.213 100.675 592.75 109.875 576.662 114.887C560.637 119.887 576.662 128.287 576.662 146.062C576.662 163.837 561.575 159.225 547.437 151.675C533.262 144.175 532.325 144.175 529.175 151.675C526.1 159.225 537.025 164.25 529.175 169.275C521.362 174.275 506.862 180.137 500.212 192.687C493.625 205.237 504.025 216.1 516.288 218.612C528.538 221.125 500.212 239.537 509.675 251.25C519.1 262.95 529.487 246.225 534.225 236.187C538.95 226.15 550.262 237.85 556.887 236.187C563.475 234.525 559.463 227.15 551.212 218.612C548.75 216.075 544.35 214.237 535.862 212.975C527.35 211.7 521.937 207.137 524.325 200.212C526.675 193.325 537.038 186.637 544.85 189.562C552.6 192.487 552.05 197.762 553.1 201.062C555.763 209.337 566.288 196.037 579.513 190.175C592.738 184.312 609.713 200.212 623.863 206.925C638.025 213.612 658.787 223.65 658.787 223.65C666.337 231.175 658.787 210.275 664.437 201.062C670.1 191.862 688.038 161.737 698.413 167.587C708.8 173.425 733.35 175.962 738.05 168.412C742.775 160.887 751.275 162.55 770.138 150.862C788.988 139.15 746.538 151.675 751.275 147.525Z" fill="white" fill-opacity="0.5"/>
<path d="M587.464 25.6157C590.79 23.3297 595.018 22.2902 599.606 23.5278C604.01 24.7158 608.518 27.9371 612.815 33.6743L613.23 34.2378L613.232 34.2397C621.621 45.8219 636.385 62.0374 651.175 75.5649C658.566 82.3248 665.92 88.374 672.448 92.8228C679.071 97.3362 684.54 99.9855 688.232 100.347H688.234C705.517 102.054 711 107.355 721.766 111.348C722.613 111.66 723.871 111.665 725.627 111.158C727.357 110.658 729.355 109.725 731.531 108.46C735.88 105.932 740.641 102.254 744.93 98.7124C749.11 95.2594 753.018 91.7787 755.271 90.0034C755.849 89.5474 756.389 89.1465 756.848 88.8599C757.072 88.7193 757.338 88.5672 757.616 88.4536C757.793 88.3814 758.406 88.1337 759.129 88.3071C759.582 88.4159 760.051 88.6857 760.381 89.1587C760.682 89.5906 760.754 90.0308 760.768 90.311C760.792 90.8205 760.642 91.2626 760.559 91.4878C760.364 92.0117 760.018 92.6449 759.598 93.3374C757.922 96.0991 755.755 99.3025 753.645 102.541C751.51 105.815 749.402 109.171 747.737 112.372C746.059 115.6 744.915 118.515 744.591 120.925C744.274 123.281 744.76 124.859 745.975 125.939C749.945 129.45 753.011 133.692 754.45 137.745C755.457 140.58 755.736 143.607 754.66 146.16C757.717 145.744 761.712 144.978 765.702 144.38C767.635 144.091 769.51 143.852 771.084 143.757C771.87 143.71 772.621 143.696 773.287 143.738C773.917 143.777 774.635 143.876 775.264 144.145C775.906 144.42 776.88 145.09 776.984 146.402C777.069 147.47 776.487 148.317 776.084 148.803C775.203 149.865 773.549 151.097 771.193 152.561L771.191 152.563C761.591 158.512 754.599 161.074 749.521 163.061C744.411 165.061 741.716 166.335 739.744 169.476L739.743 169.475C738.142 172.041 735.079 173.466 731.791 174.237C728.421 175.027 724.385 175.233 720.26 175.017C712.053 174.587 702.985 172.451 697.433 169.331L697.431 169.33C695.849 168.438 693.669 168.703 690.63 170.722C687.652 172.7 684.411 176.02 681.207 179.946C674.821 187.769 668.995 197.471 666.142 202.107L666.143 202.108C664.986 203.994 664.426 206.636 664.229 209.667C664.033 212.67 664.203 215.787 664.323 218.545C664.382 219.897 664.43 221.192 664.402 222.29C664.377 223.316 664.286 224.467 663.903 225.371C663.7 225.851 663.333 226.461 662.655 226.866C661.926 227.302 661.141 227.321 660.485 227.159C659.471 226.907 658.509 226.159 657.627 225.31C657.474 225.236 657.263 225.134 656.998 225.006C656.403 224.719 655.537 224.301 654.453 223.779C652.286 222.734 649.249 221.27 645.77 219.598C638.81 216.253 630.084 212.075 623.009 208.734L623.005 208.732C619.353 207 615.55 204.69 611.771 202.352C607.957 199.993 604.162 197.603 600.4 195.6C592.754 191.529 585.993 189.49 580.323 192.003C573.907 194.848 568.297 199.414 563.441 202.593C562.258 203.368 561.106 204.066 560.018 204.597C558.945 205.121 557.822 205.541 556.712 205.665C555.557 205.793 554.34 205.605 553.274 204.824C552.248 204.071 551.604 202.944 551.196 201.675L551.194 201.668C550.893 200.723 550.693 199.586 550.503 198.708C550.295 197.748 550.06 196.856 549.67 196.006C548.943 194.423 547.563 192.725 544.144 191.434V191.433C540.981 190.252 537.072 190.956 533.518 192.952C529.956 194.951 527.192 198.004 526.218 200.858L526.216 200.865C525.259 203.641 525.868 205.712 527.436 207.314C529.131 209.047 532.128 210.393 536.159 210.997H536.158C544.715 212.27 549.696 214.178 552.647 217.219L552.65 217.223C556.799 221.516 560.113 225.737 561.479 229.254C562.16 231.01 562.492 232.936 561.798 234.68C561.06 236.534 559.404 237.615 557.377 238.126L557.374 238.127C555.11 238.695 552.674 238.089 550.569 237.37C549.479 236.997 548.369 236.553 547.309 236.128C546.23 235.697 545.2 235.285 544.192 234.938C542.124 234.226 540.482 233.913 539.194 234.153C538.101 234.357 536.989 235.011 536.034 237.04L536.033 237.042C533.645 242.101 529.728 249.097 525.054 253.35C522.716 255.477 519.946 257.14 516.888 257.243C513.709 257.349 510.742 255.763 508.119 252.507L507.853 252.164C505.185 248.606 505.32 244.61 506.541 240.932C507.776 237.215 510.208 233.519 512.376 230.352C513.489 228.726 514.525 227.251 515.396 225.881C516.274 224.501 516.889 223.371 517.202 222.469C517.526 221.536 517.391 221.24 517.375 221.21C517.371 221.204 517.222 220.922 516.32 220.674L515.886 220.572C509.354 219.233 503.211 215.659 499.558 210.583C495.833 205.407 494.775 198.744 498.441 191.758L498.445 191.751C501.99 185.062 507.582 180.235 513.141 176.491C515.925 174.615 518.735 172.99 521.305 171.537C523.904 170.067 526.204 168.802 528.097 167.59C529.75 166.532 530.016 165.748 530.063 165.271C530.13 164.596 529.858 163.726 529.165 162.292C527.959 159.795 525.375 155.701 527.322 150.92L527.327 150.911L527.331 150.901C528.1 149.07 528.848 147.397 529.805 146.205C530.888 144.855 532.291 144.05 534.172 144.05C535.82 144.05 537.695 144.676 539.853 145.625C541.508 146.354 543.486 147.347 545.861 148.586L548.373 149.907L548.38 149.911C551.867 151.773 555.366 153.428 558.642 154.599C561.94 155.778 564.887 156.42 567.307 156.366C569.682 156.312 571.389 155.601 572.552 154.214C573.764 152.77 574.662 150.267 574.662 146.062C574.662 137.688 570.943 131.727 568.8 126.435C567.8 123.966 566.96 121.18 568.062 118.586C569.178 115.958 571.95 114.262 576.066 112.978H576.067C579.898 111.785 581.998 110.42 583.216 109.036C584.405 107.683 584.931 106.108 585.196 104.075C585.331 103.042 585.393 101.933 585.453 100.69C585.512 99.4686 585.568 98.1199 585.697 96.7134C585.959 93.8717 586.525 90.7074 588.064 87.3022C590.653 81.5648 590.717 74.3049 589.227 66.8716C587.743 59.4738 584.765 52.1413 581.56 46.4351C579.574 42.929 579.488 38.7858 580.626 35.0679C581.764 31.3492 584.174 27.8768 587.464 25.6157Z" stroke="#0E0E0E" stroke-opacity="0.5" stroke-width="4" stroke-miterlimit="3.8637"/>
<path d="M96.96 156V135.2H99.68V152.32L112.36 135.16H114.8V156H112.08V139.16L99.6 156H96.96ZM126.79 156.24C124.87 156.24 123.23 155.88 121.87 155.16C120.51 154.413 119.47 153.373 118.75 152.04L120.99 151.04C121.497 151.973 122.23 152.707 123.19 153.24C124.15 153.747 125.31 154 126.67 154C128.297 154 129.59 153.627 130.55 152.88C131.537 152.133 132.03 151.133 132.03 149.88C132.03 148.733 131.643 147.813 130.87 147.12C130.097 146.427 129.03 146.067 127.67 146.04H125.55V144.16H127.83C128.417 144.16 128.95 144 129.43 143.68C129.91 143.36 130.283 142.933 130.55 142.4C130.817 141.867 130.95 141.267 130.95 140.6C130.95 139.56 130.577 138.72 129.83 138.08C129.11 137.44 128.043 137.12 126.63 137.12C125.457 137.12 124.47 137.36 123.67 137.84C122.897 138.293 122.27 138.973 121.79 139.88L119.71 138.76C120.323 137.533 121.23 136.573 122.43 135.88C123.657 135.187 125.083 134.84 126.71 134.84C128.043 134.84 129.203 135.067 130.19 135.52C131.203 135.947 131.99 136.573 132.55 137.4C133.137 138.2 133.43 139.173 133.43 140.32C133.43 141.307 133.19 142.227 132.71 143.08C132.23 143.907 131.563 144.533 130.71 144.96C131.937 145.333 132.883 145.987 133.55 146.92C134.243 147.853 134.59 148.947 134.59 150.2C134.59 151.453 134.257 152.533 133.59 153.44C132.923 154.347 132.003 155.04 130.83 155.52C129.657 156 128.31 156.24 126.79 156.24ZM148.028 156.4C146.535 156.4 145.148 156.12 143.868 155.56C142.615 154.973 141.522 154.187 140.588 153.2C139.682 152.187 138.975 151.04 138.468 149.76C137.962 148.453 137.708 147.08 137.708 145.64C137.708 144.147 137.962 142.76 138.468 141.48C138.975 140.173 139.695 139.027 140.628 138.04C141.562 137.027 142.655 136.24 143.908 135.68C145.188 135.093 146.575 134.8 148.068 134.8C149.562 134.8 150.935 135.093 152.188 135.68C153.442 136.24 154.535 137.027 155.468 138.04C156.402 139.027 157.122 140.173 157.628 141.48C158.135 142.76 158.388 144.147 158.388 145.64C158.388 147.08 158.135 148.453 157.628 149.76C157.122 151.04 156.402 152.187 155.468 153.2C154.562 154.187 153.468 154.973 152.188 155.56C150.935 156.12 149.548 156.4 148.028 156.4ZM140.468 145.68C140.468 147.227 140.802 148.64 141.468 149.92C142.162 151.173 143.082 152.173 144.228 152.92C145.375 153.64 146.642 154 148.028 154C149.415 154 150.682 153.627 151.828 152.88C152.975 152.133 153.895 151.12 154.588 149.84C155.282 148.533 155.628 147.12 155.628 145.6C155.628 144.053 155.282 142.64 154.588 141.36C153.895 140.08 152.975 139.067 151.828 138.32C150.682 137.573 149.415 137.2 148.028 137.2C146.642 137.2 145.375 137.587 144.228 138.36C143.108 139.133 142.202 140.16 141.508 141.44C140.815 142.693 140.468 144.107 140.468 145.68ZM172.498 156.4C169.138 156.4 166.591 155.373 164.858 153.32C163.151 151.24 162.298 148.373 162.298 144.72C162.298 142.133 162.511 139.947 162.938 138.16C163.364 136.373 163.991 134.907 164.818 133.76C165.644 132.587 166.658 131.627 167.858 130.88C169.084 130.133 170.484 129.52 172.058 129.04L180.818 126.16L181.057 128.52L172.618 131.28C171.018 131.813 169.684 132.493 168.618 133.32C167.551 134.147 166.711 135.2 166.098 136.48C165.511 137.733 165.124 139.373 164.938 141.4C165.631 139.853 166.698 138.667 168.138 137.84C169.578 136.987 171.244 136.56 173.138 136.56C175.164 136.56 176.884 136.973 178.298 137.8C179.738 138.627 180.831 139.773 181.578 141.24C182.324 142.707 182.698 144.4 182.698 146.32C182.698 148.347 182.298 150.12 181.498 151.64C180.724 153.133 179.578 154.307 178.058 155.16C176.564 155.987 174.711 156.4 172.498 156.4ZM172.498 154C174.871 154 176.698 153.32 177.978 151.96C179.284 150.573 179.938 148.733 179.938 146.44C179.938 144.2 179.298 142.373 178.018 140.96C176.764 139.547 174.924 138.84 172.498 138.84C171.111 138.84 169.858 139.133 168.738 139.72C167.618 140.307 166.724 141.16 166.058 142.28C165.418 143.4 165.098 144.787 165.098 146.44C165.098 147.88 165.378 149.173 165.938 150.32C166.524 151.467 167.364 152.373 168.458 153.04C169.551 153.68 170.898 154 172.498 154ZM197.913 156.4C196.18 156.4 194.62 155.947 193.233 155.04C191.873 154.133 190.793 153.013 189.993 151.68V164.52H187.273V135.16H189.713V139.2C190.54 137.893 191.647 136.84 193.033 136.04C194.42 135.213 195.9 134.8 197.473 134.8C198.913 134.8 200.233 135.107 201.433 135.72C202.633 136.307 203.673 137.107 204.553 138.12C205.433 139.133 206.113 140.293 206.593 141.6C207.1 142.88 207.353 144.213 207.353 145.6C207.353 147.547 206.953 149.347 206.153 151C205.38 152.627 204.287 153.933 202.873 154.92C201.46 155.907 199.807 156.4 197.913 156.4ZM197.153 154C198.3 154 199.327 153.773 200.233 153.32C201.14 152.84 201.913 152.2 202.553 151.4C203.22 150.6 203.727 149.707 204.073 148.72C204.42 147.707 204.593 146.667 204.593 145.6C204.593 144.48 204.393 143.413 203.993 142.4C203.62 141.387 203.073 140.493 202.353 139.72C201.633 138.947 200.807 138.333 199.873 137.88C198.94 137.427 197.927 137.2 196.833 137.2C196.14 137.2 195.42 137.333 194.673 137.6C193.927 137.867 193.207 138.253 192.513 138.76C191.847 139.24 191.287 139.787 190.833 140.4C190.38 141.013 190.1 141.667 189.993 142.36V148.76C190.42 149.747 190.993 150.64 191.713 151.44C192.433 152.213 193.26 152.84 194.193 153.32C195.153 153.773 196.14 154 197.153 154ZM210.281 150C210.281 148.693 210.654 147.573 211.401 146.64C212.148 145.68 213.174 144.947 214.481 144.44C215.814 143.907 217.348 143.64 219.081 143.64C220.094 143.64 221.148 143.72 222.241 143.88C223.334 144.04 224.308 144.28 225.161 144.6V142.84C225.161 141.08 224.641 139.68 223.601 138.64C222.561 137.6 221.121 137.08 219.281 137.08C218.161 137.08 217.054 137.293 215.961 137.72C214.894 138.12 213.774 138.72 212.601 139.52L211.561 137.6C212.921 136.667 214.254 135.973 215.561 135.52C216.868 135.04 218.201 134.8 219.561 134.8C222.121 134.8 224.148 135.533 225.641 137C227.134 138.467 227.881 140.493 227.881 143.08V152.72C227.881 153.093 227.961 153.373 228.121 153.56C228.281 153.72 228.534 153.813 228.881 153.84V156C228.588 156.027 228.334 156.053 228.121 156.08C227.908 156.107 227.748 156.107 227.641 156.08C226.974 156.053 226.468 155.84 226.121 155.44C225.774 155.04 225.588 154.613 225.561 154.16L225.521 152.64C224.588 153.84 223.374 154.773 221.881 155.44C220.388 156.08 218.868 156.4 217.321 156.4C215.988 156.4 214.774 156.12 213.681 155.56C212.614 154.973 211.774 154.2 211.161 153.24C210.574 152.253 210.281 151.173 210.281 150ZM224.241 151.6C224.534 151.227 224.761 150.867 224.921 150.52C225.081 150.173 225.161 149.867 225.161 149.6V146.56C224.254 146.213 223.308 145.947 222.321 145.76C221.361 145.573 220.388 145.48 219.401 145.48C217.454 145.48 215.881 145.867 214.681 146.64C213.481 147.413 212.881 148.467 212.881 149.8C212.881 150.573 213.081 151.307 213.481 152C213.881 152.667 214.468 153.227 215.241 153.68C216.014 154.107 216.921 154.32 217.961 154.32C219.268 154.32 220.481 154.067 221.601 153.56C222.748 153.053 223.628 152.4 224.241 151.6ZM232.278 156L240.078 145.28L233.038 135.16H236.118L242.398 144.16H245.118V135.16H247.918V144.16H250.718L256.878 135.16H259.998L252.918 145.28L260.798 156H257.638L250.718 146.56H247.918V156H245.118V146.56H242.398L235.438 156H232.278ZM274.32 156.4C272.827 156.4 271.44 156.12 270.16 155.56C268.88 154.973 267.774 154.187 266.84 153.2C265.907 152.187 265.174 151.027 264.64 149.72C264.134 148.413 263.88 147.013 263.88 145.52C263.88 143.573 264.32 141.787 265.2 140.16C266.107 138.533 267.347 137.24 268.92 136.28C270.494 135.293 272.28 134.8 274.28 134.8C276.334 134.8 278.12 135.293 279.64 136.28C281.187 137.267 282.4 138.573 283.28 140.2C284.16 141.8 284.6 143.56 284.6 145.48C284.6 145.693 284.6 145.907 284.6 146.12C284.6 146.307 284.587 146.453 284.56 146.56H266.72C266.854 148.053 267.267 149.387 267.96 150.56C268.68 151.707 269.6 152.627 270.72 153.32C271.867 153.987 273.107 154.32 274.44 154.32C275.8 154.32 277.08 153.973 278.28 153.28C279.507 152.587 280.36 151.68 280.84 150.56L283.2 151.2C282.774 152.187 282.12 153.08 281.24 153.88C280.36 154.68 279.32 155.307 278.12 155.76C276.947 156.187 275.68 156.4 274.32 156.4ZM266.64 144.6H282.04C281.934 143.08 281.52 141.747 280.8 140.6C280.107 139.453 279.187 138.56 278.04 137.92C276.92 137.253 275.68 136.92 274.32 136.92C272.96 136.92 271.72 137.253 270.6 137.92C269.48 138.56 268.56 139.467 267.84 140.64C267.147 141.787 266.747 143.107 266.64 144.6ZM288.757 156V135.16H291.477V144.12H303.397V135.16H306.117V156H303.397V146.56H291.477V156H288.757ZM312.077 156V135.2H314.797V152.32L327.477 135.16H329.917V156H327.197V139.16L314.717 156H312.077ZM344.867 156.4C343.374 156.4 341.987 156.12 340.707 155.56C339.427 154.973 338.321 154.187 337.387 153.2C336.454 152.187 335.721 151.027 335.187 149.72C334.681 148.413 334.427 147.013 334.427 145.52C334.427 143.573 334.867 141.787 335.747 140.16C336.654 138.533 337.894 137.24 339.467 136.28C341.041 135.293 342.827 134.8 344.827 134.8C346.881 134.8 348.667 135.293 350.187 136.28C351.734 137.267 352.947 138.573 353.827 140.2C354.707 141.8 355.147 143.56 355.147 145.48C355.147 145.693 355.147 145.907 355.147 146.12C355.147 146.307 355.134 146.453 355.107 146.56H337.267C337.401 148.053 337.814 149.387 338.507 150.56C339.227 151.707 340.147 152.627 341.267 153.32C342.414 153.987 343.654 154.32 344.987 154.32C346.347 154.32 347.627 153.973 348.827 153.28C350.054 152.587 350.907 151.68 351.387 150.56L353.747 151.2C353.321 152.187 352.667 153.08 351.787 153.88C350.907 154.68 349.867 155.307 348.667 155.76C347.494 156.187 346.227 156.4 344.867 156.4ZM337.187 144.6H352.587C352.481 143.08 352.067 141.747 351.347 140.6C350.654 139.453 349.734 138.56 348.587 137.92C347.467 137.253 346.227 136.92 344.867 136.92C343.507 136.92 342.267 137.253 341.147 137.92C340.027 138.56 339.107 139.467 338.387 140.64C337.694 141.787 337.294 143.107 337.187 144.6ZM96.96 203V182.16H99.68V191.12H111.6V182.16H114.32V203H111.6V193.56H99.68V203H96.96ZM129.32 203.4C127.827 203.4 126.44 203.12 125.16 202.56C123.88 201.973 122.774 201.187 121.84 200.2C120.907 199.187 120.174 198.027 119.64 196.72C119.134 195.413 118.88 194.013 118.88 192.52C118.88 190.573 119.32 188.787 120.2 187.16C121.107 185.533 122.347 184.24 123.92 183.28C125.494 182.293 127.28 181.8 129.28 181.8C131.334 181.8 133.12 182.293 134.64 183.28C136.187 184.267 137.4 185.573 138.28 187.2C139.16 188.8 139.6 190.56 139.6 192.48C139.6 192.693 139.6 192.907 139.6 193.12C139.6 193.307 139.587 193.453 139.56 193.56H121.72C121.854 195.053 122.267 196.387 122.96 197.56C123.68 198.707 124.6 199.627 125.72 200.32C126.867 200.987 128.107 201.32 129.44 201.32C130.8 201.32 132.08 200.973 133.28 200.28C134.507 199.587 135.36 198.68 135.84 197.56L138.2 198.2C137.774 199.187 137.12 200.08 136.24 200.88C135.36 201.68 134.32 202.307 133.12 202.76C131.947 203.187 130.68 203.4 129.32 203.4ZM121.64 191.6H137.04C136.934 190.08 136.52 188.747 135.8 187.6C135.107 186.453 134.187 185.56 133.04 184.92C131.92 184.253 130.68 183.92 129.32 183.92C127.96 183.92 126.72 184.253 125.6 184.92C124.48 185.56 123.56 186.467 122.84 187.64C122.147 188.787 121.747 190.107 121.64 191.6ZM160.032 203.24C158.112 203.24 156.472 202.88 155.112 202.16C153.752 201.413 152.712 200.373 151.992 199.04L154.232 198.04C154.739 198.973 155.472 199.707 156.432 200.24C157.392 200.747 158.552 201 159.912 201C161.539 201 162.832 200.627 163.792 199.88C164.779 199.133 165.272 198.133 165.272 196.88C165.272 195.733 164.886 194.813 164.112 194.12C163.339 193.427 162.272 193.067 160.912 193.04H158.792V191.16H161.072C161.659 191.16 162.192 191 162.672 190.68C163.152 190.36 163.526 189.933 163.792 189.4C164.059 188.867 164.192 188.267 164.192 187.6C164.192 186.56 163.819 185.72 163.072 185.08C162.352 184.44 161.286 184.12 159.872 184.12C158.699 184.12 157.712 184.36 156.912 184.84C156.139 185.293 155.512 185.973 155.032 186.88L152.952 185.76C153.566 184.533 154.472 183.573 155.672 182.88C156.899 182.187 158.326 181.84 159.952 181.84C161.286 181.84 162.446 182.067 163.432 182.52C164.446 182.947 165.232 183.573 165.792 184.4C166.379 185.2 166.672 186.173 166.672 187.32C166.672 188.307 166.432 189.227 165.952 190.08C165.472 190.907 164.806 191.533 163.952 191.96C165.179 192.333 166.126 192.987 166.792 193.92C167.486 194.853 167.832 195.947 167.832 197.2C167.832 198.453 167.499 199.533 166.832 200.44C166.166 201.347 165.246 202.04 164.072 202.52C162.899 203 161.552 203.24 160.032 203.24ZM170.711 197C170.711 195.693 171.084 194.573 171.831 193.64C172.577 192.68 173.604 191.947 174.911 191.44C176.244 190.907 177.777 190.64 179.511 190.64C180.524 190.64 181.577 190.72 182.671 190.88C183.764 191.04 184.737 191.28 185.591 191.6V189.84C185.591 188.08 185.071 186.68 184.031 185.64C182.991 184.6 181.551 184.08 179.711 184.08C178.591 184.08 177.484 184.293 176.391 184.72C175.324 185.12 174.204 185.72 173.031 186.52L171.991 184.6C173.351 183.667 174.684 182.973 175.991 182.52C177.297 182.04 178.631 181.8 179.991 181.8C182.551 181.8 184.577 182.533 186.071 184C187.564 185.467 188.311 187.493 188.311 190.08V199.72C188.311 200.093 188.391 200.373 188.551 200.56C188.711 200.72 188.964 200.813 189.311 200.84V203C189.017 203.027 188.764 203.053 188.551 203.08C188.337 203.107 188.177 203.107 188.071 203.08C187.404 203.053 186.897 202.84 186.551 202.44C186.204 202.04 186.017 201.613 185.991 201.16L185.951 199.64C185.017 200.84 183.804 201.773 182.311 202.44C180.817 203.08 179.297 203.4 177.751 203.4C176.417 203.4 175.204 203.12 174.111 202.56C173.044 201.973 172.204 201.2 171.591 200.24C171.004 199.253 170.711 198.173 170.711 197ZM184.671 198.6C184.964 198.227 185.191 197.867 185.351 197.52C185.511 197.173 185.591 196.867 185.591 196.6V193.56C184.684 193.213 183.737 192.947 182.751 192.76C181.791 192.573 180.817 192.48 179.831 192.48C177.884 192.48 176.311 192.867 175.111 193.64C173.911 194.413 173.311 195.467 173.311 196.8C173.311 197.573 173.511 198.307 173.911 199C174.311 199.667 174.897 200.227 175.671 200.68C176.444 201.107 177.351 201.32 178.391 201.32C179.697 201.32 180.911 201.067 182.031 200.56C183.177 200.053 184.057 199.4 184.671 198.6ZM194.148 203V182.16H206.588V184.6H196.868V203H194.148ZM221.038 203.4C219.305 203.4 217.745 202.947 216.358 202.04C214.998 201.133 213.918 200.013 213.118 198.68V211.52H210.398V182.16H212.838V186.2C213.665 184.893 214.772 183.84 216.158 183.04C217.545 182.213 219.025 181.8 220.598 181.8C222.038 181.8 223.358 182.107 224.558 182.72C225.758 183.307 226.798 184.107 227.678 185.12C228.558 186.133 229.238 187.293 229.718 188.6C230.225 189.88 230.478 191.213 230.478 192.6C230.478 194.547 230.078 196.347 229.278 198C228.505 199.627 227.412 200.933 225.998 201.92C224.585 202.907 222.932 203.4 221.038 203.4ZM220.278 201C221.425 201 222.452 200.773 223.358 200.32C224.265 199.84 225.038 199.2 225.678 198.4C226.345 197.6 226.852 196.707 227.198 195.72C227.545 194.707 227.718 193.667 227.718 192.6C227.718 191.48 227.518 190.413 227.118 189.4C226.745 188.387 226.198 187.493 225.478 186.72C224.758 185.947 223.932 185.333 222.998 184.88C222.065 184.427 221.052 184.2 219.958 184.2C219.265 184.2 218.545 184.333 217.798 184.6C217.052 184.867 216.332 185.253 215.638 185.76C214.972 186.24 214.412 186.787 213.958 187.4C213.505 188.013 213.225 188.667 213.118 189.36V195.76C213.545 196.747 214.118 197.64 214.838 198.44C215.558 199.213 216.385 199.84 217.318 200.32C218.278 200.773 219.265 201 220.278 201ZM236.663 211.72C236.209 211.72 235.743 211.64 235.263 211.48C234.809 211.347 234.343 211.147 233.863 210.88L234.863 208.96C235.156 209.12 235.423 209.253 235.663 209.36C235.929 209.467 236.209 209.52 236.503 209.52C237.196 209.52 237.849 209.173 238.463 208.48C239.076 207.787 239.663 206.773 240.223 205.44L241.263 202.84L231.983 182.16H234.863L242.503 200.2L249.543 182.16H252.263L242.343 206.28C241.809 207.533 241.249 208.56 240.663 209.36C240.076 210.16 239.449 210.747 238.783 211.12C238.116 211.52 237.409 211.72 236.663 211.72ZM262.103 203.24C260.183 203.24 258.543 202.88 257.183 202.16C255.823 201.413 254.783 200.373 254.063 199.04L256.303 198.04C256.809 198.973 257.543 199.707 258.503 200.24C259.463 200.747 260.623 201 261.983 201C263.609 201 264.903 200.627 265.863 199.88C266.849 199.133 267.343 198.133 267.343 196.88C267.343 195.733 266.956 194.813 266.183 194.12C265.409 193.427 264.343 193.067 262.983 193.04H260.863V191.16H263.143C263.729 191.16 264.263 191 264.743 190.68C265.223 190.36 265.596 189.933 265.863 189.4C266.129 188.867 266.263 188.267 266.263 187.6C266.263 186.56 265.889 185.72 265.143 185.08C264.423 184.44 263.356 184.12 261.943 184.12C260.769 184.12 259.783 184.36 258.983 184.84C258.209 185.293 257.583 185.973 257.103 186.88L255.023 185.76C255.636 184.533 256.543 183.573 257.743 182.88C258.969 182.187 260.396 181.84 262.023 181.84C263.356 181.84 264.516 182.067 265.503 182.52C266.516 182.947 267.303 183.573 267.863 184.4C268.449 185.2 268.743 186.173 268.743 187.32C268.743 188.307 268.503 189.227 268.023 190.08C267.543 190.907 266.876 191.533 266.023 191.96C267.249 192.333 268.196 192.987 268.863 193.92C269.556 194.853 269.903 195.947 269.903 197.2C269.903 198.453 269.569 199.533 268.903 200.44C268.236 201.347 267.316 202.04 266.143 202.52C264.969 203 263.623 203.24 262.103 203.24ZM274.421 203V182.2H277.141V199.32L289.821 182.16H292.261V203H289.541V186.16L277.061 203H274.421ZM296.211 203.12V200.64C296.931 200.64 297.571 200.453 298.131 200.08C298.691 199.68 299.184 199.013 299.611 198.08C300.064 197.147 300.424 195.867 300.691 194.24C300.958 192.587 301.131 190.493 301.211 187.96L301.451 182.16H314.971V203H312.251V184.6H303.851L303.771 188.2C303.664 191.08 303.438 193.493 303.091 195.44C302.744 197.36 302.251 198.88 301.611 200C300.998 201.12 300.238 201.92 299.331 202.4C298.424 202.88 297.384 203.12 296.211 203.12ZM329.864 203.4C328.371 203.4 326.984 203.12 325.704 202.56C324.451 201.973 323.358 201.187 322.424 200.2C321.518 199.187 320.811 198.04 320.304 196.76C319.798 195.453 319.544 194.08 319.544 192.64C319.544 191.147 319.798 189.76 320.304 188.48C320.811 187.173 321.531 186.027 322.464 185.04C323.398 184.027 324.491 183.24 325.744 182.68C327.024 182.093 328.411 181.8 329.904 181.8C331.398 181.8 332.771 182.093 334.024 182.68C335.278 183.24 336.371 184.027 337.304 185.04C338.238 186.027 338.958 187.173 339.464 188.48C339.971 189.76 340.224 191.147 340.224 192.64C340.224 194.08 339.971 195.453 339.464 196.76C338.958 198.04 338.238 199.187 337.304 200.2C336.398 201.187 335.304 201.973 334.024 202.56C332.771 203.12 331.384 203.4 329.864 203.4ZM322.304 192.68C322.304 194.227 322.638 195.64 323.304 196.92C323.998 198.173 324.918 199.173 326.064 199.92C327.211 200.64 328.478 201 329.864 201C331.251 201 332.518 200.627 333.664 199.88C334.811 199.133 335.731 198.12 336.424 196.84C337.118 195.533 337.464 194.12 337.464 192.6C337.464 191.053 337.118 189.64 336.424 188.36C335.731 187.08 334.811 186.067 333.664 185.32C332.518 184.573 331.251 184.2 329.864 184.2C328.478 184.2 327.211 184.587 326.064 185.36C324.944 186.133 324.038 187.16 323.344 188.44C322.651 189.693 322.304 191.107 322.304 192.68ZM353.813 203.4C352.293 203.4 350.893 203.12 349.613 202.56C348.36 201.973 347.253 201.173 346.293 200.16C345.36 199.147 344.627 197.987 344.093 196.68C343.587 195.373 343.333 193.987 343.333 192.52C343.333 190.547 343.773 188.747 344.653 187.12C345.533 185.493 346.76 184.2 348.333 183.24C349.907 182.28 351.72 181.8 353.773 181.8C355.72 181.8 357.44 182.253 358.933 183.16C360.427 184.04 361.533 185.24 362.253 186.76L359.613 187.6C359.027 186.533 358.2 185.707 357.133 185.12C356.093 184.507 354.933 184.2 353.653 184.2C352.267 184.2 351 184.56 349.853 185.28C348.707 186 347.787 186.987 347.093 188.24C346.427 189.493 346.093 190.92 346.093 192.52C346.093 194.093 346.44 195.52 347.133 196.8C347.827 198.08 348.747 199.107 349.893 199.88C351.04 200.627 352.307 201 353.693 201C354.6 201 355.467 200.84 356.293 200.52C357.147 200.2 357.88 199.773 358.493 199.24C359.133 198.68 359.56 198.08 359.773 197.44L362.453 198.24C362.08 199.227 361.453 200.12 360.573 200.92C359.72 201.693 358.707 202.307 357.533 202.76C356.387 203.187 355.147 203.4 353.813 203.4ZM366.687 203V182.16H369.407V189.52H374.807C377.18 189.52 378.967 190.133 380.167 191.36C381.393 192.56 382.007 194.147 382.007 196.12C382.007 197.4 381.74 198.56 381.207 199.6C380.673 200.64 379.887 201.467 378.847 202.08C377.833 202.693 376.553 203 375.007 203H366.687ZM369.407 200.84H374.647C375.74 200.84 376.62 200.627 377.287 200.2C377.953 199.747 378.447 199.173 378.767 198.48C379.087 197.76 379.247 196.987 379.247 196.16C379.247 195.36 379.1 194.627 378.807 193.96C378.54 193.267 378.06 192.72 377.367 192.32C376.7 191.893 375.767 191.68 374.567 191.68H369.407V200.84ZM96.6 233.2V229.28H98.92V233.2H96.6ZM96.6 250V246.08H98.92V250H96.6ZM103.299 236.16C103.299 233.44 103.846 230.8 104.939 228.24C106.032 225.653 107.352 223.053 108.899 220.44L110.979 221.44C110.446 222.24 109.872 223.227 109.259 224.4C108.672 225.573 108.112 226.84 107.579 228.2C107.072 229.533 106.659 230.893 106.339 232.28C106.019 233.667 105.859 235 105.859 236.28C105.859 238.36 106.312 240.627 107.219 243.08C108.126 245.533 109.366 247.973 110.939 250.4L108.899 251.48C107.779 249.8 106.792 248.107 105.939 246.4C105.112 244.693 104.459 242.987 103.979 241.28C103.526 239.547 103.299 237.84 103.299 236.16Z" fill="#DAC5A7" fill-opacity="0.8"/>
</svg>
