<svg width="800" height="800" viewBox="0 0 800 800" fill="none" xmlns="http://www.w3.org/2000/svg">
<path d="M122.787 667.05C113.35 669.537 153 650.3 124.637 645.3C117.225 643.963 104.862 650.3 96.325 640.275C87.85 630.237 75.5625 638.763 72.75 647.888C69.9125 657 18.975 658.675 25.575 664.512C32.1625 670.375 48.2125 701.325 54.825 694.637C61.4375 687.95 68.4 668.713 74.825 677.913C81.25 687.113 83.15 706.35 60.5 724.762C37.8625 743.175 71.825 732.288 67.0875 754.038C62.3875 775.788 86 774.125 89.75 774.963C93.5375 775.788 115.225 763.237 119.012 754.9C122.8 746.525 145.412 687.125 142.587 682.1C139.775 677.088 132.2 664.512 122.787 667.05Z" fill="white" fill-opacity="0.5"/>
<path d="M81.5929 635.071C84.1372 633.926 86.9791 633.42 89.8478 633.984C92.7331 634.552 95.4746 636.17 97.8478 638.978L98.1984 639.377C101.846 643.395 106.219 644.196 110.839 644.047C113.282 643.968 115.651 643.631 118.074 643.372C120.4 643.124 122.819 642.941 124.984 643.33H124.985C128.643 643.975 131.4 644.88 133.351 646.062C135.34 647.269 136.625 648.859 136.958 650.823C137.278 652.708 136.645 654.514 135.756 656.041C134.858 657.585 133.571 659.067 132.215 660.406C130.572 662.028 128.695 663.565 127.058 664.85C130.798 665.43 134.042 667.772 136.583 670.336C140.207 673.993 142.913 678.593 144.33 681.12H144.331C144.788 681.932 144.841 682.929 144.829 683.685C144.816 684.54 144.699 685.55 144.514 686.658C144.141 688.882 143.453 691.725 142.555 694.953C140.756 701.421 138.06 709.627 135.168 717.903C129.391 734.439 122.767 751.452 120.835 755.724L120.833 755.727C119.708 758.205 117.381 760.78 114.704 763.162C111.981 765.586 108.707 767.973 105.459 770.052C102.212 772.13 98.9432 773.932 96.214 775.17C94.8531 775.787 93.586 776.283 92.4992 776.599C91.5205 776.885 90.3344 777.137 89.3244 776.917L89.3136 776.915C89.0181 776.849 88.4112 776.791 87.3517 776.709C86.3667 776.632 85.1171 776.541 83.7414 776.386C81.0002 776.076 77.6283 775.498 74.4816 774.188C71.3233 772.874 68.266 770.767 66.3683 767.333C64.4628 763.885 63.8856 759.387 65.133 753.615V753.612C66.201 748.709 65.0578 746.011 63.4093 744.239C61.5816 742.275 58.938 741.186 56.255 739.97C55.0153 739.407 53.66 738.766 52.633 737.941C51.5415 737.065 50.577 735.778 50.6466 733.969C50.7092 732.345 51.6052 730.748 52.9367 729.14C54.3062 727.485 56.3687 725.545 59.2384 723.211L60.2511 722.373C81.1373 704.787 78.8265 687.135 73.1857 679.057C72.5108 678.091 71.9693 677.706 71.6222 677.561C71.3321 677.44 71.035 677.424 70.6134 677.58C69.5607 677.97 68.1864 679.261 66.4953 681.516C64.8648 683.691 63.2363 686.336 61.5148 688.996C59.8432 691.578 58.0658 694.205 56.2472 696.044C54.9149 697.391 53.2441 697.806 51.5461 697.465C49.9952 697.153 48.4995 696.235 47.1339 695.131C44.3817 692.904 41.4202 689.296 38.5841 685.473C35.7315 681.627 32.8592 677.358 30.3556 673.78C27.7777 670.097 25.6801 667.284 24.2453 666.007L24.2462 666.006C23.6343 665.463 22.9477 664.59 22.9875 663.397C23.0269 662.218 23.7556 661.41 24.3302 660.943C25.4496 660.035 27.2807 659.367 29.2091 658.811C33.219 657.657 39.1858 656.594 45.257 655.462C51.4069 654.315 57.7261 653.087 62.6759 651.594C65.1551 650.846 67.1915 650.06 68.6564 649.236C70.2008 648.367 70.7224 647.67 70.84 647.293C72.4115 642.2 76.5718 637.331 81.5929 635.071Z" stroke="#0E0E0E" stroke-opacity="0.5" stroke-width="4" stroke-miterlimit="3.8637"/>
<path d="M567.237 251.263C567.237 251.263 550.275 238.713 546.475 251.263C542.712 263.787 568.175 266.325 565.375 276.362C562.537 286.4 537.037 288.088 536.087 269.65C535.175 251.263 525.737 267.988 525.737 281.375C525.737 294.775 495.537 283.063 504.975 298.95C514.412 314.838 488.95 333.25 503.1 336.6C517.262 339.95 498.375 403.525 488.95 410.213C479.475 416.925 486.1 429.45 469.112 434.475C452.112 439.5 434.187 476.3 411.575 482.175C388.912 488.038 383.237 498.875 380.437 488.037C377.575 477.15 360.587 478.812 375.712 471.287C390.8 463.737 401.175 448.725 385.125 452.075C369.087 455.4 354 470.438 359.637 478.813C365.337 487.188 362.575 503.075 349.787 511.45C336.987 519.825 317.212 531.513 326.625 539.888C336.062 548.263 323.787 566.65 312.475 559.95C301.137 553.263 289.837 535.713 278.5 544.063C267.162 552.413 237 559.125 220.937 556.612C204.912 554.125 181.287 546.575 178.487 557.463C175.65 568.3 153.512 593.425 142.85 595.937C132.212 598.45 124.4 608.487 112.425 610.975C103.7 612.8 86.95 619.35 98.25 628.55C109.575 637.75 132.687 616.825 142.837 628.55C153.012 640.275 161.5 608.487 165.25 616C169.012 623.55 195.437 616.925 214.325 610.625C233.212 604.275 253 590.05 271.9 595.075C290.775 600.1 305.85 605.012 295.475 612.6C285.087 620.162 277.537 637.75 286.025 640.263C294.525 642.775 306.8 662.013 318.125 657.813C329.45 653.638 343.6 616.825 360.575 617.675C377.55 618.5 365.325 600.1 353.987 598.438C342.662 596.75 368.137 566.625 374.75 580.863C381.337 595.075 418.15 605.938 426.625 600.925C435.137 595.925 445.512 576.588 457.8 577.05C470.037 577.513 438.912 611.787 457.8 602.612C476.65 593.412 475.7 560.788 490.825 570.825C505.925 580.863 509.687 540.7 511.562 557.45C513.462 574.15 500.225 587.55 511.562 583.35C522.9 579.175 549.325 551.587 543.65 534.837C537.975 518.112 534.225 492.163 552.162 482.963C570.087 473.788 546.475 410.187 563.475 410.187C580.45 410.187 580.45 417.925 581.412 399.837C582.35 381.75 588.962 373.4 602.15 359.163C615.375 344.925 579.512 299.763 574.812 292.238C570.075 284.7 585.162 259.613 567.237 251.263Z" fill="white" fill-opacity="0.5"/>
<path d="M550.788 244.04C553.478 243.295 556.41 243.826 558.912 244.658C561.459 245.506 563.836 246.76 565.55 247.778C566.413 248.292 567.124 248.754 567.621 249.091C567.87 249.259 568.068 249.396 568.204 249.493C568.226 249.509 568.247 249.524 568.266 249.537C573.149 251.867 575.89 255.405 577.22 259.511C578.533 263.566 578.437 268.063 577.957 272.28C577.716 274.404 577.369 276.51 577.031 278.497C576.69 280.504 576.362 282.368 576.134 284.092C575.906 285.819 575.793 287.308 575.859 288.549C575.918 289.645 576.11 290.42 576.384 290.957L576.506 291.173L576.509 291.178C577.654 293.012 580.682 297.109 584.571 302.729C588.402 308.264 592.952 315.117 596.945 322.2C600.926 329.26 604.419 336.66 606.06 343.276C607.676 349.792 607.642 356.185 603.616 360.521C597.011 367.652 592.221 373.139 588.934 379.03C585.686 384.853 583.866 391.155 583.41 399.941L583.409 399.944C583.173 404.388 582.989 407.498 582.544 409.516C582.319 410.536 581.98 411.528 581.349 412.314C580.643 413.192 579.724 413.631 578.736 413.775C577.855 413.903 576.913 413.796 576.04 413.656C575.17 413.517 574.067 413.289 572.942 413.081C570.611 412.652 567.556 412.188 563.475 412.188C562.141 412.188 561.274 412.731 560.574 413.94C559.787 415.3 559.273 417.455 559.051 420.418C558.609 426.318 559.381 434.351 560.157 442.954C560.923 451.44 561.683 460.426 561.095 467.878C560.8 471.611 560.16 475.084 558.941 477.978C557.712 480.892 555.849 483.321 553.074 484.741C544.978 488.894 541.62 496.853 541.048 506.2C540.475 515.568 542.75 525.96 545.544 534.194V534.195C547.168 538.988 546.44 544.361 544.5 549.592C542.552 554.845 539.306 560.171 535.571 565.028C531.83 569.894 527.547 574.357 523.463 577.879C519.42 581.366 515.427 584.056 512.256 585.225L512.257 585.226C510.798 585.766 509.49 586.124 508.394 586.128C507.823 586.13 507.174 586.039 506.566 585.711C505.914 585.36 505.458 584.816 505.198 584.188C504.751 583.105 504.933 581.877 505.126 580.982C505.342 579.984 505.717 578.819 506.128 577.599C507.753 572.776 510.267 566.032 509.659 558.554C509.168 559.722 508.602 561.075 507.972 562.452C506.437 565.806 504.338 569.741 501.453 572.15C499.969 573.389 498.189 574.3 496.109 574.441C494.023 574.582 491.883 573.929 489.719 572.49V572.491C488.017 571.362 486.735 570.964 485.768 570.931C484.849 570.899 484.015 571.188 483.152 571.85C482.249 572.543 481.341 573.629 480.383 575.125C479.431 576.612 478.498 578.392 477.5 580.397C475.536 584.342 473.338 589.132 470.449 593.463C467.541 597.823 463.824 601.898 458.677 604.41L458.674 604.411C457.44 605.011 456.357 605.459 455.416 605.752C454.498 606.038 453.593 606.214 452.757 606.163C451.878 606.109 450.921 605.784 450.255 604.926C449.636 604.128 449.528 603.195 449.554 602.481C449.605 601.097 450.209 599.443 450.895 597.876C451.612 596.237 452.564 594.385 453.532 592.523C455.525 588.691 457.553 584.87 458.385 581.977C458.815 580.48 458.784 579.679 458.663 579.353C458.63 579.263 458.606 579.245 458.567 579.221C458.503 579.182 458.318 579.095 457.912 579.06L457.725 579.049C455.204 578.954 452.657 579.868 450.026 581.564C447.389 583.263 444.801 585.66 442.238 588.325C439.585 591.084 437.323 593.727 434.816 596.391C432.453 598.901 430.039 601.236 427.642 602.646L427.643 602.647C426.212 603.493 424.368 603.912 422.401 604.078C420.402 604.247 418.106 604.168 415.647 603.891C410.726 603.336 404.977 601.964 399.321 599.991C393.666 598.019 388.027 595.421 383.351 592.374C378.719 589.356 374.815 585.759 372.936 581.704C372.277 580.285 371.487 579.619 370.736 579.312C369.953 578.991 368.933 578.948 367.645 579.296C365.004 580.009 361.857 582.204 359.078 585.07C356.308 587.928 354.202 591.146 353.431 593.581C353.037 594.824 353.09 595.553 353.22 595.886C353.277 596.031 353.408 596.329 354.282 596.459H354.281C357.558 596.941 360.765 598.599 363.423 600.689C366.086 602.782 368.357 605.433 369.688 608.095C370.969 610.659 371.631 613.801 369.978 616.342C368.311 618.903 364.922 619.889 360.478 619.673H360.475C356.992 619.499 353.422 621.247 349.689 624.507C345.974 627.75 342.368 632.25 338.842 637.044C335.379 641.752 331.923 646.849 328.717 650.902C327.096 652.95 325.477 654.814 323.869 656.316C322.277 657.803 320.59 659.033 318.819 659.687L318.82 659.688C315.351 660.974 311.903 660.412 308.729 659.029C305.586 657.661 302.548 655.423 299.739 653.095C298.326 651.923 296.938 650.7 295.608 649.527C294.268 648.345 292.991 647.217 291.758 646.195C289.229 644.099 287.148 642.68 285.458 642.181L285.457 642.18C284.034 641.758 282.864 640.989 282.003 639.907C281.154 638.84 280.684 637.569 280.483 636.245C280.086 633.646 280.68 630.603 281.8 627.621C284.049 621.636 288.757 615.018 294.294 610.986C296.757 609.184 296.912 608.102 296.846 607.674C296.749 607.051 296.02 605.981 293.652 604.607C289.669 602.294 282.894 600.15 274.888 597.953L271.386 597.008C262.565 594.663 253.391 596.77 243.826 600.451C239.054 602.288 234.282 604.475 229.447 606.636C224.641 608.784 219.784 610.899 214.962 612.521L214.958 612.523C205.473 615.687 194.025 618.956 184.43 620.482C179.647 621.242 175.2 621.59 171.643 621.221C168.352 620.88 165.135 619.848 163.622 617.194C163.476 617.337 163.308 617.516 163.119 617.737C162.464 618.507 161.719 619.577 160.858 620.87C160.02 622.127 159.075 623.59 158.094 624.998C156.18 627.745 153.806 630.777 151.043 632.245C149.589 633.018 147.921 633.415 146.137 633.022C144.378 632.634 142.782 631.537 141.327 629.861L141.325 629.859C139.314 627.536 136.653 626.744 133.271 626.896C129.798 627.051 125.846 628.194 121.575 629.514C117.419 630.799 112.949 632.256 108.813 632.768C104.644 633.283 100.426 632.894 96.9894 630.103L96.9874 630.101C93.9313 627.613 92.301 624.918 92.4747 622.058C92.6441 619.271 94.4928 617.062 96.5978 615.42C100.825 612.122 107.553 609.951 112.016 609.018L112.019 609.017C117.588 607.86 122.243 604.94 127.042 601.793C131.733 598.717 136.658 595.345 142.39 593.991L142.392 593.99C144.604 593.469 147.697 591.668 151.273 588.824C154.787 586.029 158.565 582.394 162.123 578.477C165.679 574.562 168.983 570.402 171.563 566.575C174.173 562.702 175.932 559.328 176.553 556.956C177.486 553.342 180.199 551.369 183.519 550.458C186.744 549.573 190.761 549.607 194.955 550.032C199.186 550.461 203.81 551.315 208.323 552.202C212.305 552.985 216.184 553.791 219.74 554.392L221.244 554.636L221.246 554.637C228.923 555.838 240.2 554.842 251.062 552.457C261.951 550.066 271.99 546.373 277.314 542.452C280.613 540.022 284.023 539.436 287.396 540.122C290.656 540.785 293.768 542.611 296.676 544.758C299.588 546.909 302.506 549.548 305.288 551.961C307.944 554.265 310.491 556.377 312.991 557.925L313.491 558.228L313.494 558.23C315.785 559.586 318.054 559.66 320.122 558.933C322.245 558.186 324.224 556.561 325.683 554.439C328.675 550.084 328.96 544.634 325.297 541.383L325.295 541.382C323.9 540.141 322.936 538.737 322.475 537.17C322.011 535.598 322.101 534.017 322.56 532.507C323.448 529.581 325.764 526.774 328.511 524.207C334.041 519.04 342.394 513.897 348.692 509.777C354.647 505.876 358.251 500.24 359.71 494.628C361.18 488.972 360.433 483.535 357.984 479.938L357.979 479.929C356.133 477.187 356.078 473.994 357.087 470.942C358.085 467.923 360.152 464.902 362.818 462.156C368.152 456.666 376.285 451.865 384.719 450.116C386.828 449.676 388.631 449.509 390.118 449.636C391.586 449.761 392.975 450.197 393.965 451.192C395.015 452.248 395.303 453.614 395.167 454.901C395.037 456.136 394.518 457.398 393.826 458.595C391.092 463.324 384.364 469.195 376.608 473.076L376.604 473.078C374.751 474 373.469 474.743 372.615 475.351C372.192 475.652 371.907 475.898 371.721 476.089C371.705 476.106 371.69 476.122 371.676 476.137C371.832 476.283 372.08 476.488 372.471 476.759C373.572 477.524 375.82 478.8 377.658 480.361C379.494 481.918 381.282 484.007 382.2 486.933L382.372 487.528L382.374 487.537C383.066 490.217 383.727 490.555 383.916 490.616C384.07 490.666 384.4 490.709 385.076 490.546C385.755 490.383 386.612 490.055 387.732 489.547C392.022 487.601 399.063 483.495 410.003 480.523L411.074 480.238C416.313 478.877 421.403 475.687 426.419 471.426C431.43 467.169 436.242 461.954 440.957 456.674C445.635 451.435 450.249 446.097 454.745 441.779C459.216 437.486 463.813 433.956 468.545 432.557C472.533 431.377 474.978 429.807 476.607 428.119C478.242 426.424 479.184 424.478 479.966 422.301C481.459 418.143 482.393 412.407 487.794 408.58C488.599 408.008 489.747 406.609 491.117 404.259C492.447 401.978 493.864 399.022 495.28 395.596C498.112 388.748 500.883 380.17 502.926 371.687C504.974 363.181 506.26 354.894 506.19 348.598C506.154 345.435 505.776 342.93 505.085 341.187C504.406 339.472 503.55 338.761 502.64 338.546H502.639C500.639 338.073 499.001 337.258 497.937 335.913C496.84 334.526 496.602 332.894 496.761 331.335C496.916 329.816 497.46 328.21 498.117 326.634C498.78 325.045 499.63 323.328 500.473 321.6C502.193 318.071 503.935 314.389 504.716 310.655C505.483 306.984 505.29 303.398 503.255 299.972C502.008 297.873 501.268 295.996 501.161 294.309C501.047 292.491 501.681 290.989 502.904 289.895C504.02 288.897 505.498 288.351 506.915 287.999C508.362 287.64 509.995 287.426 511.589 287.242C514.923 286.859 518.065 286.592 520.446 285.674C521.592 285.232 522.392 284.697 522.906 284.065C523.392 283.467 523.737 282.644 523.737 281.375C523.737 277.81 524.363 274.069 525.303 270.763C526.236 267.48 527.52 264.48 528.929 262.455C529.615 261.468 530.461 260.522 531.474 259.984C532.005 259.701 532.65 259.496 533.37 259.527C534.113 259.56 534.781 259.839 535.333 260.279C536.348 261.09 536.934 262.407 537.312 263.803C537.709 265.27 537.967 267.175 538.085 269.547L538.109 269.929C538.394 273.831 539.916 276.552 541.992 278.393C544.174 280.327 547.106 281.408 550.206 281.693C553.309 281.977 556.44 281.449 558.904 280.322C561.396 279.184 562.957 277.565 563.45 275.819C563.864 274.325 563.364 273.008 561.693 271.414C559.948 269.75 557.383 268.235 554.507 266.443C551.767 264.736 548.753 262.779 546.704 260.345C544.552 257.788 543.385 254.596 544.56 250.687L544.561 250.683C545.682 246.979 547.917 244.835 550.788 244.04Z" stroke="#0E0E0E" stroke-opacity="0.5" stroke-width="4" stroke-miterlimit="3.8637"/>
<path d="M254.912 615.813C246.925 617.275 230.35 609.125 223.762 619.987C217.137 630.875 208.65 624.388 203.95 631.075C199.213 637.763 187.9 618.525 180.325 631.075C172.787 643.625 153.925 657 164.3 664.525C174.675 672.075 160.512 677.1 169.012 685.45C177.525 693.825 194.487 697.175 197.362 685.45C200.175 673.75 211.5 647.638 224.712 654.425C237.925 661.213 244.5 664.9 249.237 658.45C253.975 652 263.4 641.95 270 640.288C276.588 638.588 272.85 612.438 254.912 615.813Z" fill="white" fill-opacity="0.5"/>
<path d="M222.054 618.948C225.988 612.464 232.891 611.875 238.978 612.382C242.034 612.636 245.204 613.2 247.879 613.574C250.679 613.966 252.913 614.146 254.553 613.846V613.846C259.559 612.907 263.712 614.022 266.935 616.353C270.108 618.648 272.254 622.024 273.528 625.45C274.8 628.871 275.266 632.509 274.932 635.494C274.765 636.983 274.387 638.416 273.72 639.595C273.045 640.786 271.997 641.838 270.5 642.224L270.488 642.227C267.725 642.924 264.041 645.526 260.286 649.035C256.611 652.47 253.151 656.5 250.849 659.634C249.472 661.509 247.84 662.8 245.849 663.409C243.892 664.007 241.818 663.875 239.672 663.343C235.497 662.307 230.282 659.534 223.799 656.204C221.186 654.862 218.718 655.106 216.245 656.505C213.669 657.962 211.136 660.666 208.794 664.126C204.123 671.026 200.671 680.245 199.307 685.918L199.305 685.927C198.46 689.371 196.529 691.829 193.902 693.315C191.332 694.77 188.249 695.211 185.154 694.982C178.997 694.527 172.189 691.381 167.61 686.876V686.875C165.183 684.49 164.189 682.132 164.149 679.753C164.112 677.541 164.931 675.51 165.48 674.003C166.088 672.335 166.415 671.203 166.243 670.119C166.09 669.156 165.46 667.843 163.123 666.142V666.141C161.594 665.032 160.485 663.726 159.854 662.211C159.221 660.69 159.13 659.108 159.395 657.553C159.908 654.544 161.786 651.449 163.991 648.489C166.222 645.494 169.036 642.327 171.658 639.243C174.322 636.109 176.819 633.029 178.61 630.046L178.613 630.042C180.769 626.47 183.451 624.812 186.486 624.721C189.277 624.638 191.972 625.917 194.166 627.125C195.236 627.714 196.451 628.443 197.374 628.964C198.383 629.534 199.248 629.977 200.005 630.251C200.773 630.528 201.249 630.563 201.535 630.512C201.734 630.476 201.99 630.379 202.313 629.925C205.261 625.731 209.654 625.646 212.813 625.133C214.5 624.859 216.05 624.486 217.542 623.636C219.012 622.797 220.551 621.418 222.054 618.948Z" stroke="#0E0E0E" stroke-opacity="0.5" stroke-width="4" stroke-miterlimit="3.8637"/>
<path d="M751.275 147.525C755.988 143.325 752.213 134.125 744.65 127.437C737.113 120.75 751.275 103.2 757.888 92.3C764.475 81.4375 732.413 117.4 721.075 113.225C709.75 109.025 705 104.012 688.037 102.337C671.062 100.675 628.588 58.85 611.613 35.4125C594.613 12 576.675 33.75 583.3 45.45C589.888 57.175 595.55 75.575 589.888 88.125C584.213 100.675 592.75 109.875 576.662 114.887C560.637 119.887 576.662 128.287 576.662 146.062C576.662 163.837 561.575 159.225 547.437 151.675C533.262 144.175 532.325 144.175 529.175 151.675C526.1 159.225 537.025 164.25 529.175 169.275C521.362 174.275 506.862 180.137 500.212 192.687C493.625 205.237 504.025 216.1 516.288 218.612C528.538 221.125 500.212 239.537 509.675 251.25C519.1 262.95 529.487 246.225 534.225 236.187C538.95 226.15 550.262 237.85 556.887 236.187C563.475 234.525 559.463 227.15 551.212 218.612C548.75 216.075 544.35 214.237 535.862 212.975C527.35 211.7 521.937 207.137 524.325 200.212C526.675 193.325 537.038 186.637 544.85 189.562C552.6 192.487 552.05 197.762 553.1 201.062C555.763 209.337 566.288 196.037 579.513 190.175C592.738 184.312 609.713 200.212 623.863 206.925C638.025 213.612 658.787 223.65 658.787 223.65C666.337 231.175 658.787 210.275 664.437 201.062C670.1 191.862 688.038 161.737 698.413 167.587C708.8 173.425 733.35 175.962 738.05 168.412C742.775 160.887 751.275 162.55 770.138 150.862C788.988 139.15 746.538 151.675 751.275 147.525Z" fill="white" fill-opacity="0.5"/>
<path d="M587.464 25.6157C590.79 23.3297 595.018 22.2902 599.606 23.5278C604.01 24.7158 608.518 27.9371 612.815 33.6743L613.23 34.2378L613.232 34.2397C621.621 45.8219 636.385 62.0374 651.175 75.5649C658.566 82.3248 665.92 88.374 672.448 92.8228C679.071 97.3362 684.54 99.9855 688.232 100.347H688.234C705.517 102.054 711 107.355 721.766 111.348C722.613 111.66 723.871 111.665 725.627 111.158C727.357 110.658 729.355 109.725 731.531 108.46C735.88 105.932 740.641 102.254 744.93 98.7124C749.11 95.2594 753.018 91.7787 755.271 90.0034C755.849 89.5474 756.389 89.1465 756.848 88.8599C757.072 88.7193 757.338 88.5672 757.616 88.4536C757.793 88.3814 758.406 88.1337 759.129 88.3071C759.582 88.4159 760.051 88.6857 760.381 89.1587C760.682 89.5906 760.754 90.0308 760.768 90.311C760.792 90.8205 760.642 91.2626 760.559 91.4878C760.364 92.0117 760.018 92.6449 759.598 93.3374C757.922 96.0991 755.755 99.3025 753.645 102.541C751.51 105.815 749.402 109.171 747.737 112.372C746.059 115.6 744.915 118.515 744.591 120.925C744.274 123.281 744.76 124.859 745.975 125.939C749.945 129.45 753.011 133.692 754.45 137.745C755.457 140.58 755.736 143.607 754.66 146.16C757.717 145.744 761.712 144.978 765.702 144.38C767.635 144.091 769.51 143.852 771.084 143.757C771.87 143.71 772.621 143.696 773.287 143.738C773.917 143.777 774.635 143.876 775.264 144.145C775.906 144.42 776.88 145.09 776.984 146.402C777.069 147.47 776.487 148.317 776.084 148.803C775.203 149.865 773.549 151.097 771.193 152.561L771.191 152.563C761.591 158.512 754.599 161.074 749.521 163.061C744.411 165.061 741.716 166.335 739.744 169.476L739.743 169.475C738.142 172.041 735.079 173.466 731.791 174.237C728.421 175.027 724.385 175.233 720.26 175.017C712.053 174.587 702.985 172.451 697.433 169.331L697.431 169.33C695.849 168.438 693.669 168.703 690.63 170.722C687.652 172.7 684.411 176.02 681.207 179.946C674.821 187.769 668.995 197.471 666.142 202.107L666.143 202.108C664.986 203.994 664.426 206.636 664.229 209.667C664.033 212.67 664.203 215.787 664.323 218.545C664.382 219.897 664.43 221.192 664.402 222.29C664.377 223.316 664.286 224.467 663.903 225.371C663.7 225.851 663.333 226.461 662.655 226.866C661.926 227.302 661.141 227.321 660.485 227.159C659.471 226.907 658.509 226.159 657.627 225.31C657.474 225.236 657.263 225.134 656.998 225.006C656.403 224.719 655.537 224.301 654.453 223.779C652.286 222.734 649.249 221.27 645.77 219.598C638.81 216.253 630.084 212.075 623.009 208.734L623.005 208.732C619.353 207 615.55 204.69 611.771 202.352C607.957 199.993 604.162 197.603 600.4 195.6C592.754 191.529 585.993 189.49 580.323 192.003C573.907 194.848 568.297 199.414 563.441 202.593C562.258 203.368 561.106 204.066 560.018 204.597C558.945 205.121 557.822 205.541 556.712 205.665C555.557 205.793 554.34 205.605 553.274 204.824C552.248 204.071 551.604 202.944 551.196 201.675L551.194 201.668C550.893 200.723 550.693 199.586 550.503 198.708C550.295 197.748 550.06 196.856 549.67 196.006C548.943 194.423 547.563 192.725 544.144 191.434V191.433C540.981 190.252 537.072 190.956 533.518 192.952C529.956 194.951 527.192 198.004 526.218 200.858L526.216 200.865C525.259 203.641 525.868 205.712 527.436 207.314C529.131 209.047 532.128 210.393 536.159 210.997H536.158C544.715 212.27 549.696 214.178 552.647 217.219L552.65 217.223C556.799 221.516 560.113 225.737 561.479 229.254C562.16 231.01 562.492 232.936 561.798 234.68C561.06 236.534 559.404 237.615 557.377 238.126L557.374 238.127C555.11 238.695 552.674 238.089 550.569 237.37C549.479 236.997 548.369 236.553 547.309 236.128C546.23 235.697 545.2 235.285 544.192 234.938C542.124 234.226 540.482 233.913 539.194 234.153C538.101 234.357 536.989 235.011 536.034 237.04L536.033 237.042C533.645 242.101 529.728 249.097 525.054 253.35C522.716 255.477 519.946 257.14 516.888 257.243C513.709 257.349 510.742 255.763 508.119 252.507L507.853 252.164C505.185 248.606 505.32 244.61 506.541 240.932C507.776 237.215 510.208 233.519 512.376 230.352C513.489 228.726 514.525 227.251 515.396 225.881C516.274 224.501 516.889 223.371 517.202 222.469C517.526 221.536 517.391 221.24 517.375 221.21C517.371 221.204 517.222 220.922 516.32 220.674L515.886 220.572C509.354 219.233 503.211 215.659 499.558 210.583C495.833 205.407 494.775 198.744 498.441 191.758L498.445 191.751C501.99 185.062 507.582 180.235 513.141 176.491C515.925 174.615 518.735 172.99 521.305 171.537C523.904 170.067 526.204 168.802 528.097 167.59C529.75 166.532 530.016 165.748 530.063 165.271C530.13 164.596 529.858 163.726 529.165 162.292C527.959 159.795 525.375 155.701 527.322 150.92L527.327 150.911L527.331 150.901C528.1 149.07 528.848 147.397 529.805 146.205C530.888 144.855 532.291 144.05 534.172 144.05C535.82 144.05 537.695 144.676 539.853 145.625C541.508 146.354 543.486 147.347 545.861 148.586L548.373 149.907L548.38 149.911C551.867 151.773 555.366 153.428 558.642 154.599C561.94 155.778 564.887 156.42 567.307 156.366C569.682 156.312 571.389 155.601 572.552 154.214C573.764 152.77 574.662 150.267 574.662 146.062C574.662 137.688 570.943 131.727 568.8 126.435C567.8 123.966 566.96 121.18 568.062 118.586C569.178 115.958 571.95 114.262 576.066 112.978H576.067C579.898 111.785 581.998 110.42 583.216 109.036C584.405 107.683 584.931 106.108 585.196 104.075C585.331 103.042 585.393 101.933 585.453 100.69C585.512 99.4686 585.568 98.1199 585.697 96.7134C585.959 93.8717 586.525 90.7074 588.064 87.3022C590.653 81.5648 590.717 74.3049 589.227 66.8716C587.743 59.4738 584.765 52.1413 581.56 46.4351C579.574 42.929 579.488 38.7858 580.626 35.0679C581.764 31.3492 584.174 27.8768 587.464 25.6157Z" stroke="#0E0E0E" stroke-opacity="0.5" stroke-width="4" stroke-miterlimit="3.8637"/>
<path d="M96.96 156V135.2H99.68V152.32L112.36 135.16H114.8V156H112.08V139.16L99.6 156H96.96ZM126.79 156.24C124.87 156.24 123.23 155.88 121.87 155.16C120.51 154.413 119.47 153.373 118.75 152.04L120.99 151.04C121.497 151.973 122.23 152.707 123.19 153.24C124.15 153.747 125.31 154 126.67 154C128.297 154 129.59 153.627 130.55 152.88C131.537 152.133 132.03 151.133 132.03 149.88C132.03 148.733 131.643 147.813 130.87 147.12C130.097 146.427 129.03 146.067 127.67 146.04H125.55V144.16H127.83C128.417 144.16 128.95 144 129.43 143.68C129.91 143.36 130.283 142.933 130.55 142.4C130.817 141.867 130.95 141.267 130.95 140.6C130.95 139.56 130.577 138.72 129.83 138.08C129.11 137.44 128.043 137.12 126.63 137.12C125.457 137.12 124.47 137.36 123.67 137.84C122.897 138.293 122.27 138.973 121.79 139.88L119.71 138.76C120.323 137.533 121.23 136.573 122.43 135.88C123.657 135.187 125.083 134.84 126.71 134.84C128.043 134.84 129.203 135.067 130.19 135.52C131.203 135.947 131.99 136.573 132.55 137.4C133.137 138.2 133.43 139.173 133.43 140.32C133.43 141.307 133.19 142.227 132.71 143.08C132.23 143.907 131.563 144.533 130.71 144.96C131.937 145.333 132.883 145.987 133.55 146.92C134.243 147.853 134.59 148.947 134.59 150.2C134.59 151.453 134.257 152.533 133.59 153.44C132.923 154.347 132.003 155.04 130.83 155.52C129.657 156 128.31 156.24 126.79 156.24ZM148.028 156.4C146.535 156.4 145.148 156.12 143.868 155.56C142.615 154.973 141.522 154.187 140.588 153.2C139.682 152.187 138.975 151.04 138.468 149.76C137.962 148.453 137.708 147.08 137.708 145.64C137.708 144.147 137.962 142.76 138.468 141.48C138.975 140.173 139.695 139.027 140.628 138.04C141.562 137.027 142.655 136.24 143.908 135.68C145.188 135.093 146.575 134.8 148.068 134.8C149.562 134.8 150.935 135.093 152.188 135.68C153.442 136.24 154.535 137.027 155.468 138.04C156.402 139.027 157.122 140.173 157.628 141.48C158.135 142.76 158.388 144.147 158.388 145.64C158.388 147.08 158.135 148.453 157.628 149.76C157.122 151.04 156.402 152.187 155.468 153.2C154.562 154.187 153.468 154.973 152.188 155.56C150.935 156.12 149.548 156.4 148.028 156.4ZM140.468 145.68C140.468 147.227 140.802 148.64 141.468 149.92C142.162 151.173 143.082 152.173 144.228 152.92C145.375 153.64 146.642 154 148.028 154C149.415 154 150.682 153.627 151.828 152.88C152.975 152.133 153.895 151.12 154.588 149.84C155.282 148.533 155.628 147.12 155.628 145.6C155.628 144.053 155.282 142.64 154.588 141.36C153.895 140.08 152.975 139.067 151.828 138.32C150.682 137.573 149.415 137.2 148.028 137.2C146.642 137.2 145.375 137.587 144.228 138.36C143.108 139.133 142.202 140.16 141.508 141.44C140.815 142.693 140.468 144.107 140.468 145.68ZM172.498 156.4C169.138 156.4 166.591 155.373 164.858 153.32C163.151 151.24 162.298 148.373 162.298 144.72C162.298 142.133 162.511 139.947 162.938 138.16C163.364 136.373 163.991 134.907 164.818 133.76C165.644 132.587 166.658 131.627 167.858 130.88C169.084 130.133 170.484 129.52 172.058 129.04L180.818 126.16L181.057 128.52L172.618 131.28C171.018 131.813 169.684 132.493 168.618 133.32C167.551 134.147 166.711 135.2 166.098 136.48C165.511 137.733 165.124 139.373 164.938 141.4C165.631 139.853 166.698 138.667 168.138 137.84C169.578 136.987 171.244 136.56 173.138 136.56C175.164 136.56 176.884 136.973 178.298 137.8C179.738 138.627 180.831 139.773 181.578 141.24C182.324 142.707 182.698 144.4 182.698 146.32C182.698 148.347 182.298 150.12 181.498 151.64C180.724 153.133 179.578 154.307 178.058 155.16C176.564 155.987 174.711 156.4 172.498 156.4ZM172.498 154C174.871 154 176.698 153.32 177.978 151.96C179.284 150.573 179.938 148.733 179.938 146.44C179.938 144.2 179.298 142.373 178.018 140.96C176.764 139.547 174.924 138.84 172.498 138.84C171.111 138.84 169.858 139.133 168.738 139.72C167.618 140.307 166.724 141.16 166.058 142.28C165.418 143.4 165.098 144.787 165.098 146.44C165.098 147.88 165.378 149.173 165.938 150.32C166.524 151.467 167.364 152.373 168.458 153.04C169.551 153.68 170.898 154 172.498 154ZM197.913 156.4C196.18 156.4 194.62 155.947 193.233 155.04C191.873 154.133 190.793 153.013 189.993 151.68V164.52H187.273V135.16H189.713V139.2C190.54 137.893 191.647 136.84 193.033 136.04C194.42 135.213 195.9 134.8 197.473 134.8C198.913 134.8 200.233 135.107 201.433 135.72C202.633 136.307 203.673 137.107 204.553 138.12C205.433 139.133 206.113 140.293 206.593 141.6C207.1 142.88 207.353 144.213 207.353 145.6C207.353 147.547 206.953 149.347 206.153 151C205.38 152.627 204.287 153.933 202.873 154.92C201.46 155.907 199.807 156.4 197.913 156.4ZM197.153 154C198.3 154 199.327 153.773 200.233 153.32C201.14 152.84 201.913 152.2 202.553 151.4C203.22 150.6 203.727 149.707 204.073 148.72C204.42 147.707 204.593 146.667 204.593 145.6C204.593 144.48 204.393 143.413 203.993 142.4C203.62 141.387 203.073 140.493 202.353 139.72C201.633 138.947 200.807 138.333 199.873 137.88C198.94 137.427 197.927 137.2 196.833 137.2C196.14 137.2 195.42 137.333 194.673 137.6C193.927 137.867 193.207 138.253 192.513 138.76C191.847 139.24 191.287 139.787 190.833 140.4C190.38 141.013 190.1 141.667 189.993 142.36V148.76C190.42 149.747 190.993 150.64 191.713 151.44C192.433 152.213 193.26 152.84 194.193 153.32C195.153 153.773 196.14 154 197.153 154ZM210.281 150C210.281 148.693 210.654 147.573 211.401 146.64C212.148 145.68 213.174 144.947 214.481 144.44C215.814 143.907 217.348 143.64 219.081 143.64C220.094 143.64 221.148 143.72 222.241 143.88C223.334 144.04 224.308 144.28 225.161 144.6V142.84C225.161 141.08 224.641 139.68 223.601 138.64C222.561 137.6 221.121 137.08 219.281 137.08C218.161 137.08 217.054 137.293 215.961 137.72C214.894 138.12 213.774 138.72 212.601 139.52L211.561 137.6C212.921 136.667 214.254 135.973 215.561 135.52C216.868 135.04 218.201 134.8 219.561 134.8C222.121 134.8 224.148 135.533 225.641 137C227.134 138.467 227.881 140.493 227.881 143.08V152.72C227.881 153.093 227.961 153.373 228.121 153.56C228.281 153.72 228.534 153.813 228.881 153.84V156C228.588 156.027 228.334 156.053 228.121 156.08C227.908 156.107 227.748 156.107 227.641 156.08C226.974 156.053 226.468 155.84 226.121 155.44C225.774 155.04 225.588 154.613 225.561 154.16L225.521 152.64C224.588 153.84 223.374 154.773 221.881 155.44C220.388 156.08 218.868 156.4 217.321 156.4C215.988 156.4 214.774 156.12 213.681 155.56C212.614 154.973 211.774 154.2 211.161 153.24C210.574 152.253 210.281 151.173 210.281 150ZM224.241 151.6C224.534 151.227 224.761 150.867 224.921 150.52C225.081 150.173 225.161 149.867 225.161 149.6V146.56C224.254 146.213 223.308 145.947 222.321 145.76C221.361 145.573 220.388 145.48 219.401 145.48C217.454 145.48 215.881 145.867 214.681 146.64C213.481 147.413 212.881 148.467 212.881 149.8C212.881 150.573 213.081 151.307 213.481 152C213.881 152.667 214.468 153.227 215.241 153.68C216.014 154.107 216.921 154.32 217.961 154.32C219.268 154.32 220.481 154.067 221.601 153.56C222.748 153.053 223.628 152.4 224.241 151.6ZM232.278 156L240.078 145.28L233.038 135.16H236.118L242.398 144.16H245.118V135.16H247.918V144.16H250.718L256.878 135.16H259.998L252.918 145.28L260.798 156H257.638L250.718 146.56H247.918V156H245.118V146.56H242.398L235.438 156H232.278ZM274.32 156.4C272.827 156.4 271.44 156.12 270.16 155.56C268.88 154.973 267.774 154.187 266.84 153.2C265.907 152.187 265.174 151.027 264.64 149.72C264.134 148.413 263.88 147.013 263.88 145.52C263.88 143.573 264.32 141.787 265.2 140.16C266.107 138.533 267.347 137.24 268.92 136.28C270.494 135.293 272.28 134.8 274.28 134.8C276.334 134.8 278.12 135.293 279.64 136.28C281.187 137.267 282.4 138.573 283.28 140.2C284.16 141.8 284.6 143.56 284.6 145.48C284.6 145.693 284.6 145.907 284.6 146.12C284.6 146.307 284.587 146.453 284.56 146.56H266.72C266.854 148.053 267.267 149.387 267.96 150.56C268.68 151.707 269.6 152.627 270.72 153.32C271.867 153.987 273.107 154.32 274.44 154.32C275.8 154.32 277.08 153.973 278.28 153.28C279.507 152.587 280.36 151.68 280.84 150.56L283.2 151.2C282.774 152.187 282.12 153.08 281.24 153.88C280.36 154.68 279.32 155.307 278.12 155.76C276.947 156.187 275.68 156.4 274.32 156.4ZM266.64 144.6H282.04C281.934 143.08 281.52 141.747 280.8 140.6C280.107 139.453 279.187 138.56 278.04 137.92C276.92 137.253 275.68 136.92 274.32 136.92C272.96 136.92 271.72 137.253 270.6 137.92C269.48 138.56 268.56 139.467 267.84 140.64C267.147 141.787 266.747 143.107 266.64 144.6ZM288.757 156V135.16H291.477V144.12H303.397V135.16H306.117V156H303.397V146.56H291.477V156H288.757ZM312.077 156V135.2H314.797V152.32L327.477 135.16H329.917V156H327.197V139.16L314.717 156H312.077ZM344.867 156.4C343.374 156.4 341.987 156.12 340.707 155.56C339.427 154.973 338.321 154.187 337.387 153.2C336.454 152.187 335.721 151.027 335.187 149.72C334.681 148.413 334.427 147.013 334.427 145.52C334.427 143.573 334.867 141.787 335.747 140.16C336.654 138.533 337.894 137.24 339.467 136.28C341.041 135.293 342.827 134.8 344.827 134.8C346.881 134.8 348.667 135.293 350.187 136.28C351.734 137.267 352.947 138.573 353.827 140.2C354.707 141.8 355.147 143.56 355.147 145.48C355.147 145.693 355.147 145.907 355.147 146.12C355.147 146.307 355.134 146.453 355.107 146.56H337.267C337.401 148.053 337.814 149.387 338.507 150.56C339.227 151.707 340.147 152.627 341.267 153.32C342.414 153.987 343.654 154.32 344.987 154.32C346.347 154.32 347.627 153.973 348.827 153.28C350.054 152.587 350.907 151.68 351.387 150.56L353.747 151.2C353.321 152.187 352.667 153.08 351.787 153.88C350.907 154.68 349.867 155.307 348.667 155.76C347.494 156.187 346.227 156.4 344.867 156.4ZM337.187 144.6H352.587C352.481 143.08 352.067 141.747 351.347 140.6C350.654 139.453 349.734 138.56 348.587 137.92C347.467 137.253 346.227 136.92 344.867 136.92C343.507 136.92 342.267 137.253 341.147 137.92C340.027 138.56 339.107 139.467 338.387 140.64C337.694 141.787 337.294 143.107 337.187 144.6ZM96.96 203V182.16H107.36C108.533 182.16 109.52 182.413 110.32 182.92C111.12 183.4 111.72 184.027 112.12 184.8C112.547 185.573 112.76 186.4 112.76 187.28C112.76 188.4 112.493 189.413 111.96 190.32C111.427 191.2 110.653 191.867 109.64 192.32C110.84 192.667 111.813 193.293 112.56 194.2C113.307 195.107 113.68 196.2 113.68 197.48C113.68 198.6 113.4 199.573 112.84 200.4C112.307 201.227 111.56 201.867 110.6 202.32C109.667 202.773 108.587 203 107.36 203H96.96ZM99.56 201.04H107.28C107.973 201.04 108.6 200.867 109.16 200.52C109.747 200.147 110.2 199.667 110.52 199.08C110.867 198.493 111.04 197.88 111.04 197.24C111.04 196.547 110.88 195.92 110.56 195.36C110.24 194.773 109.813 194.307 109.28 193.96C108.747 193.613 108.133 193.44 107.44 193.44H99.56V201.04ZM99.56 191.56H106.64C107.333 191.56 107.947 191.373 108.48 191C109.013 190.627 109.427 190.147 109.72 189.56C110.013 188.973 110.16 188.36 110.16 187.72C110.16 186.76 109.84 185.92 109.2 185.2C108.587 184.48 107.787 184.12 106.8 184.12H99.56V191.56ZM128.562 203V182.16H145.322V203H142.602V184.6H131.282V203H128.562ZM161.976 203.4C160.243 203.4 158.683 202.947 157.296 202.04C155.936 201.133 154.856 200.013 154.056 198.68V211.52H151.336V182.16H153.776V186.2C154.603 184.893 155.709 183.84 157.096 183.04C158.483 182.213 159.963 181.8 161.536 181.8C162.976 181.8 164.296 182.107 165.496 182.72C166.696 183.307 167.736 184.107 168.616 185.12C169.496 186.133 170.176 187.293 170.656 188.6C171.163 189.88 171.416 191.213 171.416 192.6C171.416 194.547 171.016 196.347 170.216 198C169.443 199.627 168.349 200.933 166.936 201.92C165.523 202.907 163.869 203.4 161.976 203.4ZM161.216 201C162.363 201 163.389 200.773 164.296 200.32C165.203 199.84 165.976 199.2 166.616 198.4C167.283 197.6 167.789 196.707 168.136 195.72C168.483 194.707 168.656 193.667 168.656 192.6C168.656 191.48 168.456 190.413 168.056 189.4C167.683 188.387 167.136 187.493 166.416 186.72C165.696 185.947 164.869 185.333 163.936 184.88C163.003 184.427 161.989 184.2 160.896 184.2C160.203 184.2 159.483 184.333 158.736 184.6C157.989 184.867 157.269 185.253 156.576 185.76C155.909 186.24 155.349 186.787 154.896 187.4C154.443 188.013 154.163 188.667 154.056 189.36V195.76C154.483 196.747 155.056 197.64 155.776 198.44C156.496 199.213 157.323 199.84 158.256 200.32C159.216 200.773 160.203 201 161.216 201ZM184.903 203.4C183.41 203.4 182.023 203.12 180.743 202.56C179.49 201.973 178.397 201.187 177.463 200.2C176.557 199.187 175.85 198.04 175.343 196.76C174.837 195.453 174.583 194.08 174.583 192.64C174.583 191.147 174.837 189.76 175.343 188.48C175.85 187.173 176.57 186.027 177.503 185.04C178.437 184.027 179.53 183.24 180.783 182.68C182.063 182.093 183.45 181.8 184.943 181.8C186.437 181.8 187.81 182.093 189.063 182.68C190.317 183.24 191.41 184.027 192.343 185.04C193.277 186.027 193.997 187.173 194.503 188.48C195.01 189.76 195.263 191.147 195.263 192.64C195.263 194.08 195.01 195.453 194.503 196.76C193.997 198.04 193.277 199.187 192.343 200.2C191.437 201.187 190.343 201.973 189.063 202.56C187.81 203.12 186.423 203.4 184.903 203.4ZM177.343 192.68C177.343 194.227 177.677 195.64 178.343 196.92C179.037 198.173 179.957 199.173 181.103 199.92C182.25 200.64 183.517 201 184.903 201C186.29 201 187.557 200.627 188.703 199.88C189.85 199.133 190.77 198.12 191.463 196.84C192.157 195.533 192.503 194.12 192.503 192.6C192.503 191.053 192.157 189.64 191.463 188.36C190.77 187.08 189.85 186.067 188.703 185.32C187.557 184.573 186.29 184.2 184.903 184.2C183.517 184.2 182.25 184.587 181.103 185.36C179.983 186.133 179.077 187.16 178.383 188.44C177.69 189.693 177.343 191.107 177.343 192.68ZM216.413 207.84V203H199.773V182.16H202.493V200.6H213.293V182.16H216.013V200.6H218.852V207.84H216.413ZM231.977 203.4C230.483 203.4 229.097 203.12 227.817 202.56C226.537 201.973 225.43 201.187 224.497 200.2C223.563 199.187 222.83 198.027 222.297 196.72C221.79 195.413 221.537 194.013 221.537 192.52C221.537 190.573 221.977 188.787 222.857 187.16C223.763 185.533 225.003 184.24 226.577 183.28C228.15 182.293 229.937 181.8 231.937 181.8C233.99 181.8 235.777 182.293 237.297 183.28C238.843 184.267 240.057 185.573 240.937 187.2C241.817 188.8 242.257 190.56 242.257 192.48C242.257 192.693 242.257 192.907 242.257 193.12C242.257 193.307 242.243 193.453 242.217 193.56H224.377C224.51 195.053 224.923 196.387 225.617 197.56C226.337 198.707 227.257 199.627 228.377 200.32C229.523 200.987 230.763 201.32 232.097 201.32C233.457 201.32 234.737 200.973 235.937 200.28C237.163 199.587 238.017 198.68 238.497 197.56L240.857 198.2C240.43 199.187 239.777 200.08 238.897 200.88C238.017 201.68 236.977 202.307 235.777 202.76C234.603 203.187 233.337 203.4 231.977 203.4ZM224.297 191.6H239.697C239.59 190.08 239.177 188.747 238.457 187.6C237.763 186.453 236.843 185.56 235.697 184.92C234.577 184.253 233.337 183.92 231.977 183.92C230.617 183.92 229.377 184.253 228.257 184.92C227.137 185.56 226.217 186.467 225.497 187.64C224.803 188.787 224.403 190.107 224.297 191.6ZM255.493 203.4C253.973 203.4 252.573 203.12 251.293 202.56C250.04 201.973 248.933 201.173 247.973 200.16C247.04 199.147 246.306 197.987 245.773 196.68C245.266 195.373 245.013 193.987 245.013 192.52C245.013 190.547 245.453 188.747 246.333 187.12C247.213 185.493 248.44 184.2 250.013 183.24C251.586 182.28 253.4 181.8 255.453 181.8C257.4 181.8 259.12 182.253 260.613 183.16C262.106 184.04 263.213 185.24 263.933 186.76L261.293 187.6C260.706 186.533 259.88 185.707 258.813 185.12C257.773 184.507 256.613 184.2 255.333 184.2C253.946 184.2 252.68 184.56 251.533 185.28C250.386 186 249.466 186.987 248.773 188.24C248.106 189.493 247.773 190.92 247.773 192.52C247.773 194.093 248.12 195.52 248.813 196.8C249.506 198.08 250.426 199.107 251.573 199.88C252.72 200.627 253.986 201 255.373 201C256.28 201 257.146 200.84 257.973 200.52C258.826 200.2 259.56 199.773 260.173 199.24C260.813 198.68 261.24 198.08 261.453 197.44L264.133 198.24C263.76 199.227 263.133 200.12 262.253 200.92C261.4 201.693 260.386 202.307 259.213 202.76C258.066 203.187 256.826 203.4 255.493 203.4ZM277.251 203.4C275.731 203.4 274.331 203.12 273.051 202.56C271.798 201.973 270.691 201.173 269.731 200.16C268.798 199.147 268.064 197.987 267.531 196.68C267.024 195.373 266.771 193.987 266.771 192.52C266.771 190.547 267.211 188.747 268.091 187.12C268.971 185.493 270.198 184.2 271.771 183.24C273.344 182.28 275.158 181.8 277.211 181.8C279.158 181.8 280.878 182.253 282.371 183.16C283.864 184.04 284.971 185.24 285.691 186.76L283.051 187.6C282.464 186.533 281.638 185.707 280.571 185.12C279.531 184.507 278.371 184.2 277.091 184.2C275.704 184.2 274.438 184.56 273.291 185.28C272.144 186 271.224 186.987 270.531 188.24C269.864 189.493 269.531 190.92 269.531 192.52C269.531 194.093 269.878 195.52 270.571 196.8C271.264 198.08 272.184 199.107 273.331 199.88C274.478 200.627 275.744 201 277.131 201C278.038 201 278.904 200.84 279.731 200.52C280.584 200.2 281.318 199.773 281.931 199.24C282.571 198.68 282.998 198.08 283.211 197.44L285.891 198.24C285.518 199.227 284.891 200.12 284.011 200.92C283.158 201.693 282.144 202.307 280.971 202.76C279.824 203.187 278.584 203.4 277.251 203.4ZM298.969 203.4C297.475 203.4 296.089 203.12 294.809 202.56C293.529 201.973 292.422 201.187 291.489 200.2C290.555 199.187 289.822 198.027 289.289 196.72C288.782 195.413 288.529 194.013 288.529 192.52C288.529 190.573 288.969 188.787 289.849 187.16C290.755 185.533 291.995 184.24 293.569 183.28C295.142 182.293 296.929 181.8 298.929 181.8C300.982 181.8 302.769 182.293 304.289 183.28C305.835 184.267 307.049 185.573 307.929 187.2C308.809 188.8 309.249 190.56 309.249 192.48C309.249 192.693 309.249 192.907 309.249 193.12C309.249 193.307 309.235 193.453 309.209 193.56H291.369C291.502 195.053 291.915 196.387 292.609 197.56C293.329 198.707 294.249 199.627 295.369 200.32C296.515 200.987 297.755 201.32 299.089 201.32C300.449 201.32 301.729 200.973 302.929 200.28C304.155 199.587 305.009 198.68 305.489 197.56L307.849 198.2C307.422 199.187 306.769 200.08 305.889 200.88C305.009 201.68 303.969 202.307 302.769 202.76C301.595 203.187 300.329 203.4 298.969 203.4ZM291.289 191.6H306.689C306.582 190.08 306.169 188.747 305.449 187.6C304.755 186.453 303.835 185.56 302.689 184.92C301.569 184.253 300.329 183.92 298.969 183.92C297.609 183.92 296.369 184.253 295.249 184.92C294.129 185.56 293.209 186.467 292.489 187.64C291.795 188.787 291.395 190.107 291.289 191.6ZM96.96 250V229.16H113.72V250H111V231.6H99.68V250H96.96ZM128.614 250.4C127.121 250.4 125.734 250.12 124.454 249.56C123.201 248.973 122.108 248.187 121.174 247.2C120.268 246.187 119.561 245.04 119.054 243.76C118.548 242.453 118.294 241.08 118.294 239.64C118.294 238.147 118.548 236.76 119.054 235.48C119.561 234.173 120.281 233.027 121.214 232.04C122.148 231.027 123.241 230.24 124.494 229.68C125.774 229.093 127.161 228.8 128.654 228.8C130.148 228.8 131.521 229.093 132.774 229.68C134.028 230.24 135.121 231.027 136.054 232.04C136.988 233.027 137.708 234.173 138.214 235.48C138.721 236.76 138.974 238.147 138.974 239.64C138.974 241.08 138.721 242.453 138.214 243.76C137.708 245.04 136.988 246.187 136.054 247.2C135.148 248.187 134.054 248.973 132.774 249.56C131.521 250.12 130.134 250.4 128.614 250.4ZM121.054 239.68C121.054 241.227 121.388 242.64 122.054 243.92C122.748 245.173 123.668 246.173 124.814 246.92C125.961 247.64 127.228 248 128.614 248C130.001 248 131.268 247.627 132.414 246.88C133.561 246.133 134.481 245.12 135.174 243.84C135.868 242.533 136.214 241.12 136.214 239.6C136.214 238.053 135.868 236.64 135.174 235.36C134.481 234.08 133.561 233.067 132.414 232.32C131.268 231.573 130.001 231.2 128.614 231.2C127.228 231.2 125.961 231.587 124.814 232.36C123.694 233.133 122.788 234.16 122.094 235.44C121.401 236.693 121.054 238.107 121.054 239.68ZM141.203 254.84V247.56H141.563C142.177 247.56 142.737 247.373 143.243 247C143.75 246.627 144.203 245.973 144.603 245.04C145.003 244.107 145.323 242.827 145.563 241.2C145.803 239.547 145.963 237.467 146.043 234.96L146.243 229.16H159.803V247.56H162.603V254.84H160.163V250H143.603V254.84H141.203ZM145.683 247.56H157.083V231.6H148.683L148.563 235.2C148.483 237.68 148.31 239.76 148.043 241.44C147.803 243.093 147.483 244.413 147.083 245.4C146.71 246.36 146.243 247.08 145.683 247.56ZM166.687 250V229.16H179.127V231.6H169.407V250H166.687ZM191.818 250.4C190.324 250.4 188.938 250.12 187.658 249.56C186.404 248.973 185.311 248.187 184.378 247.2C183.471 246.187 182.764 245.04 182.258 243.76C181.751 242.453 181.498 241.08 181.498 239.64C181.498 238.147 181.751 236.76 182.258 235.48C182.764 234.173 183.484 233.027 184.418 232.04C185.351 231.027 186.444 230.24 187.698 229.68C188.978 229.093 190.364 228.8 191.858 228.8C193.351 228.8 194.724 229.093 195.978 229.68C197.231 230.24 198.324 231.027 199.258 232.04C200.191 233.027 200.911 234.173 201.418 235.48C201.924 236.76 202.178 238.147 202.178 239.64C202.178 241.08 201.924 242.453 201.418 243.76C200.911 245.04 200.191 246.187 199.258 247.2C198.351 248.187 197.258 248.973 195.978 249.56C194.724 250.12 193.338 250.4 191.818 250.4ZM184.258 239.68C184.258 241.227 184.591 242.64 185.258 243.92C185.951 245.173 186.871 246.173 188.018 246.92C189.164 247.64 190.431 248 191.818 248C193.204 248 194.471 247.627 195.618 246.88C196.764 246.133 197.684 245.12 198.378 243.84C199.071 242.533 199.418 241.12 199.418 239.6C199.418 238.053 199.071 236.64 198.378 235.36C197.684 234.08 196.764 233.067 195.618 232.32C194.471 231.573 193.204 231.2 191.818 231.2C190.431 231.2 189.164 231.587 188.018 232.36C186.898 233.133 185.991 234.16 185.298 235.44C184.604 236.693 184.258 238.107 184.258 239.68ZM211.927 250V231.6H204.487V229.16H222.087V231.6H214.647V250H211.927ZM234.669 250.4C233.176 250.4 231.789 250.12 230.509 249.56C229.256 248.973 228.162 248.187 227.229 247.2C226.322 246.187 225.616 245.04 225.109 243.76C224.602 242.453 224.349 241.08 224.349 239.64C224.349 238.147 224.602 236.76 225.109 235.48C225.616 234.173 226.336 233.027 227.269 232.04C228.202 231.027 229.296 230.24 230.549 229.68C231.829 229.093 233.216 228.8 234.709 228.8C236.202 228.8 237.576 229.093 238.829 229.68C240.082 230.24 241.176 231.027 242.109 232.04C243.042 233.027 243.762 234.173 244.269 235.48C244.776 236.76 245.029 238.147 245.029 239.64C245.029 241.08 244.776 242.453 244.269 243.76C243.762 245.04 243.042 246.187 242.109 247.2C241.202 248.187 240.109 248.973 238.829 249.56C237.576 250.12 236.189 250.4 234.669 250.4ZM227.109 239.68C227.109 241.227 227.442 242.64 228.109 243.92C228.802 245.173 229.722 246.173 230.869 246.92C232.016 247.64 233.282 248 234.669 248C236.056 248 237.322 247.627 238.469 246.88C239.616 246.133 240.536 245.12 241.229 243.84C241.922 242.533 242.269 241.12 242.269 239.6C242.269 238.053 241.922 236.64 241.229 235.36C240.536 234.08 239.616 233.067 238.469 232.32C237.322 231.573 236.056 231.2 234.669 231.2C233.282 231.2 232.016 231.587 230.869 232.36C229.749 233.133 228.842 234.16 228.149 235.44C227.456 236.693 227.109 238.107 227.109 239.68ZM249.538 250V229.16H259.938C261.111 229.16 262.098 229.413 262.898 229.92C263.698 230.4 264.298 231.027 264.698 231.8C265.125 232.573 265.338 233.4 265.338 234.28C265.338 235.4 265.071 236.413 264.538 237.32C264.005 238.2 263.231 238.867 262.218 239.32C263.418 239.667 264.391 240.293 265.138 241.2C265.885 242.107 266.258 243.2 266.258 244.48C266.258 245.6 265.978 246.573 265.418 247.4C264.885 248.227 264.138 248.867 263.178 249.32C262.245 249.773 261.165 250 259.938 250H249.538ZM252.138 248.04H259.858C260.551 248.04 261.178 247.867 261.738 247.52C262.325 247.147 262.778 246.667 263.098 246.08C263.445 245.493 263.618 244.88 263.618 244.24C263.618 243.547 263.458 242.92 263.138 242.36C262.818 241.773 262.391 241.307 261.858 240.96C261.325 240.613 260.711 240.44 260.018 240.44H252.138V248.04ZM252.138 238.56H259.218C259.911 238.56 260.525 238.373 261.058 238C261.591 237.627 262.005 237.147 262.298 236.56C262.591 235.973 262.738 235.36 262.738 234.72C262.738 233.76 262.418 232.92 261.778 232.2C261.165 231.48 260.365 231.12 259.378 231.12H252.138V238.56ZM270.944 250V229.16H273.664V238.08H276.784L283.784 229.16H286.904L278.944 239.28L287.904 250H284.704L276.784 240.6H273.664V250H270.944ZM291.726 250V229.2H294.446V246.32L307.126 229.16H309.566V250H306.846V233.16L294.366 250H291.726Z" fill="#DAC5A7" fill-opacity="0.8"/>
</svg>
